<?xml version="1.0" standalone="no"?>
<!DOCTYPE svg PUBLIC "-//W3C//DTD SVG 1.1//EN" "http://www.w3.org/Graphics/SVG/1.1/DTD/svg11.dtd" >
<svg xmlns="http://www.w3.org/2000/svg">
<metadata>
This is a custom SVG webfont generated by Font Squirrel.
Copyright   : URW Software Copyright 1994 by URW
</metadata>
<defs>
<font id="RenaultTLigRegular" horiz-adv-x="1242" vert-adv-y="2048" >
<font-face units-per-em="2048" ascent="1568" descent="-480" />
<missing-glyph horiz-adv-x="512" />
<glyph unicode=" " horiz-adv-x="512" vert-adv-y="0" />
<glyph unicode="!" horiz-adv-x="532" vert-adv-y="1497" d="M151 72q0 46 30 76q34 35 81 35q42 0 75 -31q33 -32 33 -77t-30 -78q-32 -33 -78 -33q-44 0 -78 31q-33 31 -33 77zM153 1291q0 57 45 88q32 22 74 22q39 0 72 -21q46 -28 46 -102q0 -20 -1 -26l-76 -887h-91l-67 890q-2 21 -2 36z" />
<glyph unicode="&#x22;" horiz-adv-x="759" vert-adv-y="1497" d="M137 1365h213l-49 -496h-115zM410 1365h213l-49 -496h-115z" />
<glyph unicode="#" horiz-adv-x="1374" vert-adv-y="1497" d="M109 386l26 121h250l74 351h-250l26 121h250l82 386h121l-82 -386h288l83 386h120l-82 -386h250l-26 -121h-249l-75 -351h250l-26 -121h-250l-82 -386h-121l82 386h-288l-83 -386h-120l82 386h-250zM505 507h289l75 351h-289z" />
<glyph unicode="$" horiz-adv-x="1136" vert-adv-y="1497" d="M127 78v338h114v-62q1 -200 122 -271q77 -46 172 -45v565q-165 54 -254 105q-152 86 -152 303q0 267 229 355q72 27 177 31v132h72v-132q189 -9 362 -89v-306h-116v55q0 136 -62 196q-37 35 -102 56q-35 11 -66 11q-4 0 -16 -1v-504q209 -71 283 -128q80 -60 111 -139 q26 -66 26 -156q0 -274 -234 -382q-84 -39 -186 -47v-130h-72v130q-104 2 -199 33q-92 30 -209 82zM313 1081q0 -174 222 -247v485q-73 -10 -121 -41q-101 -68 -101 -197zM607 39q85 18 142 79q77 81 77 198q0 153 -119 224q-37 22 -100 44v-545z" />
<glyph unicode="%" horiz-adv-x="1029" vert-adv-y="1497" d="M111 0l716 1359h86l-717 -1359h-85zM120 1128q0 133 47 187q50 57 153 57q107 0 155 -63q42 -56 42 -185q0 -136 -52 -187q-49 -49 -146 -49q-117 0 -165 70q-34 51 -34 170zM216 1127q0 -124 20 -157q23 -39 82 -39q62 0 84 44q20 40 20 141q0 139 -27 177 q-24 35 -81 35q-53 0 -78 -44q-20 -35 -20 -157zM509 231q0 131 47 186q50 57 153 57q108 0 156 -63q42 -56 42 -186q0 -135 -52 -186q-49 -49 -147 -49q-117 0 -165 70q-34 51 -34 171zM605 230q0 -125 20 -158q24 -39 82 -39q63 0 85 44q20 40 20 145q0 136 -27 173 q-25 35 -81 35q-54 0 -79 -44q-20 -35 -20 -156z" />
<glyph unicode="&#x26;" horiz-adv-x="1526" vert-adv-y="1497" d="M83 360q0 252 136 321q67 34 224 34h72l-91 132q-50 72 -72 120q-27 58 -27 135q0 150 109 226q106 73 279 73q161 0 337 -66v-338h-116v89q0 102 -34 162q-46 83 -174 83q-81 0 -137 -46q-68 -56 -68 -147q0 -68 64 -159l356 -511l203 236q20 23 20 35q0 14 -13 20 q-9 4 -47 4h-70v70h417v-70h-57q-55 0 -82 -12q-25 -11 -70 -62l-251 -289l155 -226q12 -18 48 -52q31 -30 63 -39q26 -9 72 -9h111v-74h-406l-187 242l-60 -69q-85 -100 -153 -148q-84 -60 -227 -60q-203 0 -270 117q-54 95 -54 278zM290 359q0 -176 47 -241 q38 -53 128 -53q82 0 138 39q44 31 102 98l92 107l-228 324h-62q-85 0 -106 -7q-71 -24 -94 -102q-17 -56 -17 -165z" />
<glyph unicode="'" horiz-adv-x="486" vert-adv-y="1497" d="M137 1365h213l-49 -496h-115z" />
<glyph unicode="(" horiz-adv-x="603" vert-adv-y="1497" d="M99 513q0 395 217 696q50 69 170 191l71 -51q-100 -143 -149 -247q-122 -259 -122 -612q0 -295 91 -525q56 -144 180 -297l-71 -55q-163 148 -269 363q-118 242 -118 537z" />
<glyph unicode=")" horiz-adv-x="603" vert-adv-y="1497" d="M53 -334q115 171 168 304q101 257 101 563q0 193 -31 329q-49 221 -159 380q-28 41 -79 107l69 51q137 -117 243 -314q146 -271 146 -589q0 -381 -208 -673q-61 -85 -181 -209z" />
<glyph unicode="*" vert-adv-y="1497" d="M276 1135l44 80l85 -48q107 -60 182 -114q-12 94 -12 215v97h92v-97v-59q0 -77 -11 -156q34 27 134 93l45 27l81 49l47 -80l-84 -49q-119 -68 -190 -98q57 -21 150 -73l45 -24l82 -46l-45 -79l-84 48q-80 41 -181 117q11 -85 12 -214v-99h-92v99q1 119 12 210 q-89 -64 -178 -116l-85 -49l-47 79l85 49q102 60 194 98q-102 38 -198 92z" />
<glyph unicode="+" horiz-adv-x="1161" vert-adv-y="1497" d="M65 618v121h455v455h121v-455h454v-121h-454v-454h-121v454h-455z" />
<glyph unicode="," horiz-adv-x="425" vert-adv-y="1497" d="M20 -226l150 496h213l-254 -496h-109z" />
<glyph unicode="-" horiz-adv-x="444" vert-adv-y="1497" d="M0 411v159h444v-159h-444z" />
<glyph unicode="." horiz-adv-x="425" vert-adv-y="1497" d="M101 76q0 42 29 74q32 34 83 34q47 0 77 -34q28 -32 28 -74q0 -41 -27 -72q-33 -37 -80 -37q-49 0 -81 37q-29 32 -29 72z" />
<glyph unicode="/" horiz-adv-x="781" vert-adv-y="1497" d="M59 -352l536 1717h91l-537 -1717h-90z" />
<glyph unicode="0" vert-adv-y="1497" d="M102 679q0 267 29 390q34 139 115 213q130 117 387 117q185 0 314 -76q132 -78 173 -294q25 -131 25 -330q0 -402 -93 -555q-109 -179 -434 -179q-359 0 -459 237q-57 135 -57 477zM317 670q0 -326 36 -443q32 -102 91 -147q66 -51 181 -51q128 0 197 70q71 70 93 279 q14 140 14 321q0 339 -49 461q-71 174 -259 174q-107 0 -184 -64q-76 -62 -102 -232q-18 -121 -18 -368z" />
<glyph unicode="1" vert-adv-y="1497" d="M319 1128l352 237h99v-1151q0 -83 3 -95q12 -48 75 -47h93v-72h-539v72h92q48 0 66 25q10 15 11 38q1 17 1 79v914q0 31 -6 41q-8 14 -29 14q-13 0 -20 -4q-1 0 -31 -20l-129 -87z" />
<glyph unicode="2" vert-adv-y="1497" d="M173 0v158q1 121 29 191q47 112 164 199q53 40 182 119q157 96 199 155q59 83 59 232q0 123 -52 194q-63 87 -192 87q-107 0 -174 -56q-42 -35 -54 -81t-12 -124v-87h-117v319q162 97 392 97q193 0 304 -93q114 -95 114 -279q0 -233 -161 -337q-49 -32 -265 -138 q-167 -81 -233 -147q-83 -84 -83 -204v-36h584q71 0 93 11q40 16 48 61q4 19 4 77v73h78v-391h-907z" />
<glyph unicode="3" vert-adv-y="1497" d="M217 50v320h121v-92q0 -92 14 -131q24 -64 96 -94q56 -23 127 -23q158 0 219 103q46 76 46 226q0 149 -76 214q-55 48 -146 63q-42 7 -127 7h-65v91h83q157 0 237 73q77 69 77 237q0 140 -56 210q-67 82 -196 82q-110 0 -170 -56q-63 -59 -63 -212v-76h-121v314 q74 37 128 57q107 38 231 38q210 0 332 -92q115 -87 115 -279q0 -167 -98 -252q-53 -45 -158 -75q109 -18 174 -63q114 -78 114 -274q0 -209 -114 -305q-118 -98 -344 -98q-245 0 -380 87z" />
<glyph unicode="4" vert-adv-y="1497" d="M32 403v117l657 845h188v-836h132q61 0 82 14q34 25 37 123h76l-12 -263h-315v-189q0 -83 3 -95q12 -48 75 -47h92v-72h-540v72h91q48 0 66 25q10 16 11 38q1 14 1 79v189h-644zM137 529h539v683z" />
<glyph unicode="5" vert-adv-y="1497" d="M215 701l48 664h701l-12 -176h-626l-26 -392q146 108 331 108q245 0 348 -168q68 -110 68 -289q0 -204 -79 -320q-59 -87 -162 -127q-97 -37 -207 -37q-202 0 -365 107v318h121v-89q0 -109 19 -154q47 -116 202 -116q150 0 212 116q50 93 50 264q0 173 -39 259 q-29 66 -96 103q-70 38 -154 38q-157 0 -286 -138z" />
<glyph unicode="6" vert-adv-y="1497" d="M171 689q0 278 28 393q43 173 164 250q105 66 282 66q233 0 403 -82v-332h-121v72q0 100 -16 144q-48 132 -234 132q-210 0 -263 -172q-33 -109 -33 -338v-142q36 36 81 60q121 67 264 67q191 0 281 -126q71 -99 71 -278q0 -258 -149 -362q-114 -80 -298 -80 q-295 0 -393 209q-37 81 -52 194q-15 111 -15 325zM381 597q1 -19 4 -148q4 -187 42 -291q24 -66 83 -103q53 -32 123 -32q253 0 253 358q0 151 -37 226q-50 101 -195 101q-118 0 -218 -67q-55 -38 -55 -44z" />
<glyph unicode="7" vert-adv-y="1497" d="M190 1004v361h899v-137q-168 -138 -292 -374q-186 -351 -186 -796v-58h-237q11 260 72 437q59 173 178 364q157 248 349 393h-565q-53 0 -68 -3q-37 -10 -52.5 -34.5t-15.5 -74.5v-78h-82z" />
<glyph unicode="8" vert-adv-y="1497" d="M175 333q0 154 42 232q59 110 214 135q-110 40 -157 88q-74 77 -74 246q0 165 65 245q96 120 360 120q234 0 335 -97q86 -84 86 -274q0 -153 -64 -232q-52 -65 -162 -96q118 -38 162 -75q85 -72 85 -287q0 -121 -28 -189q-48 -118 -178 -160q-86 -28 -225 -28 q-284 0 -389 115q-72 80 -72 257zM379 341q0 -122 37 -194q33 -63 80 -88q48 -26 127 -26q147 0 203 108q39 76 39 209q0 155 -48 224q-58 85 -199 85q-127 0 -190 -93q-31 -46 -40 -95q-9 -55 -9 -130zM392 1040q0 -127 36 -196q55 -106 200 -106q142 0 192 98 q39 75 39 203q0 127 -38 199q-51 96 -194 96q-111 0 -173 -62q-38 -38 -49 -87q-13 -61 -13 -145z" />
<glyph unicode="9" vert-adv-y="1497" d="M165 957q0 257 149 361q114 80 298 80q294 0 393 -209q38 -81 52 -193q15 -111 15 -324q0 -280 -28 -395q-43 -173 -164 -250q-105 -66 -283 -66q-230 0 -402 82v332h121v-72q0 -100 16 -143q48 -133 234 -133q210 0 263 172q33 108 33 338v142q-36 -36 -81 -60 q-121 -67 -264 -67q-191 0 -281 125q-71 100 -71 280zM357 977q0 -150 37 -225q50 -101 195 -101q118 0 218 67q55 38 55 44q-1 19 -4 148q-4 187 -41 291q-24 66 -84 103q-53 32 -123 32q-253 0 -253 -359z" />
<glyph unicode=":" horiz-adv-x="461" vert-adv-y="1497" d="M118 71q0 45 34 75t80 30q50 0 84 -36q28 -30 28 -70q0 -41 -32 -72q-33 -33 -81 -33q-55 0 -88 40q-25 29 -25 66zM118 871q0 48 33 79q34 32 79 32q41 0 74 -31q34 -31 34 -77q0 -47 -31 -79q-33 -33 -78 -33q-49 0 -83 37q-28 30 -28 72z" />
<glyph unicode=";" horiz-adv-x="461" vert-adv-y="1497" d="M36 -224l148 495h212l-252 -495h-108zM220 871q0 43 31 72q35 33 81 33q38 0 72 -25q40 -30 40 -81q0 -41 -30 -71q-33 -33 -82 -33q-52 0 -85 37q-27 29 -27 68z" />
<glyph unicode="&#x3c;" horiz-adv-x="1024" vert-adv-y="1497" d="M85 716v15l855 543v-100l-585 -377l585 -394v-264z" />
<glyph unicode="=" horiz-adv-x="1161" vert-adv-y="1497" d="M65 464v121h1030v-121h-1030zM65 772v121h1030v-121h-1030z" />
<glyph unicode="&#x3e;" horiz-adv-x="1024" vert-adv-y="1497" d="M85 139v100l586 377l-586 393v265l855 -577v-15z" />
<glyph unicode="?" horiz-adv-x="1100" vert-adv-y="1497" d="M136 958v338q197 106 425 106q174 0 285 -80q66 -48 99 -125q34 -81 34 -173q0 -178 -109 -260q-46 -35 -194 -94q-79 -32 -118 -63q-54 -45 -54 -143q0 -44 11 -102h-90q-32 126 -32 213q0 143 101 220q30 23 161 84q87 40 114 85q26 44 26 113q0 115 -65 177 q-73 68 -195 68t-191 -56q-55 -46 -68 -122q-8 -45 -8 -103v-83h-132zM362 76q0 39 25 69q33 40 84 40q43 0 76 -32q34 -32 34 -79q0 -44 -30 -75q-32 -33 -79 -33q-53 0 -86 40q-24 30 -24 70z" />
<glyph unicode="@" horiz-adv-x="1619" vert-adv-y="1497" d="M96 679q0 259 47 397q50 144 165 217q170 107 510 107q226 0 384 -62q217 -85 280 -271q42 -124 42 -334q0 -194 -58 -308q-27 -53 -81 -83q-71 -41 -169 -41h-343l11 50q-56 -36 -90 -51q-67 -30 -149 -30q-224 0 -224 225q0 134 52 302q51 168 144 237q83 62 199 62 q138 0 211 -88l30 48h167l-136 -638q-3 -16 -3 -27q0 -37 61 -37q79 0 119 59q51 77 51 357q0 297 -84 416q-53 75 -181 115q-110 35 -234 35q-224 0 -356 -99q-83 -62 -113 -194q-19 -87 -29 -233q-2 -38 -2 -256q0 -139 27 -247q38 -152 164 -213q119 -58 312 -58 q153 0 280 44q67 23 123 89h218q-160 -203 -586 -203q-527 0 -673 237q-63 102 -80 285q-6 66 -6 191zM602 487q0 -129 103 -129q108 0 201 98l97 456q-47 95 -154 95q-132 0 -183 -178q-64 -223 -64 -342z" />
<glyph unicode="A" horiz-adv-x="1314" vert-adv-y="1497" d="M-20 0v72h59q54 0 77 22q19 19 40 82l341 1045q5 16 5 31q0 40 -71 40h-67v73h393l407 -1208q18 -52 36 -68q14 -13 29 -15q13 -2 51 -2h54v-72h-513v72h56q69 0 69 33q0 15 -10 45l-106 317q-11 32 -19 39q-8 6 -42 6h-380q-27 0 -35 -4q-7 -6 -18 -38l-107 -331 q-6 -20 -6 -34q0 -33 50 -33h73v-72h-366zM382 610q0 -16 27 -16h340q35 0 35 12q0 10 -6 28l-196 606l-197 -612q-3 -9 -3 -18z" />
<glyph unicode="B" horiz-adv-x="1207" vert-adv-y="1497" d="M49 0v72h71q53 0 65.5 22.5t12.5 119.5v938q0 83 -3 94q-12 47 -72 47h-3h-71v72h670q140 0 195 -31q125 -71 125 -279q0 -245 -199 -298q98 -10 155 -43q80 -46 109 -129q29 -81 29 -193q0 -220 -87 -307q-55 -56 -142 -74q-56 -11 -168 -11h-687zM411 65h190 q117 0 163 13q102 28 133 127q20 62 20 182q0 141 -36 206q-44 79 -149 101q-44 9 -120 9h-201v-638zM411 780h129q126 0 162 13q86 30 115 123q15 49 15 132q0 134 -46 193q-32 41 -80 50q-34 6 -102 6h-193v-517z" />
<glyph unicode="C" horiz-adv-x="1171" vert-adv-y="1497" d="M114 703q0 236 29 353q48 193 181 268t336 75q208 0 417 -77v-321h-112v45q0 72 -28 142q-59 147 -257 147q-219 0 -300 -179q-28 -60 -38 -172q-10 -120 -10 -330q0 -306 36 -417q37 -115 135 -168q78 -41 178 -41q152 0 224 81q60 67 60 222v80h112v-365 q-184 -84 -415 -84q-346 0 -466 210q-56 97 -73 270q-9 92 -9 261z" />
<glyph unicode="D" horiz-adv-x="1278" vert-adv-y="1497" d="M49 0v72h65q48 0 66 25q10 16 11 38q1 14 1 79v938q0 83 -3 94q-13 47 -72 47h-3h-65v72h616q127 0 180 -6.5t98 -27.5q141 -67 189 -278q25 -114 25 -338q0 -255 -22 -383q-25 -150 -92 -223q-79 -87 -226 -101q-80 -8 -187 -8h-581zM405 66h162q137 0 217 33 q92 39 125 158q29 107 29 418q0 371 -45 476q-40 95 -121 127q-47 19 -146 19h-221v-1231z" />
<glyph unicode="E" horiz-adv-x="1171" vert-adv-y="1497" d="M48 0v72h72q48 0 66 25q10 15 11 38q1 17 1 79v938q0 83 -3 94q-12 47 -72 47h-3h-72v72h1001v-335h-112v99q-1 101 -44 136q-27 22 -69 25q-21 2 -64 2h-275q-39 0 -56 -12q-19 -16 -19 -61v-396q0 -39 7 -49q9 -13 47 -13h199q60 0 79 17q18 15 18 62v87h96v-411h-96 v62q0 57 -17 82q-17 22 -67 22h-216q-30 0 -40 -7q-10 -9 -10 -46v-463q0 -51 4 -62q9 -22 36 -29q15 -3 47 -3h308q69 0 98 16q51 26 63 91q5 28 5 95v118h111v-392h-1034z" />
<glyph unicode="F" horiz-adv-x="1100" vert-adv-y="1497" d="M47 0v72h72q48 0 66 25q10 15 11 38q1 17 1 79v938q0 83 -3 94q-12 47 -72 47h-3h-72v72h1001v-338h-112v86q0 74 -11 100q-22 56 -70 72q-18 6 -74 6h-295q-43 0 -59 -15q-19 -18 -19 -70v-408q0 -39 9 -48q10 -11 49 -11h213q50 1 67 20q12 15 12 75v72h98v-410h-98v59 q0 50 -3 62q-8 29 -32 37q-16 6 -58 6h-194q-42 0 -53 -10q-10 -10 -10 -49v-387q0 -83 3 -95q12 -47 72 -47h3h72v-72h-511z" />
<glyph unicode="G" vert-adv-y="1497" d="M119 684q0 233 33 370q54 219 228 294q123 52 299 52q146 0 319 -46q39 -10 120 -33v-317h-115v65q0 152 -85 211q-79 55 -221 55q-238 0 -312 -179q-47 -115 -47 -497q0 -312 36 -425q33 -100 92 -149q72 -58 202 -58q251 0 251 282v213q0 72 -7 84q-12 22 -35 28 q-14 4 -54 4h-56v72h351v-605q-52 -43 -124 -74q-161 -70 -343 -70q-187 0 -322 86q-144 91 -187 324q-23 125 -23 313z" />
<glyph unicode="H" horiz-adv-x="1384" vert-adv-y="1497" d="M48 0v72h69q53 0 65.5 22.5t12.5 119.5v938q0 83 -3 94q-12 47 -72 47h-3h-69v72h509v-72h-69q-48 0 -66 -25q-11 -15 -12 -38v-78v-376h566v376q0 83 -3 94q-12 47 -72 47h-3h-68v72h507v-72h-69q-48 0 -66 -25q-10 -15 -11 -38q-1 -14 -1 -78v-938q0 -83 3 -95 q12 -47 72 -47h3h69v-72h-507v72h68q48 0 66 25q10 15 11 38q1 14 1 79v486h-566v-486q0 -84 2 -95q9 -47 73 -47h3h69v-72h-509z" />
<glyph unicode="I" horiz-adv-x="603" vert-adv-y="1497" d="M48 0v72h66q48 0 66 25q10 16 11 38q1 14 1 79v938q0 83 -3 94q-12 47 -72 47h-3h-66v72h508v-72h-74q-48 0 -66 -25q-11 -15 -12 -38v-78v-938q0 -83 3 -95q12 -47 72 -47h3h74v-72h-508z" />
<glyph unicode="J" horiz-adv-x="568" vert-adv-y="1497" d="M-107 -201q123 10 187 58q72 55 92 146q10 39 10 214v935q0 83 -3 94q-12 47 -72 47h-3h-68v72h508v-72h-71q-48 0 -66 -25q-10 -15 -11 -38q-1 -14 -1 -78v-919q0 -113 -8 -172.5t-31 -106.5q-78 -166 -324 -209q-65 -11 -139 -13v67z" />
<glyph unicode="K" horiz-adv-x="1243" vert-adv-y="1497" d="M51 0v72h68q48 0 66 25q10 16 11 38q1 14 1 79v938q0 83 -3 94q-13 47 -72 47h-3h-68v72h505v-72h-68q-48 0 -66 -25q-11 -15 -12 -38v-78v-461l489 518q34 36 34 55q0 18 -19 23q-12 3 -54 3h-39v75h381v-75h-40q-53 0 -88 -21q-28 -19 -83 -77l-338 -356l448 -682 q36 -54 57 -69q21 -13 68 -13h36v-72h-328l-437 671l-87 -92v-365q0 -83 3 -95q12 -47 72 -47h3h68v-72h-505z" />
<glyph unicode="L" horiz-adv-x="1065" vert-adv-y="1497" d="M54 0v72h74q48 0 66 25q10 15 11 38q1 14 1 79v938q0 83 -3 94q-12 47 -72 47h-3h-74v72h513v-72h-71q-48 0 -66 -25q-10 -15 -11 -38q-1 -16 -1 -78v-963q1 -75 12 -94q15 -24 64 -24h282q85 0 118 45q21 30 24 76q3 36 3 101v100h113v-393h-980z" />
<glyph unicode="M" horiz-adv-x="1739" vert-adv-y="1497" d="M45 0v72h70q53 0 65.5 22.5t12.5 119.5v938q0 83 -3 94q-12 47 -72 47h-3h-70v72h382l445 -1131l447 1131h382v-72h-74q-48 0 -66 -25q-10 -15 -11 -38q-1 -14 -1 -78v-938q0 -83 3 -95q12 -47 72 -47h3h74v-72h-513v72h70q48 0 66 25q10 15 12 38v79v949l-452 -1163 h-157l-455 1163v-949q0 -83 3 -95q12 -47 72 -47h3h77v-72h-382z" />
<glyph unicode="N" horiz-adv-x="1349" vert-adv-y="1497" d="M48 0v72h72q48 0 66 25q10 15 12 38v79v938q0 83 -3 94q-12 47 -72 47h-3h-72v72h335l705 -1130v917q0 83 -3 94q-13 47 -72 47h-3h-73v72h382v-72h-72q-48 0 -66 -25q-10 -15 -11 -38q-1 -16 -1 -78v-1152h-201l-691 1111v-897q0 -83 3 -95q12 -47 72 -47h3h77v-72h-384 z" />
<glyph unicode="O" horiz-adv-x="1278" vert-adv-y="1497" d="M117 677q0 259 34 397q35 145 115 216q122 110 382 110q301 0 424 -192q53 -82 73 -220q15 -106 15 -281q0 -357 -62 -504q-100 -237 -440 -237q-380 0 -480 237q-45 107 -57 285q-4 66 -4 189zM335 662q0 -253 15 -355q23 -149 97 -212q71 -60 185 -60q164 0 232 108 q57 90 70 277q8 129 8 315q0 331 -49 449q-33 78 -109 118q-67 35 -150 35q-100 0 -176 -61q-73 -59 -95 -174q-28 -149 -28 -440z" />
<glyph unicode="P" horiz-adv-x="1171" vert-adv-y="1497" d="M54 0v72h70q53 0 65.5 22.5t12.5 119.5v938q0 83 -3 94q-12 47 -72 47h-3h-70v72h669q125 0 176 -16q102 -31 145 -121q38 -82 38 -218q0 -201 -74 -292q-62 -77 -170 -92q-50 -7 -115 -7h-309v-405q0 -83 3 -95q12 -47 72 -47h3h71v-72h-509zM414 693h192q131 0 186 52 q42 40 54 101q14 74 14 166q0 134 -27 191q-34 72 -114 90q-32 7 -97 7h-208v-607z" />
<glyph unicode="Q" horiz-adv-x="1278" vert-adv-y="1497" d="M130 834q12 201 53 315q90 251 466 251q303 0 431 -190q54 -81 74 -219q15 -109 15 -300q0 -347 -63 -492q-48 -109 -195 -197q30 -13 129 -65q81 -43 133 -43q80 0 172 108l53 -50l-272 -258q-165 113 -186 128q-211 142 -356 142q-131 0 -273 -136l-47 47 q60 54 161 127q-89 16 -167 97q-94 98 -117 282q-16 129 -16 279q0 84 5 174zM353 387q15 -194 80 -270q40 -47 99 -62l15 5q67 18 114 18q60 0 114 -23q115 62 151 230q25 115 25 438q0 338 -50 461q-32 79 -110 119q-66 34 -143 34q-143 0 -218 -99q-53 -70 -70 -226 q-18 -169 -18 -344q0 -139 11 -281z" />
<glyph unicode="R" horiz-adv-x="1172" vert-adv-y="1497" d="M49 0v72h69q53 0 65.5 22.5t12.5 119.5v938q0 83 -3 94q-12 47 -72 47h-3h-69v72h686q113 0 164 -21q153 -62 153 -301q0 -220 -114 -291q-39 -24 -133 -33l-38 -3q-11 -1 -23 -2l291 -549q24 -46 42 -65q27 -26 68 -27h36v-73h-291l-354 714h-128v-500q0 -83 3 -95 q12 -47 72 -47h3h72v-72h-509zM408 781h155q97 0 138 11q79 23 109 94q25 59 25 157q0 182 -90 234q-32 18 -74 21q-31 2 -82 2h-181v-519z" />
<glyph unicode="S" horiz-adv-x="1100" vert-adv-y="1497" d="M113 81v338h114v-62q0 -149 69 -228q76 -87 222 -87q139 0 218 79q74 74 74 203q0 114 -57 171q-46 47 -140 83q-24 10 -110 38q-129 42 -186 69q-127 59 -173 167q-29 69 -29 161q0 211 142 309q112 78 290 78q203 0 408 -90v-306h-116v55q0 134 -62 196q-69 68 -207 68 q-101 0 -171 -44q-98 -61 -98 -198q0 -118 87 -179q53 -36 190 -82q227 -74 299 -130q136 -104 136 -295q0 -216 -148 -331q-127 -99 -312 -99q-154 0 -335 71q-42 17 -105 45z" />
<glyph unicode="T" horiz-adv-x="1136" vert-adv-y="1497" d="M18 973v392h1099v-392h-111v108q0 213 -163 213h-3h-104q-42 0 -52 -14q-10 -15 -10 -60v-1006q0 -83 3 -95q12 -47 72 -47h3h71v-72h-511v72h71q48 0 66 25q10 16 12 38v79v1018q0 38 -10 49q-12 13 -52 13h-100h-14q-156 0 -157 -191v-130h-110z" />
<glyph unicode="U" vert-adv-y="1497" d="M20 1293v72h510v-72h-70q-48 0 -66 -25q-11 -15 -12 -38v-78v-785q0 -108 12 -149q48 -156 305 -156q206 0 271 120q23 42 27 99v128v743q0 83 -3 94q-12 47 -72 47h-3h-71v72h377v-72h-72q-48 0 -66 -25q-10 -15 -11 -38q-1 -14 -1 -78v-775q0 -158 -27 -222 q-49 -115 -179 -158q-88 -29 -227 -29q-211 0 -329 74q-98 62 -127 150q-18 55 -18 167v123v670q0 83 -3 94q-13 47 -72 47h-3h-70z" />
<glyph unicode="V" horiz-adv-x="1172" vert-adv-y="1497" d="M-33 1292v73h513v-73h-66q-49 0 -58 -7q-14 -12 -14 -30q0 -15 6 -34l303 -1054l319 1021q17 54 17 70q0 20 -15 27q-13 7 -54 7h-50v73h338v-73h-40q-58 0 -78 -21q-14 -15 -38 -87l-370 -1184h-200l-345 1199q-15 51 -30 70q-15 16 -32 20q-7 3 -49 3h-57z" />
<glyph unicode="W" horiz-adv-x="1740" vert-adv-y="1497" d="M-35 1291v74h515v-74h-78q-36 0 -48 -7.5t-12 -29.5q0 -13 6 -40l223 -987l301 1138h151l296 -1138l225 981q6 29 6 47q0 16 -5 22q-14 14 -58 14h-54v74h342v-74h-54q-50 0 -69 -19q-17 -17 -33 -84l-272 -1188h-192l-283 1052l-282 -1052h-188l-280 1198q-11 45 -15 55 q-14 27 -39 34q-12 4 -52 4h-51z" />
<glyph unicode="X" vert-adv-y="1497" d="M2 0v72h45q52 0 78 16q39 22 68 67l329 509l-331 554q-29 48 -45 61q-16 12 -36 13h-33h-42v73h508v-73h-58q-38 0 -51 -6t-13 -25q0 -17 16 -44l236 -396l263 409q10 15 10 34q0 16 -11 22q-10 6 -50 6h-46v73h363v-73h-54q-51 0 -74 -15q-21 -14 -52 -63l-298 -472 l338 -571q35 -59 59 -80q22 -19 56 -19h61v-72h-514v72h61q40 0 50 6q12 8 12 28q0 17 -26 60l-250 414l-273 -423q-26 -40 -26 -63q0 -22 49 -22h62v-72h-381z" />
<glyph unicode="Y" horiz-adv-x="1243" vert-adv-y="1497" d="M23 1290v75h510v-75h-64q-32 0 -43.5 -6t-11.5 -24q0 -9 15 -42l257 -555l319 558q19 32 19 47q0 12 -7 16q-10 6 -49 6h-58v75h348v-75h-50q-46 0 -66 -12q-22 -15 -51 -66l-374 -661v-337q0 -83 3 -95q12 -47 72 -47h3h71v-72h-516v72h76q48 0 66 25q10 15 11 38 q1 14 1 79v337l-318 650q-27 54 -51 72q-25 17 -80 17h-32z" />
<glyph unicode="Z" horiz-adv-x="1136" vert-adv-y="1497" d="M54 0v72l705 1222h-321l-88 1q-137 0 -137 -167v-149h-112v386h908v-71l-704 -1222h426q90 0 122 12q68 21 86 98q7 29 7 127v80h113v-389h-1005z" />
<glyph unicode="[" horiz-adv-x="603" vert-adv-y="1497" d="M115 -352v1717h468v-72h-158q-65 0 -86 -8q-34 -13 -44 -49q-6 -25 -6 -79v-1300q-1 -83 23 -110q18 -19 46 -24q12 -3 67 -3h158v-72h-468z" />
<glyph unicode="\" horiz-adv-x="781" vert-adv-y="1497" d="M76 1365h91l536 -1717h-90z" />
<glyph unicode="]" horiz-adv-x="603" vert-adv-y="1497" d="M20 -280h157q66 0 87 8q34 13 44 49q6 26 6 80v1300q1 82 -23 109q-18 19 -46 24q-12 3 -68 3h-157v72h468v-1717h-468v72z" />
<glyph unicode="^" horiz-adv-x="1024" vert-adv-y="1497" d="M-55 579l577 855h15l543 -855h-100l-377 585l-394 -585h-264z" />
<glyph unicode="_" horiz-adv-x="1024" vert-adv-y="1497" d="M34 -183h956v-115h-956v115z" />
<glyph unicode="`" horiz-adv-x="1024" vert-adv-y="1497" d="M264 1354h187l117 -267h-77z" />
<glyph unicode="a" horiz-adv-x="1029" vert-adv-y="1497" d="M80 228q0 140 68 211q61 63 248 101l261 54v119q0 86 -21 120q-50 78 -184 78q-105 0 -159 -51q-51 -48 -51 -162v-49h-114v258q165 72 378 72q178 0 268 -64q60 -43 73 -113q9 -49 9 -153v-424q0 -116 4 -125q13 -39 70 -39l60 1v-62h-333v126q-47 -46 -103 -80 q-131 -82 -249 -82q-127 0 -183 92q-42 69 -42 172zM275 245q0 -171 129 -171q86 0 191 95l62 56v296l-146 -34q-141 -33 -186 -78q-50 -49 -50 -164z" />
<glyph unicode="b" horiz-adv-x="1065" vert-adv-y="1497" d="M0 1304v61h331v-500q50 46 93 70q83 45 196 45q189 0 269 -129q51 -81 65 -182q12 -87 12 -186q0 -235 -68 -362q-85 -157 -287 -157q-121 0 -220 66q-30 20 -73 60l-35 -90h-151v1140q0 117 -4 126q-14 37 -70 38h-58zM331 178q96 -118 225 -118q141 0 177 147 q24 98 24 310q0 189 -32 266q-23 54 -74 81q-39 22 -88 22q-130 0 -232 -123v-585z" />
<glyph unicode="c" horiz-adv-x="958" vert-adv-y="1497" d="M108 466q0 201 40 299q51 124 189 178q94 36 206 36q174 0 323 -72v-263h-114v39q0 225 -201 225q-151 0 -200 -116q-29 -69 -33 -151q-3 -68 -3 -158q0 -176 7 -227q29 -222 229 -222q201 0 201 237v52h114v-280q-165 -79 -334 -79q-233 0 -336 122q-57 67 -73 166 q-15 98 -15 214z" />
<glyph unicode="d" horiz-adv-x="1100" vert-adv-y="1497" d="M112 475q0 261 80 379q83 122 268 122q171 0 291 -119v283q0 116 -4 126q-13 38 -70 38l-61 -1v62h335v-1140q0 -116 4 -125q13 -39 70 -39l59 1v-62h-333v81q-32 -37 -71 -60q-99 -59 -225 -59q-194 0 -275 146q-68 123 -68 367zM323 459q0 -192 28 -279 q41 -126 168 -126q137 0 232 127v576q-89 126 -232 126q-122 0 -162 -105q-34 -89 -34 -319z" />
<glyph unicode="e" horiz-adv-x="1029" vert-adv-y="1497" d="M109 474q0 235 84 361q95 142 332 142q208 0 298 -117q70 -92 84 -263q2 -34 6 -115h-598v-30q0 -173 28 -258q25 -74 79 -114q64 -48 151 -48q107 0 161 70q44 57 44 156v71h116v-273q-143 -94 -346 -94q-234 0 -338 129q-101 124 -101 383zM315 560h416q-5 156 -26 215 q-45 129 -174 129q-149 0 -193 -149q-18 -64 -23 -195z" />
<glyph unicode="f" horiz-adv-x="603" vert-adv-y="1497" d="M48 0v62h61q43 0 60 20q12 14 13 31q1 16 1 112v652h-135v66h135l-9 90q-2 19 -2 63q0 162 102 237q86 64 196 64q128 0 250 -54v-243h-111v41q0 98 -21 134q-27 45 -95 45q-133 0 -133 -173q0 -57 11 -129l11 -75h136v-66h-136v-652q0 -116 4 -125q14 -38 70 -38h61v-62 h-469z" />
<glyph unicode="g" horiz-adv-x="1029" vert-adv-y="1497" d="M60 -255q0 110 135 163q66 26 177 43q-111 27 -111 96q0 11 3 24q18 71 149 108q-103 2 -170 52q-72 53 -105 144q-26 73 -26 195q0 231 100 321q94 86 277 86q70 0 156 -8q82 -8 131 -8q63 0 161 11l71 8v-119l-227 32q107 -74 107 -319q0 -215 -98 -314 q-46 -46 -109 -66q-29 -9 -88 -18q-179 -28 -179 -84q0 -25 33 -33q20 -4 156 -21q185 -21 249 -41q148 -48 148 -183q0 -70 -48 -131q-63 -79 -212 -118q-105 -28 -228 -28q-214 0 -355 70q-97 48 -97 138zM230 -242q0 -57 60 -91q87 -50 232 -50q119 0 198 33q52 22 84 69 q20 28 20 63q0 50 -57 80q-38 20 -148 37l-143 24q-66 -10 -125 -33q-121 -48 -121 -132zM306 569q0 -156 28 -229q19 -51 70 -79q41 -24 94 -24q126 0 167 107q28 72 28 219q0 180 -30 251q-41 97 -164 97q-70 0 -121 -41q-43 -34 -58 -118q-14 -80 -14 -183z" />
<glyph unicode="h" horiz-adv-x="1136" vert-adv-y="1497" d="M40 0v62h61q43 0 60 20q12 14 13 31q1 16 1 112v915q0 117 -4 126q-14 37 -70 38h-61v61h335v-546q151 156 338 156q119 0 187 -73q44 -46 53 -108q6 -47 6 -114v-455q0 -116 4 -125q14 -38 70 -38h60v-62h-335v669q0 102 -18 138q-12 25 -41 41q-31 17 -63 17 q-106 0 -203 -88q-28 -26 -58 -68v-484q0 -116 4 -125q14 -38 70 -38h60v-62h-469z" />
<glyph unicode="i" horiz-adv-x="568" vert-adv-y="1497" d="M48 0v62h62q43 0 60 20q12 14 13 31q1 14 1 112v493q0 116 -4 125q-14 38 -70 38h-62v62h337v-718q0 -116 4 -125q14 -38 70 -38h59v-62h-470zM167 1245q0 47 32 78q33 32 77 32q42 0 74 -28q35 -31 35 -80q0 -44 -29 -76q-31 -34 -78 -34q-51 0 -83 35q-28 31 -28 73z " />
<glyph unicode="j" horiz-adv-x="532" vert-adv-y="1497" d="M-14 -397q86 2 138 52q31 32 39 96q4 36 4 129v838q0 116 -4 125q-14 38 -70 38h-61v62h337v-1031q0 -194 -76 -279q-47 -53 -133 -80q-59 -19 -122 -19q-16 0 -52 2v67zM148 1241q0 47 34 79q32 31 77 31q36 0 67 -24q40 -33 40 -83q0 -44 -30 -76q-32 -35 -79 -35 t-78 33q-31 32 -31 75z" />
<glyph unicode="k" horiz-adv-x="1100" vert-adv-y="1497" d="M27 0v62h61q43 0 60 20q12 14 13 31q1 16 1 112v915q0 117 -4 126q-14 37 -70 38h-61v61h336v-816l397 286q16 11 16 25q0 11 -10 16q-7 3 -44 3h-29v64h343v-64h-39h-4q-57 0 -129 -51l-295 -214l363 -462q38 -48 54 -62q30 -26 78 -26h26v-64h-296l-379 502l-52 -38 v-239q0 -116 4 -125q14 -38 70 -38h61v-62h-471z" />
<glyph unicode="l" horiz-adv-x="532" vert-adv-y="1497" d="M32 0v62h61q43 0 60 20q12 14 13 31q1 15 1 112v915q0 117 -4 126q-14 37 -70 38h-61v61h335v-1140q0 -116 4 -125q14 -38 70 -38h60v-62h-469z" />
<glyph unicode="m" horiz-adv-x="1668" vert-adv-y="1497" d="M36 0v62l62 -1q42 0 60 21q11 13 13 31q1 16 1 112v493q0 116 -4 125q-13 39 -70 39l-62 -1v62h336v-139q163 173 330 173q96 0 162 -62q46 -43 62 -118q168 180 339 180q122 0 190 -80q32 -39 41 -82q9 -41 9 -104v-486q0 -116 4 -125q13 -39 70 -39l60 1v-62h-336v703 q0 79 -11 103q-29 60 -110 60q-80 0 -165 -73q-38 -33 -81 -82v-486q0 -116 4 -125q13 -39 70 -39l60 1v-62h-335v711q0 82 -18 112q-27 44 -97 44q-117 0 -248 -156v-486q0 -116 4 -125q14 -39 70 -39l63 1v-62h-473z" />
<glyph unicode="n" horiz-adv-x="1136" vert-adv-y="1497" d="M43 0v62h60q43 0 60 20q11 14 13 31q1 16 1 112v493q0 116 -4 125q-14 38 -70 38h-60v62h334v-125q162 159 345 159q128 0 195 -76q51 -58 51 -182v-494q0 -116 4 -125q14 -38 70 -38h60v-62h-334v719q0 69 -18 101q-29 50 -112 50q-76 0 -142 -48q-50 -37 -119 -103 v-494q0 -116 4 -125q14 -38 70 -38h63v-62h-471z" />
<glyph unicode="o" horiz-adv-x="1065" vert-adv-y="1497" d="M107 477q0 163 32 256q46 135 163 198q86 45 232 45q237 0 338 -133q45 -57 64 -136q21 -87 21 -233q0 -155 -25 -244q-43 -152 -162 -218q-92 -51 -242 -51q-170 0 -264 64q-105 71 -139 230q-18 87 -18 222zM311 480q0 -222 29 -311q22 -68 58 -99q45 -38 133 -38 q151 0 195 139q29 89 29 316q0 231 -46 324q-46 95 -183 95q-134 0 -182 -107q-33 -75 -33 -319z" />
<glyph unicode="p" horiz-adv-x="1100" vert-adv-y="1497" d="M23 -369h62q43 1 60 21q12 14 13 31q1 16 1 112v923q0 116 -4 125q-14 38 -70 38h-62v62h337v-86q114 121 294 121q172 0 261 -129q80 -119 80 -369q0 -229 -63 -354q-41 -82 -122 -126q-74 -40 -169 -40q-153 0 -281 113v-278q0 -116 4 -125q14 -38 70 -39h61v-61h-472 v61zM360 172q92 -116 220 -116q94 0 146 64q38 47 50 157q10 91 10 233q0 202 -34 276q-23 53 -78 79q-39 19 -85 19q-129 0 -229 -124v-588z" />
<glyph unicode="q" horiz-adv-x="1100" vert-adv-y="1497" d="M109 446q0 252 67 374q42 77 127 120q72 36 160 36q154 0 284 -115l11 82h188v-1146q0 -116 4 -125q14 -38 70 -38h63v-62h-470v62h60q43 0 60 20q12 14 13 31q1 16 1 112v282q-120 -118 -290 -118q-179 0 -263 119q-85 118 -85 366zM319 441q0 -205 31 -280 q21 -54 75 -83q41 -23 92 -23q136 0 230 124v579q-85 122 -228 122q-62 0 -110 -34q-55 -39 -75 -145q-15 -84 -15 -260z" />
<glyph unicode="r" horiz-adv-x="816" vert-adv-y="1497" d="M38 0v62h62q43 0 60 20q12 14 13 31q1 16 1 112v493q0 116 -4 125q-14 38 -70 38h-62v62h335v-152q53 66 110 110q56 44 101 62q43 17 102 17q56 0 100 -22v-271h-101v29q0 53 -35 82q-26 21 -65 21q-63 0 -144 -64q-41 -32 -68 -68v-462q0 -116 4 -125q14 -38 70 -38h62 v-62h-471z" />
<glyph unicode="s" horiz-adv-x="887" vert-adv-y="1497" d="M91 685q0 129 84 203q102 90 299 90q133 0 300 -51v-238h-116v25q0 75 -11 99q-20 43 -64 69q-50 29 -116 29q-85 0 -146 -46q-58 -44 -58 -123q0 -85 71 -117q21 -10 143 -49q112 -35 142 -47q101 -42 142 -95q48 -60 48 -156q0 -149 -111 -233q-108 -82 -276 -82 q-153 0 -318 71v263h116v-49q0 -100 49 -150q60 -61 160 -61q80 0 140 43q62 44 62 129q0 81 -74 124q-35 21 -203 76q-91 30 -125 48q-138 71 -138 228z" />
<glyph unicode="t" horiz-adv-x="603" vert-adv-y="1497" d="M17 879v64q68 2 138 41q112 67 137 168q7 32 10 83h73v-292h201v-64h-201v-606q0 -114 4 -136q17 -91 117 -91q37 0 80 20v-65q-41 -23 -72.5 -30.5t-88.5 -7.5q-138 0 -198 80q-29 38 -36 82q-8 44 -8 105v649h-156z" />
<glyph unicode="u" horiz-adv-x="1136" vert-adv-y="1497" d="M46 881v62h335v-691q0 -85 14 -117q28 -61 121 -61q90 0 189 86q41 36 59 66v492q0 116 -4 125q-14 38 -70 38h-61v62h333v-718q0 -116 4 -125q14 -38 70 -38h61v-62h-333v121q-150 -156 -329 -156q-127 0 -198 73q-42 44 -51 98q-6 40 -6 117v465q0 116 -4 125 q-14 38 -70 38h-60z" />
<glyph unicode="v" horiz-adv-x="995" vert-adv-y="1497" d="M-29 883v60h502v-60h-71q-64 0 -64 -34q0 -12 8 -35l237 -647l226 630q12 33 12 56q0 15 -10 22q-10 8 -60 8h-49v60h322v-60h-34q-47 0 -68 -13q-20 -15 -40 -71l-292 -799h-148l-306 797q-20 51 -37 67q-21 19 -79 19h-49z" />
<glyph unicode="w" horiz-adv-x="1527" vert-adv-y="1497" d="M-32 878v65h494v-65h-67q-66 0 -66 -35q0 -12 6 -34l189 -648l261 782h136l226 -771l185 625q11 37 11 54q0 27 -56 27h-60v65h326v-65h-58q-47 0 -65 -26q-10 -15 -27 -71l-230 -781h-184l-204 703l-238 -703h-177l-241 787q-17 54 -33 72q-20 19 -74 19h-54z" />
<glyph unicode="x" horiz-adv-x="995" vert-adv-y="1497" d="M-20 0v63h43q57 0 82 17q31 20 58 62l226 343l-213 329q-25 41 -44 53q-21 11 -70 11h-39v65h479v-65h-51q-51 0 -57 -24q-4 -16 11 -40l154 -240l152 241q11 18 11 33q0 20 -15 26q-10 4 -37 4h-54v65h354v-65h-44q-48 0 -72 -12q-31 -14 -65 -67l-188 -294l226 -349 q30 -46 63 -70q31 -23 80 -23h37v-63h-489v63h58q52 0 52 23q0 22 -22 57l-172 271l-178 -271q-22 -33 -22 -48q0 -32 52 -32h59v-63h-365z" />
<glyph unicode="y" horiz-adv-x="959" vert-adv-y="1497" d="M-26 882v61h494v-61h-84q-51 0 -51 -34q0 -14 9 -41l206 -650l227 646q9 26 9 44t-13 27q-11 8 -50 8h-59v61h336v-61h-42q-48 0 -70 -19q-20 -18 -40 -72l-287 -781q-63 -171 -90 -226q-99 -200 -254 -200q-109 0 -201 51v218h109v-33q0 -144 121 -144q64 0 111 54 q29 33 74 133l19 44l-314 885q-20 55 -38 73q-15 13 -33 15q-12 2 -49 2h-40z" />
<glyph unicode="z" horiz-adv-x="923" vert-adv-y="1497" d="M59 0v70l543 808h-239q-93 -1 -132 -37q-41 -39 -41 -139v-48h-112v289h779v-65l-555 -817h241q105 1 135 14q55 23 72 83q10 36 10 96v68h115v-322h-816z" />
<glyph unicode="{" horiz-adv-x="603" vert-adv-y="1497" d="M47 472v69q63 13 96 40q38 33 40 86q1 4 1 37v511q0 81 34 116q36 34 116 34h181v-72h-20q-66 0 -87 -8q-34 -13 -44 -49q-6 -25 -6 -79v-514q-2 -93 -106 -136q46 -22 65 -39q41 -37 41 -98v-513q-1 -83 23 -110q18 -19 46 -24q12 -3 68 -3h20v-72h-181q-80 0 -116 34 q-34 35 -34 116v511q0 49 -8 75q-27 68 -129 88z" />
<glyph unicode="|" horiz-adv-x="1024" vert-adv-y="1497" d="M437 -341v1706h150v-1706h-150z" />
<glyph unicode="}" horiz-adv-x="603" vert-adv-y="1497" d="M89 -280h20q66 0 87 8q34 13 44 49q6 26 6 80v513q2 93 106 136q-46 22 -65 39q-41 37 -41 98v514q1 82 -23 109q-18 19 -46 24q-12 3 -68 3h-20v72h181q80 0 116 -34q34 -35 34 -116v-511q0 -49 8 -75q27 -68 129 -88v-69q-63 -13 -96 -41q-38 -32 -40 -85q-1 -5 -1 -37 v-511q0 -81 -34 -116q-36 -34 -116 -34h-181v72z" />
<glyph unicode="~" horiz-adv-x="1365" vert-adv-y="1497" d="M264 1269q121 211 278 211q54 0 177 -43q110 -38 161 -38q102 0 185 103l36 -23q-43 -80 -110 -139q-80 -70 -167 -70q-41 0 -175 44q-120 40 -175 40q-70 0 -117 -46q-13 -13 -57 -62z" />
<glyph horiz-adv-x="1057" vert-adv-y="1497" d="M-36 576l49 78h141q0 40 4 98h-170l50 78h127q16 139 59 246q126 311 407 311q143 0 244 -100l73 100h31v-403h-41q-23 119 -54 183q-75 159 -231 159q-236 0 -320 -320q-21 -79 -28 -176h579l-35 -78h-548v-14v-45v-19v-14v-6h503l-35 -78h-464q36 -529 347 -529 q144 0 250 107q35 35 79 103v-134q-149 -149 -337 -149q-263 0 -393 231q-83 150 -95 371h-192z" />
<glyph unicode="&#xa0;" horiz-adv-x="512" vert-adv-y="1497" />
<glyph unicode="&#xa1;" horiz-adv-x="532" vert-adv-y="1497" d="M151 -340q0 19 1 28l76 887h91l67 -889q3 -35 3 -44q0 -49 -45 -81q-33 -22 -74 -22q-40 0 -73 21q-46 29 -46 100zM165 871q0 46 30 78q32 33 80 33q42 0 75 -31q34 -32 34 -78q0 -44 -30 -75q-34 -35 -79 -35q-44 0 -77 31q-33 32 -33 77z" />
<glyph unicode="&#xa2;" horiz-adv-x="977" vert-adv-y="1497" d="M93 689q0 232 58 336q86 155 335 176v137h72v-137q173 -8 292 -71v-263h-114v39q1 209 -178 224v-873q68 7 112 43q65 52 66 194v52h114v-280q-143 -71 -292 -78v-173h-72v172q-154 9 -247 70q-93 62 -123 182q-23 88 -23 250zM300 705q0 -197 12 -257q23 -124 112 -167 q22 -11 62 -20v866q-80 -15 -124 -69q-45 -55 -57 -164q-5 -49 -5 -189z" />
<glyph unicode="&#xa3;" vert-adv-y="1497" d="M90 606v72h236l-19 113q-27 155 -27 224q0 177 100 273q59 56 171 82q90 21 175 21q82 0 129.5 -8.5t116.5 -35.5q42 -17 97 -44v-339h-140v125q0 236 -209 236q-124 0 -190 -80q-38 -45 -43 -105q-1 -12 -1 -64q0 -53 21 -210q11 -78 11 -157v-31h316v-72h-325 q-36 -290 -222 -453q118 40 278 40q38 0 151 -6q61 -4 126 -4q96 0 140 13q49 14 72 59q15 29 15 96v38h80v-360q-90 -29 -237 -29q-97 0 -216 14q-170 21 -242 21q-138 0 -304 -50l-49 108q84 49 137 121q61 83 80 177q17 82 17 180v35h-245z" />
<glyph unicode="&#xa4;" horiz-adv-x="1161" vert-adv-y="1497" d="M96 284l141 141q-87 127 -87 258t87 257l-141 141l85 86l140 -140q112 86 255 86q144 0 263 -86l140 140l85 -86l-140 -140q86 -120 86 -258q0 -139 -86 -259l140 -140l-85 -86l-141 141q-116 -86 -262 -86q-142 0 -255 85l-140 -140zM262 683q0 -128 93 -225 q90 -93 223 -93q134 0 227 93q93 94 93 224q0 135 -93 226q-96 93 -232 93q-128 0 -218 -93q-93 -97 -93 -225z" />
<glyph unicode="&#xa5;" horiz-adv-x="1243" vert-adv-y="1497" d="M63 1290v75h469v-75h-23q-71 0 -71 -31q0 -10 17 -41l237 -418l271 421q18 28 18 40q0 29 -55 29h-58v75h334v-75h-36q-47 0 -66 -12q-18 -13 -52 -66l-273 -431h223v-72h-269l-13 -21v-112h268v-72h-268v-290q0 -83 3 -95q12 -48 75 -47h71v-72h-516v72h76q48 0 66 25 q10 15 12 38v79v290h-268v72h268v112l-12 21h-269v72h228l-238 420q-32 57 -50 72q-25 17 -80 17h-19z" />
<glyph unicode="&#xa6;" horiz-adv-x="1024" vert-adv-y="1497" d="M437 314h150v-655h-150v655zM437 663v702h150v-702h-150z" />
<glyph unicode="&#xa7;" vert-adv-y="1497" d="M218 584q0 153 122 274q-92 74 -92 209q0 148 108 242q103 88 288 88q143 0 330 -55v-339h-96v64q0 125 -39 174q-61 79 -199 79q-108 0 -175 -56q-74 -63 -74 -161q0 -96 94 -155q48 -30 211 -103q154 -68 226 -127q103 -84 103 -223q0 -175 -112 -290q84 -75 84 -200 q0 -158 -116 -247q-115 -87 -277 -87q-148 0 -349 69v342h97v-57q0 -142 47 -197q32 -37 94 -59q55 -20 114 -20q97 0 166 52q80 60 80 160q0 64 -37 109q-39 46 -122 92q-27 14 -185 91q-158 76 -217 135q-74 73 -74 196zM338 630q0 -89 75 -143q45 -33 203 -109 q137 -66 215 -115q82 87 82 181q0 105 -148 189q-51 28 -223 108q-70 32 -122 63q-82 -76 -82 -174z" />
<glyph unicode="&#xa8;" horiz-adv-x="1024" vert-adv-y="1497" d="M170 1223q0 41 27 65t62 24q33 0 59 -25q27 -25 27 -62q0 -34 -23 -59q-27 -29 -65 -29q-39 0 -66 31q-21 24 -21 55zM674 1224q0 39 26 63q28 24 61 24q32 0 61 -27q27 -25 27 -61t-26 -62q-25 -25 -60 -25q-38 0 -64 27q-25 25 -25 61z" />
<glyph unicode="&#xa9;" horiz-adv-x="1597" vert-adv-y="1497" d="M82 681q0 188 102 365q103 178 276 272q150 81 342 81q199 0 371 -106q173 -106 264 -286q78 -154 78 -325q0 -201 -106 -373q-105 -173 -284 -265q-154 -78 -333 -78q-298 0 -500 210q-103 106 -159 250q-51 129 -51 255zM193 682q0 -156 87 -307t233 -229 q127 -69 281 -69q256 0 433 177q177 178 177 427q0 172 -89 318q-87 144 -241 223q-129 66 -288 66q-244 0 -416 -177q-85 -90 -134 -212q-43 -110 -43 -217zM448 694q0 227 59 316q74 110 275 110q127 0 258 -48v-205h-81v34q0 77 -40 123q-38 44 -124 44q-127 0 -174 -103 q-28 -62 -28 -299q0 -183 21 -248q40 -122 181 -122q89 0 130 47q34 39 34 129v55h81v-230q-114 -54 -257 -54q-211 0 -285 130q-50 87 -50 321z" />
<glyph unicode="&#xaa;" horiz-adv-x="803" vert-adv-y="1497" d="M82 574v109h640v-109h-640zM115 917q0 88 43 133q38 40 156 64l164 34v75q0 54 -14 76q-30 49 -115 49q-132 0 -132 -134v-31h-72v162q103 46 238 46q112 0 169 -41q38 -27 46 -70q6 -32 6 -97v-268q0 -73 2 -79q10 -24 45 -24h38v-39h-211v80q-105 -103 -222 -103 q-79 0 -114 58q-27 44 -27 109zM238 927q0 -107 81 -107q54 0 120 60l39 35v187l-92 -21q-88 -21 -117 -49q-31 -31 -31 -105z" />
<glyph unicode="&#xab;" horiz-adv-x="887" vert-adv-y="1497" d="M85 493l187 430h125l-156 -430l156 -429h-125zM467 492l188 431h127l-159 -432l157 -428h-125z" />
<glyph unicode="&#xac;" horiz-adv-x="1024" vert-adv-y="1497" d="M68 438v108h888v-546h-251v438h-637z" />
<glyph unicode="&#xad;" horiz-adv-x="444" vert-adv-y="1497" d="M0 411v159h444v-159h-444z" />
<glyph unicode="&#xae;" horiz-adv-x="1597" vert-adv-y="1497" d="M82 681q0 188 102 365q103 178 276 272q150 81 342 81q199 0 371 -106q173 -106 264 -286q78 -154 78 -325q0 -201 -106 -373q-105 -173 -284 -265q-154 -78 -333 -78q-298 0 -500 210q-103 106 -159 250q-51 129 -51 255zM193 682q0 -156 87 -307t233 -229 q127 -69 281 -69q256 0 433 177q177 178 177 427q0 172 -89 318q-87 144 -241 223q-129 66 -288 66q-244 0 -416 -177q-85 -90 -134 -212q-43 -110 -43 -217zM452 266v57h49q25 0 34 12q6 11 6 66v563q0 55 -6 66q-9 12 -34 12h-49v57h418q101 0 142 -38q56 -51 56 -163 q0 -134 -72 -179q-27 -17 -109 -23l170 -321q25 -51 59 -51h29v-58h-186l-212 429h-65v-294q0 -55 6 -66q9 -12 33 -12h50v-57h-319zM682 749h85q83 0 114 22q43 30 43 128q0 105 -51 134q-23 14 -90 14h-101v-298z" />
<glyph unicode="&#xaf;" horiz-adv-x="1024" vert-adv-y="1497" d="M33 1614v117h957v-117h-957z" />
<glyph unicode="&#xb0;" horiz-adv-x="806" vert-adv-y="1497" d="M96 1091q0 125 90 218q87 90 218 90q126 0 216 -90t90 -217t-90 -217q-89 -90 -220 -90q-128 0 -214 90q-90 94 -90 216zM207 1092q0 -79 57 -139q55 -57 137 -57q83 0 141 57q57 58 57 139q0 82 -57 139q-59 57 -143 57q-79 0 -135 -57q-57 -60 -57 -139z" />
<glyph unicode="&#xb1;" horiz-adv-x="1161" vert-adv-y="1497" d="M65 0v121h1030v-121h-1030zM65 618v121h455v455h121v-455h454v-121h-454v-413h-121v413h-455z" />
<glyph unicode="&#xb2;" horiz-adv-x="812" vert-adv-y="1497" d="M126 546v100q0 73 18 116q30 68 103 120q33 24 112 71q95 56 119 89q35 48 35 133q0 159 -143 159q-62 0 -101 -31q-22 -18 -30 -42.5t-8 -74.5v-58h-85v199q104 61 245 61q121 0 191 -56q72 -58 72 -173q0 -106 -62 -170q-34 -35 -127 -78q-144 -67 -183 -94 q-82 -58 -81 -143v-15h349q56 0 71 17q11 13 11 65v50h61v-245h-567z" />
<glyph unicode="&#xb3;" horiz-adv-x="812" vert-adv-y="1497" d="M153 578v200h87v-61q0 -75 25 -102q36 -38 114 -38q92 0 127 58q27 43 27 130q0 84 -44 121q-47 40 -161 40h-47v67h57q94 0 141 41q45 39 45 134q0 166 -147 166q-65 0 -100 -31q-37 -33 -37 -120v-52h-87v197q120 58 226 58q130 0 207 -56q73 -53 73 -170 q0 -77 -35 -125q-25 -35 -97 -65q92 -28 122 -77q29 -45 29 -125q0 -244 -286 -244q-153 0 -239 54z" />
<glyph unicode="&#xb4;" horiz-adv-x="1024" vert-adv-y="1497" d="M456 1086l117 267h186l-227 -267h-76z" />
<glyph unicode="&#xb5;" horiz-adv-x="1136" vert-adv-y="1497" d="M46 881v62h335v-691q0 -85 14 -116q28 -61 121 -61q90 0 189 86q41 36 59 65v492q0 116 -4 125q-14 38 -70 38h-61v62h333v-718q0 -116 4 -125q14 -38 70 -38h60v-62h-332v121q-150 -156 -329 -156q-109 0 -187 63q4 -48 40 -213q15 -66 15 -105q0 -37 -20 -66 q-27 -38 -78 -38q-61 0 -87 49q-13 23 -13 55q0 46 15 128q58 336 60 701v179q0 116 -4 125q-14 38 -70 38h-60z" />
<glyph unicode="&#xb6;" horiz-adv-x="1100" vert-adv-y="1497" d="M116 994q0 173 48 268q34 66 102 104q57 32 124 32q122 0 221 -116l11 83h448v-62h-62q-43 0 -60 -20q-12 -14 -13 -31q-1 -14 -1 -95v-1205q0 -116 4 -125q14 -37 70 -38h61v-62h-260v1571h-74v-1571h-259v61h60q43 0 61 22q11 12 13 30q1 16 1 112v685 q-90 -22 -203 -22q-292 0 -292 379z" />
<glyph unicode="&#xb7;" vert-adv-y="1497" d="M509 488q0 42 29 74q32 34 83 34q47 0 77 -34q28 -32 28 -75q0 -40 -27 -71q-33 -37 -80 -37q-49 0 -81 37q-29 32 -29 72z" />
<glyph unicode="&#xb8;" horiz-adv-x="1024" vert-adv-y="1497" d="M359 -348l27 55q30 -16 63 -16q60 0 95 35q30 30 30 72t-32 72q-38 36 -90 36q-26 0 -66 -13l-16 54q57 20 99 20q87 0 146 -55q49 -46 49 -117t-53 -120q-52 -49 -133 -49q-44 0 -119 26z" />
<glyph unicode="&#xb9;" horiz-adv-x="812" vert-adv-y="1497" d="M212 1220l222 145h70v-686q0 -55 6 -65q9 -12 35 -12h63v-56h-343v56h63q26 0 35 12q6 10 6 65v539q0 26 -14 26q-8 0 -28 -13l-84 -55z" />
<glyph unicode="&#xba;" horiz-adv-x="803" vert-adv-y="1497" d="M82 574v109h640v-109h-640zM134 1074q0 169 65 241q66 74 204 74q149 0 213 -84q54 -69 54 -233q0 -170 -60 -243q-65 -81 -210 -81q-176 0 -232 118q-34 70 -34 208zM263 1078q0 -142 18 -198q14 -43 37 -63q28 -24 84 -24q95 0 123 88q18 56 18 199q0 146 -29 205 q-29 60 -116 60q-84 0 -114 -68q-21 -47 -21 -199z" />
<glyph unicode="&#xbb;" horiz-adv-x="887" vert-adv-y="1497" d="M106 64l159 429l-159 431h126l188 -431l-188 -429h-126zM490 64l158 429l-158 431h126l186 -431l-186 -429h-126z" />
<glyph unicode="&#xbc;" horiz-adv-x="1730" vert-adv-y="1497" d="M212 1220l222 145h70v-686q0 -55 6 -65q9 -12 35 -12h63v-56h-343v56h63q26 0 35 12q6 10 6 65v539q0 26 -14 26q-8 0 -28 -13l-84 -55zM450 0l717 1359h112l-717 -1359h-112zM957 238v78l405 503h125v-493h74q34 0 45 7q19 13 21 74h59l-7 -169h-192v-105q0 -55 6 -65 q9 -12 35 -12h62v-56h-342v56h62q26 0 35 12q6 10 6 65v105h-394zM1042 326h309v377z" />
<glyph unicode="&#xbd;" horiz-adv-x="1730" vert-adv-y="1497" d="M212 1220l222 145h70v-686q0 -55 6 -65q9 -12 35 -12h63v-56h-343v56h63q26 0 35 12q6 10 6 65v539q0 26 -14 26q-8 0 -28 -13l-84 -55zM450 0l717 1359h112l-717 -1359h-112zM1044 0v100q0 74 18 116q29 67 102 120q33 24 112 71q95 56 120 89q35 47 35 133 q0 159 -144 159q-62 0 -101 -31q-24 -20 -31 -46q-7 -25 -7 -71v-58h-85v199q103 61 245 61q122 0 192 -56q72 -58 72 -173q0 -106 -62 -170q-34 -35 -127 -78q-144 -67 -184 -94q-82 -58 -81 -143v-15h350q56 0 71 17q11 13 11 65v50h61v-245h-567z" />
<glyph unicode="&#xbe;" horiz-adv-x="1730" vert-adv-y="1497" d="M153 578v200h87v-61q0 -75 25 -102q36 -38 114 -38q92 0 127 58q27 43 27 130q0 84 -44 121q-47 40 -161 40h-47v67h57q94 0 141 41q45 39 45 134q0 166 -147 166q-65 0 -100 -31q-37 -33 -37 -120v-52h-87v197q120 58 226 58q130 0 207 -56q73 -53 73 -170 q0 -77 -35 -125q-25 -35 -97 -65q92 -28 122 -77q29 -45 29 -125q0 -244 -286 -244q-153 0 -239 54zM451 0l716 1359h113l-718 -1359h-111zM958 238v78l404 503h125v-493h74q35 0 46 7q18 13 20 74h60l-8 -169h-192v-105q0 -55 6 -65q9 -12 35 -12h62v-56h-342v56h62 q26 0 35 12q6 10 6 65v105h-393zM1043 326h308v377z" />
<glyph unicode="&#xbf;" horiz-adv-x="1100" vert-adv-y="1497" d="M120 -81q0 177 109 260q46 35 194 94q79 32 118 63q54 44 54 144q0 44 -11 101h90q32 -128 32 -213q0 -143 -101 -220q-31 -24 -161 -84q-86 -40 -114 -86q-26 -43 -26 -113q0 -115 65 -177q73 -68 196 -68q121 0 190 56q55 46 68 123q8 45 8 102v84h132v-339 q-195 -106 -425 -106q-174 0 -285 80q-133 96 -133 299zM511 875q0 45 30 75q34 33 80 33q52 0 85 -41q24 -29 24 -69q0 -38 -25 -69q-32 -40 -83 -40q-45 0 -77 32q-34 32 -34 79z" />
<glyph unicode="&#xc0;" horiz-adv-x="1314" vert-adv-y="1497" d="M-20 0v72h59q54 0 77 22q19 19 40 82l341 1045q5 16 5 31q0 40 -71 40h-67v73h393l407 -1208q18 -52 36 -68q14 -13 29 -15q13 -2 51 -2h54v-72h-513v72h56q69 0 69 33q0 15 -10 45l-106 317q-11 32 -19 39q-8 6 -42 6h-380q-27 0 -35 -4q-7 -6 -18 -38l-107 -331 q-6 -20 -6 -34q0 -33 50 -33h73v-72h-366zM382 610q0 -16 27 -16h340q35 0 35 12q0 10 -6 28l-196 606l-197 -612q-3 -9 -3 -18zM364 1725h228l113 -261h-76z" />
<glyph unicode="&#xc1;" horiz-adv-x="1314" vert-adv-y="1497" d="M-20 0v72h59q54 0 77 22q19 19 40 82l341 1045q5 16 5 31q0 40 -71 40h-67v73h393l407 -1208q18 -52 36 -68q14 -13 29 -15q13 -2 51 -2h54v-72h-513v72h56q69 0 69 33q0 15 -10 45l-106 317q-11 32 -19 39q-8 6 -42 6h-380q-27 0 -35 -4q-7 -6 -18 -38l-107 -331 q-6 -20 -6 -34q0 -33 50 -33h73v-72h-366zM382 610q0 -16 27 -16h340q35 0 35 12q0 10 -6 28l-196 606l-197 -612q-3 -9 -3 -18zM555 1459l113 263h227l-264 -263h-76z" />
<glyph unicode="&#xc2;" horiz-adv-x="1314" vert-adv-y="1497" d="M-20 0v72h59q54 0 77 22q19 19 40 82l341 1045q5 16 5 31q0 40 -71 40h-67v73h393l407 -1208q18 -52 36 -68q14 -13 29 -15q13 -2 51 -2h54v-72h-513v72h56q69 0 69 33q0 15 -10 45l-106 317q-11 32 -19 39q-8 6 -42 6h-380q-27 0 -35 -4q-7 -6 -18 -38l-107 -331 q-6 -20 -6 -34q0 -33 50 -33h73v-72h-366zM382 610q0 -16 27 -16h340q35 0 35 12q0 10 -6 28l-196 606l-197 -612q-3 -9 -3 -18zM276 1477l226 237h268l213 -237h-98l-253 158l-259 -158h-97z" />
<glyph unicode="&#xc3;" horiz-adv-x="1314" vert-adv-y="1497" d="M-20 0v72h59q54 0 77 22q19 19 40 82l341 1045q5 16 5 31q0 40 -71 40h-67v73h393l407 -1208q18 -52 36 -68q14 -13 29 -15q13 -2 51 -2h54v-72h-513v72h56q69 0 69 33q0 15 -10 45l-106 317q-11 32 -19 39q-8 6 -42 6h-380q-27 0 -35 -4q-7 -6 -18 -38l-107 -331 q-6 -20 -6 -34q0 -33 50 -33h73v-72h-366zM382 610q0 -16 27 -16h340q35 0 35 12q0 10 -6 28l-196 606l-197 -612q-3 -9 -3 -18zM317 1498q1 89 24 134q48 93 160 93q44 0 89 -22q21 -11 66 -38q73 -44 119 -44q92 0 97 104h71q-1 -228 -173 -228q-62 0 -156 56 q-54 32 -71 39q-28 11 -54 11q-91 0 -99 -105h-73z" />
<glyph unicode="&#xc4;" horiz-adv-x="1314" vert-adv-y="1497" d="M-20 0v72h59q54 0 77 22q19 19 40 82l341 1045q5 16 5 31q0 40 -71 40h-67v73h393l407 -1208q18 -52 36 -68q14 -13 29 -15q13 -2 51 -2h54v-72h-513v72h56q69 0 69 33q0 15 -10 45l-106 317q-11 32 -19 39q-8 6 -42 6h-380q-27 0 -35 -4q-7 -6 -18 -38l-107 -331 q-6 -20 -6 -34q0 -33 50 -33h73v-72h-366zM382 610q0 -16 27 -16h340q35 0 35 12q0 10 -6 28l-196 606l-197 -612q-3 -9 -3 -18zM266 1621q0 40 27 67q30 31 72 31q43 0 74 -34q25 -28 25 -66t-26 -66q-29 -32 -73 -32q-46 0 -75 34q-24 28 -24 66zM790 1617q0 46 31 74 q29 26 67 26q36 0 65 -25q34 -29 34 -74q0 -42 -31 -71q-29 -27 -68 -27q-43 0 -73 33q-25 27 -25 64z" />
<glyph unicode="&#xc5;" horiz-adv-x="1314" vert-adv-y="1497" d="M-20 0v72h59q54 0 77 22q19 19 40 82l341 1045q5 16 5 31q0 40 -71 40h-67v73h393l407 -1208q18 -52 36 -68q14 -13 29 -15q13 -2 51 -2h54v-72h-513v72h56q69 0 69 33q0 15 -10 45l-106 317q-11 32 -19 39q-8 6 -42 6h-380q-27 0 -35 -4q-7 -6 -18 -38l-107 -331 q-6 -20 -6 -34q0 -33 50 -33h73v-72h-366zM382 610q0 -16 27 -16h340q35 0 35 12q0 10 -6 28l-196 606l-197 -612q-3 -9 -3 -18zM451 1628q0 71 60 117q53 40 118 40q68 0 123 -43q57 -44 57 -115q0 -63 -51 -106q-53 -46 -127 -46q-88 0 -141 58q-39 41 -39 95zM504 1628 q0 -42 32 -72q39 -36 93 -36q50 0 89 32q37 29 37 75q0 50 -42 82q-38 29 -86 29q-50 0 -87 -33q-36 -33 -36 -77z" />
<glyph unicode="&#xc6;" horiz-adv-x="1881" vert-adv-y="1497" d="M4 0v72h50q64 0 87 23q16 17 40 87l368 1051q6 17 7 31q1 30 -59 30h-95v71h1360v-340h-112v87q-1 94 -27 136q-22 33 -59 41q-20 5 -62 5h-307q-30 0 -39 -2.5t-18 -12.5q-15 -18 -15 -65v-379q0 -49 13 -62q15 -11 62 -11h205q46 0 60 20q11 17 11 81v80h98v-428h-98 v63q0 59 -12 80q-15 21 -70 22h-202q-44 0 -56 -10q-11 -14 -11 -60v-453q0 -55 14 -71q15 -14 66 -14h340q61 0 86 18q36 25 46 94q4 29 4 102v112h113v-398h-1030v72h71q50 0 67 25q9 13 10 38q1 18 1 79v414q0 34 -10 44q-10 8 -58 8h-346q-38 0 -49 -5q-12 -9 -26 -48 l-169 -486q-8 -22 -8 -33q0 -27 17 -32q12 -4 47 -4h52v-72h-357zM477 773q-1 -11 32 -11h336q44 0 55 12t11 61v382q0 52 -13 65q-15 12 -63 12h-120q-40 0 -58 -19q-16 -17 -32 -67l-140 -403q-8 -23 -8 -32z" />
<glyph unicode="&#xc7;" horiz-adv-x="1171" vert-adv-y="1497" d="M114 703q0 236 29 353q48 193 181 268t336 75q208 0 417 -77v-321h-112v45q0 72 -28 142q-59 147 -257 147q-219 0 -300 -179q-28 -60 -38 -172q-10 -120 -10 -330q0 -306 36 -417q37 -115 135 -168q78 -41 178 -41q152 0 224 81q60 67 60 222v80h112v-365 q-184 -84 -415 -84q-346 0 -466 210q-56 97 -73 270q-9 92 -9 261zM534 -423l27 55q29 -16 63 -16q60 0 95 35q30 30 30 72t-32 72q-38 36 -90 36q-25 0 -66 -13l-16 54q58 20 99 20q87 0 146 -55q49 -46 49 -117t-53 -120q-52 -49 -133 -49q-45 0 -119 26z" />
<glyph unicode="&#xc8;" horiz-adv-x="1171" vert-adv-y="1497" d="M48 0v72h72q48 0 66 25q10 15 11 38q1 17 1 79v938q0 83 -3 94q-12 47 -72 47h-3h-72v72h1001v-335h-112v99q-1 101 -44 136q-27 22 -69 25q-21 2 -64 2h-275q-39 0 -56 -12q-19 -16 -19 -61v-396q0 -39 7 -49q9 -13 47 -13h199q60 0 79 17q18 15 18 62v87h96v-411h-96 v62q0 57 -17 82q-17 22 -67 22h-216q-30 0 -40 -7q-10 -9 -10 -46v-463q0 -51 4 -62q9 -22 36 -29q15 -3 47 -3h308q69 0 98 16q51 26 63 91q5 28 5 95v118h111v-392h-1034zM319 1725h228l113 -261h-76z" />
<glyph unicode="&#xc9;" horiz-adv-x="1171" vert-adv-y="1497" d="M48 0v72h72q48 0 66 25q10 15 11 38q1 17 1 79v938q0 83 -3 94q-12 47 -72 47h-3h-72v72h1001v-335h-112v99q-1 101 -44 136q-27 22 -69 25q-21 2 -64 2h-275q-39 0 -56 -12q-19 -16 -19 -61v-396q0 -39 7 -49q9 -13 47 -13h199q60 0 79 17q18 15 18 62v87h96v-411h-96 v62q0 57 -17 82q-17 22 -67 22h-216q-30 0 -40 -7q-10 -9 -10 -46v-463q0 -51 4 -62q9 -22 36 -29q15 -3 47 -3h308q69 0 98 16q51 26 63 91q5 28 5 95v118h111v-392h-1034zM511 1459l113 263h227l-264 -263h-76z" />
<glyph unicode="&#xca;" horiz-adv-x="1171" vert-adv-y="1497" d="M48 0v72h72q48 0 66 25q10 15 11 38q1 17 1 79v938q0 83 -3 94q-12 47 -72 47h-3h-72v72h1001v-335h-112v99q-1 101 -44 136q-27 22 -69 25q-21 2 -64 2h-275q-39 0 -56 -12q-19 -16 -19 -61v-396q0 -39 7 -49q9 -13 47 -13h199q60 0 79 17q18 15 18 62v87h96v-411h-96 v62q0 57 -17 82q-17 22 -67 22h-216q-30 0 -40 -7q-10 -9 -10 -46v-463q0 -51 4 -62q9 -22 36 -29q15 -3 47 -3h308q69 0 98 16q51 26 63 91q5 28 5 95v118h111v-392h-1034zM232 1477l226 237h268l213 -237h-98l-253 158l-259 -158h-97z" />
<glyph unicode="&#xcb;" horiz-adv-x="1171" vert-adv-y="1497" d="M48 0v72h72q48 0 66 25q10 15 11 38q1 17 1 79v938q0 83 -3 94q-12 47 -72 47h-3h-72v72h1001v-335h-112v99q-1 101 -44 136q-27 22 -69 25q-21 2 -64 2h-275q-39 0 -56 -12q-19 -16 -19 -61v-396q0 -39 7 -49q9 -13 47 -13h199q60 0 79 17q18 15 18 62v87h96v-411h-96 v62q0 57 -17 82q-17 22 -67 22h-216q-30 0 -40 -7q-10 -9 -10 -46v-463q0 -51 4 -62q9 -22 36 -29q15 -3 47 -3h308q69 0 98 16q51 26 63 91q5 28 5 95v118h111v-392h-1034zM222 1621q0 40 27 67q30 31 72 31q43 0 74 -34q25 -28 25 -66t-26 -66q-29 -32 -73 -32 q-46 0 -75 34q-24 28 -24 66zM746 1617q0 46 31 74q29 26 67 26q36 0 65 -25q34 -29 34 -74q0 -42 -31 -71q-29 -27 -68 -27q-43 0 -73 33q-25 27 -25 64z" />
<glyph unicode="&#xcc;" horiz-adv-x="603" vert-adv-y="1497" d="M48 0v72h66q48 0 66 25q10 16 11 38q1 14 1 79v938q0 83 -3 94q-12 47 -72 47h-3h-66v72h508v-72h-74q-48 0 -66 -25q-11 -15 -12 -38v-78v-938q0 -83 3 -95q12 -47 72 -47h3h74v-72h-508zM36 1725h228l113 -261h-76z" />
<glyph unicode="&#xcd;" horiz-adv-x="603" vert-adv-y="1497" d="M48 0v72h66q48 0 66 25q10 16 11 38q1 14 1 79v938q0 83 -3 94q-12 47 -72 47h-3h-66v72h508v-72h-74q-48 0 -66 -25q-11 -15 -12 -38v-78v-938q0 -83 3 -95q12 -47 72 -47h3h74v-72h-508zM227 1459l113 263h227l-264 -263h-76z" />
<glyph unicode="&#xce;" horiz-adv-x="603" vert-adv-y="1497" d="M-11 1477l185 237h268l172 -237h-98l-212 158l-218 -158h-97zM48 0v72h66q48 0 66 25q10 16 11 38q1 14 1 79v938q0 83 -3 94q-12 48 -75 47h-66v72h508v-72h-74q-48 0 -66 -25q-10 -15 -11 -38q-1 -14 -1 -78v-938q0 -83 3 -95q12 -48 75 -47h74v-72h-508z" />
<glyph unicode="&#xcf;" horiz-adv-x="603" vert-adv-y="1497" d="M49 0v72h66q48 0 66 25q10 16 11 38q1 14 1 79v938q0 83 -3 94q-12 47 -72 47h-3h-66v72h508v-72h-74q-48 0 -66 -25q-11 -15 -12 -38v-78v-938q0 -83 3 -95q12 -47 72 -47h3h74v-72h-508zM34 1621q0 40 27 67q30 31 72 31q43 0 74 -34q25 -28 25 -66t-26 -66 q-29 -32 -73 -32q-46 0 -75 34q-24 28 -24 66zM367 1617q0 46 31 74q29 26 67 26q36 0 65 -25q34 -29 34 -74q0 -42 -31 -71q-29 -27 -68 -27q-43 0 -73 33q-25 27 -25 64z" />
<glyph unicode="&#xd0;" horiz-adv-x="1278" vert-adv-y="1497" d="M49 0v72h65q48 0 66 25q10 16 11 38q1 14 1 79v427h-143v98h143v413q0 83 -3 94q-13 48 -75 47h-65v72h615q128 0 181 -6.5t98 -27.5q141 -67 189 -278q25 -113 25 -337q0 -255 -22 -383q-25 -151 -92 -224q-79 -87 -227 -101q-80 -8 -186 -8h-581zM405 66h162 q137 0 217 33q92 39 125 159q29 106 29 417q0 372 -45 476q-40 95 -121 127q-47 19 -146 19h-221v-558h225v-98h-225v-575z" />
<glyph unicode="&#xd1;" horiz-adv-x="1349" vert-adv-y="1497" d="M48 0v72h72q48 0 66 25q10 15 12 38v79v938q0 83 -3 94q-12 47 -72 47h-3h-72v72h335l705 -1130v917q0 83 -3 94q-13 47 -72 47h-3h-73v72h382v-72h-72q-48 0 -66 -25q-10 -15 -11 -38q-1 -16 -1 -78v-1152h-201l-691 1111v-897q0 -83 3 -95q12 -47 72 -47h3h77v-72h-384 zM362 1498q1 89 24 134q48 93 160 93q44 0 89 -22q21 -11 66 -38q73 -44 119 -44q92 0 97 104h71q-1 -228 -173 -228q-62 0 -156 56q-54 32 -71 39q-28 11 -54 11q-91 0 -99 -105h-73z" />
<glyph unicode="&#xd2;" horiz-adv-x="1278" vert-adv-y="1497" d="M117 677q0 259 34 397q35 145 115 216q122 110 382 110q301 0 424 -192q53 -82 73 -220q15 -106 15 -281q0 -357 -62 -504q-100 -237 -440 -237q-380 0 -480 237q-45 107 -57 285q-4 66 -4 189zM335 662q0 -253 15 -355q23 -149 97 -212q71 -60 185 -60q164 0 232 108 q57 90 70 277q8 129 8 315q0 331 -49 449q-33 78 -109 118q-67 35 -150 35q-100 0 -176 -61q-73 -59 -95 -174q-28 -149 -28 -440zM374 1725h228l113 -261h-76z" />
<glyph unicode="&#xd3;" horiz-adv-x="1278" vert-adv-y="1497" d="M117 677q0 259 34 397q35 145 115 216q122 110 382 110q301 0 424 -192q53 -82 73 -220q15 -106 15 -281q0 -357 -62 -504q-100 -237 -440 -237q-380 0 -480 237q-45 107 -57 285q-4 66 -4 189zM335 662q0 -253 15 -355q23 -149 97 -212q71 -60 185 -60q164 0 232 108 q57 90 70 277q8 129 8 315q0 331 -49 449q-33 78 -109 118q-67 35 -150 35q-100 0 -176 -61q-73 -59 -95 -174q-28 -149 -28 -440zM565 1459l113 263h227l-264 -263h-76z" />
<glyph unicode="&#xd4;" horiz-adv-x="1278" vert-adv-y="1497" d="M117 677q0 259 34 397q35 145 115 216q122 110 382 110q301 0 424 -192q53 -82 73 -220q15 -106 15 -281q0 -357 -62 -504q-100 -237 -440 -237q-380 0 -480 237q-45 107 -57 285q-4 66 -4 189zM335 662q0 -253 15 -355q23 -149 97 -212q71 -60 185 -60q164 0 232 108 q57 90 70 277q8 129 8 315q0 331 -49 449q-33 78 -109 118q-67 35 -150 35q-100 0 -176 -61q-73 -59 -95 -174q-28 -149 -28 -440zM286 1477l226 237h268l213 -237h-98l-253 158l-259 -158h-97z" />
<glyph unicode="&#xd5;" horiz-adv-x="1278" vert-adv-y="1497" d="M117 677q0 259 34 397q35 145 115 216q122 110 382 110q301 0 424 -192q53 -82 73 -220q15 -106 15 -281q0 -357 -62 -504q-100 -237 -440 -237q-380 0 -480 237q-45 107 -57 285q-4 66 -4 189zM335 662q0 -253 15 -355q23 -149 97 -212q71 -60 185 -60q164 0 232 108 q57 90 70 277q8 129 8 315q0 331 -49 449q-33 78 -109 118q-67 35 -150 35q-100 0 -176 -61q-73 -59 -95 -174q-28 -149 -28 -440zM327 1498q1 89 24 134q48 93 160 93q44 0 89 -22q21 -11 66 -38q73 -44 119 -44q92 0 97 104h71q-1 -228 -173 -228q-62 0 -156 56 q-54 32 -71 39q-28 11 -54 11q-91 0 -99 -105h-73z" />
<glyph unicode="&#xd6;" horiz-adv-x="1278" vert-adv-y="1497" d="M117 677q0 259 34 397q35 145 115 216q122 110 382 110q301 0 424 -192q53 -82 73 -220q15 -106 15 -281q0 -357 -62 -504q-100 -237 -440 -237q-380 0 -480 237q-45 107 -57 285q-4 66 -4 189zM335 662q0 -253 15 -355q23 -149 97 -212q71 -60 185 -60q164 0 232 108 q57 90 70 277q8 129 8 315q0 331 -49 449q-33 78 -109 118q-67 35 -150 35q-100 0 -176 -61q-73 -59 -95 -174q-28 -149 -28 -440zM276 1621q0 40 27 67q30 31 72 31q43 0 74 -34q25 -28 25 -66t-26 -66q-29 -32 -73 -32q-46 0 -75 34q-24 28 -24 66zM800 1617q0 46 31 74 q29 26 67 26q36 0 65 -25q34 -29 34 -74q0 -42 -31 -71q-29 -27 -68 -27q-43 0 -73 33q-25 27 -25 64z" />
<glyph unicode="&#xd7;" horiz-adv-x="1160" vert-adv-y="1497" d="M144 328l350 351l-350 350l85 86l351 -351l350 351l86 -86l-351 -350l351 -351l-86 -85l-350 350l-351 -350z" />
<glyph unicode="&#xd8;" horiz-adv-x="1278" vert-adv-y="1497" d="M118 678q0 258 34 396q51 210 214 279q112 47 275 47q161 0 269 -51l58 118l71 -34l-61 -125q62 -49 95 -100q53 -81 73 -220q15 -106 15 -281q0 -357 -62 -505q-100 -236 -440 -236q-187 0 -309 60l-57 -114l-70 34l59 122q-99 78 -136 236q-28 121 -28 374zM336 554 q0 -214 33 -328l487 1020q-23 27 -56 47q-73 44 -162 44q-103 0 -179 -61q-73 -59 -95 -174q-17 -91 -25 -256q-3 -63 -3 -292zM412 133q73 -98 223 -98q161 0 230 108q57 90 69 277q9 128 9 313q0 308 -41 428z" />
<glyph unicode="&#xd9;" vert-adv-y="1497" d="M20 1293v72h510v-72h-70q-48 0 -66 -25q-11 -15 -12 -38v-78v-785q0 -108 12 -149q48 -156 305 -156q206 0 271 120q23 42 27 99v128v743q0 83 -3 94q-12 47 -72 47h-3h-71v72h377v-72h-72q-48 0 -66 -25q-10 -15 -11 -38q-1 -14 -1 -78v-775q0 -158 -27 -222 q-49 -115 -179 -158q-88 -29 -227 -29q-211 0 -329 74q-98 62 -127 150q-18 55 -18 167v123v670q0 83 -3 94q-13 47 -72 47h-3h-70zM424 1725h228l113 -261h-76z" />
<glyph unicode="&#xda;" vert-adv-y="1497" d="M20 1293v72h510v-72h-70q-48 0 -66 -25q-11 -15 -12 -38v-78v-785q0 -108 12 -149q48 -156 305 -156q206 0 271 120q23 42 27 99v128v743q0 83 -3 94q-12 47 -72 47h-3h-71v72h377v-72h-72q-48 0 -66 -25q-10 -15 -11 -38q-1 -14 -1 -78v-775q0 -158 -27 -222 q-49 -115 -179 -158q-88 -29 -227 -29q-211 0 -329 74q-98 62 -127 150q-18 55 -18 167v123v670q0 83 -3 94q-13 47 -72 47h-3h-70zM616 1459l113 263h227l-264 -263h-76z" />
<glyph unicode="&#xdb;" vert-adv-y="1497" d="M20 1293v72h510v-72h-70q-48 0 -66 -25q-11 -15 -12 -38v-78v-785q0 -108 12 -149q48 -156 305 -156q206 0 271 120q23 42 27 99v128v743q0 83 -3 94q-12 47 -72 47h-3h-71v72h377v-72h-72q-48 0 -66 -25q-10 -15 -11 -38q-1 -14 -1 -78v-775q0 -158 -27 -222 q-49 -115 -179 -158q-88 -29 -227 -29q-211 0 -329 74q-98 62 -127 150q-18 55 -18 167v123v670q0 83 -3 94q-13 47 -72 47h-3h-70zM336 1477l226 237h268l213 -237h-98l-253 158l-259 -158h-97z" />
<glyph unicode="&#xdc;" vert-adv-y="1497" d="M20 1293v72h510v-72h-70q-48 0 -66 -25q-11 -15 -12 -38v-78v-785q0 -108 12 -149q48 -156 305 -156q206 0 271 120q23 42 27 99v128v743q0 83 -3 94q-12 47 -72 47h-3h-71v72h377v-72h-72q-48 0 -66 -25q-10 -15 -11 -38q-1 -14 -1 -78v-775q0 -158 -27 -222 q-49 -115 -179 -158q-88 -29 -227 -29q-211 0 -329 74q-98 62 -127 150q-18 55 -18 167v123v670q0 83 -3 94q-13 47 -72 47h-3h-70zM326 1621q0 40 27 67q30 31 72 31q43 0 74 -34q25 -28 25 -66t-26 -66q-29 -32 -73 -32q-46 0 -75 34q-24 28 -24 66zM850 1617q0 46 31 74 q29 26 67 26q36 0 65 -25q34 -29 34 -74q0 -42 -31 -71q-29 -27 -68 -27q-43 0 -73 33q-25 27 -25 64z" />
<glyph unicode="&#xdd;" horiz-adv-x="1243" vert-adv-y="1497" d="M23 1290v75h510v-75h-64q-32 0 -43.5 -6t-11.5 -24q0 -9 15 -42l257 -555l319 558q19 32 19 47q0 12 -7 16q-10 6 -49 6h-58v75h348v-75h-50q-46 0 -66 -12q-22 -15 -51 -66l-374 -661v-337q0 -83 3 -95q12 -47 72 -47h3h71v-72h-516v72h76q48 0 66 25q10 15 11 38 q1 14 1 79v337l-318 650q-27 54 -51 72q-25 17 -80 17h-32zM616 1459l113 263h227l-264 -263h-76z" />
<glyph unicode="&#xde;" horiz-adv-x="1162" vert-adv-y="1497" d="M48 0v72h66q48 0 66 25q10 16 11 38q1 14 1 79v938q0 83 -3 94q-12 48 -75 47h-66v72h508v-72h-74q-48 0 -66 -25q-11 -15 -12 -38v-78v-87h309q125 0 176 -16q102 -31 145 -121q38 -82 38 -218q0 -201 -74 -292q-62 -77 -170 -92q-50 -7 -115 -7h-309v-105q0 -83 3 -95 q12 -48 75 -47h74v-72h-508zM404 393h192q130 0 186 52q42 40 54 101q14 74 14 166q0 134 -27 191q-34 72 -114 90q-32 7 -98 7h-207v-607z" />
<glyph unicode="&#xdf;" vert-adv-y="1497" d="M8 0v64h88q47 1 62 22q8 11 10 32q2 18 2 117v630h-162v65h162v103q0 145 25 198q79 169 351 169q191 0 293 -76q95 -71 95 -188q0 -70 -43 -141q-12 -20 -57 -85q-56 -80 -56 -129q0 -60 89 -111q161 -92 207 -129q110 -85 110 -253q0 -141 -90 -229q-94 -94 -263 -94 q-121 0 -241 46v272h113v-65q0 -85 26 -123q35 -52 115 -52q75 0 122 55q41 49 41 122q0 71 -37 112q-39 42 -171 116q-93 52 -134 95q-51 55 -51 139q0 64 33 139q7 14 41 79q74 139 74 231q0 85 -58 140q-52 49 -145 49q-89 0 -143 -45q-32 -27 -40 -62q-6 -28 -6 -89 v-1124h-362z" />
<glyph unicode="&#xe0;" horiz-adv-x="1029" vert-adv-y="1497" d="M80 228q0 140 68 211q61 63 248 101l261 54v119q0 86 -21 120q-50 78 -184 78q-105 0 -159 -51q-51 -48 -51 -162v-49h-114v258q165 72 378 72q178 0 268 -64q60 -43 73 -113q9 -49 9 -153v-424q0 -116 4 -125q13 -39 70 -39l60 1v-62h-333v126q-47 -46 -103 -80 q-131 -82 -249 -82q-127 0 -183 92q-42 69 -42 172zM275 245q0 -171 129 -171q86 0 191 95l62 56v296l-146 -34q-141 -33 -186 -78q-50 -49 -50 -164zM267 1354h187l117 -267h-77z" />
<glyph unicode="&#xe1;" horiz-adv-x="1029" vert-adv-y="1497" d="M80 228q0 140 68 211q61 63 248 101l261 54v119q0 86 -21 120q-50 78 -184 78q-105 0 -159 -51q-51 -48 -51 -162v-49h-114v258q165 72 378 72q178 0 268 -64q60 -43 73 -113q9 -49 9 -153v-424q0 -116 4 -125q13 -39 70 -39l60 1v-62h-333v126q-47 -46 -103 -80 q-131 -82 -249 -82q-127 0 -183 92q-42 69 -42 172zM275 245q0 -171 129 -171q86 0 191 95l62 56v296l-146 -34q-141 -33 -186 -78q-50 -49 -50 -164zM459 1086l117 267h186l-227 -267h-76z" />
<glyph unicode="&#xe2;" horiz-adv-x="1029" vert-adv-y="1497" d="M80 228q0 140 68 211q61 63 248 101l261 54v119q0 86 -21 120q-50 78 -184 78q-105 0 -159 -51q-51 -48 -51 -162v-49h-114v258q165 72 378 72q178 0 268 -64q60 -43 73 -113q9 -49 9 -153v-424q0 -116 4 -125q13 -39 70 -39l60 1v-62h-333v126q-47 -46 -103 -80 q-131 -82 -249 -82q-127 0 -183 92q-42 69 -42 172zM275 245q0 -171 129 -171q86 0 191 95l62 56v296l-146 -34q-141 -33 -186 -78q-50 -49 -50 -164zM236 1093l132 242h297l128 -242h-88l-191 168l-190 -168h-88z" />
<glyph unicode="&#xe3;" horiz-adv-x="1029" vert-adv-y="1497" d="M80 228q0 140 68 211q61 63 248 101l261 54v119q0 86 -21 120q-50 78 -184 78q-105 0 -159 -51q-51 -48 -51 -162v-49h-114v258q165 72 378 72q178 0 268 -64q60 -43 73 -113q9 -49 9 -153v-424q0 -116 4 -125q13 -39 70 -39l60 1v-62h-333v126q-47 -46 -103 -80 q-131 -82 -249 -82q-127 0 -183 92q-42 69 -42 172zM275 245q0 -171 129 -171q86 0 191 95l62 56v296l-146 -34q-141 -33 -186 -78q-50 -49 -50 -164zM202 1126q0 89 25 139q21 42 63 66q42 25 93 25q45 0 92 -23q17 -8 65 -36q74 -44 110 -44q69 0 92 44q9 18 16 59h69 q-1 -66 -12 -107q-32 -120 -167 -120q-57 0 -155 58q-78 46 -117 46q-98 0 -100 -107h-74z" />
<glyph unicode="&#xe4;" horiz-adv-x="1029" vert-adv-y="1497" d="M80 228q0 140 68 211q61 63 248 101l261 54v119q0 86 -21 120q-50 78 -184 78q-105 0 -159 -51q-51 -48 -51 -162v-49h-114v258q165 72 378 72q178 0 268 -64q60 -43 73 -113q9 -49 9 -153v-424q0 -116 4 -125q13 -39 70 -39l60 1v-62h-333v126q-47 -46 -103 -80 q-131 -82 -249 -82q-127 0 -183 92q-42 69 -42 172zM275 245q0 -171 129 -171q86 0 191 95l62 56v296l-146 -34q-141 -33 -186 -78q-50 -49 -50 -164zM173 1223q0 41 27 65t62 24q33 0 59 -25q27 -25 27 -62q0 -34 -23 -59q-27 -29 -65 -29q-39 0 -66 31q-21 24 -21 55z M677 1224q0 39 26 63q28 24 61 24q32 0 61 -27q27 -25 27 -61t-26 -62q-25 -25 -60 -25q-38 0 -64 27q-25 25 -25 61z" />
<glyph unicode="&#xe5;" horiz-adv-x="1029" vert-adv-y="1497" d="M80 228q0 140 68 211q61 63 248 101l261 54v119q0 86 -21 120q-50 78 -184 78q-105 0 -159 -51q-51 -48 -51 -162v-49h-114v258q165 72 378 72q178 0 268 -64q60 -43 73 -113q9 -49 9 -153v-424q0 -116 4 -125q13 -39 70 -39l60 1v-62h-333v126q-47 -46 -103 -80 q-131 -82 -249 -82q-127 0 -183 92q-42 69 -42 172zM275 245q0 -171 129 -171q86 0 191 95l62 56v296l-146 -34q-141 -33 -186 -78q-50 -49 -50 -164zM336 1268q0 71 60 116q52 40 117 40q68 0 123 -43q57 -44 57 -115q0 -61 -51 -105q-52 -46 -127 -46q-88 0 -140 57 q-39 42 -39 96zM389 1267q0 -41 32 -72q38 -35 92 -35q51 0 90 31q36 29 36 75q0 50 -42 81q-37 29 -85 29q-51 0 -87 -33q-36 -32 -36 -76z" />
<glyph unicode="&#xe6;" horiz-adv-x="1562" vert-adv-y="1497" d="M82 233q0 205 139 281q67 36 145 40q51 3 132 3h159v109q0 128 -30 175q-46 70 -169 70q-114 0 -166 -55q-48 -50 -48 -169v-37h-113v259q186 70 384 70q181 0 280 -80q55 36 100 52q75 28 177 28q226 0 311 -145q70 -119 70 -304v-54h-596q1 -27 5 -151q5 -132 61 -205 q70 -90 193 -90q203 0 203 242v55h118v-273q-160 -94 -344 -94q-192 0 -299 87q-39 31 -77 88q-58 -51 -107 -84q-135 -89 -266 -89q-152 0 -219 103q-43 65 -43 168zM273 244q0 -81 33 -122q43 -53 112 -53q109 0 263 137q-19 61 -22 131q-2 52 -2 139h-122q-93 0 -130 -13 q-75 -25 -107 -86q-25 -48 -25 -133zM858 557h416q-6 128 -18 186q-31 161 -182 161q-164 0 -198 -170q-13 -66 -18 -177z" />
<glyph unicode="&#xe7;" horiz-adv-x="958" vert-adv-y="1497" d="M108 466q0 201 40 299q51 124 189 178q94 36 206 36q174 0 323 -72v-263h-114v39q0 225 -201 225q-151 0 -200 -116q-29 -69 -33 -151q-3 -68 -3 -158q0 -176 7 -227q29 -222 229 -222q201 0 201 237v52h114v-280q-165 -79 -334 -79q-233 0 -336 122q-57 67 -73 166 q-15 98 -15 214zM400 -368l24 50q26 -15 57 -15q53 0 85 32q27 26 27 64t-29 65q-34 32 -81 32q-22 0 -59 -11l-15 49q53 17 90 17q78 0 131 -50q44 -41 44 -104q0 -64 -47 -108q-48 -44 -121 -44q-40 0 -106 23z" />
<glyph unicode="&#xe8;" horiz-adv-x="1029" vert-adv-y="1497" d="M109 474q0 235 84 361q95 142 332 142q208 0 298 -117q70 -92 84 -263q2 -34 6 -115h-598v-30q0 -173 28 -258q25 -74 79 -114q64 -48 151 -48q107 0 161 70q44 57 44 156v71h116v-273q-143 -94 -346 -94q-234 0 -338 129q-101 124 -101 383zM315 560h416q-5 156 -26 215 q-45 129 -174 129q-149 0 -193 -149q-18 -64 -23 -195zM267 1354h187l117 -267h-77z" />
<glyph unicode="&#xe9;" horiz-adv-x="1029" vert-adv-y="1497" d="M109 474q0 235 84 361q95 142 332 142q208 0 298 -117q70 -92 84 -263q2 -34 6 -115h-598v-30q0 -173 28 -258q25 -74 79 -114q64 -48 151 -48q107 0 161 70q44 57 44 156v71h116v-273q-143 -94 -346 -94q-234 0 -338 129q-101 124 -101 383zM315 560h416q-5 156 -26 215 q-45 129 -174 129q-149 0 -193 -149q-18 -64 -23 -195zM458 1086l117 267h186l-227 -267h-76z" />
<glyph unicode="&#xea;" horiz-adv-x="1029" vert-adv-y="1497" d="M109 474q0 235 84 361q95 142 332 142q208 0 298 -117q70 -92 84 -263q2 -34 6 -115h-598v-30q0 -173 28 -258q25 -74 79 -114q64 -48 151 -48q107 0 161 70q44 57 44 156v71h116v-273q-143 -94 -346 -94q-234 0 -338 129q-101 124 -101 383zM315 560h416q-5 156 -26 215 q-45 129 -174 129q-149 0 -193 -149q-18 -64 -23 -195zM236 1093l132 242h297l128 -242h-88l-191 168l-190 -168h-88z" />
<glyph unicode="&#xeb;" horiz-adv-x="1029" vert-adv-y="1497" d="M109 474q0 235 84 361q95 142 332 142q208 0 298 -117q70 -92 84 -263q2 -34 6 -115h-598v-30q0 -173 28 -258q25 -74 79 -114q64 -48 151 -48q107 0 161 70q44 57 44 156v71h116v-273q-143 -94 -346 -94q-234 0 -338 129q-101 124 -101 383zM315 560h416q-5 156 -26 215 q-45 129 -174 129q-149 0 -193 -149q-18 -64 -23 -195zM172 1223q0 41 27 65t62 24q33 0 59 -25q27 -25 27 -62q0 -34 -23 -59q-27 -29 -65 -29q-39 0 -66 31q-21 24 -21 55zM676 1224q0 39 26 63q28 24 61 24q32 0 61 -27q27 -25 27 -61t-26 -62q-25 -25 -60 -25 q-38 0 -64 27q-25 25 -25 61z" />
<glyph unicode="&#xec;" horiz-adv-x="568" vert-adv-y="1497" d="M48 0v62h62q43 0 60 20q12 14 13 31q1 14 1 112v493q0 116 -4 125q-14 38 -70 38h-62v62h337v-718q0 -116 4 -125q14 -38 70 -38h59v-62h-470zM36 1354h187l117 -267h-77z" />
<glyph unicode="&#xed;" horiz-adv-x="568" vert-adv-y="1497" d="M48 0v62h62q43 0 60 20q12 14 13 31q1 14 1 112v493q0 116 -4 125q-14 38 -70 38h-62v62h337v-718q0 -116 4 -125q14 -38 70 -38h59v-62h-470zM228 1086l117 267h186l-227 -267h-76z" />
<glyph unicode="&#xee;" horiz-adv-x="568" vert-adv-y="1497" d="M48 0v62h62q43 0 60 20q12 14 13 31q1 14 1 112v493q0 116 -4 125q-14 38 -70 38h-62v62h337v-718q0 -116 4 -125q14 -38 70 -38h59v-62h-470zM5 1093l132 242h297l128 -242h-88l-191 168l-190 -168h-88z" />
<glyph unicode="&#xef;" horiz-adv-x="568" vert-adv-y="1497" d="M48 0v62h62q43 0 60 20q12 14 13 31q1 14 1 112v493q0 116 -4 125q-14 38 -70 38h-62v62h337v-718q0 -116 4 -125q14 -38 70 -38h59v-62h-470zM37 1223q0 41 27 65t62 24q33 0 59 -25q27 -25 27 -62q0 -34 -23 -59q-27 -29 -65 -29q-39 0 -66 31q-21 24 -21 55zM350 1224 q0 39 26 63q28 24 61 24q32 0 61 -27q27 -25 27 -61t-26 -62q-25 -25 -60 -25q-38 0 -64 27q-25 25 -25 61z" />
<glyph unicode="&#xf0;" horiz-adv-x="1065" vert-adv-y="1497" d="M107 476q0 165 32 257q83 243 390 243q21 0 52 -1q-39 49 -160 180l-14 16l-215 -124l-37 65l200 115q-45 48 -139 152h140l97 -95l231 134l38 -65l-214 -124q38 -36 77 -74q143 -136 241 -254q82 -98 107 -185q24 -85 24 -234q0 -164 -25 -251q-43 -153 -162 -219 q-92 -51 -242 -51q-170 0 -264 64q-105 71 -139 230q-18 87 -18 221zM311 480q0 -222 29 -311q22 -68 58 -99q45 -38 133 -38q151 0 195 139q29 89 29 316q0 231 -46 324q-46 95 -183 95q-134 0 -182 -107q-33 -75 -33 -319z" />
<glyph unicode="&#xf1;" horiz-adv-x="1136" vert-adv-y="1497" d="M43 0v62h60q43 0 60 20q11 14 13 31q1 16 1 112v493q0 116 -4 125q-14 38 -70 38h-60v62h334v-125q162 159 345 159q128 0 195 -76q51 -58 51 -182v-494q0 -116 4 -125q14 -38 70 -38h60v-62h-334v719q0 69 -18 101q-29 50 -112 50q-76 0 -142 -48q-50 -37 -119 -103 v-494q0 -116 4 -125q14 -38 70 -38h63v-62h-471zM297 1126q0 89 25 139q21 42 63 66q42 25 93 25q45 0 92 -23q17 -8 65 -36q74 -44 110 -44q69 0 92 44q9 18 16 59h69q-1 -66 -12 -107q-32 -120 -167 -120q-57 0 -155 58q-78 46 -117 46q-98 0 -100 -107h-74z" />
<glyph unicode="&#xf2;" horiz-adv-x="1065" vert-adv-y="1497" d="M107 477q0 163 32 256q46 135 163 198q86 45 232 45q237 0 338 -133q45 -57 64 -136q21 -87 21 -233q0 -155 -25 -244q-43 -152 -162 -218q-92 -51 -242 -51q-170 0 -264 64q-105 71 -139 230q-18 87 -18 222zM311 480q0 -222 29 -311q22 -68 58 -99q45 -38 133 -38 q151 0 195 139q29 89 29 316q0 231 -46 324q-46 95 -183 95q-134 0 -182 -107q-33 -75 -33 -319zM284 1354h187l117 -267h-77z" />
<glyph unicode="&#xf3;" horiz-adv-x="1065" vert-adv-y="1497" d="M107 477q0 163 32 256q46 135 163 198q86 45 232 45q237 0 338 -133q45 -57 64 -136q21 -87 21 -233q0 -155 -25 -244q-43 -152 -162 -218q-92 -51 -242 -51q-170 0 -264 64q-105 71 -139 230q-18 87 -18 222zM311 480q0 -222 29 -311q22 -68 58 -99q45 -38 133 -38 q151 0 195 139q29 89 29 316q0 231 -46 324q-46 95 -183 95q-134 0 -182 -107q-33 -75 -33 -319zM476 1086l117 267h186l-227 -267h-76z" />
<glyph unicode="&#xf4;" horiz-adv-x="1065" vert-adv-y="1497" d="M107 477q0 163 32 256q46 135 163 198q86 45 232 45q237 0 338 -133q45 -57 64 -136q21 -87 21 -233q0 -155 -25 -244q-43 -152 -162 -218q-92 -51 -242 -51q-170 0 -264 64q-105 71 -139 230q-18 87 -18 222zM311 480q0 -222 29 -311q22 -68 58 -99q45 -38 133 -38 q151 0 195 139q29 89 29 316q0 231 -46 324q-46 95 -183 95q-134 0 -182 -107q-33 -75 -33 -319zM253 1093l132 242h297l128 -242h-88l-191 168l-190 -168h-88z" />
<glyph unicode="&#xf5;" horiz-adv-x="1065" vert-adv-y="1497" d="M107 477q0 163 32 256q46 135 163 198q86 45 232 45q237 0 338 -133q45 -57 64 -136q21 -87 21 -233q0 -155 -25 -244q-43 -152 -162 -218q-92 -51 -242 -51q-170 0 -264 64q-105 71 -139 230q-18 87 -18 222zM311 480q0 -222 29 -311q22 -68 58 -99q45 -38 133 -38 q151 0 195 139q29 89 29 316q0 231 -46 324q-46 95 -183 95q-134 0 -182 -107q-33 -75 -33 -319zM219 1126q0 89 25 139q21 42 63 66q42 25 93 25q45 0 92 -23q17 -8 65 -36q74 -44 110 -44q69 0 92 44q9 18 16 59h69q-1 -66 -12 -107q-32 -120 -167 -120q-57 0 -155 58 q-78 46 -117 46q-98 0 -100 -107h-74z" />
<glyph unicode="&#xf6;" horiz-adv-x="1065" vert-adv-y="1497" d="M107 477q0 163 32 256q46 135 163 198q86 45 232 45q237 0 338 -133q45 -57 64 -136q21 -87 21 -233q0 -155 -25 -244q-43 -152 -162 -218q-92 -51 -242 -51q-170 0 -264 64q-105 71 -139 230q-18 87 -18 222zM311 480q0 -222 29 -311q22 -68 58 -99q45 -38 133 -38 q151 0 195 139q29 89 29 316q0 231 -46 324q-46 95 -183 95q-134 0 -182 -107q-33 -75 -33 -319zM190 1223q0 41 27 65t62 24q33 0 59 -25q27 -25 27 -62q0 -34 -23 -59q-27 -29 -65 -29q-39 0 -66 31q-21 24 -21 55zM694 1224q0 39 26 63q28 24 61 24q32 0 61 -27 q27 -25 27 -61t-26 -62q-25 -25 -60 -25q-38 0 -64 27q-25 25 -25 61z" />
<glyph unicode="&#xf7;" horiz-adv-x="1161" vert-adv-y="1497" d="M65 618v121h1030v-121h-1030zM467 267q0 45 34 75t80 30q50 0 84 -36q28 -30 28 -70q0 -41 -32 -72q-34 -33 -81 -33q-55 0 -88 40q-25 29 -25 66zM467 1094q0 48 33 79q34 32 79 32q41 0 74 -31q34 -31 34 -77t-31 -79q-33 -33 -78 -33q-49 0 -83 37q-28 30 -28 72z" />
<glyph unicode="&#xf8;" horiz-adv-x="1065" vert-adv-y="1497" d="M107 477q0 164 32 256q83 243 386 243q113 0 193 -26l50 106l58 -28l-49 -103q57 -32 95 -81q44 -58 64 -137q21 -88 21 -234q0 -154 -25 -242q-77 -270 -401 -270q-115 0 -196 27l-50 -106l-56 28l49 105q-75 46 -117 132q-54 110 -54 330zM311 480q0 -234 34 -324 l330 702q-56 48 -148 48q-135 0 -183 -107q-33 -75 -33 -319zM382 87q45 -55 149 -55q151 0 195 139q29 90 29 313q0 219 -39 311z" />
<glyph unicode="&#xf9;" horiz-adv-x="1136" vert-adv-y="1497" d="M46 881v62h335v-691q0 -85 14 -117q28 -61 121 -61q90 0 189 86q41 36 59 66v492q0 116 -4 125q-14 38 -70 38h-61v62h333v-718q0 -116 4 -125q14 -38 70 -38h61v-62h-333v121q-150 -156 -329 -156q-127 0 -198 73q-42 44 -51 98q-6 40 -6 117v465q0 116 -4 125 q-14 38 -70 38h-60zM320 1354h187l117 -267h-77z" />
<glyph unicode="&#xfa;" horiz-adv-x="1136" vert-adv-y="1497" d="M46 881v62h335v-691q0 -85 14 -117q28 -61 121 -61q90 0 189 86q41 36 59 66v492q0 116 -4 125q-14 38 -70 38h-61v62h333v-718q0 -116 4 -125q14 -38 70 -38h61v-62h-333v121q-150 -156 -329 -156q-127 0 -198 73q-42 44 -51 98q-6 40 -6 117v465q0 116 -4 125 q-14 38 -70 38h-60zM512 1086l117 267h186l-227 -267h-76z" />
<glyph unicode="&#xfb;" horiz-adv-x="1136" vert-adv-y="1497" d="M46 881v62h335v-691q0 -85 14 -117q28 -61 121 -61q90 0 189 86q41 36 59 66v492q0 116 -4 125q-14 38 -70 38h-61v62h333v-718q0 -116 4 -125q14 -38 70 -38h61v-62h-333v121q-150 -156 -329 -156q-127 0 -198 73q-42 44 -51 98q-6 40 -6 117v465q0 116 -4 125 q-14 38 -70 38h-60zM289 1093l132 242h297l128 -242h-88l-191 168l-190 -168h-88z" />
<glyph unicode="&#xfc;" horiz-adv-x="1136" vert-adv-y="1497" d="M46 881v62h335v-691q0 -85 14 -117q28 -61 121 -61q90 0 189 86q41 36 59 66v492q0 116 -4 125q-14 38 -70 38h-61v62h333v-718q0 -116 4 -125q14 -38 70 -38h61v-62h-333v121q-150 -156 -329 -156q-127 0 -198 73q-42 44 -51 98q-6 40 -6 117v465q0 116 -4 125 q-14 38 -70 38h-60zM226 1223q0 41 27 65t62 24q33 0 59 -25q27 -25 27 -62q0 -34 -23 -59q-27 -29 -65 -29q-39 0 -66 31q-21 24 -21 55zM730 1224q0 39 26 63q28 24 61 24q32 0 61 -27q27 -25 27 -61t-26 -62q-25 -25 -60 -25q-38 0 -64 27q-25 25 -25 61z" />
<glyph unicode="&#xfd;" horiz-adv-x="959" vert-adv-y="1497" d="M-26 882v61h494v-61h-84q-51 0 -51 -34q0 -14 9 -41l206 -650l227 646q9 26 9 44t-13 27q-11 8 -50 8h-59v61h336v-61h-42q-48 0 -70 -19q-20 -18 -40 -72l-287 -781q-63 -171 -90 -226q-99 -200 -254 -200q-109 0 -201 51v218h109v-33q0 -144 121 -144q64 0 111 54 q29 33 74 133l19 44l-314 885q-20 55 -38 73q-15 13 -33 15q-12 2 -49 2h-40zM492 1086l117 267h186l-227 -267h-76z" />
<glyph unicode="&#xfe;" horiz-adv-x="1100" vert-adv-y="1497" d="M24 -369h62q43 1 60 21q12 14 13 31q1 16 1 112v1345q0 117 -4 126q-14 37 -70 38h-61v61h335v-508q114 121 294 121q172 0 261 -129q80 -119 80 -369q0 -229 -63 -354q-41 -82 -122 -126q-74 -40 -169 -40q-153 0 -281 113v-278q0 -116 4 -125q14 -38 70 -39h61v-61 h-471v61zM360 172q92 -116 220 -116q94 0 146 64q38 47 50 157q10 91 10 233q0 202 -33 276q-24 53 -79 79q-39 19 -85 19q-129 0 -229 -124v-588z" />
<glyph unicode="&#xff;" horiz-adv-x="959" vert-adv-y="1497" d="M-26 882v61h494v-61h-84q-51 0 -51 -34q0 -14 9 -41l206 -650l227 646q9 26 9 44t-13 27q-11 8 -50 8h-59v61h336v-61h-42q-48 0 -70 -19q-20 -18 -40 -72l-287 -781q-63 -171 -90 -226q-99 -200 -254 -200q-109 0 -201 51v218h109v-33q0 -144 121 -144q64 0 111 54 q29 33 74 133l19 44l-314 885q-20 55 -38 73q-15 13 -33 15q-12 2 -49 2h-40zM206 1223q0 41 27 65t62 24q33 0 59 -25q27 -25 27 -62q0 -34 -23 -59q-27 -29 -65 -29q-39 0 -66 31q-21 24 -21 55zM710 1224q0 39 26 63q28 24 61 24q32 0 61 -27q27 -25 27 -61t-26 -62 q-25 -25 -60 -25q-38 0 -64 27q-25 25 -25 61z" />
<glyph unicode="&#x131;" horiz-adv-x="568" vert-adv-y="1497" d="M48 0v62h62q43 0 60 20q12 14 13 31q1 14 1 112v493q0 116 -4 125q-14 38 -70 38h-62v62h337v-718q0 -116 4 -125q14 -38 70 -38h59v-62h-470z" />
<glyph unicode="&#x152;" horiz-adv-x="1917" vert-adv-y="1497" d="M127 664q0 272 30 397q47 199 218 278q112 51 251 51q71 0 235 -22q36 -5 90 -5l199 2h638v-338h-113v96q0 89 -29 126q-20 27 -57 33q-27 5 -91 5h-278q-39 0 -54 -14q-16 -16 -16 -57v-398q0 -38 6 -47q7 -10 19 -11q5 -1 28 -1h223q46 1 61 22q11 18 11 72v72h97v-411 h-97v58q0 64 -13 85q-12 18 -33 21q-6 2 -37 2h-214q-36 0 -45 -8q-6 -9 -6 -42v-487q0 -40 14 -55q17 -16 65 -16h323q95 0 131 51q20 29 24 74q3 36 3 88v106h112v-391h-561q-284 -3 -324 -5q-44 -3 -130 -16q-116 -18 -187 -18q-250 0 -376 139q-79 88 -103 268 q-14 103 -14 296zM343 670q0 -295 29 -422q50 -225 283 -225q101 0 173 51q84 60 102 195q7 51 7 142v496q0 170 -13 220q-30 109 -115 160q-64 39 -149 39q-149 0 -227 -96q-56 -69 -74 -208q-16 -121 -16 -352z" />
<glyph unicode="&#x153;" horiz-adv-x="1668" vert-adv-y="1497" d="M109 470q0 192 42 294q85 212 378 212q154 0 250 -55q37 -21 78 -64q95 120 316 120q275 0 349 -222q25 -76 33 -276h-596v-42q0 -189 43 -281q31 -69 104 -104q51 -24 112 -24q202 0 202 238v63h118v-277q-133 -94 -346 -94q-215 0 -335 121q-35 -48 -83 -72 q-90 -46 -236 -46q-242 0 -340 132q-89 119 -89 377zM312 463q0 -190 28 -290q39 -140 189 -140q118 0 164 65q64 90 64 378q0 206 -23 289q-39 141 -202 141q-167 0 -201 -171q-19 -94 -19 -272zM958 556h416q-5 148 -25 217q-37 130 -173 130q-157 0 -196 -156 q-17 -69 -22 -191z" />
<glyph unicode="&#x178;" horiz-adv-x="1243" vert-adv-y="1497" d="M23 1290v75h510v-75h-64q-32 0 -43.5 -6t-11.5 -24q0 -9 15 -42l257 -555l319 558q19 32 19 47q0 12 -7 16q-10 6 -49 6h-58v75h348v-75h-50q-46 0 -66 -12q-22 -15 -51 -66l-374 -661v-337q0 -83 3 -95q12 -47 72 -47h3h71v-72h-516v72h76q48 0 66 25q10 15 11 38 q1 14 1 79v337l-318 650q-27 54 -51 72q-25 17 -80 17h-32zM327 1621q0 40 27 67q30 31 72 31q43 0 74 -34q25 -28 25 -66t-26 -66q-29 -32 -73 -32q-46 0 -75 34q-24 28 -24 66zM851 1617q0 46 31 74q29 26 67 26q36 0 65 -25q34 -29 34 -74q0 -42 -31 -71q-29 -27 -68 -27 q-43 0 -73 33q-25 27 -25 64z" />
<glyph unicode="&#x2c6;" horiz-adv-x="1024" vert-adv-y="1497" d="M233 1093l132 242h297l128 -242h-88l-191 168l-190 -168h-88z" />
<glyph unicode="&#x2dc;" horiz-adv-x="1024" vert-adv-y="1497" d="M199 1126q0 89 25 139q21 42 63 66q42 25 93 25q45 0 92 -23q17 -8 65 -36q74 -44 110 -44q69 0 92 44q9 18 16 59h69q-1 -66 -12 -107q-32 -120 -167 -120q-57 0 -155 58q-78 46 -117 46q-98 0 -100 -107h-74z" />
<glyph unicode="&#x2000;" horiz-adv-x="892" vert-adv-y="0" />
<glyph unicode="&#x2001;" horiz-adv-x="1785" vert-adv-y="0" />
<glyph unicode="&#x2002;" horiz-adv-x="892" vert-adv-y="0" />
<glyph unicode="&#x2003;" horiz-adv-x="1785" vert-adv-y="0" />
<glyph unicode="&#x2004;" horiz-adv-x="595" vert-adv-y="0" />
<glyph unicode="&#x2005;" horiz-adv-x="446" vert-adv-y="0" />
<glyph unicode="&#x2006;" horiz-adv-x="297" vert-adv-y="0" />
<glyph unicode="&#x2007;" horiz-adv-x="297" vert-adv-y="0" />
<glyph unicode="&#x2008;" horiz-adv-x="223" vert-adv-y="0" />
<glyph unicode="&#x2009;" horiz-adv-x="357" vert-adv-y="0" />
<glyph unicode="&#x200a;" horiz-adv-x="99" vert-adv-y="0" />
<glyph unicode="&#x2010;" horiz-adv-x="444" vert-adv-y="1497" d="M0 411v159h444v-159h-444z" />
<glyph unicode="&#x2011;" horiz-adv-x="444" vert-adv-y="1497" d="M0 411v159h444v-159h-444z" />
<glyph unicode="&#x2012;" horiz-adv-x="444" vert-adv-y="1497" d="M0 411v159h444v-159h-444z" />
<glyph unicode="&#x2013;" vert-adv-y="1497" d="M164 411v159h914v-159h-914z" />
<glyph unicode="&#x2014;" horiz-adv-x="1333" vert-adv-y="1497" d="M0 411v159h1333v-159h-1333z" />
<glyph unicode="&#x2018;" horiz-adv-x="425" vert-adv-y="1497" d="M43 869l254 496h109l-150 -496h-213z" />
<glyph unicode="&#x2019;" horiz-adv-x="425" vert-adv-y="1497" d="M20 869l150 496h213l-254 -496h-109z" />
<glyph unicode="&#x201a;" horiz-adv-x="425" vert-adv-y="1497" d="M20 -226l150 496h213l-254 -496h-109z" />
<glyph unicode="&#x201c;" horiz-adv-x="796" vert-adv-y="1497" d="M43 869l254 496h109l-150 -496h-213zM414 869l254 496h109l-150 -496h-213z" />
<glyph unicode="&#x201d;" horiz-adv-x="796" vert-adv-y="1497" d="M20 869l150 496h213l-254 -496h-109zM391 869l150 496h213l-254 -496h-109z" />
<glyph unicode="&#x201e;" horiz-adv-x="796" vert-adv-y="1497" d="M20 -226l150 496h213l-254 -496h-109zM391 -226l150 496h213l-254 -496h-109z" />
<glyph unicode="&#x2022;" horiz-adv-x="1365" vert-adv-y="1497" d="M401 694q0 121 84 202q86 82 204 82q113 0 196 -83q84 -83 84 -201t-83 -201t-201 -83q-116 0 -199 82q-85 84 -85 202z" />
<glyph unicode="&#x2026;" horiz-adv-x="1276" vert-adv-y="1497" d="M101 76q0 42 29 74q32 34 83 34q47 0 77 -34q28 -32 28 -74q0 -41 -27 -72q-33 -37 -80 -37q-49 0 -81 37q-29 32 -29 72zM526 76q0 42 29 74q32 34 83 34q47 0 77 -34q28 -32 28 -74q0 -41 -27 -72q-33 -37 -80 -37q-49 0 -81 37q-29 32 -29 72zM952 76q0 42 29 74 q32 34 83 34q47 0 77 -34q28 -32 28 -74q0 -41 -27 -72q-33 -37 -80 -37q-49 0 -81 37q-29 32 -29 72z" />
<glyph unicode="&#x202f;" horiz-adv-x="357" vert-adv-y="0" />
<glyph unicode="&#x2039;" horiz-adv-x="506" vert-adv-y="1497" d="M85 492l189 431h126l-159 -432l157 -428h-124z" />
<glyph unicode="&#x203a;" horiz-adv-x="503" vert-adv-y="1497" d="M106 64l157 429l-157 431h126l186 -431l-186 -429h-126z" />
<glyph unicode="&#x205f;" horiz-adv-x="446" vert-adv-y="0" />
<glyph unicode="&#x20ac;" horiz-adv-x="1057" vert-adv-y="1497" d="M-36 576l49 78h141q0 40 4 98h-170l50 78h127q16 139 59 246q126 311 407 311q143 0 244 -100l73 100h31v-403h-41q-23 119 -54 183q-75 159 -231 159q-236 0 -320 -320q-21 -79 -28 -176h579l-35 -78h-548v-14v-45v-19v-14v-6h503l-35 -78h-464q36 -529 347 -529 q144 0 250 107q35 35 79 103v-134q-149 -149 -337 -149q-263 0 -393 231q-83 150 -95 371h-192z" />
<glyph unicode="&#x2122;" horiz-adv-x="1725" vert-adv-y="1497" d="M4 1130v249h673v-249h-80v71q0 123 -94 121h-62q-21 0 -25 -6q-5 -6 -5 -32v-603q0 -55 6 -66q9 -12 34 -12h49v-57h-320v57h50q25 0 34 12q6 11 6 66v611q0 21 -4 24q-4 6 -27 6h-60q-94 6 -95 -107v-85h-80zM701 546v57h49q25 0 34 12q6 11 6 66v563q0 55 -6 66 q-9 12 -34 12h-49v57h241l262 -667l264 667h240v-57h-51q-25 0 -34 -12q-6 -11 -6 -66v-563q0 -55 6 -66q9 -12 34 -12h52v-57h-322v57h49q25 0 34 12q6 11 6 66v533l-260 -668h-104l-261 669v-534q0 -55 6 -66q9 -12 34 -12h53v-57h-243z" />
<glyph unicode="&#xe000;" horiz-adv-x="945" vert-adv-y="1889" d="M0 945h945v-945h-945v945z" />
<glyph unicode="&#xea68;" horiz-adv-x="1024" vert-adv-y="1497" d="M244 1621q0 40 27 67q30 31 72 31q43 0 74 -34q25 -28 25 -66t-26 -66q-29 -32 -73 -32q-46 0 -75 34q-24 28 -24 66zM577 1617q0 46 31 74q29 26 67 26q36 0 65 -25q34 -29 34 -74q0 -42 -31 -71q-29 -27 -68 -27q-43 0 -73 33q-25 27 -25 64z" />
<glyph unicode="&#xea6a;" horiz-adv-x="1024" vert-adv-y="1497" d="M266 1223q0 41 27 65t62 24q33 0 59 -25q27 -25 27 -62q0 -34 -23 -59q-27 -29 -65 -29q-39 0 -66 31q-21 24 -21 55zM579 1224q0 39 26 63q28 24 61 24q32 0 61 -27q27 -25 27 -61t-26 -62q-25 -25 -60 -25q-38 0 -64 27q-25 25 -25 61z" />
<glyph unicode="&#xeff2;" horiz-adv-x="1024" vert-adv-y="1497" d="M359 -403l27 55q29 -16 63 -16q60 0 95 35q30 30 30 72t-32 72q-38 36 -90 36q-25 0 -66 -13l-16 54q58 20 99 20q87 0 146 -55q49 -46 49 -117t-53 -120q-52 -49 -133 -49q-45 0 -119 26z" />
<glyph unicode="&#xeff3;" horiz-adv-x="1024" vert-adv-y="1497" d="M333 1628q0 71 60 117q53 40 118 40q68 0 123 -43q57 -44 57 -115q0 -63 -51 -106q-53 -46 -127 -46q-88 0 -141 58q-39 41 -39 95zM386 1628q0 -42 32 -72q39 -36 93 -36q50 0 89 32q37 29 37 75q0 50 -42 82q-38 29 -86 29q-50 0 -87 -33q-36 -33 -36 -77z" />
<glyph unicode="&#xeff5;" horiz-adv-x="1024" vert-adv-y="1497" d="M199 1498q1 89 24 134q48 93 160 93q44 0 89 -22q21 -11 66 -38q73 -44 119 -44q92 0 97 104h71q-1 -228 -173 -228q-62 0 -156 56q-54 32 -71 39q-28 11 -54 11q-91 0 -99 -105h-73z" />
<glyph unicode="&#xeff6;" horiz-adv-x="1024" vert-adv-y="1497" d="M148 1621q0 40 27 67q30 31 72 31q43 0 74 -34q25 -28 25 -66t-26 -66q-29 -32 -73 -32q-46 0 -75 34q-24 28 -24 66zM672 1617q0 46 31 74q29 26 67 26q36 0 65 -25q34 -29 34 -74q0 -42 -31 -71q-29 -27 -68 -27q-43 0 -73 33q-25 27 -25 64z" />
<glyph unicode="&#xeff7;" horiz-adv-x="1024" vert-adv-y="1497" d="M159 1477l226 237h268l213 -237h-98l-253 158l-259 -158h-97z" />
<glyph unicode="&#xeff8;" horiz-adv-x="1024" vert-adv-y="1497" d="M246 1725h228l113 -261h-76z" />
<glyph unicode="&#xeff9;" horiz-adv-x="1024" vert-adv-y="1497" d="M438 1459l113 263h227l-264 -263h-76z" />
<glyph unicode="&#xfb01;" horiz-adv-x="1171" vert-adv-y="1497" d="M651 0v62h62q43 0 60 20q12 14 13 31q1 14 1 112v493q0 116 -4 125q-14 38 -70 38h-62v62h337v-718q0 -116 4 -125q14 -38 70 -38h59v-62h-470zM770 1245q0 47 32 78q33 32 77 32q42 0 74 -28q35 -31 35 -80q0 -44 -29 -76q-31 -34 -78 -34q-51 0 -83 35q-28 31 -28 73z M48 0v62h61q43 0 60 20q12 14 13 31q1 16 1 112v652h-135v66h135l-9 90q-2 19 -2 63q0 162 102 237q86 64 196 64q128 0 250 -54v-243h-111v41q0 98 -21 134q-27 45 -95 45q-133 0 -133 -173q0 -57 11 -129l11 -75h136v-66h-136v-652q0 -116 4 -125q14 -38 70 -38h61v-62 h-469z" />
<glyph unicode="&#xfb02;" horiz-adv-x="1135" vert-adv-y="1497" d="M635 0v62h61q43 0 60 20q12 14 13 31q1 15 1 112v915q0 117 -4 126q-14 37 -70 38h-61v61h335v-1140q0 -116 4 -125q14 -38 70 -38h60v-62h-469zM48 0v62h61q43 0 60 20q12 14 13 31q1 16 1 112v652h-135v66h135l-9 90q-2 19 -2 63q0 162 102 237q86 64 196 64 q128 0 250 -54v-243h-111v41q0 98 -21 134q-27 45 -95 45q-133 0 -133 -173q0 -57 11 -129l11 -75h136v-66h-136v-652q0 -116 4 -125q14 -38 70 -38h61v-62h-469z" />
<glyph unicode="&#xfb03;" horiz-adv-x="1774" vert-adv-y="1497" d="M48 0v62h61q43 0 60 20q12 14 13 31q1 16 1 112v652h-135v66h135l-9 90q-2 19 -2 63q0 162 102 237q86 64 196 64q128 0 250 -54v-243h-111v41q0 98 -21 134q-27 45 -95 45q-133 0 -133 -173q0 -57 11 -129l11 -75h136v-66h-136v-652q0 -116 4 -125q14 -38 70 -38h61v-62 h-469zM651 0v62h61q43 0 60 20q11 14 13 31q1 16 1 112v652h-135v66h135l-9 90q-2 18 -2 63q0 162 102 237q86 64 197 64q127 0 249 -54v-243h-111v41q0 98 -21 134q-27 45 -95 45q-133 0 -133 -173q0 -57 11 -129l11 -75h136v-66h-136v-652q0 -116 4 -125q14 -38 70 -38h61 v-62h-469zM1254 0v62h62q43 0 60 20q12 14 13 31q1 14 1 112v493q0 116 -4 125q-14 38 -70 38h-62v62h337v-718q0 -116 4 -125q14 -38 70 -38h59v-62h-470zM1374 1245q0 47 32 78q33 32 77 32q42 0 74 -28q35 -31 35 -80q0 -44 -29 -76q-31 -34 -78 -34q-51 0 -83 35 q-28 31 -28 73z" />
<glyph unicode="&#xfb04;" horiz-adv-x="1739" vert-adv-y="1497" d="M48 0v62h61q43 0 60 20q12 14 13 31q1 16 1 112v652h-135v66h135l-9 90q-2 19 -2 63q0 162 102 237q86 64 196 64q128 0 250 -54v-243h-111v41q0 98 -21 134q-27 45 -95 45q-133 0 -133 -173q0 -57 11 -129l11 -75h136v-66h-136v-652q0 -116 4 -125q14 -38 70 -38h61v-62 h-469zM651 0v62h61q43 0 60 20q11 14 13 31q1 16 1 112v652h-135v66h135l-9 90q-2 18 -2 63q0 162 102 237q86 64 196 64q89 0 194 -32h305v-1140q0 -116 4 -125q14 -38 70 -38h60v-62h-469v62h61q43 0 60 20q11 14 13 31q1 15 1 112v916q0 116 -4 125q-12 27 -45 36v-202 h-111v41q0 98 -21 134q-27 45 -95 45q-133 0 -133 -173q0 -57 11 -129l11 -75h136v-66h-136v-652q0 -116 4 -125q14 -38 70 -38h61v-62h-469z" />
</font>
</defs>
</svg>
