<?xml version="1.0" standalone="no"?>
<!DOCTYPE svg PUBLIC "-//W3C//DTD SVG 1.1//EN" "http://www.w3.org/Graphics/SVG/1.1/DTD/svg11.dtd" >
<svg xmlns="http://www.w3.org/2000/svg">
<metadata>
This is a custom SVG webfont generated by Font Squirrel.
Copyright   : URW Software Copyright 1994 by URW
</metadata>
<defs>
<font id="RenaultTBolRegular" horiz-adv-x="1024" vert-adv-y="2048" >
<font-face units-per-em="2048" ascent="1568" descent="-480" />
<missing-glyph horiz-adv-x="512" />
<glyph unicode=" " horiz-adv-x="512" vert-adv-y="0" />
<glyph unicode="!" horiz-adv-x="639" vert-adv-y="1497" d="M101 1264q0 136 224 136q71 0 127 -21q27 -10 47 -28q43 -37 43 -91q0 -20 -6 -57l-136 -789h-177l-117 792q-5 32 -5 58zM107 147q0 82 65 134q56 45 140 45q82 0 140 -47q63 -51 63 -130q0 -72 -57 -124t-141 -52q-87 0 -147 47q-63 51 -63 127z" />
<glyph unicode="&#x22;" horiz-adv-x="950" vert-adv-y="1497" d="M137 1365h308l-49 -496h-210zM506 1365h308l-49 -496h-210z" />
<glyph unicode="#" horiz-adv-x="1375" vert-adv-y="1497" d="M106 373l29 134h232l74 352h-232l29 134h232l79 372h143l-79 -372h280l79 372h143l-79 -372h232l-29 -134h-232l-74 -352h232l-29 -134h-232l-79 -373h-143l79 373h-280l-80 -373h-142l79 373h-232zM509 507h281l74 352h-280z" />
<glyph unicode="$" horiz-adv-x="1239" vert-adv-y="1497" d="M94 974q0 289 229 383q78 33 226 41v135h114v-135q123 -6 402 -66v-355h-223q0 164 -28 221q-29 55 -105 79q-46 15 -98 15q-86 0 -136 -43q-58 -51 -58 -140t74 -142q32 -24 99 -50q9 -4 168 -62q167 -61 243 -118q132 -98 132 -303q0 -171 -90 -292q-96 -128 -278 -168 q-43 -9 -102 -12v-133h-114v133q-228 12 -444 114v353h221q-2 -133 10 -193q23 -116 139 -158q45 -16 105 -16q103 0 155 52q59 60 59 165q0 121 -90 180q-26 18 -182 76q-144 52 -192 75q-148 73 -196 168q-40 80 -40 196z" />
<glyph unicode="%" horiz-adv-x="1167" vert-adv-y="1497" d="M103 1142q0 130 67 184q58 47 171 47q127 0 185 -58q53 -54 53 -179q0 -236 -237 -236q-119 0 -176 49q-63 55 -63 193zM152 0l695 1357h155l-697 -1357h-153zM286 1165q0 -139 6 -171q8 -46 47 -46q43 0 51 55q6 43 6 131q0 128 -6 151q-11 41 -50 41t-48 -51 q-6 -32 -6 -110zM584 240q0 130 67 184q58 47 172 47q126 0 184 -59q53 -53 53 -179q0 -235 -237 -235q-119 0 -176 49q-63 55 -63 193zM767 263q0 -139 6 -171q8 -46 47 -46q43 0 51 55q6 43 6 131q0 129 -6 151q-12 41 -50 41t-48 -51q-6 -32 -6 -110z" />
<glyph unicode="&#x26;" horiz-adv-x="1562" vert-adv-y="1497" d="M81 364q0 226 70 306q42 47 111 63q45 11 127 11q28 0 85 -1l-74 101q-80 110 -80 235q0 120 79 204q74 77 199 102q65 13 172 13q205 0 404 -61v-345h-223v93q0 111 -28 159q-32 56 -100 56q-65 0 -100 -52q-24 -35 -24 -83q0 -61 50 -132l312 -441l87 99q18 21 18 33 q0 31 -58 31h-47v99h460v-98h-44q-47 0 -78 -16q-24 -13 -39 -29q-26 -29 -48 -53l-164 -185l207 -293q29 -41 51 -55q30 -19 76 -19h39v-106h-525l-119 171l-23 -23q-78 -81 -109 -103q-111 -79 -293 -79q-164 0 -244 61q-127 98 -127 337zM479 451q0 -183 13 -232 q9 -35 41 -56q26 -17 60 -17q67 0 137 77l61 67l-240 341q-41 -18 -52 -40q-20 -38 -20 -140z" />
<glyph unicode="'" horiz-adv-x="581" vert-adv-y="1497" d="M137 1365h308l-49 -496h-210z" />
<glyph unicode="(" horiz-adv-x="778" vert-adv-y="1497" d="M130 462q0 367 193 658q95 144 256 282l122 -93q-128 -218 -172 -451q-63 -344 -15 -697q44 -316 187 -523l-122 -95q-85 60 -146 130q-303 349 -303 789z" />
<glyph unicode=")" horiz-adv-x="778" vert-adv-y="1497" d="M79 -367q109 196 151 360q56 213 56 493q0 519 -207 820l122 95q85 -63 144 -131q307 -350 307 -794q0 -222 -82 -434q-77 -198 -223 -355q-52 -56 -146 -148z" />
<glyph unicode="*" horiz-adv-x="1242" vert-adv-y="1497" d="M266 1110l71 133l79 -44q12 -4 83 -51q38 -27 76 -71q-34 111 -32 199v89h154v-89q-3 -107 -28 -195q60 66 152 122l77 46l75 -133l-77 -44q-93 -50 -182 -72q76 -11 183 -71l79 -44l-73 -131l-79 44q-109 64 -157 122q27 -81 28 -196v-89h-150v90q0 63 8 105q2 13 11 53 q2 9 7 37q-51 -60 -88 -86q-26 -19 -60 -38l-79 -46l-77 132l77 44q86 54 185 75q-99 18 -185 66z" />
<glyph unicode="+" horiz-adv-x="1161" vert-adv-y="1497" d="M61 611v143h448v448h143v-448h447v-143h-447v-447h-143v447h-448z" />
<glyph unicode="," horiz-adv-x="603" vert-adv-y="1497" d="M21 -239l157 553h380l-329 -553h-208z" />
<glyph unicode="-" horiz-adv-x="498" vert-adv-y="1497" d="M0 330v282h498v-282h-498z" />
<glyph unicode="." horiz-adv-x="603" vert-adv-y="1497" d="M95 147q0 82 65 134q56 45 140 45q82 0 140 -47q63 -51 63 -130q0 -72 -57 -124q-56 -52 -141 -52q-87 0 -147 47q-63 51 -63 127z" />
<glyph unicode="/" horiz-adv-x="733" vert-adv-y="1497" d="M8 -423l548 1788h169l-548 -1788h-169z" />
<glyph unicode="0" horiz-adv-x="1242" vert-adv-y="1497" d="M79 703q0 245 35 368q55 193 192 263q123 62 316 62q161 0 282 -51q118 -51 175 -150q84 -147 84 -518q0 -403 -99 -543q-122 -172 -451 -172q-340 0 -458 212q-45 80 -61 216q-15 120 -15 313zM486 680q0 -328 14 -470q8 -78 31 -112q30 -44 86 -44q100 0 119 123 q33 207 16 752q-6 201 -17 262q-21 113 -119 113q-77 0 -101 -82q-29 -100 -29 -542z" />
<glyph unicode="1" horiz-adv-x="1242" vert-adv-y="1497" d="M222 1083l421 282h195v-1121q0 -85 13 -109q14 -21 43 -27q19 -3 52 -3h29v-105h-658v105h29q54 0 72 10q29 15 35 57q2 12 2 72v760q0 46 -1 52q-3 21 -24 21q-10 0 -46 -23l-102 -66z" />
<glyph unicode="2" horiz-adv-x="1242" vert-adv-y="1497" d="M125 0v189q0 118 22 182q40 110 143 199q68 59 201 142q123 79 160 156q35 70 35 196q0 97 -24 154q-32 76 -129 76q-162 0 -162 -203v-112h-224v314q215 99 466 99q186 0 296 -55q181 -89 181 -320q0 -158 -81 -261q-51 -65 -168 -114q-107 -46 -267 -107 q-139 -58 -184 -99q-66 -57 -74 -132h534q51 0 73.5 6t36.5 23q23 27 23 99v36h109v-468h-967z" />
<glyph unicode="3" horiz-adv-x="1242" vert-adv-y="1497" d="M128 48v336h236v-94q0 -112 20 -154q17 -35 56 -55q42 -23 92 -23q109 0 138 83q22 61 22 223q0 116 -35 174q-48 77 -170 77h-107v143h107q81 0 118 25q55 36 71 130q8 45 8 123q0 121 -16 175q-28 95 -141 95q-89 0 -132 -69q-23 -36 -27 -73q-4 -31 -4 -83v-102h-226 v323q196 96 425 96q204 0 338 -64q90 -44 129 -116q40 -74 40 -189q0 -199 -135 -276q-59 -34 -159 -45q150 -12 213 -55q119 -82 119 -277q0 -230 -154 -325q-145 -89 -393 -89q-165 0 -286 33q-54 14 -147 53z" />
<glyph unicode="4" horiz-adv-x="1242" vert-adv-y="1497" d="M13 364v204l555 797h367v-787h63q103 0 117 120l1 13h96l-23 -347h-254v-120q0 -85 14 -109q13 -21 43 -27q19 -3 52 -3h27v-105h-661v105h28q43 0 63.5 6.5t31.5 23.5q14 24 14 109v120h-534zM187 578h360v512z" />
<glyph unicode="5" horiz-adv-x="1242" vert-adv-y="1497" d="M156 70v322h232v-110q0 -96 20 -144q32 -76 134 -76q115 0 142 101q16 61 16 240q0 145 -23 212q-46 133 -192 133q-130 0 -231 -130l-98 58l48 689h805l-21 -306h-655l-18 -258q63 44 121 66q90 33 214 33q278 0 384 -172q54 -88 64 -196q4 -43 4 -102q0 -261 -150 -366 q-136 -95 -361 -95q-153 0 -283 39q-66 19 -152 62z" />
<glyph unicode="6" horiz-adv-x="1242" vert-adv-y="1497" d="M95 702q0 238 29 355q32 134 107 210q96 99 242 121q77 12 171 12q250 0 461 -85v-339h-233v84q0 127 -35 180q-44 67 -141 67q-140 0 -174 -141q-9 -37 -15 -144q-6 -94 -6 -136v-136q109 87 286 87q196 0 292 -116q89 -108 89 -304q0 -243 -138 -351q-128 -99 -382 -99 q-239 0 -366 86q-112 75 -154 243q-33 132 -33 406zM500 430q0 -191 23 -277q26 -98 133 -98q94 0 123 99q18 63 18 228q0 153 -23 216q-32 86 -138 86q-75 0 -135 -58v-99z" />
<glyph unicode="7" horiz-adv-x="1242" vert-adv-y="1497" d="M193 916v449h921v-241q-172 -173 -261 -373q-113 -254 -113 -678q0 -23 1 -73h-458q11 229 72 386q94 238 310 450q104 103 269 225h-505q-53 0 -68 -4q-59 -22 -60 -106v-35h-108z" />
<glyph unicode="8" horiz-adv-x="1242" vert-adv-y="1497" d="M92 330q0 239 106 314q58 42 143 53q33 5 104 6q-126 10 -204 58q-118 72 -118 271q0 200 116 283q119 85 373 85q267 0 393 -80q119 -76 119 -293q0 -108 -27 -168q-44 -100 -151 -136q-46 -16 -141 -20q177 -14 244 -60q102 -70 102 -299q0 -136 -36 -209 q-54 -109 -195 -146q-100 -26 -279 -26q-235 0 -348 43q-131 49 -174 157q-27 65 -27 167zM486 356q0 -108 14 -179q22 -108 125 -108q80 0 110 81q24 65 24 206q0 133 -22 202q-27 85 -114 85q-96 0 -121 -103q-16 -69 -16 -184zM494 1034q0 -121 18 -188q23 -83 111 -83 q89 0 115 80q23 75 23 188q0 111 -17 184q-23 94 -119 94q-98 0 -117 -99q-14 -70 -14 -176z" />
<glyph unicode="9" horiz-adv-x="1242" vert-adv-y="1497" d="M88 949q0 244 138 351q128 99 383 99q239 0 366 -86q112 -75 154 -242q33 -132 33 -404q0 -241 -28 -357q-33 -134 -108 -210q-96 -99 -242 -121q-77 -12 -172 -12q-248 0 -461 85v339h233v-84q0 -127 35 -180q44 -67 140 -67q142 0 176 141q9 37 15 144q6 93 6 136v135 q-111 -86 -288 -86q-195 0 -291 116q-89 108 -89 303zM459 985q0 -153 23 -217q32 -85 139 -85q75 0 135 57v100l1 98q0 189 -23 275q-25 98 -129 98q-100 0 -128 -99q-18 -64 -18 -227z" />
<glyph unicode=":" horiz-adv-x="674" vert-adv-y="1497" d="M130 149q0 77 60 126q60 51 145 51q77 0 134 -43q70 -54 70 -133q0 -70 -55 -122q-58 -55 -152 -55q-79 0 -136 45q-66 52 -66 131zM134 809q0 78 62 127q62 50 142 50q75 0 137 -48q66 -51 66 -127q0 -75 -63 -128q-59 -49 -142 -49q-78 0 -137 47q-65 52 -65 128z" />
<glyph unicode=";" horiz-adv-x="674" vert-adv-y="1497" d="M20 -238l156 554h378l-328 -554h-206zM156 809q0 79 65 130q59 47 142 47q78 0 137 -49q63 -53 63 -130q0 -73 -60 -124q-60 -50 -142 -50q-75 0 -135 45q-70 54 -70 131z" />
<glyph unicode="&#x3c;" vert-adv-y="1497" d="M74 772v21l875 536v-167l-424 -259l424 -294v-444z" />
<glyph unicode="=" horiz-adv-x="1161" vert-adv-y="1497" d="M61 457v143h1038v-143h-1038zM61 765v143h1038v-143h-1038z" />
<glyph unicode="&#x3e;" vert-adv-y="1497" d="M75 165v167l424 259l-424 294v444l875 -607v-21z" />
<glyph unicode="?" horiz-adv-x="1100" vert-adv-y="1497" d="M69 963v327q242 107 483 107q218 0 342 -87q144 -101 144 -305q0 -114 -40 -203q-37 -82 -150 -134q-48 -22 -133 -46q-88 -25 -123 -50q-51 -36 -51 -113q0 -23 5 -46h-172q-54 123 -54 231q0 144 106 226q34 26 130 67q72 30 96 63q30 40 30 102q0 87 -48 136 q-43 44 -129 44q-181 0 -181 -205v-114h-255zM258 149q0 79 65 129q62 48 144 48q75 0 134 -48q68 -54 68 -133q0 -71 -59 -122q-61 -54 -146 -54q-81 0 -139 45q-67 53 -67 135z" />
<glyph unicode="@" horiz-adv-x="1673" vert-adv-y="1497" d="M96 681q0 254 50 394q51 144 175 218q179 106 533 106q417 0 594 -190q80 -85 109 -225q21 -104 21 -254q0 -147 -31 -233q-33 -95 -81 -134q-83 -68 -227 -68h-360l8 37q-42 -26 -64 -36q-65 -31 -145 -31q-228 0 -228 232q0 134 51 301q93 302 344 302q74 0 119 -22 q29 -13 78 -57l26 40h197l-137 -642q-3 -16 -3 -25q0 -21 40 -21q84 0 119 50q54 76 54 348q0 288 -80 402q-50 71 -171 108q-107 34 -229 34q-227 0 -363 -96q-84 -59 -114 -186q-34 -146 -34 -375q0 -262 39 -380q73 -222 459 -222q154 0 281 43q68 22 125 88h259 q-80 -100 -185 -146q-171 -75 -439 -75q-546 0 -700 240q-67 103 -84 285q-6 65 -6 190zM661 487q0 -114 81 -114q94 0 173 91l94 443q-38 84 -128 84q-113 0 -159 -168q-61 -220 -61 -336z" />
<glyph unicode="A" horiz-adv-x="1385" vert-adv-y="1497" d="M-20 0v106h37q46 0 74 25q22 20 47 102l266 906q10 32 10 45q0 51 -30 65q-16 8 -63 8h-42v108h615l361 -1167q17 -54 38 -73q22 -20 70 -20h37v-105h-692v105h44q67 0 67 51q0 17 -11 53l-62 220q-13 45 -22 54q-11 9 -58 9h-247q-31 0 -42 -7q-10 -8 -18 -38l-72 -256 q-7 -27 -7 -41q0 -44 53 -44h59v-106h-412zM414 634q0 -19 38 -19h194q39 0 39 23q0 9 -3 19l-133 482l-130 -476q-5 -20 -5 -29z" />
<glyph unicode="B" horiz-adv-x="1384" vert-adv-y="1497" d="M54 0v105h29q54 0 72 10q30 15 35 57q2 12 2 72v877q0 85 -14 109q-13 22 -43 27q-18 3 -52 4h-29v104h836q173 0 251 -85q69 -76 69 -230q0 -167 -95 -238q-50 -38 -176 -54q132 -3 207 -34q93 -38 130 -137q28 -77 28 -208q0 -194 -78 -287q-56 -66 -139 -81 q-62 -11 -159 -11h-874zM604 91h80q100 0 128 17q76 48 76 278q0 175 -48 239q-31 42 -90 49q-30 4 -78 4h-68v-587zM604 794h65q60 0 83 17q60 42 60 209q0 137 -27 192q-29 56 -117 56h-64v-474z" />
<glyph unicode="C" horiz-adv-x="1242" vert-adv-y="1497" d="M84 701q0 387 122 531q138 164 507 164q164 0 291 -24q14 -3 173 -40v-347h-223v73q0 248 -207 248q-178 0 -217 -173q-25 -113 -25 -453q0 -356 31 -469q42 -155 212 -155q126 0 175 83q40 67 40 210v77h214v-385q-203 -80 -467 -80q-371 0 -512 180q-72 93 -97 268 q-17 116 -17 292z" />
<glyph unicode="D" horiz-adv-x="1420" vert-adv-y="1497" d="M48 0v105h22q54 0 72 10q29 15 35 57q2 14 2 72v877q0 85 -14 109q-13 22 -43 27q-18 3 -52 4h-22v104h842q252 0 350 -166q83 -141 83 -495q0 -218 -21 -350q-38 -241 -184 -311q-90 -43 -289 -43h-781zM590 94h47q102 0 162 31q66 34 85 161q15 100 15 286 q0 425 -24 535q-23 107 -93 143q-37 19 -118 19h-74v-1175z" />
<glyph unicode="E" horiz-adv-x="1278" vert-adv-y="1497" d="M42 0v105h33q74 0 95 30q14 24 14 109v877q0 86 -14 109q-13 22 -43 27q-18 3 -52 4h-33v104h1124v-355h-217v66q0 91 -14 116q-19 42 -66 55q-32 9 -106 9h-44q-68 0 -84 -8q-30 -12 -37 -50q-3 -16 -3 -67v-272q0 -45 9 -61q9 -15 26 -17q11 -2 45 -2h30q54 1 71 29 q11 19 11 76v43h184v-416h-184v41q-1 57 -20 82q-15 19 -35 23q-7 2 -41 2h-31q-42 0 -55 -16q-10 -12 -10 -33v-61v-333q0 -55 7 -70q12 -31 48 -38q11 -3 91 -3h53q94 1 123 17q52 29 62 99q4 18 4 102v85h214v-408h-1155z" />
<glyph unicode="F" horiz-adv-x="1171" vert-adv-y="1497" d="M45 0v105h30q54 0 72 10q29 15 35 57q2 14 2 72v877q0 86 -14 109q-13 22 -43 27q-18 3 -52 4h-30v104h1123v-357h-215v76q0 92 -33 132q-25 29 -66 36q-30 5 -80 5h-52q-81 0 -106 -22q-21 -20 -21 -77v-315q0 -52 10 -68q14 -18 62 -18h31q56 1 73 26q16 23 16 79v43 h187v-413h-187v44q0 55 -20 79q-19 20 -67 21h-38q-41 0 -56 -16q-11 -13 -11 -29v-33v-314q0 -85 14 -109q13 -21 42 -27q20 -3 53 -3h31v-105h-690z" />
<glyph unicode="G" horiz-adv-x="1384" vert-adv-y="1497" d="M93 676q0 215 29 345q54 238 247 323q130 58 357 58q223 0 494 -69v-342h-219v66q0 133 -55 191q-59 62 -172 62q-192 0 -229 -167q-16 -72 -21 -174q-10 -257 -10 -343q0 -288 27 -416q19 -87 72 -128q38 -29 110 -29q93 0 130 74q19 40 21 86q2 37 2 101v181 q0 60 -19 82q-12 14 -29 17q-9 3 -47 3h-50v106h534v-604q-251 -138 -541 -138q-360 0 -506 171q-81 93 -109 274q-16 109 -16 270z" />
<glyph unicode="H" horiz-adv-x="1526" vert-adv-y="1497" d="M41 0v105h28q54 0 72 10q29 15 35 57q2 14 2 72v877q0 85 -14 109q-13 22 -43 27q-18 3 -52 4h-28v104h690v-104h-28q-55 -1 -72 -11q-30 -14 -35 -56q-2 -13 -2 -73v-331h343v331q0 85 -14 109q-13 22 -43 27q-18 3 -52 4h-25v104h683v-104h-27q-44 -1 -64 -7.5 t-31 -23.5q-14 -24 -14 -109v-877q0 -85 14 -109q13 -21 43 -27q19 -3 52 -3h27v-105h-683v105h25q74 0 95 30q14 24 14 109v434h-343v-434q0 -85 14 -109q13 -21 43 -27q19 -3 52 -3h28v-105h-690z" />
<glyph unicode="I" horiz-adv-x="781" vert-adv-y="1497" d="M39 0v105h37q74 0 95 30q14 24 14 109v877q0 86 -14 109q-13 22 -43 27q-18 3 -52 4h-37v104h701v-104h-34q-55 -1 -72 -11q-30 -14 -35 -56q-2 -13 -2 -73v-877q0 -85 14 -109q13 -21 43 -27q19 -3 52 -3h34v-105h-701z" />
<glyph unicode="J" horiz-adv-x="746" vert-adv-y="1497" d="M-30 -178q103 7 153 70t50 206l-1 94v929q0 86 -14 109q-13 22 -43 27q-18 3 -52 4h-26v104h686v-104h-30q-55 -1 -72 -11q-29 -14 -35 -56q-2 -15 -2 -73v-973q0 -151 -51 -234q-79 -130 -259 -175q-66 -16 -187 -16q-20 0 -117 4v95z" />
<glyph unicode="K" horiz-adv-x="1385" vert-adv-y="1497" d="M41 0v105h29q54 0 72 10q30 15 35 57q2 12 2 72v877q0 85 -14 109q-13 22 -43 27q-18 3 -52 4h-29v104h688v-104h-30q-55 -1 -72 -11q-29 -14 -35 -56q-2 -14 -2 -73v-418l347 455q39 51 39 69q0 24 -24 27q-4 1 -40 1h-31v110h422v-110h-28q-59 0 -96 -29 q-22 -17 -73 -83l-169 -220l340 -745q21 -45 41 -61q15 -12 49 -12h22v-105h-499l-227 566l-73 -96v-226q0 -85 14 -109q13 -21 43 -27q19 -3 52 -3h30v-105h-688z" />
<glyph unicode="L" horiz-adv-x="1207" vert-adv-y="1497" d="M40 0v105h34q54 0 72 10q29 15 35 57q2 14 2 72v877q0 85 -14 109q-13 22 -43 27q-18 3 -52 4h-34v104h695v-104h-32q-55 -1 -72 -11q-30 -14 -35 -56q-2 -13 -2 -73v-861q0 -87 6 -103q10 -39 40 -48q12 -5 70 -5h54q89 1 127 47q35 46 36 154v105h216v-410h-1103z" />
<glyph unicode="M" horiz-adv-x="1810" vert-adv-y="1497" d="M39 0v105h29q54 0 72 10q30 15 35 57q2 14 2 72v877q0 86 -14 109q-13 22 -43 27q-18 3 -52 4h-29v104h603l270 -920l274 920h595v-104h-37q-44 -1 -64 -7.5t-31 -23.5q-14 -23 -14 -109v-877q0 -85 14 -109q21 -30 95 -30h37v-105h-698v105h32q74 0 95 30q14 24 14 109 v745l-285 -989h-312l-297 989v-745q0 -85 14 -109q21 -30 95 -30h33v-105h-433z" />
<glyph unicode="N" horiz-adv-x="1349" vert-adv-y="1497" d="M30 0v105h33q54 0 72 10q30 15 35 57q2 12 2 72v877q0 85 -14 109q-13 22 -43 27q-18 3 -52 4h-33v104h504l500 -922v678q0 85 -14 109q-13 22 -42 27q-19 3 -53 4h-33v104h438v-104h-31q-44 -1 -64 -7.5t-31 -23.5q-14 -24 -14 -109v-1121h-396l-469 883v-639 q0 -85 14 -109q13 -21 43 -27q19 -3 52 -3h41v-105h-445z" />
<glyph unicode="O" horiz-adv-x="1384" vert-adv-y="1497" d="M82 707q0 340 96 488q131 202 514 202q226 0 377 -81q130 -70 183 -209q48 -129 48 -435q0 -136 -9 -227q-26 -273 -178 -386q-133 -99 -417 -99q-105 0 -207.5 18.5t-164.5 48.5q-158 77 -206 292q-36 161 -36 388zM500 662q0 -283 25 -430q17 -97 54 -138 q41 -45 116 -45q102 0 143 91q47 106 47 484q0 337 -23 491q-15 98 -55 143q-42 47 -120 47q-98 0 -141 -92q-31 -67 -42 -275q-4 -76 -4 -276z" />
<glyph unicode="P" horiz-adv-x="1278" vert-adv-y="1497" d="M46 0v105h28q74 0 95 30q14 24 14 109v877q0 86 -14 109q-13 22 -43 27q-18 3 -52 4h-28v104h884q174 0 255 -104q62 -79 62 -260q0 -214 -84 -308q-52 -57 -122 -77q-50 -15 -144 -15h-303v-357q0 -85 14 -109q13 -21 43 -27q19 -3 52 -3h30v-105h-687zM594 709h78 q96 0 125 78q21 54 21 211q0 172 -33 222q-35 54 -120 54h-71v-565z" />
<glyph unicode="Q" horiz-adv-x="1383" vert-adv-y="1497" d="M81 660q0 372 102 537q124 201 510 201q341 0 490 -173q76 -90 100 -257q15 -104 15 -264q0 -401 -94 -545q-36 -54 -141 -135q91 -55 149 -55q62 0 139 68l68 -69l-319 -309q-194 152 -331 236q-110 68 -194 68q-105 0 -223 -113l-74 79q32 34 98 81q-143 50 -212 160 q-83 131 -83 490zM500 608q0 -277 12 -363q11 -75 48 -126q85 38 164 38q51 0 101 -18q27 70 37 169q19 189 19 415q0 278 -25 415q-17 89 -55 126q-40 39 -105 39q-94 0 -136 -77q-60 -108 -60 -618z" />
<glyph unicode="R" horiz-adv-x="1384" vert-adv-y="1497" d="M52 0v106h26q75 1 96 31q13 22 13 107v877q0 85 -13 108q-21 30 -96 30l-26 1v105h840q164 0 222 -32q71 -38 102 -115q26 -67 26 -185q0 -161 -49 -241q-31 -50 -88 -77q-41 -19 -82 -19q-12 0 -28 1l254 -494q33 -63 47 -77q19 -19 62 -19h18v-107h-462l-318 705v-461 q0 -85 13 -107q21 -30 95 -31h31v-106h-683zM596 787q36 -1 52 -1q77 0 110 27q65 52 65 206q0 138 -27 195q-29 59 -139 59q-14 0 -61 -1v-485z" />
<glyph unicode="S" horiz-adv-x="1171" vert-adv-y="1497" d="M70 974q0 230 115 325q124 102 395 102q210 0 454 -64v-345h-216v48q0 132 -46 192q-52 68 -160 68q-179 0 -179 -186q0 -105 78 -155q33 -22 188 -77q226 -79 301 -154q106 -106 106 -291q0 -214 -113 -325q-153 -149 -430 -149q-143 0 -306 51q-40 13 -175 61v357h215 v-63q0 -141 34 -203q51 -94 181 -94q104 0 157 61q46 52 46 150q0 127 -76 179q-49 33 -210 89q-113 39 -164 65q-121 62 -165 167q-30 74 -30 191z" />
<glyph unicode="T" horiz-adv-x="1172" vert-adv-y="1497" d="M-4 957v408h1172v-408h-212v54q0 106 -14 151q-20 63 -65 87q-21 11 -41 11q-30 0 -42 -20q-6 -11 -6 -49v-947q0 -85 14 -109q13 -21 43 -27q19 -3 52 -3h31v-105h-692v105h31q54 0 72 10q30 15 35 57q2 12 2 72v941q0 45 -7 58q-11 19 -42 19q-54 0 -86 -50 q-25 -40 -29 -89q-4 -41 -4 -99v-67h-212z" />
<glyph unicode="U" horiz-adv-x="1349" vert-adv-y="1497" d="M28 1261v104h687v-104h-29q-55 -1 -72 -11q-30 -14 -35 -56q-2 -13 -2 -73v-778q0 -89 13 -120q44 -106 213 -106q234 0 234 225v779q0 85 -14 109q-13 22 -43 27q-18 3 -52 4h-31v104h431v-104h-33q-44 -1 -64 -7.5t-31 -23.5q-14 -24 -14 -109v-786q0 -159 -72 -239 q-114 -128 -409 -128q-233 0 -373 73q-97 50 -135 134q-31 66 -31 169v777q0 85 -14 109q-13 22 -43 27q-18 3 -52 4h-29z" />
<glyph unicode="V" horiz-adv-x="1243" vert-adv-y="1497" d="M-30 1256v109h651v-110h-37q-71 0 -71 -41q0 -7 13 -62l215 -843l234 848q10 51 10 61q0 38 -67 38h-31v109h394v-109h-33q-65 -1 -86 -24q-16 -18 -40 -100l-321 -1132h-389l-303 1146q-15 53 -32 78q-23 32 -71 32h-36z" />
<glyph unicode="W" horiz-adv-x="1846" vert-adv-y="1497" d="M9 1255v110h628v-110h-28q-52 0 -64 -29q-2 -8 -2 -20q0 -19 5 -49l141 -747l216 955h286l226 -955l146 741q6 29 6 50q0 55 -76 55h-24v109h376v-110h-29h-3q-48 0 -74 -27q-18 -20 -33 -88l-237 -1140h-353l-187 810l-193 -810h-342l-258 1150q-15 66 -36 87 q-20 18 -66 18h-25z" />
<glyph unicode="X" horiz-adv-x="1314" vert-adv-y="1497" d="M-5 0v106h32q48 0 81 28q28 22 60 67l312 436l-318 535q-27 44 -48 63q-24 20 -73 21h-27v109h680v-109h-46q-50 0 -60 -11q-7 -8 -7 -20q0 -20 13 -42l170 -285l193 299q11 17 11 25q-1 24 -14 31q-7 3 -29 3h-54v109h421v-110h-41q-57 0 -97 -33q-20 -18 -55 -72 l-256 -384l349 -596q21 -36 43 -49q24 -16 67 -16h22v-105h-654v106h27q32 0 52 17q9 8 9 23q0 23 -12 43l-185 313l-224 -323q-17 -24 -17 -36q0 -38 49 -38h39v-105h-413z" />
<glyph unicode="Y" horiz-adv-x="1208" vert-adv-y="1497" d="M-56 1256v109h700v-110h-32q-54 0 -54 -34q0 -19 22 -65l186 -385l189 399q18 47 18 57q0 29 -64 29h-42v109h389v-109h-36h-2q-31 0 -61 -27q-18 -16 -27 -32q-8 -17 -24 -49l-283 -583v-321q0 -85 14 -109q13 -21 43 -27q19 -3 52 -3h31v-105h-699v105h37q54 0 72 10 q29 15 35 57q2 14 2 72v321l-321 613q-23 45 -43 61q-22 17 -74 17h-28z" />
<glyph unicode="Z" horiz-adv-x="1207" vert-adv-y="1497" d="M23 0v116l662 1146h-161q-88 0 -114 -10q-60 -24 -76 -107q-6 -30 -6 -108v-79h-215v407h1037v-119l-666 -1148h263q70 0 101 15q62 26 78 103q8 34 8 103v80h216v-399h-1127z" />
<glyph unicode="[" horiz-adv-x="778" vert-adv-y="1497" d="M167 -423v1788h563v-104h-96q-65 -1 -86 -9q-34 -13 -44 -48q-6 -26 -6 -80v-1306q-1 -82 23 -110q18 -19 46 -24q12 -3 67 -3h96v-104h-563z" />
<glyph unicode="\" horiz-adv-x="733" vert-adv-y="1497" d="M8 1365h169l548 -1788h-169z" />
<glyph unicode="]" horiz-adv-x="778" vert-adv-y="1497" d="M48 -319h95q66 0 87 8q34 13 44 49q6 26 6 80v1306q1 82 -23 109q-18 19 -46 25q-12 3 -68 3h-95v104h563v-1788h-563v104z" />
<glyph unicode="^" vert-adv-y="1497" d="M-70 559l607 875h21l536 -875h-167l-259 424l-294 -424h-444z" />
<glyph unicode="_" vert-adv-y="1497" d="M-3 -192h1031v-200h-1031v200z" />
<glyph unicode="`" vert-adv-y="1497" d="M225 1313h272l111 -258h-139z" />
<glyph unicode="a" horiz-adv-x="1171" vert-adv-y="1497" d="M83 254q0 161 81 230q45 38 116 57q80 22 185 40l175 29v143q0 123 -112 123q-91 0 -123 -69q-16 -34 -16 -138v-34h-220v267q191 75 436 75q265 0 354 -90q47 -48 61 -124q6 -36 6 -98v-475q0 -51 4 -63q10 -32 43 -39q10 -3 44 -3l30 -1v-84h-507v75 q-156 -112 -296 -112q-139 0 -208 94q-53 72 -53 197zM460 288q0 -55 15 -91q20 -49 63 -49q45 0 102 56v299q-73 -15 -98.5 -25t-42.5 -29q-39 -43 -39 -161z" />
<glyph unicode="b" horiz-adv-x="1242" vert-adv-y="1497" d="M15 1281v84h507v-480q49 35 102 59q78 35 187 35q181 0 272 -145q79 -126 79 -349q0 -259 -82 -374q-102 -142 -283 -142q-152 0 -296 121l-39 -90h-327v1175q0 51 -4 64q-10 31 -43 38q-10 3 -44 4h-29zM522 202q65 -70 127 -70q86 0 110 112q10 49 10 182 q0 274 -28 335q-30 66 -99 66q-66 0 -120 -67v-558z" />
<glyph unicode="c" horiz-adv-x="1029" vert-adv-y="1497" d="M81 453q0 214 46 310q104 213 465 213q202 0 380 -71v-272h-221v67q0 66 -26 118q-29 57 -104 57q-95 0 -120 -101q-18 -75 -18 -391q0 -164 17 -225q26 -96 118 -96q55 0 91 35q42 42 42 171v62h221v-293q-85 -33 -144 -47q-111 -26 -250 -26q-305 0 -415 147 q-55 74 -72 176q-10 59 -10 166z" />
<glyph unicode="d" horiz-adv-x="1278" vert-adv-y="1497" d="M92 485q0 241 83 360q89 130 283 130q92 0 163 -27q48 -18 113 -66v293q0 51 -4 64q-9 31 -43 38q-10 3 -44 4h-33v84h512v-1175q0 -51 4 -63q10 -32 43 -39q10 -3 44 -3l28 -1v-84h-507v84q-102 -117 -268 -117q-208 0 -307 164q-67 112 -67 354zM488 508 q0 -212 17 -281q24 -95 115 -95q76 0 114 76v556q-53 63 -113 63q-97 0 -119 -123q-14 -75 -14 -196z" />
<glyph unicode="e" horiz-adv-x="1100" vert-adv-y="1497" d="M76 472q0 251 112 379q116 133 388 133q170 0 262 -51q146 -83 175 -280q9 -63 10 -191h-547v-44q0 -171 19 -234q35 -111 130 -111q102 0 127 109q6 27 7 161h230v-295q-87 -29 -142 -44q-125 -36 -271 -36q-275 0 -385 124q-115 128 -115 380zM474 584h202 q0 145 -6 182q-16 108 -91 108q-79 0 -96 -125q-7 -54 -9 -165z" />
<glyph unicode="f" horiz-adv-x="745" vert-adv-y="1497" d="M54 0v84l34 1q55 0 75 19q14 15 15 39q1 2 1 47v662h-125v84h125q-2 88 -2 137q0 177 134 256q113 66 275 66q161 0 306 -59v-252h-215v87q0 119 -69 119q-40 0 -62 -32q-13 -20 -13 -57q0 -70 28 -265h126v-84h-126v-662q0 -51 4 -63q9 -31 43 -39q10 -3 44 -3l35 -1 v-84h-633z" />
<glyph unicode="g" horiz-adv-x="1136" vert-adv-y="1497" d="M40 -234q0 109 131 151q66 21 175 22q-92 32 -92 99q0 92 162 123q-89 16 -138 39q-199 95 -199 361q0 215 116 315q116 101 353 101q56 0 171 -5l60 -3q14 -1 52 -1q111 0 214 18q24 4 87 16v-207q-132 33 -219 70q104 -93 104 -313q0 -216 -130 -317q-50 -39 -153 -63 q-49 -12 -70 -12h-29q-2 0 -61 -8q-25 -3 -25 -26t32 -29q23 -5 123 -15l86 -7q333 -25 333 -238q0 -94 -74 -166q-76 -73 -236 -110q-125 -29 -270 -29q-234 0 -381 68q-60 29 -98 86q-24 36 -24 80zM378 -235q0 -114 197 -114q81 0 136 22q69 29 69 91q0 56 -66 81 q-17 6 -197 38q-139 -32 -139 -118zM457 576q0 -154 14 -231q16 -93 78 -93q52 0 73 54q20 51 20 274q0 125 -13 199q-9 51 -26 73q-20 26 -59 26q-44 0 -64 -41q-23 -48 -23 -261z" />
<glyph unicode="h" horiz-adv-x="1278" vert-adv-y="1497" d="M38 0v84l33 1q55 0 74 19q14 15 16 39q1 2 1 47v985q0 51 -4 64q-9 31 -43 38q-10 3 -44 4h-33v84h511v-487q62 43 108 62q80 34 178 34q108 0 187 -52q94 -62 94 -200v-532q0 -51 4 -63q10 -32 43 -39q10 -3 44 -3l31 -1v-84h-510v716q0 58 -20 81q-19 23 -58 23 q-57 0 -101 -56v-574q0 -51 4 -63q10 -32 43 -39q10 -3 44 -3l30 -1v-84h-632z" />
<glyph unicode="i" horiz-adv-x="710" vert-adv-y="1497" d="M42 0v84l34 1q55 0 75 19q14 15 15 39q1 12 1 47v556q0 51 -4 63q-9 32 -43 39q-10 3 -44 4h-34v84h512v-746q0 -51 4 -63q10 -32 43 -39q10 -3 44 -3l31 -1v-84h-634zM160 1208q0 76 61 126q58 47 136 47q76 0 133 -47q62 -52 62 -124t-60 -122q-57 -48 -137 -48 q-73 0 -130 43q-65 50 -65 125z" />
<glyph unicode="j" horiz-adv-x="710" vert-adv-y="1497" d="M1 -354q66 3 94 12q53 18 66 88q6 35 6 102v898q0 51 -4 63q-9 31 -43 39q-10 3 -44 3l-31 1v84h510v-1095q0 -141 -63 -214q-91 -105 -311 -105q-88 0 -180 21v103zM155 1210q0 73 62 124q59 49 136 49q70 0 130 -43q66 -47 66 -127q0 -77 -66 -128q-57 -44 -131 -44 q-85 0 -141 51q-56 49 -56 118z" />
<glyph unicode="k" horiz-adv-x="1278" vert-adv-y="1497" d="M25 0v84l38 1q54 0 74 19q15 15 16 39q1 1 1 47v985q0 51 -4 64q-10 31 -43 38q-10 3 -44 4h-38v84h518v-837l285 276q18 17 18 30q0 21 -34 21h-56v84h420v-84h-53q-42 0 -69 -14q-28 -14 -63 -48l-141 -135l302 -497q29 -47 44 -60q19 -15 60 -15h38v-86h-501l-250 479 v-289q0 -51 4 -63q10 -32 43 -39q9 -3 44 -3l27 -1v-84h-636z" />
<glyph unicode="l" horiz-adv-x="710" vert-adv-y="1497" d="M31 0v84l36 1q55 0 74 19q14 15 16 39q1 2 1 47v985q0 51 -4 64q-9 31 -43 38q-10 3 -44 4h-36v84h514v-1175q0 -51 4 -63q10 -31 43 -39q10 -3 44 -3l33 -1v-84h-638z" />
<glyph unicode="m" horiz-adv-x="1810" vert-adv-y="1497" d="M38 0v84l35 1q55 0 74 19q15 15 16 39q1 2 1 47v556q0 51 -4 64q-9 31 -43 39q-10 2 -44 3h-35v84h514v-59q59 51 99 68q79 34 172 34q157 0 249 -113q131 109 304 109q140 0 213 -70q41 -39 54 -94q11 -51 11 -117v-504q0 -51 4 -63q10 -32 43 -39q10 -3 44 -3l30 -1 v-84h-512v712q0 104 -74 104q-23 0 -52 -18q-23 -14 -37 -36v-572q0 -51 4 -63q12 -41 73 -42l32 -1v-84h-496v716q0 100 -64 100q-50 0 -97 -54v-572q0 -51 4 -63q12 -41 73 -42l29 -1v-84h-620z" />
<glyph unicode="n" horiz-adv-x="1278" vert-adv-y="1497" d="M41 0v84l33 1q54 0 74 19q14 15 16 39q1 1 1 47v557q0 51 -4 64q-10 31 -43 38q-9 3 -44 4h-33v84h511v-63q145 104 300 104q137 0 212 -78q38 -40 50 -88q11 -48 11 -118v-504q0 -51 4 -63q10 -32 43 -39q10 -3 44 -3l30 -1v-84h-509v697q0 66 -16 90q-17 27 -59 27 q-62 0 -110 -54v-570q0 -51 4 -63q10 -32 43 -39q10 -3 44 -3l31 -1v-84h-633z" />
<glyph unicode="o" horiz-adv-x="1171" vert-adv-y="1497" d="M77 476q0 282 137 395q122 101 376 101q277 0 391 -123q114 -121 114 -370q0 -265 -105 -382q-122 -136 -396 -136q-317 0 -433 165q-84 120 -84 350zM468 462q0 -184 16 -279q20 -118 104 -118q48 0 77 42q37 55 37 347q0 264 -13 322q-22 94 -104 94q-57 0 -82 -44 q-35 -62 -35 -364z" />
<glyph unicode="p" horiz-adv-x="1278" vert-adv-y="1497" d="M35 -369h36q55 1 74 20q14 15 16 39q1 2 1 47v1009q0 52 -4 64q-9 31 -43 39q-10 2 -44 3l-36 1v83h514v-65q113 104 278 104q366 0 366 -492q0 -237 -75 -361q-95 -158 -285 -158q-72 0 -136 22q-59 20 -148 78v-327q0 -51 4 -64q9 -31 43 -38q9 -3 44 -4h33v-84h-638 v84zM549 199q54 -70 126 -70q81 0 106 96q16 61 16 230q0 213 -20 277q-27 85 -103 85q-71 0 -125 -68v-550z" />
<glyph unicode="q" horiz-adv-x="1242" vert-adv-y="1497" d="M86 494q0 251 95 368q95 116 267 116q92 0 184 -42q68 -32 118 -83l12 83h349v-1196q0 -51 4 -63q9 -31 43 -39q10 -3 44 -3l37 -1v-84h-639v84l33 1q55 1 74 20q14 14 16 39q1 2 1 46v325q-139 -100 -272 -100q-204 0 -300 167q-66 115 -66 362zM481 477q0 -200 15 -261 q22 -86 107 -86q47 0 82 29q16 14 39 39v553q-58 65 -121 65q-85 0 -107 -97q-15 -63 -15 -242z" />
<glyph unicode="r" horiz-adv-x="958" vert-adv-y="1497" d="M44 0v84l36 1q55 0 74 19q14 15 16 39q1 2 1 47v556q0 51 -4 63q-9 31 -43 39q-10 3 -44 3l-36 1v84h497v-164q75 108 128 143q96 62 212 62q31 0 61 -6v-358h-214v30q0 81 -63 81q-70 0 -96 -62q-11 -27 -11 -87v-385q0 -51 4 -63q10 -31 43 -39q10 -3 44 -3l32 -1v-84 h-637z" />
<glyph unicode="s" horiz-adv-x="994" vert-adv-y="1497" d="M80 644q0 334 426 334q197 0 353 -59v-244h-220v64q0 63 -26 98q-34 44 -93 44q-56 0 -87 -37q-25 -30 -25 -74q0 -65 54 -91q24 -11 118 -37q177 -48 238 -94q108 -83 108 -236q0 -105 -58 -189q-106 -156 -386 -156q-208 0 -399 84v245h219v-56q0 -170 147 -170 q61 0 98 36q32 32 32 79q0 69 -77 105q-30 14 -122 39q-151 41 -206 91q-94 84 -94 224z" />
<glyph unicode="t" horiz-adv-x="745" vert-adv-y="1497" d="M27 853v83q143 38 233 113q104 88 126 185h153v-298h183v-83h-183v-630q0 -111 111 -111q34 0 72 12v-107q-120 -55 -252 -55q-152 0 -235 73t-83 218v600h-125z" />
<glyph unicode="u" horiz-adv-x="1278" vert-adv-y="1497" d="M46 853v84h506v-717q0 -47 12 -68q17 -29 61 -29q59 0 106 50v574q0 51 -4 64q-9 31 -43 38q-11 3 -44 4h-31v84h505v-747q0 -51 4 -63q10 -31 43 -39q10 -3 44 -3l35 -1v-84h-509v68q-126 -104 -294 -104q-147 0 -222 88q-52 61 -52 171v524q0 51 -4 64q-9 31 -43 38 q-10 3 -44 4h-26z" />
<glyph unicode="v" horiz-adv-x="1030" vert-adv-y="1497" d="M-47 856v83h626v-83h-44q-48 0 -48 -31q0 -10 6 -27l163 -491l156 481q6 19 6 33q0 35 -61 35h-34v83h345v-83h-39q-30 1 -51 -16q-18 -12 -33 -52l-273 -788h-294l-291 773q-21 54 -38 66q-30 17 -51 17h-45z" />
<glyph unicode="w" horiz-adv-x="1633" vert-adv-y="1497" d="M12 854v84h619v-84h-36q-61 0 -63 -42q0 -11 6 -38l116 -476l180 640h271l156 -632l116 471q5 21 5 37q0 25 -15 32q-17 8 -52 8h-28v84h352v-84h-29q-56 0 -77 -30q-14 -17 -30 -80l-194 -744h-355l-120 513l-142 -513h-341l-212 741q-18 64 -34 86q-21 27 -58 27h-35z " />
<glyph unicode="x" horiz-adv-x="1101" vert-adv-y="1497" d="M-16 0v85h30q46 0 76 20q25 16 56 55l224 278l-219 354q-23 36 -46 50q-21 12 -60 12h-27v82h608v-82h-45q-41 0 -41 -25q0 -11 14 -33l96 -151l120 153q18 24 18 36q0 10 -6 14q-9 5 -43 5h-37v83h372v-82h-28q-48 0 -73 -18q-22 -14 -57 -60l-190 -249l221 -344 q36 -56 59 -74q32 -24 76 -24h33v-85h-638v85h57q39 0 39 27q0 5 -21 39l-107 171l-148 -184q-18 -22 -18 -35q0 -18 46 -18h45v-85h-386z" />
<glyph unicode="y" horiz-adv-x="1030" vert-adv-y="1497" d="M-36 854v83h643v-83h-43q-61 0 -61 -39q0 -15 9 -47l130 -460l147 459q10 31 10 54q0 33 -72 33h-30v83h368v-83h-31q-40 0 -65 -20q-18 -14 -24 -31q-2 -4 -16 -43l-322 -911q-11 -30 -56 -126q-93 -196 -289 -196q-114 0 -225 60v240h211v-50q0 -107 72 -107 q82 0 130 138l-343 943q-34 101 -103 103h-40z" />
<glyph unicode="z" horiz-adv-x="1065" vert-adv-y="1497" d="M56 0v106l506 747h-116q-63 0 -83 -9q-64 -27 -64 -122v-84h-215v298h895v-102l-471 -750h159q63 0 90 27q28 29 28 72v61v80h214v-324h-943z" />
<glyph unicode="{" horiz-adv-x="778" vert-adv-y="1497" d="M78 435v72q86 31 82 177v531q0 81 34 116q36 34 116 34h345v-102h-20q-66 -1 -87 -9q-34 -13 -44 -48q-6 -26 -6 -80v-517q-2 -93 -106 -136v-4q46 -21 65 -38q41 -38 41 -98v-517q-1 -82 23 -110q18 -19 46 -24q12 -3 68 -3h20v-102h-345q-80 0 -116 34q-34 35 -34 116 v531q4 146 -82 177z" />
<glyph unicode="|" vert-adv-y="1497" d="M378 -341v1706h270v-1706h-270z" />
<glyph unicode="}" horiz-adv-x="778" vert-adv-y="1497" d="M123 -321h20q66 0 87 8q34 13 44 49q6 26 6 80v517q2 93 106 136v4q-46 21 -65 38q-41 38 -41 98v517q1 82 -23 109q-18 19 -46 25q-12 3 -68 3h-20v102h345q80 0 116 -34q34 -35 34 -116v-531q-4 -146 82 -177v-72q-86 -31 -82 -177v-531q0 -81 -34 -116 q-36 -34 -116 -34h-345v102z" />
<glyph unicode="~" horiz-adv-x="1365" vert-adv-y="1497" d="M300 1254q73 136 122 184q67 66 138 66q48 0 154 -38q111 -40 161 -40q68 0 132 76l59 -36q-41 -86 -115 -174q-31 -37 -56 -51q-41 -23 -103 -23q-36 0 -80 14q-25 8 -102 39q-61 24 -117 24q-54 0 -91 -31q-1 0 -46 -44z" />
<glyph horiz-adv-x="1107" vert-adv-y="1497" d="M-25 546l55 90h115q-1 34 3 104h-160l55 90h114q25 159 82 268q155 294 454 294q166 0 277 -109l44 104h52v-403h-63q-19 92 -43 148q-69 165 -223 165q-213 0 -290 -301q-19 -74 -25 -166h515l-41 -90h-479q-1 -60 -1 -96v-8h433l-41 -90h-388q9 -174 71 -298 q35 -71 82 -105q59 -43 151 -43q144 0 256 96q35 30 82 90v-163q-156 -149 -364 -149q-396 0 -516 387q-25 82 -33 185h-174z" />
<glyph unicode="&#xa0;" horiz-adv-x="512" vert-adv-y="1497" />
<glyph unicode="&#xa1;" horiz-adv-x="639" vert-adv-y="1497" d="M90 -310q0 21 6 56l136 789h176l118 -792q5 -33 5 -59q0 -135 -224 -135q-71 0 -127 21q-41 15 -65.5 47.5t-24.5 72.5zM116 796q0 74 57 125q59 51 144 51q84 0 145 -47q63 -50 63 -126q0 -81 -65 -134q-54 -45 -138 -45q-85 0 -143 47q-63 51 -63 129z" />
<glyph unicode="&#xa2;" horiz-adv-x="1242" vert-adv-y="1497" d="M188 652q0 211 48 312q59 122 175 168q116 45 255 47v146h114v-148q144 -8 301 -71v-270h-220v65q0 176 -130 176q-97 0 -122 -101q-19 -75 -19 -305q0 -265 15 -312q30 -93 123 -93q87 0 115 71q18 45 18 135v60h220v-289q-140 -68 -301 -72v-155h-114v152 q-217 9 -320 78q-103 70 -140 213q-18 67 -18 193z" />
<glyph unicode="&#xa3;" horiz-adv-x="1242" vert-adv-y="1497" d="M67 150q221 103 221 330q0 58 -16 136h-179v104h162q-55 191 -55 284q0 131 67 226q121 170 451 170q199 0 408 -87v-354h-261v111q0 112 -22 158q-30 61 -113 61q-64 0 -100 -42q-35 -40 -35 -98q0 -53 15 -168l5 -39q10 -81 10 -139q0 -26 -5 -83h245v-104h-264 q-34 -188 -203 -342q42 22 83 28q55 9 129 9q42 0 161 -8q39 -3 81 -3q113 0 151 24q51 32 51 112v19h119v-441q-103 -34 -234 -34q-84 0 -170 10q-25 3 -180 29q-71 12 -156 12q-156 0 -302 -57z" />
<glyph unicode="&#xa4;" horiz-adv-x="1161" vert-adv-y="1497" d="M71 274l151 151q-85 126 -85 258q0 133 85 257l-151 151l101 101l149 -149q110 83 255 83q146 0 263 -84l150 150l101 -101l-150 -150q83 -118 83 -258q0 -139 -83 -259l150 -150l-101 -100l-150 149q-115 -83 -263 -83q-144 0 -255 82l-149 -148zM278 683 q0 -122 88 -213q86 -89 212 -89q127 0 215 89q89 88 89 212q0 128 -89 214q-90 89 -219 89q-122 0 -208 -89q-88 -91 -88 -213z" />
<glyph unicode="&#xa5;" horiz-adv-x="1167" vert-adv-y="1497" d="M-56 1256v109h673v-110h-32q-25 0 -41.5 -10t-16.5 -24q0 -24 26 -65l185 -289l189 303q22 34 22 53q0 24 -23 30q-13 3 -44 3h-42v109h375v-109h-8q-41 0 -71 -27q-16 -15 -57 -81l-185 -291h230v-104h-295l-33 -51v-118h314v-104h-314v-236q0 -85 14 -109 q13 -21 42 -27q20 -3 53 -3h31v-105h-699v105h37q54 0 72 10q29 15 35 57q2 14 2 72v236h-314v104h314v118l-35 51h-293v104h223l-216 321q-40 59 -66 70q-15 6 -52 8z" />
<glyph unicode="&#xa6;" vert-adv-y="1497" d="M378 314h270v-655h-270v655zM378 612v753h270v-753h-270z" />
<glyph unicode="&#xa7;" horiz-adv-x="1242" vert-adv-y="1497" d="M175 574q0 148 104 263q-84 80 -84 215q0 155 120 254q64 53 138 71q87 22 197 22q169 0 353 -50v-348h-179v55q0 92 -22 148q-38 97 -165 97q-88 0 -134 -57q-38 -47 -38 -116q0 -93 78 -145q44 -29 158 -81q203 -92 275 -164q91 -91 91 -228q0 -150 -104 -267 q84 -78 84 -207q0 -126 -75 -215q-64 -77 -187 -115q-88 -28 -183 -28q-168 0 -378 60v360h180v-51q0 -115 33 -181q43 -85 169 -85q77 0 122 46q47 49 47 124q0 88 -83 150q-36 27 -241 124q-128 60 -199 135q-77 81 -77 214zM400 657q0 -53 28 -90q32 -44 145 -102 q31 -16 172 -83q12 -6 81 -44q19 39 19 79q0 97 -142 180q-57 33 -192 95q-47 22 -93 49q-18 -41 -18 -84z" />
<glyph unicode="&#xa8;" vert-adv-y="1497" d="M120 1187q0 59 48 96q43 32 104 32t101 -36q43 -38 43 -91q0 -50 -42 -89q-43 -41 -104 -41q-58 0 -102 32q-48 36 -48 97zM609 1185q0 60 46 97q41 32 103 32t104 -37t42 -91q0 -47 -37 -84q-45 -46 -112 -46q-55 0 -98 34q-48 38 -48 95z" />
<glyph unicode="&#xa9;" horiz-adv-x="1597" vert-adv-y="1497" d="M82 681q0 188 102 365q103 178 276 272q150 81 342 81q199 0 371 -106q173 -106 264 -286q78 -154 78 -325q0 -201 -106 -373q-105 -173 -284 -265q-154 -78 -333 -78q-298 0 -500 210q-103 106 -159 250q-51 129 -51 255zM193 682q0 -156 87 -307t233 -229 q127 -69 281 -69q256 0 433 177q177 178 177 427q0 172 -89 318q-87 144 -241 223q-129 66 -288 66q-244 0 -416 -177q-85 -90 -134 -212q-43 -110 -43 -217zM410 694q0 234 75 323q85 101 309 101q101 0 175 -15q10 -2 80 -18q10 -3 30 -7v-221h-147v51q0 142 -118 142 q-101 0 -123 -99q-15 -67 -15 -267q0 -216 18 -283q24 -88 121 -88q71 0 99 47q23 37 23 122v53h142v-243q-128 -50 -287 -50q-225 0 -312 111q-45 57 -60 164q-10 70 -10 177z" />
<glyph unicode="&#xaa;" horiz-adv-x="820" vert-adv-y="1497" d="M55 510v173h711v-173h-711zM74 946q0 101 52 145q43 37 189 61l111 18v90q0 78 -71 78q-58 0 -78 -44q-10 -21 -10 -87v-21h-138v168q119 47 274 47q169 0 225 -57q42 -42 42 -139v-300q0 -42 10 -54q13 -13 47 -13h19v-53h-320v47q-100 -70 -188 -70q-87 0 -131 59 q-33 46 -33 125zM311 968q0 -90 50 -90q28 0 65 36v188q-73 -15 -90 -33q-25 -28 -25 -101z" />
<glyph unicode="&#xab;" horiz-adv-x="985" vert-adv-y="1497" d="M84 47l139 436l-139 439h238l197 -439l-197 -436h-238zM484 47l138 436l-138 439h237l194 -439l-194 -436h-237z" />
<glyph unicode="&#xac;" vert-adv-y="1497" d="M52 365v182h919v-547h-429v365h-490z" />
<glyph unicode="&#xad;" horiz-adv-x="498" vert-adv-y="1497" d="M0 330v282h498v-282h-498z" />
<glyph unicode="&#xae;" horiz-adv-x="1597" vert-adv-y="1497" d="M82 681q0 188 102 365q103 178 276 272q150 81 342 81q199 0 371 -106q173 -106 264 -286q78 -154 78 -325q0 -201 -106 -373q-105 -173 -284 -265q-154 -78 -333 -78q-298 0 -500 210q-103 106 -159 250q-51 129 -51 255zM193 682q0 -156 87 -307t233 -229 q127 -69 281 -69q256 0 433 177q177 178 177 427q0 172 -89 318q-87 144 -241 223q-129 66 -288 66q-244 0 -416 -177q-85 -90 -134 -212q-43 -110 -43 -217zM408 266v77h23q41 0 51 16q7 11 7 60v527q0 49 -7 61q-10 15 -51 15h-23v77h511q100 0 137 -20q80 -43 80 -186 q0 -134 -61 -181q-37 -29 -83 -28l147 -286q19 -37 27 -45q9 -9 33 -9h17v-78h-288l-180 399v-246q0 -49 7 -60q10 -16 51 -16h26v-77h-424zM748 752q19 -1 31 -1q51 0 71 32q21 34 21 101q0 82 -16 115q-15 31 -76 31h-31v-278z" />
<glyph unicode="&#xaf;" vert-adv-y="1497" d="M-3 1551v200h1031v-200h-1031z" />
<glyph unicode="&#xb0;" horiz-adv-x="806" vert-adv-y="1497" d="M96 1091q0 125 90 218q87 90 218 90q126 0 216 -90t90 -217t-90 -217t-220 -90q-128 0 -214 90q-90 94 -90 216zM220 1092q0 -73 54 -129q51 -54 127 -54q78 0 131 54q54 54 54 129q0 77 -54 129q-55 54 -133 54q-73 0 -125 -54q-54 -55 -54 -129z" />
<glyph unicode="&#xb1;" horiz-adv-x="1161" vert-adv-y="1497" d="M61 0v143h1038v-143h-1038zM61 611v143h448v448h143v-448h447v-143h-447v-393h-143v393h-448z" />
<glyph unicode="&#xb2;" horiz-adv-x="792" vert-adv-y="1497" d="M98 546v113q-5 139 102 229q35 30 122 85q75 48 98 93q21 42 21 118q0 58 -15 92q-19 46 -78 46q-99 0 -99 -122v-67h-137v189q130 59 285 59q290 0 290 -225q0 -150 -124 -212q-38 -20 -191 -77q-84 -34 -111 -59q-41 -35 -46 -80h325q50 0 67 17q14 17 14 60v22h67 v-281h-590z" />
<glyph unicode="&#xb3;" horiz-adv-x="792" vert-adv-y="1497" d="M95 575v202h144v-56q0 -69 12 -93q22 -46 90 -46q66 0 84 49q13 37 13 134q0 70 -21 104q-30 46 -104 46h-65v86h65q74 0 98 41q22 40 22 126q0 73 -10 105q-17 57 -87 57q-53 0 -79 -42q-18 -28 -18 -93v-62h-138v194q120 58 258 58q126 0 207 -39q103 -49 103 -185 q0 -171 -179 -190q91 -7 130 -33q72 -50 72 -166q0 -248 -333 -248q-142 0 -264 51z" />
<glyph unicode="&#xb4;" vert-adv-y="1497" d="M416 1055l112 258h271l-243 -258h-140z" />
<glyph unicode="&#xb5;" horiz-adv-x="1278" vert-adv-y="1497" d="M46 853v84h506v-718q0 -47 12 -67q17 -30 60 -30q60 0 107 50v575q0 51 -4 64q-9 31 -43 38q-11 3 -44 4h-31v84h505v-747q0 -51 4 -64q14 -42 87 -42h35v-84h-509v68q-126 -104 -295 -104q-59 0 -121 20q19 -57 64 -159q31 -69 31 -115q0 -42 -31 -72q-49 -50 -128 -50 q-113 0 -159 68q-17 24 -17 67q0 56 20 142q60 256 68 579v303q0 51 -4 64q-9 31 -43 38q-10 3 -44 4h-26z" />
<glyph unicode="&#xb6;" horiz-adv-x="1155" vert-adv-y="1497" d="M89 995q0 174 53 267q38 67 111 104q62 32 133 32q101 0 167 -63q19 -19 44 -52l25 82h503v-84h-34q-51 -1 -72 -26q-13 -18 -15 -39q-1 -17 -1 -82v-1160q0 -102 5 -115q17 -47 83 -48h33v-84h-286v1549h-76v-1549h-285v84h33q50 1 71 26q13 18 15 39q1 20 1 98v663 q-87 -22 -192 -22q-316 0 -316 380z" />
<glyph unicode="&#xb7;" horiz-adv-x="1242" vert-adv-y="1497" d="M417 469q0 82 65 134q56 45 140 45q82 0 140 -47q63 -51 63 -130q0 -72 -57 -124q-56 -52 -141 -52q-87 0 -147 47q-63 51 -63 127z" />
<glyph unicode="&#xb8;" vert-adv-y="1497" d="M334 -342l48 75q34 -13 60 -13q35 0 59 19q26 22 26 55q0 34 -28 55q-21 16 -53 16q-13 0 -64 -15l-31 69q74 39 151 39q79 0 131 -37q58 -43 58 -118q0 -72 -50 -120q-60 -57 -155 -57q-62 0 -152 32z" />
<glyph unicode="&#xb9;" horiz-adv-x="792" vert-adv-y="1497" d="M153 1196l256 169h119v-672q0 -51 8 -65q13 -19 58 -19h18v-63h-401v63h18q44 0 57 19q9 14 9 65v456q0 27 -1 30q-1 13 -14 13q-7 0 -28 -14l-62 -39z" />
<glyph unicode="&#xba;" horiz-adv-x="820" vert-adv-y="1497" d="M55 510v173h711v-173h-711zM89 1085q0 178 87 249q77 64 236 64q176 0 248 -77t72 -234q0 -167 -66 -241q-77 -86 -250 -86q-200 0 -274 104q-53 75 -53 221zM335 1075q0 -115 10 -175q13 -74 66 -74q56 0 66 88q7 59 7 163q0 160 -9 198q-13 59 -65 59q-53 0 -65 -70 q-10 -54 -10 -189z" />
<glyph unicode="&#xbb;" horiz-adv-x="985" vert-adv-y="1497" d="M74 483l194 439h236l-138 -439l138 -436h-236zM470 483l197 439h238l-140 -439l140 -436h-238z" />
<glyph unicode="&#xbc;" horiz-adv-x="1831" vert-adv-y="1497" d="M153 1196l256 169h119v-672q0 -51 8 -65q13 -19 58 -19h18v-63h-401v63h18q44 0 57 19q9 14 9 65v456q0 27 -1 30q-1 13 -14 13q-7 0 -28 -14l-62 -39zM489 0l699 1365h155l-701 -1365h-153zM1064 218v122l339 479h224v-473h38q63 0 71 72l1 8h59l-15 -208h-154v-71 q0 -52 8 -66q13 -18 58 -18h17v-63h-403v63h16q45 0 58 18q9 15 9 66v71h-326zM1170 346h220v308z" />
<glyph unicode="&#xbd;" horiz-adv-x="1831" vert-adv-y="1497" d="M153 1196l256 169h119v-672q0 -51 8 -65q13 -19 58 -19h18v-63h-401v63h18q44 0 57 19q9 14 9 65v456q0 27 -1 30q-1 13 -14 13q-7 0 -28 -14l-62 -39zM489 0l699 1365h155l-701 -1365h-153zM1133 0v113q0 71 13 110q29 81 131 151q43 30 79 53q74 47 98 93q21 42 21 118 q0 58 -15 93q-20 45 -79 45q-98 0 -98 -122v-67h-137v188q130 60 285 60q291 0 291 -225q0 -150 -124 -212q-41 -21 -191 -77q-87 -35 -113 -59q-40 -35 -45 -80h326q50 0 67 17q14 17 14 60v22h67v-281h-590z" />
<glyph unicode="&#xbe;" horiz-adv-x="1831" vert-adv-y="1497" d="M95 575v202h144v-56q0 -69 12 -93q22 -46 90 -46q66 0 84 49q13 37 13 134q0 70 -21 104q-30 46 -104 46h-65v86h65q74 0 98 41q22 40 22 126q0 73 -10 105q-17 57 -87 57q-53 0 -79 -42q-18 -28 -18 -93v-62h-138v194q120 58 258 58q126 0 207 -39q103 -49 103 -185 q0 -171 -179 -190q91 -7 130 -33q72 -50 72 -166q0 -248 -333 -248q-142 0 -264 51zM489 0l699 1365h155l-701 -1365h-153zM1064 218v122l338 479h224v-473h38q63 0 71 72l1 8h59l-14 -208h-155v-71q0 -52 8 -66q13 -18 59 -18h16v-63h-403v63h17q44 0 58 18q8 15 8 66v71 h-325zM1170 346h219v308z" />
<glyph unicode="&#xbf;" horiz-adv-x="1100" vert-adv-y="1497" d="M63 -59q0 113 40 203q36 81 150 134q48 23 132 46q88 25 123 50q51 36 51 114q0 22 -4 45h172q54 -121 54 -231q0 -144 -106 -226q-34 -26 -130 -67q-73 -30 -97 -63q-29 -40 -29 -102q0 -87 48 -136q43 -44 129 -44q181 0 181 205v114h255v-327q-242 -107 -482 -107 q-219 0 -343 87q-144 101 -144 305zM432 796q0 72 59 122q62 54 148 54q78 0 136 -45q67 -53 67 -135q0 -79 -64 -129q-62 -48 -142 -48q-78 0 -137 48q-67 55 -67 133z" />
<glyph unicode="&#xc0;" horiz-adv-x="1385" vert-adv-y="1497" d="M-20 0v106h37q46 0 74 25q22 20 47 102l266 906q10 32 10 45q0 51 -30 65q-16 8 -63 8h-42v108h615l361 -1167q17 -54 38 -73q22 -20 70 -20h37v-105h-692v105h44q67 0 67 51q0 17 -11 53l-62 220q-13 45 -22 54q-11 9 -58 9h-247q-31 0 -42 -7q-10 -8 -18 -38l-72 -256 q-7 -27 -7 -41q0 -44 53 -44h59v-106h-412zM414 634q0 -19 38 -19h194q39 0 39 23q0 9 -3 19l-133 482l-130 -476q-5 -20 -5 -29zM338 1722h331l105 -256h-141z" />
<glyph unicode="&#xc1;" horiz-adv-x="1385" vert-adv-y="1497" d="M-20 0v106h37q46 0 74 25q22 20 47 102l266 906q10 32 10 45q0 51 -30 65q-16 8 -63 8h-42v108h615l361 -1167q17 -54 38 -73q22 -20 70 -20h37v-105h-692v105h44q67 0 67 51q0 17 -11 53l-62 220q-13 45 -22 54q-11 9 -58 9h-247q-31 0 -42 -7q-10 -8 -18 -38l-72 -256 q-7 -27 -7 -41q0 -44 53 -44h59v-106h-412zM414 634q0 -19 38 -19h194q39 0 39 23q0 9 -3 19l-133 482l-130 -476q-5 -20 -5 -29zM543 1466l105 256h331l-295 -256h-141z" />
<glyph unicode="&#xc2;" horiz-adv-x="1385" vert-adv-y="1497" d="M-20 0v106h37q46 0 74 25q22 20 47 102l266 906q10 32 10 45q0 51 -30 65q-16 8 -63 8h-42v108h615l361 -1167q17 -54 38 -73q22 -20 70 -20h37v-105h-692v105h44q67 0 67 51q0 17 -11 53l-62 220q-13 45 -22 54q-11 9 -58 9h-247q-31 0 -42 -7q-10 -8 -18 -38l-72 -256 q-7 -27 -7 -41q0 -44 53 -44h59v-106h-412zM414 634q0 -19 38 -19h194q39 0 39 23q0 9 -3 19l-133 482l-130 -476q-5 -20 -5 -29zM248 1465l209 256h342l202 -256h-167l-211 134l-214 -134h-161z" />
<glyph unicode="&#xc3;" horiz-adv-x="1385" vert-adv-y="1497" d="M-20 0v106h37q46 0 74 25q22 20 47 102l266 906q10 32 10 45q0 51 -30 65q-16 8 -63 8h-42v108h615l361 -1167q17 -54 38 -73q22 -20 70 -20h37v-105h-692v105h44q67 0 67 51q0 17 -11 53l-62 220q-13 45 -22 54q-11 9 -58 9h-247q-31 0 -42 -7q-10 -8 -18 -38l-72 -256 q-7 -27 -7 -41q0 -44 53 -44h59v-106h-412zM414 634q0 -19 38 -19h194q39 0 39 23q0 9 -3 19l-133 482l-130 -476q-5 -20 -5 -29zM305 1517q0 99 59 155q57 54 137 54q60 0 113 -34l59 -37q60 -38 96 -38q49 0 74 42q12 21 14 55h86v-40q0 -98 -37 -149q-50 -68 -140 -68 q-63 0 -122 36l-60 37q-64 40 -100 40q-44 0 -68 -36q-17 -26 -19 -71h-90q-2 33 -2 54z" />
<glyph unicode="&#xc4;" horiz-adv-x="1385" vert-adv-y="1497" d="M-20 0v106h37q46 0 74 25q22 20 47 102l266 906q10 32 10 45q0 51 -30 65q-16 8 -63 8h-42v108h615l361 -1167q17 -54 38 -73q22 -20 70 -20h37v-105h-692v105h44q67 0 67 51q0 17 -11 53l-62 220q-13 45 -22 54q-11 9 -58 9h-247q-31 0 -42 -7q-10 -8 -18 -38l-72 -256 q-7 -27 -7 -41q0 -44 53 -44h59v-106h-412zM414 634q0 -19 38 -19h194q39 0 39 23q0 9 -3 19l-133 482l-130 -476q-5 -20 -5 -29zM205 1614q0 70 56 113q46 35 114 35q72 0 120 -37q55 -41 55 -110q0 -65 -51 -108q-49 -42 -123 -42q-67 0 -114 39q-57 45 -57 110zM715 1613 q0 69 55 112q46 37 112 37q73 0 122 -39q54 -44 54 -112q0 -62 -52 -105q-50 -42 -121 -42t-120 43q-50 43 -50 106z" />
<glyph unicode="&#xc5;" horiz-adv-x="1385" vert-adv-y="1497" d="M-20 0v106h37q46 0 74 25q22 20 47 102l266 906q10 32 10 45q0 51 -30 65q-16 8 -63 8h-42v108h615l361 -1167q17 -54 38 -73q22 -20 70 -20h37v-105h-692v105h44q67 0 67 51q0 17 -11 53l-62 220q-13 45 -22 54q-11 9 -58 9h-247q-31 0 -42 -7q-10 -8 -18 -38l-72 -256 q-7 -27 -7 -41q0 -44 53 -44h59v-106h-412zM414 634q0 -19 38 -19h194q39 0 39 23q0 9 -3 19l-133 482l-130 -476q-5 -20 -5 -29zM432 1637q0 75 62 125q61 49 142 49q74 0 132 -43q70 -53 70 -134q0 -71 -57 -122q-59 -52 -143 -52q-79 0 -140 47q-66 51 -66 130zM533 1638 q0 -37 28 -63q29 -28 73 -28q43 0 76 29q29 27 29 60q0 40 -31 66q-29 24 -74 24q-41 0 -72 -27q-29 -26 -29 -61z" />
<glyph unicode="&#xc6;" horiz-adv-x="1917" vert-adv-y="1497" d="M-19 0v103h33q53 0 81 32q17 19 36 74l332 935q15 43 15 66q0 28 -21 40q-14 7 -63 7h-48v108h1460v-356h-217v86q-1 94 -34 134q-21 25 -55 32q-27 5 -72 5h-89q-58 0 -79 -20q-24 -22 -24 -69v-302q0 -59 12 -79q12 -18 63 -18h36q49 1 67 23q14 19 14 70v57h189v-415 h-189v56q-1 53 -26 74q-17 14 -64 14h-38q-42 0 -54 -15q-10 -13 -10 -52v-390q0 -67 21 -84q13 -11 43 -13h60h87q59 0 75 1.5t32 10.5q49 25 60 94q3 16 3 96v105h220v-410h-1148v105h28q54 0 72 10q30 15 35 57q2 12 2 72v351q0 46 -13 55q-10 6 -58 6h-251q-36 0 -49 -6 q-11 -7 -23 -40l-144 -414q-12 -34 -12 -48q0 -45 58 -45h41v-103h-394zM502 802q0 -19 18 -22q4 -1 33 -1h210q46 0 55 10q8 8 8 50v312q0 58 -11 78q-14 33 -64 33h-18q-43 0 -69 -23q-18 -16 -35 -63l-118 -337q-9 -25 -9 -37z" />
<glyph unicode="&#xc7;" horiz-adv-x="1242" vert-adv-y="1497" d="M84 701q0 387 122 531q138 164 507 164q164 0 291 -24q14 -3 173 -40v-347h-223v73q0 248 -207 248q-178 0 -217 -173q-25 -113 -25 -453q0 -356 31 -469q42 -155 212 -155q126 0 175 83q40 67 40 210v77h214v-385q-203 -80 -467 -80q-371 0 -512 180q-72 93 -97 268 q-17 116 -17 292zM554 -397l48 75q34 -12 60 -12q35 0 59 19q26 22 26 55q0 34 -28 55q-21 16 -53 16q-12 0 -64 -15l-31 69q73 39 151 39q79 0 131 -37q58 -43 58 -118q0 -73 -50 -120q-60 -57 -155 -57q-62 0 -152 31z" />
<glyph unicode="&#xc8;" horiz-adv-x="1278" vert-adv-y="1497" d="M42 0v105h33q74 0 95 30q14 24 14 109v877q0 86 -14 109q-13 22 -43 27q-18 3 -52 4h-33v104h1124v-355h-217v66q0 91 -14 116q-19 42 -66 55q-32 9 -106 9h-44q-68 0 -84 -8q-30 -12 -37 -50q-3 -16 -3 -67v-272q0 -45 9 -61q9 -15 26 -17q11 -2 45 -2h30q54 1 71 29 q11 19 11 76v43h184v-416h-184v41q-1 57 -20 82q-15 19 -35 23q-7 2 -41 2h-31q-42 0 -55 -16q-10 -12 -10 -33v-61v-333q0 -55 7 -70q12 -31 48 -38q11 -3 91 -3h53q94 1 123 17q52 29 62 99q4 18 4 102v85h214v-408h-1155zM380 1722h331l105 -256h-141z" />
<glyph unicode="&#xc9;" horiz-adv-x="1278" vert-adv-y="1497" d="M42 0v105h33q74 0 95 30q14 24 14 109v877q0 86 -14 109q-13 22 -43 27q-18 3 -52 4h-33v104h1124v-355h-217v66q0 91 -14 116q-19 42 -66 55q-32 9 -106 9h-44q-68 0 -84 -8q-30 -12 -37 -50q-3 -16 -3 -67v-272q0 -45 9 -61q9 -15 26 -17q11 -2 45 -2h30q54 1 71 29 q11 19 11 76v43h184v-416h-184v41q-1 57 -20 82q-15 19 -35 23q-7 2 -41 2h-31q-42 0 -55 -16q-10 -12 -10 -33v-61v-333q0 -55 7 -70q12 -31 48 -38q11 -3 91 -3h53q94 1 123 17q52 29 62 99q4 18 4 102v85h214v-408h-1155zM516 1466l105 256h331l-295 -256h-141z" />
<glyph unicode="&#xca;" horiz-adv-x="1278" vert-adv-y="1497" d="M42 0v105h33q74 0 95 30q14 24 14 109v877q0 86 -14 109q-13 22 -43 27q-18 3 -52 4h-33v104h1124v-355h-217v66q0 91 -14 116q-19 42 -66 55q-32 9 -106 9h-44q-68 0 -84 -8q-30 -12 -37 -50q-3 -16 -3 -67v-272q0 -45 9 -61q9 -15 26 -17q11 -2 45 -2h30q54 1 71 29 q11 19 11 76v43h184v-416h-184v41q-1 57 -20 82q-15 19 -35 23q-7 2 -41 2h-31q-42 0 -55 -16q-10 -12 -10 -33v-61v-333q0 -55 7 -70q12 -31 48 -38q11 -3 91 -3h53q94 1 123 17q52 29 62 99q4 18 4 102v85h214v-408h-1155zM262 1465l209 256h342l202 -256h-167l-211 134 l-214 -134h-161z" />
<glyph unicode="&#xcb;" horiz-adv-x="1278" vert-adv-y="1497" d="M42 0v105h33q74 0 95 30q14 24 14 109v877q0 86 -14 109q-13 22 -43 27q-18 3 -52 4h-33v104h1124v-355h-217v66q0 91 -14 116q-19 42 -66 55q-32 9 -106 9h-44q-68 0 -84 -8q-30 -12 -37 -50q-3 -16 -3 -67v-272q0 -45 9 -61q9 -15 26 -17q11 -2 45 -2h30q54 1 71 29 q11 19 11 76v43h184v-416h-184v41q-1 57 -20 82q-15 19 -35 23q-7 2 -41 2h-31q-42 0 -55 -16q-10 -12 -10 -33v-61v-333q0 -55 7 -70q12 -31 48 -38q11 -3 91 -3h53q94 1 123 17q52 29 62 99q4 18 4 102v85h214v-408h-1155zM212 1614q0 70 56 113q46 35 114 35 q72 0 120 -37q55 -41 55 -110q0 -65 -51 -108q-49 -42 -123 -42q-67 0 -114 39q-57 45 -57 110zM722 1613q0 69 55 112q46 37 112 37q73 0 122 -39q54 -44 54 -112q0 -62 -52 -105q-50 -42 -121 -42t-120 43q-50 43 -50 106z" />
<glyph unicode="&#xcc;" horiz-adv-x="781" vert-adv-y="1497" d="M39 0v105h37q74 0 95 30q14 24 14 109v877q0 86 -14 109q-13 22 -43 27q-18 3 -52 4h-37v104h701v-104h-34q-55 -1 -72 -11q-30 -14 -35 -56q-2 -13 -2 -73v-877q0 -85 14 -109q13 -21 43 -27q19 -3 52 -3h34v-105h-701zM63 1722h331l105 -256h-141z" />
<glyph unicode="&#xcd;" horiz-adv-x="781" vert-adv-y="1497" d="M39 0v105h37q74 0 95 30q14 24 14 109v877q0 86 -14 109q-13 22 -43 27q-18 3 -52 4h-37v104h701v-104h-34q-55 -1 -72 -11q-30 -14 -35 -56q-2 -13 -2 -73v-877q0 -85 14 -109q13 -21 43 -27q19 -3 52 -3h34v-105h-701zM282 1466l105 256h331l-295 -256h-141z" />
<glyph unicode="&#xce;" horiz-adv-x="781" vert-adv-y="1497" d="M39 0v105h37q74 0 95 30q14 24 14 109v877q0 86 -14 109q-13 22 -43 27q-18 3 -52 4h-37v104h701v-104h-34q-55 -1 -72 -11q-30 -14 -35 -56q-2 -13 -2 -73v-877q0 -85 14 -109q13 -21 43 -27q19 -3 52 -3h34v-105h-701zM14 1465l209 256h342l202 -256h-167l-211 134 l-214 -134h-161z" />
<glyph unicode="&#xcf;" horiz-adv-x="780" vert-adv-y="1497" d="M39 0v105h37q74 0 95 30q14 24 14 109v877q0 86 -14 109q-13 22 -43 27q-18 3 -52 4h-37v104h701v-104h-34q-55 -1 -72 -11q-30 -14 -35 -56q-2 -13 -2 -73v-877q0 -85 14 -109q13 -21 43 -27q19 -3 52 -3h34v-105h-701zM-36 1614q0 70 56 113q46 35 114 35q72 0 120 -37 q55 -41 55 -110q0 -65 -51 -108q-49 -42 -123 -42q-67 0 -114 39q-57 45 -57 110zM474 1613q0 69 55 112q46 37 112 37q73 0 122 -39q54 -44 54 -112q0 -62 -52 -105q-50 -42 -121 -42t-120 43q-50 43 -50 106z" />
<glyph unicode="&#xd0;" horiz-adv-x="1420" vert-adv-y="1497" d="M48 0v105h22q54 0 72 10q29 15 35 57q2 14 2 72v381h-131v122h131v374q0 85 -14 109q-13 22 -43 27q-18 3 -52 4h-22v104h843q252 0 350 -166q83 -141 83 -495q0 -218 -21 -350q-38 -241 -184 -311q-90 -43 -289 -43h-782zM590 94h48q102 0 162 31q66 34 85 161 q15 100 15 286q0 428 -23 535q-24 107 -94 143q-37 19 -119 19h-74v-522h168v-122h-168v-531z" />
<glyph unicode="&#xd1;" horiz-adv-x="1349" vert-adv-y="1497" d="M30 0v105h33q54 0 72 10q30 15 35 57q2 12 2 72v877q0 85 -14 109q-13 22 -43 27q-18 3 -52 4h-33v104h504l500 -922v678q0 85 -14 109q-13 22 -42 27q-19 3 -53 4h-33v104h438v-104h-31q-44 -1 -64 -7.5t-31 -23.5q-14 -24 -14 -109v-1121h-396l-469 883v-639 q0 -85 14 -109q13 -21 43 -27q19 -3 52 -3h41v-105h-445zM356 1517q0 99 59 155q57 54 137 54q60 0 113 -34l59 -37q60 -38 96 -38q49 0 74 42q12 21 14 55h86v-40q0 -98 -37 -149q-50 -68 -140 -68q-63 0 -122 36l-60 37q-64 40 -100 40q-44 0 -68 -36q-17 -26 -19 -71h-90 q-2 33 -2 54z" />
<glyph unicode="&#xd2;" horiz-adv-x="1384" vert-adv-y="1497" d="M82 707q0 340 96 488q131 202 514 202q226 0 377 -81q130 -70 183 -209q48 -129 48 -435q0 -136 -9 -227q-26 -273 -178 -386q-133 -99 -417 -99q-105 0 -207.5 18.5t-164.5 48.5q-158 77 -206 292q-36 161 -36 388zM500 662q0 -283 25 -430q17 -97 54 -138 q41 -45 116 -45q102 0 143 91q47 106 47 484q0 337 -23 491q-15 98 -55 143q-42 47 -120 47q-98 0 -141 -92q-31 -67 -42 -275q-4 -76 -4 -276zM365 1722h331l105 -256h-141z" />
<glyph unicode="&#xd3;" horiz-adv-x="1384" vert-adv-y="1497" d="M82 707q0 340 96 488q131 202 514 202q226 0 377 -81q130 -70 183 -209q48 -129 48 -435q0 -136 -9 -227q-26 -273 -178 -386q-133 -99 -417 -99q-105 0 -207.5 18.5t-164.5 48.5q-158 77 -206 292q-36 161 -36 388zM500 662q0 -283 25 -430q17 -97 54 -138 q41 -45 116 -45q102 0 143 91q47 106 47 484q0 337 -23 491q-15 98 -55 143q-42 47 -120 47q-98 0 -141 -92q-31 -67 -42 -275q-4 -76 -4 -276zM583 1466l105 256h331l-295 -256h-141z" />
<glyph unicode="&#xd4;" horiz-adv-x="1384" vert-adv-y="1497" d="M82 707q0 340 96 488q131 202 514 202q226 0 377 -81q130 -70 183 -209q48 -129 48 -435q0 -136 -9 -227q-26 -273 -178 -386q-133 -99 -417 -99q-105 0 -207.5 18.5t-164.5 48.5q-158 77 -206 292q-36 161 -36 388zM500 662q0 -283 25 -430q17 -97 54 -138 q41 -45 116 -45q102 0 143 91q47 106 47 484q0 337 -23 491q-15 98 -55 143q-42 47 -120 47q-98 0 -141 -92q-31 -67 -42 -275q-4 -76 -4 -276zM315 1465l209 256h342l202 -256h-167l-211 134l-214 -134h-161z" />
<glyph unicode="&#xd5;" horiz-adv-x="1384" vert-adv-y="1497" d="M82 707q0 340 96 488q131 202 514 202q226 0 377 -81q130 -70 183 -209q48 -129 48 -435q0 -136 -9 -227q-26 -273 -178 -386q-133 -99 -417 -99q-105 0 -207.5 18.5t-164.5 48.5q-158 77 -206 292q-36 161 -36 388zM500 662q0 -283 25 -430q17 -97 54 -138 q41 -45 116 -45q102 0 143 91q47 106 47 484q0 337 -23 491q-15 98 -55 143q-42 47 -120 47q-98 0 -141 -92q-31 -67 -42 -275q-4 -76 -4 -276zM373 1517q0 99 59 155q57 54 137 54q60 0 113 -34l59 -37q60 -38 96 -38q49 0 74 42q12 21 14 55h86v-40q0 -98 -37 -149 q-50 -68 -140 -68q-63 0 -122 36l-60 37q-64 40 -100 40q-44 0 -68 -36q-17 -26 -19 -71h-90q-2 33 -2 54z" />
<glyph unicode="&#xd6;" horiz-adv-x="1384" vert-adv-y="1497" d="M82 707q0 340 96 488q131 202 514 202q226 0 377 -81q130 -70 183 -209q48 -129 48 -435q0 -136 -9 -227q-26 -273 -178 -386q-133 -99 -417 -99q-105 0 -207.5 18.5t-164.5 48.5q-158 77 -206 292q-36 161 -36 388zM500 662q0 -283 25 -430q17 -97 54 -138 q41 -45 116 -45q102 0 143 91q47 106 47 484q0 337 -23 491q-15 98 -55 143q-42 47 -120 47q-98 0 -141 -92q-31 -67 -42 -275q-4 -76 -4 -276zM264 1587q0 70 56 113q46 35 114 35q72 0 120 -37q55 -41 55 -110q0 -65 -51 -108q-49 -42 -123 -42q-67 0 -114 39 q-57 45 -57 110zM774 1586q0 69 55 112q46 37 112 37q73 0 122 -39q54 -44 54 -112q0 -62 -52 -105q-50 -42 -121 -42t-120 43q-50 43 -50 106z" />
<glyph unicode="&#xd7;" horiz-adv-x="1161" vert-adv-y="1497" d="M129 332l350 351l-350 350l101 101l350 -350l351 350l101 -101l-351 -350l351 -351l-101 -101l-351 351l-350 -351z" />
<glyph unicode="&#xd8;" horiz-adv-x="1383" vert-adv-y="1497" d="M83 706q0 341 97 489q131 202 500 202q156 0 298 -41l74 146l97 -49l-72 -140q99 -56 155 -163q69 -130 69 -478q0 -318 -63 -456q-65 -143 -208 -204q-125 -52 -319 -52q-159 0 -303 38l-78 -156l-95 50l72 145q-103 58 -157 181q-67 155 -67 488zM501 662 q0 -125 7 -244l349 729q-32 158 -165 158q-103 0 -145 -92q-31 -67 -42 -275q-4 -75 -4 -276zM531 211q5 -26 9 -39q33 -123 151 -123q82 0 122 47q53 64 66 274q7 103 7 250q0 203 -8 319z" />
<glyph unicode="&#xd9;" horiz-adv-x="1349" vert-adv-y="1497" d="M28 1261v104h687v-104h-29q-55 -1 -72 -11q-30 -14 -35 -56q-2 -13 -2 -73v-778q0 -89 13 -120q44 -106 213 -106q234 0 234 225v779q0 85 -14 109q-13 22 -43 27q-18 3 -52 4h-31v104h431v-104h-33q-44 -1 -64 -7.5t-31 -23.5q-14 -24 -14 -109v-786q0 -159 -72 -239 q-114 -128 -409 -128q-233 0 -373 73q-97 50 -135 134q-31 66 -31 169v777q0 85 -14 109q-13 22 -43 27q-18 3 -52 4h-29zM456 1722h331l105 -256h-141z" />
<glyph unicode="&#xda;" horiz-adv-x="1349" vert-adv-y="1497" d="M28 1261v104h687v-104h-29q-55 -1 -72 -11q-30 -14 -35 -56q-2 -13 -2 -73v-778q0 -89 13 -120q44 -106 213 -106q234 0 234 225v779q0 85 -14 109q-13 22 -43 27q-18 3 -52 4h-31v104h431v-104h-33q-44 -1 -64 -7.5t-31 -23.5q-14 -24 -14 -109v-786q0 -159 -72 -239 q-114 -128 -409 -128q-233 0 -373 73q-97 50 -135 134q-31 66 -31 169v777q0 85 -14 109q-13 22 -43 27q-18 3 -52 4h-29zM634 1466l105 256h331l-295 -256h-141z" />
<glyph unicode="&#xdb;" horiz-adv-x="1349" vert-adv-y="1497" d="M28 1261v104h687v-104h-29q-55 -1 -72 -11q-30 -14 -35 -56q-2 -13 -2 -73v-778q0 -89 13 -120q44 -106 213 -106q234 0 234 225v779q0 85 -14 109q-13 22 -43 27q-18 3 -52 4h-31v104h431v-104h-33q-44 -1 -64 -7.5t-31 -23.5q-14 -24 -14 -109v-786q0 -159 -72 -239 q-114 -128 -409 -128q-233 0 -373 73q-97 50 -135 134q-31 66 -31 169v777q0 85 -14 109q-13 22 -43 27q-18 3 -52 4h-29zM366 1465l209 256h342l202 -256h-167l-211 134l-214 -134h-161z" />
<glyph unicode="&#xdc;" horiz-adv-x="1349" vert-adv-y="1497" d="M28 1261v104h687v-104h-29q-55 -1 -72 -11q-30 -14 -35 -56q-2 -13 -2 -73v-778q0 -89 13 -120q44 -106 213 -106q234 0 234 225v779q0 85 -14 109q-13 22 -43 27q-18 3 -52 4h-31v104h431v-104h-33q-44 -1 -64 -7.5t-31 -23.5q-14 -24 -14 -109v-786q0 -159 -72 -239 q-114 -128 -409 -128q-233 0 -373 73q-97 50 -135 134q-31 66 -31 169v777q0 85 -14 109q-13 22 -43 27q-18 3 -52 4h-29zM374 1587q0 70 56 113q46 35 114 35q72 0 120 -37q55 -41 55 -110q0 -65 -51 -108q-49 -42 -123 -42q-67 0 -114 39q-57 45 -57 110zM884 1586 q0 69 55 112q46 37 112 37q73 0 122 -39q54 -44 54 -112q0 -62 -52 -105q-50 -42 -121 -42t-120 43q-50 43 -50 106z" />
<glyph unicode="&#xdd;" horiz-adv-x="1208" vert-adv-y="1497" d="M-56 1256v109h700v-110h-32q-54 0 -54 -34q0 -19 22 -65l186 -385l189 399q18 47 18 57q0 29 -64 29h-42v109h389v-109h-36h-2q-31 0 -61 -27q-18 -16 -27 -32q-8 -17 -24 -49l-283 -583v-321q0 -85 14 -109q13 -21 43 -27q19 -3 52 -3h31v-105h-699v105h37q54 0 72 10 q29 15 35 57q2 14 2 72v321l-321 613q-23 45 -43 61q-22 17 -74 17h-28zM564 1466l105 256h331l-295 -256h-141z" />
<glyph unicode="&#xde;" horiz-adv-x="1278" vert-adv-y="1497" d="M36 0v105h37q74 0 95 30q14 24 14 109v877q0 86 -14 109q-13 22 -43 27q-18 3 -52 4h-37v104h701v-104h-34q-55 -1 -72 -11q-30 -14 -35 -56q-2 -13 -2 -73v-56h335q175 0 256 -104q62 -79 62 -260q0 -214 -85 -308q-51 -57 -121 -77q-51 -15 -144 -15h-303v-57 q0 -85 14 -109q13 -21 43 -27q19 -3 52 -3h34v-105h-701zM594 409h78q96 0 125 78q21 54 21 211q0 172 -33 222q-35 54 -120 54h-71v-565z" />
<glyph unicode="&#xdf;" horiz-adv-x="1384" vert-adv-y="1497" d="M35 0v84l31 1q54 0 74 19q15 15 16 39q1 1 1 47v661h-122v85h122v91q0 137 46 204q114 169 415 169q169 0 284 -45q166 -65 166 -230q0 -110 -95 -207l-22 -22q-34 -35 -34 -67q0 -34 27 -60q18 -17 70 -45l91 -48q120 -65 170 -145q52 -84 52 -198q0 -164 -111 -264 t-326 -100q-98 0 -191 22q-32 8 -89 24v286h217v-86q0 -58 9 -88q15 -47 70 -47q79 0 79 97q0 74 -39 113q-23 22 -88 59l-99 56q-89 51 -121 103q-36 59 -36 126q0 84 48 164l19 31q82 136 82 271q0 186 -110 186q-56 0 -81 -42q-15 -25 -15 -107v-1137h-510z" />
<glyph unicode="&#xe0;" horiz-adv-x="1171" vert-adv-y="1497" d="M83 254q0 161 81 230q45 38 116 57q80 22 185 40l175 29v143q0 123 -112 123q-91 0 -123 -69q-16 -34 -16 -138v-34h-220v267q191 75 436 75q265 0 354 -90q47 -48 61 -124q6 -36 6 -98v-475q0 -51 4 -63q10 -32 43 -39q10 -3 44 -3l30 -1v-84h-507v75 q-156 -112 -296 -112q-139 0 -208 94q-53 72 -53 197zM460 288q0 -55 15 -91q20 -49 63 -49q45 0 102 56v299q-73 -15 -98.5 -25t-42.5 -29q-39 -43 -39 -161zM298 1313h272l111 -258h-139z" />
<glyph unicode="&#xe1;" horiz-adv-x="1171" vert-adv-y="1497" d="M83 254q0 161 81 230q45 38 116 57q80 22 185 40l175 29v143q0 123 -112 123q-91 0 -123 -69q-16 -34 -16 -138v-34h-220v267q191 75 436 75q265 0 354 -90q47 -48 61 -124q6 -36 6 -98v-475q0 -51 4 -63q10 -32 43 -39q10 -3 44 -3l30 -1v-84h-507v75 q-156 -112 -296 -112q-139 0 -208 94q-53 72 -53 197zM460 288q0 -55 15 -91q20 -49 63 -49q45 0 102 56v299q-73 -15 -98.5 -25t-42.5 -29q-39 -43 -39 -161zM489 1055l112 258h271l-243 -258h-140z" />
<glyph unicode="&#xe2;" horiz-adv-x="1171" vert-adv-y="1497" d="M83 254q0 161 81 230q45 38 116 57q80 22 185 40l175 29v143q0 123 -112 123q-91 0 -123 -69q-16 -34 -16 -138v-34h-220v267q191 75 436 75q265 0 354 -90q47 -48 61 -124q6 -36 6 -98v-475q0 -51 4 -63q10 -32 43 -39q10 -3 44 -3l30 -1v-84h-507v75 q-156 -112 -296 -112q-139 0 -208 94q-53 72 -53 197zM460 288q0 -55 15 -91q20 -49 63 -49q45 0 102 56v299q-73 -15 -98.5 -25t-42.5 -29q-39 -43 -39 -161zM279 1058l134 258h348l130 -258h-162l-144 145l-146 -145h-160z" />
<glyph unicode="&#xe3;" horiz-adv-x="1171" vert-adv-y="1497" d="M83 254q0 161 81 230q45 38 116 57q80 22 185 40l175 29v143q0 123 -112 123q-91 0 -123 -69q-16 -34 -16 -138v-34h-220v267q191 75 436 75q265 0 354 -90q47 -48 61 -124q6 -36 6 -98v-475q0 -51 4 -63q10 -32 43 -39q10 -3 44 -3l30 -1v-84h-507v75 q-156 -112 -296 -112q-139 0 -208 94q-53 72 -53 197zM460 288q0 -55 15 -91q20 -49 63 -49q45 0 102 56v299q-73 -15 -98.5 -25t-42.5 -29q-39 -43 -39 -161zM266 1110q0 99 59 155q57 54 137 54q60 0 113 -34l59 -37q60 -38 96 -38q49 0 74 42q12 21 14 55h86v-40 q0 -98 -37 -149q-50 -68 -139 -68q-64 0 -123 36l-60 37q-64 40 -100 40q-44 0 -68 -36q-17 -26 -19 -71h-90q-2 33 -2 54z" />
<glyph unicode="&#xe4;" horiz-adv-x="1171" vert-adv-y="1497" d="M83 254q0 161 81 230q45 38 116 57q80 22 185 40l175 29v143q0 123 -112 123q-91 0 -123 -69q-16 -34 -16 -138v-34h-220v267q191 75 436 75q265 0 354 -90q47 -48 61 -124q6 -36 6 -98v-475q0 -51 4 -63q10 -32 43 -39q10 -3 44 -3l30 -1v-84h-507v75 q-156 -112 -296 -112q-139 0 -208 94q-53 72 -53 197zM216 1187q0 59 48 96q43 32 104 32t101 -36q43 -38 43 -91q0 -50 -42 -89q-43 -41 -104 -41q-58 0 -102 32q-48 37 -48 97zM460 288q0 -55 15 -91q20 -49 63 -49q45 0 102 56v299q-73 -15 -98.5 -25t-42.5 -29 q-39 -43 -39 -161zM651 1185q0 60 46 97q41 32 103 32t104 -37t42 -91q0 -47 -37 -84q-45 -46 -112 -46q-55 0 -98 34q-48 38 -48 95z" />
<glyph unicode="&#xe5;" horiz-adv-x="1171" vert-adv-y="1497" d="M83 254q0 161 81 230q45 38 116 57q80 22 185 40l175 29v143q0 123 -112 123q-91 0 -123 -69q-16 -34 -16 -138v-34h-220v267q191 75 436 75q265 0 354 -90q47 -48 61 -124q6 -36 6 -98v-475q0 -51 4 -63q10 -32 43 -39q10 -3 44 -3l30 -1v-84h-507v75 q-156 -112 -296 -112q-139 0 -208 94q-53 72 -53 197zM460 288q0 -55 15 -91q20 -49 63 -49q45 0 102 56v299q-73 -15 -98.5 -25t-42.5 -29q-39 -43 -39 -161zM412 1230q0 76 62 125q61 49 142 49q74 0 132 -43q70 -53 70 -134q0 -71 -57 -122q-59 -52 -143 -52 q-79 0 -140 47q-66 51 -66 130zM513 1232q0 -38 28 -65q29 -27 73 -27q43 0 76 29q29 27 29 60q0 40 -31 66q-29 24 -74 24q-41 0 -72 -27q-29 -26 -29 -60z" />
<glyph unicode="&#xe6;" horiz-adv-x="1668" vert-adv-y="1497" d="M82 259q0 154 88 228q86 73 296 86q68 4 183 4v53q0 132 -11 166q-14 45 -53 67q-30 17 -64 17q-68 0 -101 -51q-28 -41 -28 -142v-52h-218v266q207 79 405 79q178 0 305 -65q107 66 260 66q288 0 385 -177q40 -74 49 -213q3 -33 5 -134h-552v-37q0 -163 22 -234 q37 -118 138 -118q75 0 106 56q22 41 22 130v92h229v-298q-204 -83 -439 -83q-165 0 -262 50q-56 30 -111 93q-166 -143 -372 -143q-146 0 -213 71q-69 73 -69 223zM457 286q0 -136 99 -136q62 0 122 58q-31 75 -31 199q0 15 1 50q-70 2 -104 -6t-54 -31q-33 -39 -33 -134z M1033 577h202v55q0 115 -16 171q-21 70 -81 70q-77 0 -95 -118q-8 -49 -10 -178z" />
<glyph unicode="&#xe7;" horiz-adv-x="1029" vert-adv-y="1497" d="M81 453q0 214 46 310q104 213 465 213q202 0 380 -71v-272h-221v67q0 66 -26 118q-29 57 -104 57q-95 0 -120 -101q-18 -75 -18 -391q0 -164 17 -225q26 -96 118 -96q55 0 91 35q42 42 42 171v62h221v-293q-85 -33 -144 -47q-111 -26 -250 -26q-305 0 -415 147 q-55 74 -72 176q-10 59 -10 166zM406 -383l43 67q31 -10 54 -10q32 0 53 17q24 20 24 49q0 30 -26 49q-18 14 -47 14q-11 0 -58 -13l-28 62q67 35 136 35q71 0 118 -34q52 -38 52 -106q0 -64 -45 -107q-53 -51 -140 -51q-55 0 -136 28z" />
<glyph unicode="&#xe8;" horiz-adv-x="1100" vert-adv-y="1497" d="M76 472q0 251 112 379q116 133 388 133q170 0 262 -51q146 -83 175 -280q9 -63 10 -191h-547v-44q0 -171 19 -234q35 -111 130 -111q102 0 127 109q6 27 7 161h230v-295q-87 -29 -142 -44q-125 -36 -271 -36q-275 0 -385 124q-115 128 -115 380zM474 584h202 q0 145 -6 182q-16 108 -91 108q-79 0 -96 -125q-7 -54 -9 -165zM263 1313h272l111 -258h-139z" />
<glyph unicode="&#xe9;" horiz-adv-x="1100" vert-adv-y="1497" d="M76 472q0 251 112 379q116 133 388 133q170 0 262 -51q146 -83 175 -280q9 -63 10 -191h-547v-44q0 -171 19 -234q35 -111 130 -111q102 0 127 109q6 27 7 161h230v-295q-87 -29 -142 -44q-125 -36 -271 -36q-275 0 -385 124q-115 128 -115 380zM474 584h202 q0 145 -6 182q-16 108 -91 108q-79 0 -96 -125q-7 -54 -9 -165zM454 1055l112 258h271l-243 -258h-140z" />
<glyph unicode="&#xea;" horiz-adv-x="1100" vert-adv-y="1497" d="M76 472q0 251 112 379q116 133 388 133q170 0 262 -51q146 -83 175 -280q9 -63 10 -191h-547v-44q0 -171 19 -234q35 -111 130 -111q102 0 127 109q6 27 7 161h230v-295q-87 -29 -142 -44q-125 -36 -271 -36q-275 0 -385 124q-115 128 -115 380zM474 584h202 q0 145 -6 182q-16 108 -91 108q-79 0 -96 -125q-7 -54 -9 -165zM271 1058l134 258h348l130 -258h-162l-144 145l-146 -145h-160z" />
<glyph unicode="&#xeb;" horiz-adv-x="1171" vert-adv-y="1497" d="M112 472q0 251 112 379q116 133 388 133q170 0 262 -51q146 -83 175 -280q9 -63 10 -191h-547v-44q0 -171 19 -234q35 -111 130 -111q102 0 127 109q6 27 7 161h230v-295q-87 -29 -142 -44q-125 -36 -271 -36q-275 0 -385 124q-115 128 -115 380zM221 1187q0 59 48 96 q43 32 104 32q60 0 100 -36q43 -38 43 -91q0 -50 -42 -89q-43 -41 -104 -41q-57 0 -101 32q-48 37 -48 97zM510 584h202q0 145 -6 182q-16 108 -91 108q-79 0 -96 -125q-7 -54 -9 -165zM656 1185q0 60 45 97q41 32 103 32t104 -37t42 -91q0 -47 -37 -84q-45 -46 -111 -46 q-56 0 -99 34q-47 38 -47 95z" />
<glyph unicode="&#xec;" horiz-adv-x="710" vert-adv-y="1497" d="M42 0v84l34 1q55 0 75 19q14 15 15 39q1 12 1 47v556q0 51 -4 63q-9 32 -43 39q-10 3 -44 4h-34v84h512v-746q0 -51 4 -63q10 -32 43 -39q10 -3 44 -3l31 -1v-84h-634zM68 1313h272l111 -258h-139z" />
<glyph unicode="&#xed;" horiz-adv-x="710" vert-adv-y="1497" d="M42 0v84l34 1q55 0 75 19q14 15 15 39q1 12 1 47v556q0 51 -4 63q-9 32 -43 39q-10 3 -44 4h-34v84h512v-746q0 -51 4 -63q10 -32 43 -39q10 -3 44 -3l31 -1v-84h-634zM259 1055l112 258h271l-243 -258h-140z" />
<glyph unicode="&#xee;" horiz-adv-x="710" vert-adv-y="1497" d="M42 0v84l34 1q55 0 75 19q14 15 15 39q1 12 1 47v556q0 51 -4 63q-9 32 -43 39q-10 3 -44 4h-34v84h512v-746q0 -51 4 -63q10 -32 43 -39q10 -3 44 -3l31 -1v-84h-634zM49 1058l134 258h348l130 -258h-162l-144 145l-146 -145h-160z" />
<glyph unicode="&#xef;" horiz-adv-x="710" vert-adv-y="1497" d="M42 0v84l34 1q55 0 75 19q14 15 15 39q1 12 1 47v556q0 51 -4 63q-9 32 -43 39q-10 3 -44 4h-34v84h512v-746q0 -51 4 -63q10 -32 43 -39q10 -3 44 -3l31 -1v-84h-634zM-20 1187q0 59 48 96q43 32 104 32t101 -36q43 -38 43 -91q0 -50 -42 -89q-43 -41 -104 -41 q-58 0 -102 32q-48 36 -48 97zM360 1185q0 60 46 97q41 32 103 32t104 -37t42 -91q0 -47 -37 -84q-45 -46 -112 -46q-55 0 -98 34q-48 38 -48 95z" />
<glyph unicode="&#xf0;" horiz-adv-x="1171" vert-adv-y="1497" d="M77 475q0 334 195 434q121 62 312 63q-61 79 -143 171l-200 -115l-44 77l185 107q-104 119 -144 167h186l95 -88l220 127l44 -77l-197 -114q339 -316 388 -377q80 -96 104 -193q17 -69 17 -172q0 -271 -105 -388q-122 -136 -396 -136q-317 0 -433 165q-84 120 -84 349z M468 462q0 -184 16 -279q20 -118 104 -118q48 0 77 42q37 55 37 347q0 264 -13 322q-22 94 -104 94q-57 0 -82 -44q-35 -62 -35 -364z" />
<glyph unicode="&#xf1;" horiz-adv-x="1278" vert-adv-y="1497" d="M41 0v84l33 1q54 0 74 19q14 15 16 39q1 1 1 47v557q0 51 -4 64q-10 31 -43 38q-9 3 -44 4h-33v84h511v-63q145 104 300 104q137 0 212 -78q38 -40 50 -88q11 -48 11 -118v-504q0 -51 4 -63q10 -32 43 -39q10 -3 44 -3l30 -1v-84h-509v697q0 66 -16 90q-17 27 -59 27 q-62 0 -110 -54v-570q0 -51 4 -63q10 -32 43 -39q10 -3 44 -3l31 -1v-84h-633zM320 1110q0 99 59 155q57 54 137 54q60 0 113 -34l59 -37q60 -38 96 -38q49 0 74 42q12 21 14 55h86v-40q0 -98 -37 -149q-50 -68 -139 -68q-64 0 -123 36l-60 37q-64 40 -100 40q-44 0 -68 -36 q-17 -26 -19 -71h-90q-2 33 -2 54z" />
<glyph unicode="&#xf2;" horiz-adv-x="1171" vert-adv-y="1497" d="M77 476q0 282 137 395q122 101 376 101q277 0 391 -123q114 -121 114 -370q0 -265 -105 -382q-122 -136 -396 -136q-317 0 -433 165q-84 120 -84 350zM468 462q0 -184 16 -279q20 -118 104 -118q48 0 77 42q37 55 37 347q0 264 -13 322q-22 94 -104 94q-57 0 -82 -44 q-35 -62 -35 -364zM299 1313h272l111 -258h-139z" />
<glyph unicode="&#xf3;" horiz-adv-x="1171" vert-adv-y="1497" d="M77 476q0 282 137 395q122 101 376 101q277 0 391 -123q114 -121 114 -370q0 -265 -105 -382q-122 -136 -396 -136q-317 0 -433 165q-84 120 -84 350zM468 462q0 -184 16 -279q20 -118 104 -118q48 0 77 42q37 55 37 347q0 264 -13 322q-22 94 -104 94q-57 0 -82 -44 q-35 -62 -35 -364zM490 1055l112 258h271l-243 -258h-140z" />
<glyph unicode="&#xf4;" horiz-adv-x="1171" vert-adv-y="1497" d="M77 476q0 282 137 395q122 101 376 101q277 0 391 -123q114 -121 114 -370q0 -265 -105 -382q-122 -136 -396 -136q-317 0 -433 165q-84 120 -84 350zM468 462q0 -184 16 -279q20 -118 104 -118q48 0 77 42q37 55 37 347q0 264 -13 322q-22 94 -104 94q-57 0 -82 -44 q-35 -62 -35 -364zM280 1058l134 258h348l130 -258h-162l-144 145l-146 -145h-160z" />
<glyph unicode="&#xf5;" horiz-adv-x="1171" vert-adv-y="1497" d="M77 476q0 282 137 395q122 101 376 101q277 0 391 -123q114 -121 114 -370q0 -265 -105 -382q-122 -136 -396 -136q-317 0 -433 165q-84 120 -84 350zM468 462q0 -184 16 -279q20 -118 104 -118q48 0 77 42q37 55 37 347q0 264 -13 322q-22 94 -104 94q-57 0 -82 -44 q-35 -62 -35 -364zM267 1110q0 99 59 155q57 54 137 54q60 0 113 -34l59 -37q60 -38 96 -38q49 0 74 42q12 21 14 55h86v-40q0 -98 -37 -149q-50 -68 -139 -68q-64 0 -123 36l-60 37q-64 40 -100 40q-44 0 -68 -36q-17 -26 -19 -71h-90q-2 33 -2 54z" />
<glyph unicode="&#xf6;" horiz-adv-x="1171" vert-adv-y="1497" d="M77 476q0 282 137 395q122 101 376 101q277 0 391 -123q114 -121 114 -370q0 -265 -105 -382q-122 -136 -396 -136q-317 0 -433 165q-84 120 -84 350zM468 462q0 -184 16 -279q20 -118 104 -118q48 0 77 42q37 55 37 347q0 264 -13 322q-22 94 -104 94q-57 0 -82 -44 q-35 -62 -35 -364zM194 1187q0 59 48 96q43 32 104 32t101 -36q43 -38 43 -91q0 -50 -42 -89q-43 -41 -104 -41q-58 0 -102 32q-48 36 -48 97zM683 1185q0 60 46 97q41 32 103 32t104 -37t42 -91q0 -47 -37 -84q-45 -46 -112 -46q-55 0 -98 34q-48 38 -48 95z" />
<glyph unicode="&#xf7;" horiz-adv-x="1161" vert-adv-y="1497" d="M61 611v143h1038v-143h-1038zM413 289q0 59 45 102q50 48 127 48q72 0 119 -48q43 -44 43 -103q0 -57 -42 -100q-50 -51 -123 -51q-75 0 -125 51q-44 45 -44 101zM413 1079q0 59 45 102q50 48 127 48q72 0 119 -48q43 -44 43 -103q0 -57 -42 -100q-50 -51 -123 -51 q-75 0 -125 51q-44 45 -44 101z" />
<glyph unicode="&#xf8;" horiz-adv-x="1171" vert-adv-y="1497" d="M77 475q0 282 137 396q122 101 368 101q124 0 211 -22l64 122l87 -46l-58 -108q209 -101 209 -438q0 -266 -105 -383q-122 -136 -393 -136q-119 0 -212 24l-70 -131l-87 47l64 117q-82 40 -131 108q-84 118 -84 349zM468 464q0 -97 3 -148l217 461q-22 93 -101 93 q-59 0 -84 -44q-35 -62 -35 -362zM492 144q24 -79 95 -79q49 0 78 42q37 55 37 336q0 51 -1 140z" />
<glyph unicode="&#xf9;" horiz-adv-x="1278" vert-adv-y="1497" d="M46 853v84h506v-717q0 -47 12 -68q17 -29 61 -29q59 0 106 50v574q0 51 -4 64q-9 31 -43 38q-11 3 -44 4h-31v84h505v-747q0 -51 4 -63q10 -31 43 -39q10 -3 44 -3l35 -1v-84h-509v68q-126 -104 -294 -104q-147 0 -222 88q-52 61 -52 171v524q0 51 -4 64q-9 31 -43 38 q-10 3 -44 4h-26zM352 1313h272l111 -258h-139z" />
<glyph unicode="&#xfa;" horiz-adv-x="1278" vert-adv-y="1497" d="M46 853v84h506v-717q0 -47 12 -68q17 -29 61 -29q59 0 106 50v574q0 51 -4 64q-9 31 -43 38q-11 3 -44 4h-31v84h505v-747q0 -51 4 -63q10 -31 43 -39q10 -3 44 -3l35 -1v-84h-509v68q-126 -104 -294 -104q-147 0 -222 88q-52 61 -52 171v524q0 51 -4 64q-9 31 -43 38 q-10 3 -44 4h-26zM543 1055l112 258h271l-243 -258h-140z" />
<glyph unicode="&#xfb;" horiz-adv-x="1278" vert-adv-y="1497" d="M46 853v84h506v-717q0 -47 12 -68q17 -29 61 -29q59 0 106 50v574q0 51 -4 64q-9 31 -43 38q-11 3 -44 4h-31v84h505v-747q0 -51 4 -63q10 -31 43 -39q10 -3 44 -3l35 -1v-84h-509v68q-126 -104 -294 -104q-147 0 -222 88q-52 61 -52 171v524q0 51 -4 64q-9 31 -43 38 q-10 3 -44 4h-26zM333 1058l134 258h348l130 -258h-162l-144 145l-146 -145h-160z" />
<glyph unicode="&#xfc;" horiz-adv-x="1278" vert-adv-y="1497" d="M46 853v84h506v-717q0 -47 12 -68q17 -29 61 -29q59 0 106 50v574q0 51 -4 64q-9 31 -43 38q-11 3 -44 4h-31v84h505v-747q0 -51 4 -63q10 -31 43 -39q10 -3 44 -3l35 -1v-84h-509v68q-126 -104 -294 -104q-147 0 -222 88q-52 61 -52 171v524q0 51 -4 64q-9 31 -43 38 q-10 3 -44 4h-26zM251 1187q0 59 48 96q43 32 104 32t101 -36q43 -38 43 -91q0 -50 -42 -89q-43 -41 -104 -41q-58 0 -102 32q-48 36 -48 97zM740 1185q0 60 46 97q41 32 103 32t104 -37t42 -91q0 -47 -37 -84q-45 -46 -112 -46q-55 0 -98 34q-48 38 -48 95z" />
<glyph unicode="&#xfd;" horiz-adv-x="1030" vert-adv-y="1497" d="M-36 854v83h643v-83h-43q-61 0 -61 -39q0 -15 9 -47l130 -460l147 459q10 31 10 54q0 33 -72 33h-30v83h368v-83h-31q-40 0 -65 -20q-18 -14 -24 -31q-2 -4 -16 -43l-322 -911q-11 -30 -56 -126q-93 -196 -289 -196q-114 0 -225 60v240h211v-50q0 -107 72 -107 q82 0 130 138l-343 943q-34 101 -103 103h-40zM487 1055l112 258h271l-243 -258h-140z" />
<glyph unicode="&#xfe;" horiz-adv-x="1278" vert-adv-y="1497" d="M35 -369h36q55 1 74 20q14 15 16 39q1 2 1 47v1438q0 51 -4 64q-9 31 -43 38q-10 3 -43 4h-36v84h513v-493q112 103 278 103q366 0 366 -492q0 -237 -75 -361q-95 -158 -285 -158q-72 0 -136 22q-59 20 -148 78v-327q0 -51 4 -64q9 -31 43 -38q9 -3 44 -4h33v-84h-638v84 zM549 199q54 -70 126 -70q81 0 106 96q16 61 16 230q0 213 -20 277q-27 85 -103 85q-71 0 -125 -67v-551z" />
<glyph unicode="&#xff;" horiz-adv-x="1030" vert-adv-y="1497" d="M-36 854v83h643v-83h-43q-61 0 -61 -39q0 -15 9 -47l130 -460l147 459q10 31 10 54q0 33 -72 33h-30v83h368v-83h-31q-40 0 -65 -20q-18 -14 -24 -31q-2 -4 -16 -43l-322 -911q-11 -30 -56 -126q-93 -196 -289 -196q-114 0 -225 60v240h211v-50q0 -107 72 -107 q82 0 130 138l-343 943q-34 101 -103 103h-40zM191 1187q0 59 48 96q43 32 104 32t101 -36q43 -38 43 -91q0 -50 -42 -89q-43 -41 -104 -41q-58 0 -102 32q-48 36 -48 97zM680 1185q0 60 46 97q41 32 103 32t104 -37t42 -91q0 -47 -37 -84q-45 -46 -112 -46q-55 0 -98 34 q-48 38 -48 95z" />
<glyph unicode="&#x131;" horiz-adv-x="710" vert-adv-y="1497" d="M42 0v84l34 1q55 0 75 19q14 15 15 39q1 12 1 47v556q0 51 -4 63q-9 32 -43 39q-10 3 -44 4h-34v84h512v-746q0 -51 4 -63q10 -32 43 -39q10 -3 44 -3l31 -1v-84h-634z" />
<glyph unicode="&#x152;" horiz-adv-x="1917" vert-adv-y="1497" d="M90 721q0 426 179 567q79 62 209 91q90 20 186 20q57 0 94 -6l136 -21q47 -7 83 -7h817v-355h-219v121q-1 73 -23 99q-26 30 -97 31h-83q-47 0 -60 -12q-12 -11 -12 -44v-353q0 -44 7 -57q11 -18 51 -18h37q32 1 40 20q7 16 7 56v76h185v-417h-185v70q0 39 -6 54 q-9 20 -42 20h-47q-48 1 -47 -53v-405q1 -61 21 -79q20 -17 77 -18h95q64 1 88 33q22 29 23 105v169h222v-408h-790q-61 -1 -121 -13l-29 -6q-103 -20 -227 -20q-345 0 -471 210q-98 165 -98 550zM509 699q0 -163 15 -331q17 -193 56 -248q45 -63 140 -63q100 0 138 64 q28 47 28 165v761q0 137 -32 191q-39 64 -138 64q-122 0 -164 -113q-43 -116 -43 -490z" />
<glyph unicode="&#x153;" horiz-adv-x="1739" vert-adv-y="1497" d="M81 460q0 170 41 272q97 240 457 240q189 0 318 -95q57 42 130 69q77 29 204 29q284 0 379 -198q42 -88 47 -321h-550v-102q0 -287 155 -287q83 0 112 69q19 46 19 127v80h232v-294q-203 -87 -416 -87q-185 0 -323 100q-116 -103 -306 -103q-303 0 -417 165 q-82 118 -82 336zM470 474q0 -168 15 -274q11 -74 31 -103q26 -37 77 -37q67 0 92 64q29 75 29 356q0 186 -15 265q-24 127 -111 127q-90 0 -107 -156q-11 -108 -11 -242zM1107 578h201q1 38 1 61q0 99 -11 149q-17 83 -86 83q-77 0 -96 -121q-11 -66 -9 -172z" />
<glyph unicode="&#x178;" horiz-adv-x="1208" vert-adv-y="1497" d="M-56 1256v109h700v-110h-32q-54 0 -54 -34q0 -19 22 -65l186 -385l189 399q18 47 18 57q0 29 -64 29h-42v109h389v-109h-36h-2q-31 0 -61 -27q-18 -16 -27 -32q-8 -17 -24 -49l-283 -583v-321q0 -85 14 -109q13 -21 43 -27q19 -3 52 -3h31v-105h-699v105h37q54 0 72 10 q29 15 35 57q2 14 2 72v321l-321 613q-23 45 -43 61q-22 17 -74 17h-28zM246 1614q0 70 56 113q46 35 114 35q72 0 120 -37q55 -41 55 -110q0 -65 -51 -108q-49 -42 -123 -42q-67 0 -114 39q-57 45 -57 110zM756 1613q0 69 55 112q46 37 112 37q73 0 122 -39q54 -44 54 -112 q0 -62 -52 -105q-50 -42 -121 -42t-120 43q-50 43 -50 106z" />
<glyph unicode="&#x2c6;" vert-adv-y="1497" d="M206 1058l134 258h348l130 -258h-162l-144 145l-146 -145h-160z" />
<glyph unicode="&#x2da;" vert-adv-y="1497" d="M309 1230q0 76 62 125q61 49 142 49q74 0 132 -43q70 -53 70 -134q0 -71 -57 -122q-59 -52 -143 -52q-79 0 -140 47q-66 51 -66 130zM410 1232q0 -38 28 -65q29 -27 73 -27q43 0 76 29q29 27 29 60q0 40 -31 66q-29 24 -74 24q-41 0 -72 -27q-29 -26 -29 -60z" />
<glyph unicode="&#x2dc;" vert-adv-y="1497" d="M193 1110q0 99 59 155q57 54 137 54q60 0 113 -34l59 -37q60 -38 96 -38q49 0 74 42q12 21 14 55h86v-40q0 -98 -37 -149q-50 -68 -139 -68q-64 0 -123 36l-60 37q-64 40 -100 40q-44 0 -68 -36q-17 -26 -19 -71h-90q-2 33 -2 54z" />
<glyph unicode="&#x2000;" horiz-adv-x="905" vert-adv-y="0" />
<glyph unicode="&#x2001;" horiz-adv-x="1811" vert-adv-y="0" />
<glyph unicode="&#x2002;" horiz-adv-x="905" vert-adv-y="0" />
<glyph unicode="&#x2003;" horiz-adv-x="1811" vert-adv-y="0" />
<glyph unicode="&#x2004;" horiz-adv-x="603" vert-adv-y="0" />
<glyph unicode="&#x2005;" horiz-adv-x="452" vert-adv-y="0" />
<glyph unicode="&#x2006;" horiz-adv-x="301" vert-adv-y="0" />
<glyph unicode="&#x2007;" horiz-adv-x="301" vert-adv-y="0" />
<glyph unicode="&#x2008;" horiz-adv-x="226" vert-adv-y="0" />
<glyph unicode="&#x2009;" horiz-adv-x="362" vert-adv-y="0" />
<glyph unicode="&#x200a;" horiz-adv-x="100" vert-adv-y="0" />
<glyph unicode="&#x2010;" horiz-adv-x="498" vert-adv-y="1497" d="M0 330v282h498v-282h-498z" />
<glyph unicode="&#x2011;" horiz-adv-x="498" vert-adv-y="1497" d="M0 330v282h498v-282h-498z" />
<glyph unicode="&#x2012;" horiz-adv-x="498" vert-adv-y="1497" d="M0 330v282h498v-282h-498z" />
<glyph unicode="&#x2013;" horiz-adv-x="1242" vert-adv-y="1497" d="M114 320v306h1015v-306h-1015z" />
<glyph unicode="&#x2014;" horiz-adv-x="1490" vert-adv-y="1497" d="M0 319v304h1490v-304h-1490z" />
<glyph unicode="&#x2018;" horiz-adv-x="603" vert-adv-y="1497" d="M21 812l329 553h208l-157 -553h-380z" />
<glyph unicode="&#x2019;" horiz-adv-x="603" vert-adv-y="1497" d="M21 812l157 553h380l-329 -553h-208z" />
<glyph unicode="&#x201a;" horiz-adv-x="599" vert-adv-y="1497" d="M21 -239l157 553h380l-329 -553h-208z" />
<glyph unicode="&#x201c;" horiz-adv-x="1090" vert-adv-y="1497" d="M21 812l329 553h208l-157 -553h-380zM508 812l329 553h208l-157 -553h-380z" />
<glyph unicode="&#x201d;" horiz-adv-x="1090" vert-adv-y="1497" d="M21 812l157 553h380l-329 -553h-208zM508 812l157 553h380l-329 -553h-208z" />
<glyph unicode="&#x201e;" horiz-adv-x="1090" vert-adv-y="1497" d="M21 -239l157 553h380l-329 -553h-208zM508 -239l157 553h380l-329 -553h-208z" />
<glyph unicode="&#x2022;" horiz-adv-x="1365" vert-adv-y="1497" d="M401 694q0 121 84 202q86 82 204 82q113 0 196 -83q84 -83 84 -201t-83 -201t-201 -83q-116 0 -199 82q-85 84 -85 202z" />
<glyph unicode="&#x2026;" horiz-adv-x="1809" vert-adv-y="1497" d="M95 147q0 82 65 134q56 45 140 45q82 0 140 -47q63 -51 63 -130q0 -72 -57 -124q-56 -52 -141 -52q-87 0 -147 47q-63 51 -63 127zM698 147q0 83 65 134q56 45 140 45q82 0 140 -47q63 -51 63 -130q0 -72 -57 -124t-141 -52q-87 0 -147 47q-63 51 -63 127zM1301 147 q0 82 65 134q56 45 140 45q82 0 140 -47q63 -51 63 -130q0 -72 -57 -124q-56 -52 -141 -52q-87 0 -147 47q-63 51 -63 127z" />
<glyph unicode="&#x202f;" horiz-adv-x="362" vert-adv-y="0" />
<glyph unicode="&#x2039;" horiz-adv-x="617" vert-adv-y="1497" d="M84 47l139 436l-139 439h238l197 -439l-197 -436h-238z" />
<glyph unicode="&#x203a;" horiz-adv-x="617" vert-adv-y="1497" d="M102 483l197 439h237l-139 -439l139 -436h-237z" />
<glyph unicode="&#x205f;" horiz-adv-x="452" vert-adv-y="0" />
<glyph unicode="&#x20ac;" horiz-adv-x="1107" vert-adv-y="1497" d="M-25 546l55 90h115q-1 34 3 104h-160l55 90h114q25 159 82 268q155 294 454 294q166 0 277 -109l44 104h52v-403h-63q-19 92 -43 148q-69 165 -223 165q-213 0 -290 -301q-19 -74 -25 -166h515l-41 -90h-479q-1 -60 -1 -96v-8h433l-41 -90h-388q9 -174 71 -298 q35 -71 82 -105q59 -43 151 -43q144 0 256 96q35 30 82 90v-163q-156 -149 -364 -149q-396 0 -516 387q-25 82 -33 185h-174z" />
<glyph unicode="&#x2122;" horiz-adv-x="1789" vert-adv-y="1497" d="M-9 1120v259h717v-259h-141v39q0 143 -65 143q-15 0 -19 -8q-3 -6 -3 -27v-567q0 -50 7 -62q11 -15 51 -15h26v-77h-430v77h26q41 0 52 15q7 13 7 62v564q0 25 -4 31q-4 8 -19 8q-29 0 -46 -27q-18 -28 -18 -109v-47h-141zM720 546v77h24q41 0 52 15q7 12 7 62v526 q0 49 -7 61q-11 15 -52 15l-24 1v76h374l157 -535l159 535h369v-76l-29 -1q-41 0 -52 -15q-7 -12 -7 -61v-526q0 -50 7 -62q11 -15 52 -15h29v-77h-433v77h26q41 0 52 15q7 12 7 62v398l-159 -552h-197l-166 554v-400q0 -50 7 -62q11 -15 51 -15h27v-77h-274z" />
<glyph unicode="&#xe000;" horiz-adv-x="935" vert-adv-y="1870" d="M0 935h935v-935h-935v935z" />
<glyph unicode="&#xea68;" vert-adv-y="1497" d="M85 1614q0 70 56 113q46 35 114 35q72 0 120 -37q55 -41 55 -110q0 -65 -51 -108q-49 -42 -123 -42q-67 0 -114 39q-57 45 -57 110zM595 1613q0 69 55 112q46 37 112 37q73 0 122 -39q54 -44 54 -112q0 -62 -52 -105q-50 -42 -121 -42t-120 43q-50 43 -50 106z" />
<glyph unicode="&#xea6a;" vert-adv-y="1497" d="M174 1187q0 59 48 96q43 32 104 32t101 -36q43 -38 43 -91q0 -50 -42 -89q-43 -41 -104 -41q-58 0 -102 32q-48 36 -48 97zM554 1185q0 60 46 97q41 32 103 32t104 -37t42 -91q0 -47 -37 -84q-45 -46 -112 -46q-55 0 -98 34q-48 38 -48 95z" />
<glyph unicode="&#xeff2;" vert-adv-y="1497" d="M334 -397l48 75q34 -12 60 -12q35 0 59 19q26 22 26 55q0 34 -28 55q-21 16 -53 16q-12 0 -64 -15l-31 69q73 39 151 39q79 0 131 -37q58 -43 58 -118q0 -73 -50 -120q-60 -57 -155 -57q-62 0 -152 31z" />
<glyph unicode="&#xeff3;" vert-adv-y="1497" d="M309 1637q0 75 62 125q61 49 142 49q74 0 132 -43q70 -53 70 -134q0 -71 -57 -122q-59 -52 -143 -52q-79 0 -140 47q-66 51 -66 130zM410 1638q0 -37 28 -63q29 -28 73 -28q43 0 76 29q29 27 29 60q0 40 -31 66q-29 24 -74 24q-41 0 -72 -27q-29 -26 -29 -61z" />
<glyph unicode="&#xeff5;" vert-adv-y="1497" d="M193 1517q0 99 59 155q57 54 137 54q60 0 113 -34l59 -37q60 -38 96 -38q49 0 74 42q12 21 14 55h86v-40q0 -98 -37 -149q-50 -68 -140 -68q-63 0 -122 36l-60 37q-64 40 -100 40q-44 0 -68 -36q-17 -26 -19 -71h-90q-2 33 -2 54z" />
<glyph unicode="&#xeff6;" vert-adv-y="1497" d="M85 1614q0 70 56 113q46 35 114 35q72 0 120 -37q55 -41 55 -110q0 -65 -51 -108q-49 -42 -123 -42q-67 0 -114 39q-57 45 -57 110zM595 1613q0 69 55 112q46 37 112 37q73 0 122 -39q54 -44 54 -112q0 -62 -52 -105q-50 -42 -121 -42t-120 43q-50 43 -50 106z" />
<glyph unicode="&#xeff7;" vert-adv-y="1497" d="M136 1465l209 256h342l202 -256h-167l-211 134l-214 -134h-161z" />
<glyph unicode="&#xeff8;" vert-adv-y="1497" d="M185 1722h331l105 -256h-141z" />
<glyph unicode="&#xeff9;" vert-adv-y="1497" d="M403 1466l105 256h331l-295 -256h-141z" />
<glyph unicode="&#xfb01;" horiz-adv-x="1455" vert-adv-y="1497" d="M787 0v84l34 1q55 0 75 19q14 15 15 39q1 12 1 47v556q0 51 -4 63q-9 32 -43 39q-10 3 -44 4h-34v84h512v-746q0 -51 4 -63q10 -32 43 -39q10 -3 44 -3l31 -1v-84h-634zM905 1208q0 76 61 126q58 47 136 47q76 0 133 -47q62 -52 62 -124t-60 -122q-57 -48 -137 -48 q-73 0 -130 43q-65 50 -65 125zM54 0v84l34 1q55 0 75 19q14 15 15 39q1 2 1 47v662h-125v84h125q-2 88 -2 137q0 177 134 256q113 66 275 66q161 0 306 -59v-252h-215v87q0 119 -69 119q-40 0 -62 -32q-13 -20 -13 -57q0 -70 28 -265h126v-84h-126v-662q0 -51 4 -63 q9 -31 43 -39q10 -3 44 -3l35 -1v-84h-633z" />
<glyph unicode="&#xfb02;" horiz-adv-x="1455" vert-adv-y="1497" d="M776 0v84l36 1q55 0 74 19q14 15 16 39q1 2 1 47v985q0 51 -4 64q-9 31 -43 38q-10 3 -44 4h-36v84h514v-1175q0 -51 4 -63q10 -31 43 -39q10 -3 44 -3l33 -1v-84h-638zM54 0v84l34 1q55 0 75 19q14 15 15 39q1 2 1 47v662h-125v84h125q-2 88 -2 137q0 177 134 256 q113 66 275 66q161 0 306 -59v-252h-215v87q0 119 -69 119q-40 0 -62 -32q-13 -20 -13 -57q0 -70 28 -265h126v-84h-126v-662q0 -51 4 -63q9 -31 43 -39q10 -3 44 -3l35 -1v-84h-633z" />
<glyph unicode="&#xfb03;" horiz-adv-x="2201" vert-adv-y="1497" d="M54 0v84l34 1q55 0 75 19q14 15 15 39q1 2 1 47v662h-125v84h125q-2 88 -2 137q0 177 134 256q113 66 275 66q161 0 306 -59v-252h-215v87q0 119 -69 119q-40 0 -62 -32q-13 -20 -13 -57q0 -70 28 -265h126v-84h-126v-662q0 -51 4 -63q9 -31 43 -39q10 -3 44 -3l35 -1 v-84h-633zM799 852v84h126l-1 59q-1 28 -1 78q0 178 134 256q113 66 275 66q161 0 305 -59v-252h-215v87q0 119 -69 119q-39 0 -61 -32q-13 -20 -13 -57q0 -70 28 -265h126v-84h-126v-662q0 -51 4 -63q9 -31 43 -39q10 -3 44 -3l35 -1v-84h-633v84l34 1q55 0 74 19 q14 15 16 39q1 2 1 47v662h-126zM1533 0v84l34 1q54 0 74 19q15 15 16 39q1 12 1 47v556q0 51 -4 63q-9 32 -43 39q-10 3 -44 4h-34v84h512v-746q0 -51 4 -63q10 -32 43 -39q10 -3 44 -3l31 -1v-84h-634zM1651 1208q0 76 61 126q58 47 136 47q76 0 133 -47q62 -52 62 -124 t-60 -122q-57 -48 -138 -48q-72 0 -129 43q-65 50 -65 125z" />
<glyph unicode="&#xfb04;" horiz-adv-x="2201" vert-adv-y="1497" d="M54 0v84l34 1q55 0 75 19q14 15 15 39q1 2 1 47v662h-125v84h125q-2 88 -2 137q0 177 134 256q113 66 275 66q161 0 306 -59v-252h-215v87q0 119 -69 119q-40 0 -62 -32q-13 -20 -13 -57q0 -70 28 -265h126v-84h-126v-662q0 -51 4 -63q9 -31 43 -39q10 -3 44 -3l35 -1 v-84h-633zM799 852v84h126l-1 59q-1 28 -1 78q0 177 134 256q113 66 274 66q114 0 224 -30h480v-1175q0 -51 4 -63q10 -31 43 -39q10 -3 44 -3l33 -1v-84h-638v84l36 1q55 0 75 19q14 15 15 39q1 2 1 47v986q0 61 -11 78v-170h-215v87q0 119 -69 119q-39 0 -61 -32 q-13 -20 -13 -57q0 -70 28 -265h126v-84h-126v-662q0 -51 4 -63q9 -31 43 -39q10 -3 44 -3l35 -1v-84h-633v84l34 1q55 0 74 19q14 15 16 39q1 2 1 47v662h-126z" />
</font>
</defs>
</svg>
