<?xml version="1.0" standalone="no"?>
<!DOCTYPE svg PUBLIC "-//W3C//DTD SVG 1.1//EN" "http://www.w3.org/Graphics/SVG/1.1/DTD/svg11.dtd" >
<svg xmlns="http://www.w3.org/2000/svg">
<metadata>
This is a custom SVG webfont generated by Font Squirrel.
Copyright   : URW Software Copyright 1994 by URW
</metadata>
<defs>
<font id="RenaultTMedRegular" horiz-adv-x="1024" vert-adv-y="2048" >
<font-face units-per-em="2048" ascent="1568" descent="-480" />
<missing-glyph horiz-adv-x="458" />
<glyph unicode=" " horiz-adv-x="458" vert-adv-y="0" />
<glyph unicode="!" horiz-adv-x="574" vert-adv-y="1497" d="M164 1261q0 68 43 104q41 34 101 34q68 0 109 -42q34 -36 34 -96q0 -30 -6 -92l-83 -807h-109l-83 807q-6 61 -6 92zM168 93q0 49 38 85q41 40 105 40q61 0 100 -40q36 -37 36 -86q0 -47 -35 -84q-41 -42 -103 -42q-63 0 -104 42q-37 38 -37 85z" />
<glyph unicode="&#x22;" horiz-adv-x="868" vert-adv-y="1497" d="M137 1365h267l-49 -496h-169zM465 1365h267l-49 -496h-169z" />
<glyph unicode="#" horiz-adv-x="1374" vert-adv-y="1497" d="M109 386l26 121h245l75 351h-246l26 121h246l82 386h129l-82 -386h280l82 386h129l-82 -386h246l-26 -121h-245l-75 -351h246l-26 -121h-246l-82 -386h-129l82 386h-280l-82 -386h-129l82 386h-246zM509 507h281l75 351h-281z" />
<glyph unicode="$" horiz-adv-x="1161" vert-adv-y="1497" d="M118 1002q0 276 236 364q71 27 185 33v130h72v-130q191 -9 363 -68v-340h-132v28q0 201 -115 260q-49 25 -116 31v-458q27 -9 49 -16q178 -58 258 -116q138 -99 138 -294q0 -171 -94 -289q-120 -150 -351 -169v-132h-72v130q-166 4 -412 108v366h130v-14q1 -144 36 -218 q70 -152 246 -153v540q-111 38 -139 48q-165 58 -230 159q-52 81 -52 200zM338 1089q0 -116 87 -167q39 -22 114 -47v433q-201 -29 -201 -219zM611 61q209 47 209 250q0 155 -122 221q-31 17 -87 38v-509z" />
<glyph unicode="%" horiz-adv-x="1086" vert-adv-y="1497" d="M55 1065q0 174 54 247q57 77 177 77q125 0 180 -85q48 -74 48 -248q0 -181 -59 -249q-58 -66 -170 -66q-136 0 -190 94q-40 68 -40 230zM131 -14l725 1393h99l-725 -1393h-99zM194 1056q0 -165 17 -210q21 -55 72 -55q56 0 75 61q17 55 17 211q0 176 -23 226 q-22 49 -71 49q-47 0 -70 -61q-17 -47 -17 -221zM573 300q0 174 54 247q57 77 176 77q125 0 180 -85q48 -74 48 -248q0 -181 -59 -249q-57 -66 -170 -66q-135 0 -189 94q-40 69 -40 230zM712 291q0 -165 17 -210q21 -55 72 -55q55 0 74 61q17 54 17 211q0 176 -23 226 q-22 49 -71 49q-46 0 -69 -61q-17 -47 -17 -221z" />
<glyph unicode="&#x26;" horiz-adv-x="1491" vert-adv-y="1497" d="M41 346q0 172 53 253q56 86 180 107q56 9 154 9h44l-52 76q-66 97 -90 145q-33 69 -33 156q0 160 113 234q111 73 289 73q157 0 329 -64v-338h-109v21q0 121 -31 198q-42 101 -172 101q-68 0 -116 -31q-61 -40 -61 -123q0 -61 55 -140l359 -515l134 158q19 23 28 45 q16 37 -9 56q-13 10 -51 10h-76v82h444v-82h-43q-47 0 -83 -22q-27 -17 -69 -66l-221 -261l155 -221q61 -85 109 -105t112 -20h43v-82h-454l-144 210q-106 -123 -172 -169t-133 -62q-54 -13 -139 -13q-149 0 -219 41q-84 50 -110 174q-14 65 -14 165zM316 362 q0 -168 36 -226q35 -56 116 -56q69 0 120 35q60 41 129 117l51 56l-233 331h-43q-60 0 -86 -8q-63 -20 -80 -95q-10 -48 -10 -154z" />
<glyph unicode="'" horiz-adv-x="540" vert-adv-y="1497" d="M137 1365h267l-49 -496h-169z" />
<glyph unicode="(" horiz-adv-x="601" vert-adv-y="1497" d="M75 546q0 374 214 680q87 124 201 221l70 -65q-81 -111 -126 -208q-117 -251 -117 -628t117 -628q45 -96 126 -208l-70 -65q-114 97 -201 222q-214 305 -214 679z" />
<glyph unicode=")" horiz-adv-x="601" vert-adv-y="1497" d="M41 -290q81 111 126 208q117 252 117 628q0 377 -117 628q-45 97 -126 208l71 65q113 -96 200 -221q214 -306 214 -680t-214 -679q-87 -125 -200 -222z" />
<glyph unicode="*" horiz-adv-x="762" vert-adv-y="1497" d="M75 933l74 41q87 52 163 84q-71 31 -164 83l-73 42l43 77l73 -43q94 -53 155 -100q-8 76 -10 183v86h88v-85q0 -111 -9 -183q61 47 154 99l73 43l44 -77l-73 -43q-98 -53 -164 -82q76 -32 163 -84l74 -41l-45 -76l-74 42q-92 55 -152 99q9 -71 9 -182v-85h-88v85 q1 107 10 183q-65 -48 -153 -101l-73 -42z" />
<glyph unicode="+" horiz-adv-x="1161" vert-adv-y="1497" d="M61 618v129h455v455h129v-455h454v-129h-454v-454h-129v454h-455z" />
<glyph unicode="," horiz-adv-x="510" vert-adv-y="1497" d="M27 -217l150 496h261l-254 -496h-157z" />
<glyph unicode="-" horiz-adv-x="471" vert-adv-y="1497" d="M0 416v198h471v-198h-471z" />
<glyph unicode="." horiz-adv-x="484" vert-adv-y="1497" d="M102 93q0 49 38 85q41 40 105 40q61 0 100 -40q36 -37 36 -86q0 -47 -35 -84q-42 -42 -103 -42q-63 0 -104 42q-37 38 -37 85z" />
<glyph unicode="/" horiz-adv-x="740" vert-adv-y="1497" d="M27 -328l546 1748h140l-546 -1748h-140z" />
<glyph unicode="0" horiz-adv-x="1161" vert-adv-y="1497" d="M69 686q0 260 29 383q33 139 112 212q128 118 376 118q151 0 269 -54q161 -75 208 -276q29 -123 29 -386q0 -264 -29 -387q-47 -200 -208 -276q-116 -54 -275 -54q-303 0 -423 181q-55 82 -73 227q-15 112 -15 312zM335 683q0 -363 44 -484q55 -151 201 -151 q159 0 211 177q35 121 35 463q0 359 -44 478q-55 151 -205 151q-154 0 -207 -177q-35 -120 -35 -457z" />
<glyph unicode="1" horiz-adv-x="1161" vert-adv-y="1497" d="M233 1128l359 251h160v-1152q0 -72 5 -89q10 -45 53 -57q18 -6 61 -6h42v-75h-602v75h63q75 0 100 31q15 19 18 56q1 20 1 65v874q0 31 -6 41q-8 14 -29 14q-14 0 -51 -24l-123 -83z" />
<glyph unicode="2" horiz-adv-x="1161" vert-adv-y="1497" d="M108 0v116q1 158 30 233q43 109 165 199q54 40 184 119q159 96 201 155q60 83 60 229q0 111 -45 182q-52 84 -167 84q-110 0 -172 -65q-66 -69 -66 -240v-43l-144 -7v360q172 77 390 77q225 0 353 -99q131 -101 131 -290q0 -225 -170 -347q-84 -60 -277 -138 q-160 -62 -244 -130q-62 -51 -80 -110q-6 -23 -8 -62h529q97 1 120 16q34 20 42 67q4 25 4 67v32h112v-405h-948z" />
<glyph unicode="3" horiz-adv-x="1161" vert-adv-y="1497" d="M127 23v368h141v-38q0 -112 14 -160q43 -145 217 -145q143 0 199 99q42 73 42 207q0 145 -70 207q-69 61 -255 61h-72v112h90q141 0 214 73q68 68 68 230q0 280 -218 280q-107 0 -162 -68q-60 -73 -60 -257v-28h-138v335q199 100 390 100q207 0 337 -107 q117 -97 117 -265q0 -156 -106 -249q-56 -49 -157 -76q302 -56 302 -344q0 -192 -125 -289q-134 -103 -380 -103q-247 0 -388 57z" />
<glyph unicode="4" horiz-adv-x="1161" vert-adv-y="1497" d="M39 396v125l578 844h253v-826h37q60 0 81 13q36 24 38 122h95l-11 -278h-240v-169q0 -72 5 -89q10 -45 53 -57q18 -6 61 -6h42v-75h-599v75h60q75 0 100 31q15 19 18 56q1 20 1 65v169h-572zM178 539h433v634z" />
<glyph unicode="5" horiz-adv-x="1161" vert-adv-y="1497" d="M144 701l48 664h734l-11 -225h-633l-24 -318q44 30 78 48q100 51 237 51q256 0 369 -174q75 -114 75 -295q0 -203 -86 -320q-64 -87 -177 -128q-103 -38 -220 -38q-140 0 -276 56q-38 15 -95 43v345h141v-103q0 -104 17 -148q43 -111 184 -111q239 0 239 367 q0 161 -33 254q-25 71 -86 110q-50 31 -117 31q-122 0 -237 -85q-30 -22 -65 -59z" />
<glyph unicode="6" horiz-adv-x="1161" vert-adv-y="1497" d="M105 678q0 275 35 399q47 172 180 252q115 70 310 70q180 0 393 -65v-357h-141v45q0 107 -14 153q-45 142 -219 142q-193 0 -242 -170q-31 -106 -31 -332v-90q144 109 325 109q207 0 303 -131q76 -105 76 -289t-73 -283q-123 -165 -401 -165q-317 0 -427 214 q-41 79 -58 192q-16 110 -16 306zM376 623l1 -16q0 -9 3 -137q4 -186 38 -288q22 -66 77 -102q48 -32 114 -32q219 0 219 343q0 143 -37 223q-46 101 -167 101q-99 0 -196 -57q-52 -30 -52 -35z" />
<glyph unicode="7" horiz-adv-x="1161" vert-adv-y="1497" d="M128 976v389h912v-157q-172 -148 -282 -368q-168 -336 -168 -780q0 -19 1 -60h-306q10 242 66 419q83 267 286 522q99 122 205 206h-482q-60 0 -87 -23q-22 -21 -28 -48q-7 -31 -7 -86v-14h-110z" />
<glyph unicode="8" horiz-adv-x="1161" vert-adv-y="1497" d="M99 336q0 149 42 226q61 111 208 141q-105 42 -153 94q-72 80 -72 238q0 237 160 312q111 52 296 52t296 -52q160 -75 160 -313q0 -157 -72 -237q-48 -52 -153 -94q99 -20 157 -75q53 -50 72 -117q21 -78 21 -175q0 -177 -79 -256q-114 -114 -402 -114t-402 114 q-79 79 -79 256zM365 355q0 -131 35 -203q49 -104 184 -104q211 0 211 305q0 153 -42 223q-51 85 -177 85q-119 0 -169 -85q-42 -70 -42 -221zM377 1042q0 -127 33 -202q42 -97 170 -97t170 97q33 76 33 201q0 119 -32 186q-43 90 -175 90q-125 0 -167 -90q-32 -68 -32 -185 z" />
<glyph unicode="9" horiz-adv-x="1161" vert-adv-y="1497" d="M81 951q0 184 73 283q123 165 400 165q317 0 427 -214q41 -79 58 -192q16 -110 16 -307q0 -274 -35 -398q-47 -172 -180 -252q-114 -70 -309 -70q-180 0 -393 65v357h141v-45q0 -107 14 -153q45 -142 219 -142q193 0 241 170q31 106 31 332v90q-145 -109 -324 -109 q-207 0 -303 131q-76 105 -76 289zM333 974q0 -143 37 -223q46 -101 166 -101q100 0 197 57q51 30 51 35l-1 16q0 9 -3 136q-4 187 -38 289q-22 65 -77 102q-48 32 -113 32q-219 0 -219 -343z" />
<glyph unicode=":" horiz-adv-x="484" vert-adv-y="1497" d="M102 93q0 49 38 85q41 40 105 40q61 0 100 -40q36 -37 36 -86q0 -47 -35 -84q-42 -42 -103 -42q-63 0 -104 42q-37 38 -37 85zM102 803q0 49 38 85q41 40 105 40q61 0 100 -40q36 -37 36 -86q0 -47 -35 -84q-42 -42 -103 -42q-63 0 -104 42q-37 38 -37 85z" />
<glyph unicode=";" horiz-adv-x="507" vert-adv-y="1497" d="M27 -224l148 495h260l-252 -495h-156zM148 803q0 49 37 85q42 40 106 40q60 0 99 -40q36 -37 36 -86q0 -47 -35 -84q-41 -42 -103 -42t-104 42q-36 38 -36 85z" />
<glyph unicode="&#x3c;" vert-adv-y="1497" d="M81 738v17l863 541v-127l-522 -330l522 -355v-335z" />
<glyph unicode="=" horiz-adv-x="1161" vert-adv-y="1497" d="M61 465v129h1038v-129h-1038zM61 772v129h1038v-129h-1038z" />
<glyph unicode="&#x3e;" vert-adv-y="1497" d="M81 149v126l522 331l-522 355v335l863 -589v-17z" />
<glyph unicode="?" horiz-adv-x="1022" vert-adv-y="1497" d="M96 927v346q244 126 434 126q185 0 302 -86q71 -53 104 -135q38 -93 38 -193q0 -95 -33 -153q-43 -77 -150 -127q-21 -10 -128 -50q-111 -42 -146 -87q-30 -39 -30 -107q0 -63 36 -119h-124q-47 108 -47 231q0 154 80 224q42 37 170 101q82 42 106 76q26 38 26 102 q0 105 -58 171q-63 70 -184 70q-257 0 -257 -334v-56h-139zM310 93q0 49 38 85q41 40 105 40q61 0 100 -40q36 -37 36 -86q0 -47 -35 -84q-41 -42 -103 -42q-63 0 -104 42q-37 38 -37 85z" />
<glyph unicode="@" horiz-adv-x="1619" vert-adv-y="1497" d="M96 681q0 256 47 394q49 145 165 217q170 107 508 107q225 0 383 -62q218 -85 283 -275q42 -122 42 -333q0 -193 -59 -308q-27 -54 -82 -85q-72 -41 -172 -41h-346l8 37q-44 -26 -68 -36q-69 -31 -152 -31q-230 0 -230 232q0 134 51 301q93 302 348 302q76 0 123 -22 q30 -13 84 -57l25 40h183l-136 -642q-3 -15 -3 -25q0 -21 40 -21q78 0 111 50q49 77 49 345q0 291 -80 405q-50 70 -172 108q-106 34 -226 34q-218 0 -345 -96q-80 -60 -108 -186q-19 -85 -29 -228q-2 -38 -2 -252q0 -136 26 -240q36 -145 155 -202q114 -55 300 -55 q150 0 273 43q65 23 120 88h245q-76 -100 -177 -146q-164 -75 -422 -75q-525 0 -674 240q-63 103 -80 285q-6 66 -6 190zM622 489q0 -116 91 -116q103 0 188 91l94 443q-42 84 -141 84q-121 0 -169 -168q-63 -218 -63 -334z" />
<glyph unicode="A" horiz-adv-x="1470" vert-adv-y="1497" d="M34 0v82h24q71 1 100 20q33 22 65 113l326 980q12 36 12 54q0 34 -55 34h-88v82h441l399 -1143q31 -87 58 -112q29 -27 107 -28h13v-82h-567v82h46q39 0 51 7q17 10 17 37q0 19 -6 38l-102 303q-9 27 -19 33q-8 5 -42 5h-357q-27 0 -35 -4q-9 -5 -18 -31l-90 -279 q-11 -34 -11 -65q0 -44 78 -44h33v-82h-380zM456 610q0 -16 28 -16h313q31 0 31 23q0 12 -6 30l-179 538l-183 -557q-4 -11 -4 -18z" />
<glyph unicode="B" horiz-adv-x="1287" vert-adv-y="1497" d="M41 0v82h33q54 0 72 8q36 15 44 63q3 20 3 74v911q0 89 -19 116q-17 23 -51 27q-17 2 -49 2h-33v82h774q125 0 179 -33q72 -42 100 -151q14 -55 14 -117q0 -154 -98 -239q-45 -39 -115 -55q120 -15 178 -45q81 -42 110 -126t29 -200q0 -227 -80 -314q-52 -56 -134 -74 q-52 -11 -156 -11h-801zM466 82h190q99 0 140 12q86 27 112 121q17 59 17 172q0 138 -30 201q-38 80 -126 101q-38 9 -101 9h-202v-616zM466 780h101q116 0 150 13q118 46 118 253q0 130 -35 184q-35 53 -141 53h-193v-503z" />
<glyph unicode="C" horiz-adv-x="1171" vert-adv-y="1497" d="M82 704q0 236 31 353q33 123 95 191q80 88 231 125q109 26 224 26q215 0 430 -81v-322h-119v52q0 66 -29 133q-58 136 -252 136q-205 0 -280 -173q-44 -100 -44 -464q0 -217 13 -317q16 -122 53 -183q50 -83 148 -116q49 -16 109 -16q151 0 222 91q60 76 60 248v40h132 v-372q-192 -89 -436 -89q-370 0 -500 209q-60 97 -78 270q-10 92 -10 259z" />
<glyph unicode="D" horiz-adv-x="1300" vert-adv-y="1497" d="M41 0v82h33q54 0 72 8q36 15 44 63q3 20 3 74v911q0 89 -19 116q-17 23 -51 27q-17 2 -49 2h-33v82h692q124 0 176 -6.5t97 -27.5q141 -67 181 -279q24 -129 24 -360q0 -230 -21 -360q-25 -150 -92 -223q-78 -87 -223 -101q-79 -8 -184 -8h-650zM466 82h135q99 0 165 22 q92 31 126 139q32 99 32 445q0 218 -14 332q-23 175 -114 232q-49 31 -150 31h-180v-1201z" />
<glyph unicode="E" horiz-adv-x="1178" vert-adv-y="1497" d="M41 0v82h33q54 0 72 8q36 15 44 63q3 20 3 74v911q0 89 -19 116q-17 23 -51 27q-17 2 -49 2h-33v82h1037v-341h-133v104q-1 96 -43 129q-28 22 -70 25q-19 1 -63 1h-201q-53 0 -75 -18q-26 -23 -27 -87v-355q0 -39 7 -49q9 -13 47 -13h139q76 0 101 22q22 21 23 84v61 h102v-416h-102v38q0 72 -23 101q-22 28 -89 28h-155q-30 0 -40 -6q-10 -9 -10 -44v-422q0 -68 6 -82q11 -30 46 -38q21 -5 63 -5h240q68 0 97 15q50 24 62 86q6 27 6 91v129h130v-403h-1075z" />
<glyph unicode="F" horiz-adv-x="1113" vert-adv-y="1497" d="M41 0v82h33q54 0 72 8q36 15 44 63q3 20 3 74v911q0 89 -19 116q-17 23 -51 27q-17 2 -49 2h-33v82h1017v-348h-133v96q0 76 -9 100q-17 50 -69 63q-26 7 -76 7h-227q-43 -1 -59 -16q-19 -20 -19 -75v-394q0 -39 9 -48q10 -11 49 -11h145q68 1 90 26q16 20 17 97v46h104 v-416h-104v36q0 61 -4 76q-10 35 -41 46q-22 7 -75 7h-127q-41 0 -53 -9q-10 -10 -10 -42v-379q0 -89 19 -115q17 -24 51 -28q17 -2 49 -2h33v-82h-577z" />
<glyph unicode="G" horiz-adv-x="1294" vert-adv-y="1497" d="M89 685q0 237 39 369q59 203 263 290q128 55 322 55q150 0 326 -42q39 -9 122 -30v-337h-130v52q0 157 -86 218q-80 57 -221 57q-231 0 -302 -174q-46 -111 -46 -489q0 -289 30 -405q26 -98 81 -144q66 -57 187 -57q239 0 239 230v219q0 89 -19 115q-17 23 -51 28 q-17 2 -49 2h-33v82h400v-619q-58 -42 -138 -72q-178 -67 -374 -67q-195 0 -328 85q-155 100 -205 322q-27 121 -27 312z" />
<glyph unicode="H" horiz-adv-x="1423" vert-adv-y="1497" d="M41 0v82h33q54 0 72 8q36 15 44 63q3 20 3 74v911q0 89 -19 116q-17 23 -51 27q-17 2 -49 2h-33v82h577v-82h-33q-54 0 -72 -8q-36 -15 -44 -63q-3 -20 -3 -74v-362h491v362q0 89 -19 116q-17 23 -51 27q-16 2 -49 2h-33v82h577v-82h-33q-46 0 -66.5 -6t-33.5 -23 q-19 -27 -19 -116v-911q0 -89 19 -115q17 -24 51 -28q16 -2 49 -2h33v-82h-577v82h33q54 0 72 8q36 15 44 63q3 20 3 74v466h-491v-466q0 -89 19 -115q17 -24 51 -28q17 -2 49 -2h33v-82h-577z" />
<glyph unicode="I" horiz-adv-x="659" vert-adv-y="1497" d="M41 0v82h33q54 0 72 8q36 15 44 63q3 20 3 74v911q0 89 -19 116q-17 23 -51 27q-17 2 -49 2h-33v82h577v-82h-33q-54 0 -72 -8q-36 -15 -44 -63q-3 -20 -3 -74v-911q0 -89 19 -115q17 -24 51 -28q17 -2 49 -2h33v-82h-577z" />
<glyph unicode="J" horiz-adv-x="659" vert-adv-y="1497" d="M-69 -186q105 0 178 68q58 55 75 179q8 57 8 184v898q0 84 -19 111q-16 23 -51 27q-16 2 -49 2h-33v82h577v-82h-33q-54 0 -72 -8q-36 -15 -44 -63q-3 -20 -3 -74v-905q0 -116 -9 -174.5t-34 -105.5q-60 -114 -220 -176q-121 -45 -259 -45h-12v82z" />
<glyph unicode="K" horiz-adv-x="1359" vert-adv-y="1497" d="M41 0v82h33q54 0 72 8q36 15 44 63q3 20 3 74v911q0 89 -19 116q-17 23 -51 27q-17 2 -49 2h-33v82h577v-82h-33q-54 0 -72 -8q-36 -15 -44 -63q-3 -20 -3 -74v-406l441 477q29 31 29 50q0 16 -20 21q-10 3 -48 3h-39v82h415v-82h-13q-56 0 -102 -21q-54 -24 -106 -80 l-315 -333l455 -683q54 -83 146 -84h9v-82h-369l-437 650l-46 -51v-372q0 -89 19 -115q17 -24 51 -28q17 -2 49 -2h33v-82h-577z" />
<glyph unicode="L" horiz-adv-x="1105" vert-adv-y="1497" d="M41 0v82h33q54 0 72 8q36 15 44 63q3 20 3 74v911q0 89 -19 116q-17 23 -51 27q-17 2 -49 2h-33v82h577v-82h-33q-54 0 -72 -8q-36 -15 -44 -63q-3 -20 -3 -74v-935q0 -72 14 -95q13 -20 35 -23q8 -3 47 -3h207q95 0 129 49q21 29 26 81q4 46 4 108v90h129v-410h-1016z " />
<glyph unicode="M" horiz-adv-x="1693" vert-adv-y="1497" d="M41 0v82h19q60 0 81 11q40 19 48 81q4 24 4 94v875q0 84 -19 111q-16 23 -51 27q-17 2 -49 2h-33v82h407l390 -1043l406 1043h408v-82h-33q-46 0 -66.5 -6t-33.5 -23q-19 -27 -19 -116v-911q0 -89 19 -115q17 -24 51 -28q16 -2 49 -2h33v-82h-556v82h12q54 0 72 8 q36 15 44 63q3 20 3 74v814l-397 -1041h-157l-384 1013v-745q0 -114 21 -148q18 -30 57 -35q18 -3 55 -3h19v-82h-400z" />
<glyph unicode="N" horiz-adv-x="1391" vert-adv-y="1497" d="M41 0v82h19q60 0 81 11q40 19 48 81q4 24 4 94v870q0 89 -19 116q-17 23 -51 27q-17 2 -49 2h-33v82h371l691 -1075v807q-1 114 -21 148q-18 30 -57 35q-18 3 -55 3h-19v82h400v-82h-19q-51 0 -74.5 -8t-37.5 -30q-21 -34 -21 -148v-1097h-236l-674 1029v-761 q0 -114 21 -148q18 -30 57 -35q18 -3 55 -3h19v-82h-400z" />
<glyph unicode="O" horiz-adv-x="1283" vert-adv-y="1497" d="M89 682q0 253 31 376q33 133 107 206q94 94 232 119q89 16 193 16q333 0 458 -195q53 -82 72 -225q13 -106 13 -292q0 -257 -32 -380q-87 -341 -523 -341q-330 0 -462 195q-56 83 -75 225q-14 107 -14 296zM376 683q0 -211 7 -297q16 -192 81 -268q61 -70 178 -70t178 70 q65 76 81 268q7 87 7 309q0 339 -34 447q-31 99 -95 140q-53 35 -142 35q-185 0 -235 -206q-26 -104 -26 -428z" />
<glyph unicode="P" horiz-adv-x="1209" vert-adv-y="1497" d="M41 0v82h33q54 0 72 8q36 15 44 63q3 20 3 74v911q0 89 -19 116q-17 23 -51 27q-17 2 -49 2h-33v82h748q125 0 176 -16q102 -31 145 -121q38 -82 38 -219q0 -203 -79 -295q-67 -78 -184 -93q-54 -7 -123 -7h-296v-387q0 -89 19 -115q17 -24 51 -28q17 -2 49 -2h33v-82 h-577zM466 696h151q124 0 178 57q47 48 57 121q9 63 9 140q0 123 -24 177q-32 69 -103 85q-28 7 -88 7h-180v-587z" />
<glyph unicode="Q" horiz-adv-x="1338" vert-adv-y="1497" d="M89 678q0 257 31 380q33 133 107 206q135 135 445 135q369 0 493 -195q53 -83 71 -225q14 -106 14 -294q0 -257 -30 -380q-46 -187 -179 -264q-34 -20 -81 -37q14 -6 103 -57q74 -43 125 -43q78 0 168 80l53 -57l-261 -240q-82 63 -200 134q-103 62 -194 103 q-94 42 -182 42q-143 0 -292 -138l-62 61q71 64 160 118q-141 52 -205 154q-52 82 -70 225q-14 105 -14 292zM376 690q0 -225 6 -308q13 -181 71 -262q21 -29 55 -55q69 27 144 27q73 0 147 -24q84 58 127 189q27 79 34 196q3 50 3 198q0 247 -7 328q-16 193 -89 268 q-69 70 -197 70q-129 0 -198 -70q-73 -74 -89 -268q-7 -82 -7 -289z" />
<glyph unicode="R" horiz-adv-x="1300" vert-adv-y="1497" d="M41 0v82h33q54 0 72 8q36 15 44 63q3 20 3 74v911q0 89 -19 116q-17 23 -51 27q-17 2 -49 2h-33v82h766q114 0 166 -24q152 -71 152 -342q0 -222 -94 -305q-61 -53 -154 -71l258 -458q43 -83 107 -83h2h16v-82h-346l-320 619h-128v-392q0 -89 19 -115q17 -24 51 -28 q17 -2 49 -2h33v-82h-577zM466 701h155q78 0 111 13q64 26 87 105q19 66 19 191q0 195 -65 249q-29 24 -99 24h-208v-582z" />
<glyph unicode="S" horiz-adv-x="1102" vert-adv-y="1497" d="M75 990q0 220 151 326q117 83 313 83q197 0 406 -68v-340h-139v28q0 147 -57 216q-64 75 -194 75q-91 0 -156 -37q-91 -52 -91 -182q0 -120 88 -169q43 -25 192 -73q221 -72 301 -130q138 -99 138 -294q0 -223 -157 -351q-132 -108 -336 -108q-178 0 -436 108v372h130 v-21q0 -177 65 -268q74 -102 218 -102q121 0 194 67q72 66 72 187q0 154 -122 218q-48 25 -189 72q-139 46 -187 69q-204 95 -204 322z" />
<glyph unicode="T" horiz-adv-x="1214" vert-adv-y="1497" d="M51 966v399h1111v-399h-123v87q-1 111 -34 163q-43 66 -145 67h-27q-55 -1 -73 -24q-17 -23 -17 -94v-938q0 -89 19 -115q17 -24 51 -28q16 -2 49 -2h33v-82h-577v82h33q54 0 72 8q36 15 44 63q3 20 3 74v938q0 72 -17 94q-18 24 -73 24h-27q-102 -1 -145 -67 q-33 -52 -34 -163v-87h-123z" />
<glyph unicode="U" horiz-adv-x="1335" vert-adv-y="1497" d="M41 1283v82h577v-82h-33q-54 0 -72 -8q-36 -15 -44 -63q-3 -20 -3 -74v-784q0 -134 44 -196q65 -90 235 -90q214 0 279 143q23 52 23 204v682q-1 114 -21 148q-18 30 -57 35q-18 3 -55 3h-19v82h400v-82h-19q-51 0 -74.5 -8t-37.5 -30q-21 -34 -21 -148v-707 q0 -151 -28 -220q-54 -130 -205 -174q-94 -28 -235 -28q-363 0 -454 199q-25 53 -28 164v151v656q0 89 -19 116q-17 23 -51 27q-17 2 -49 2h-33z" />
<glyph unicode="V" horiz-adv-x="1348" vert-adv-y="1497" d="M34 1283v82h561v-82h-52q-69 0 -69 -41q0 -13 10 -48l274 -945l292 939q11 35 11 55q0 40 -63 40h-50v82h366v-82h-27q-58 0 -84 -20q-26 -21 -49 -92l-366 -1171h-241l-338 1172q-21 70 -46 89q-27 21 -99 22h-30z" />
<glyph unicode="W" horiz-adv-x="1927" vert-adv-y="1497" d="M38 1283v82h572v-82h-85q-56 0 -56 -43q0 -17 5 -39l207 -879l280 1043h177l289 -1043l195 872q7 33 7 52q0 23 -18 31q-13 6 -70 6h-27v82h376v-82h-33q-62 -1 -86 -20q-30 -22 -49 -101l-260 -1162h-231l-266 956l-265 -956h-226l-273 1171q-14 60 -23 73 q-25 39 -89 39h-51z" />
<glyph unicode="X" horiz-adv-x="1377" vert-adv-y="1497" d="M34 0v82h12q67 0 115 26q50 28 96 92l309 435l-356 583q-23 37 -52 53q-24 12 -69 12h-35v82h570v-82h-45q-41 0 -56 -7t-15 -27q0 -16 17 -43l207 -339l234 329q21 30 21 49q0 38 -76 38h-32v82h405v-82h-27q-58 0 -88 -16q-42 -20 -89 -87l-289 -409l366 -600 q29 -47 67 -71q25 -17 76 -18h40v-82h-584v82h61q31 0 40 5q15 7 15 32q0 16 -26 58l-220 360l-253 -358q-30 -42 -30 -64q0 -33 65 -33h34v-82h-408z" />
<glyph unicode="Y" horiz-adv-x="1356" vert-adv-y="1497" d="M34 1283v82h570v-82h-24q-88 0 -88 -36q0 -13 25 -66l227 -471l271 475q20 36 20 61q0 37 -64 37h-38v82h389v-82h-16q-56 0 -83 -11q-34 -14 -68 -72l-367 -628v-345q0 -89 19 -115q17 -24 51 -28q16 -2 49 -2h33v-82h-577v82h33q46 0 66.5 6t33.5 24q19 26 19 115v331 l-288 582q-45 89 -99 121q-36 22 -87 22h-7z" />
<glyph unicode="Z" horiz-adv-x="1146" vert-adv-y="1497" d="M41 0v70l709 1213h-258q-107 0 -148 -11q-79 -22 -95 -109q-8 -40 -9 -171v-26h-128v399h951v-82l-700 -1201h349q101 0 138 14q77 23 97 110q8 33 8 143v53h136v-402h-1050z" />
<glyph unicode="[" horiz-adv-x="668" vert-adv-y="1497" d="M137 -328v1748h408v-82h-177v-1584h177v-82h-408z" />
<glyph unicode="\" horiz-adv-x="740" vert-adv-y="1497" d="M27 1420h140l546 -1748h-140z" />
<glyph unicode="]" horiz-adv-x="668" vert-adv-y="1497" d="M123 -246h177v1584h-177v82h408v-1748h-408v82z" />
<glyph unicode="^" vert-adv-y="1497" d="M-61 571l589 863h17l540 -863h-126l-331 522l-354 -522h-335z" />
<glyph unicode="_" vert-adv-y="1497" d="M20 -187h985v-148h-985v148z" />
<glyph unicode="`" vert-adv-y="1497" d="M219 1379h265l117 -266h-125z" />
<glyph unicode="a" horiz-adv-x="1103" vert-adv-y="1497" d="M65 231q0 119 73 198q60 66 170 103q134 46 354 71v113q0 79 -18 112q-42 73 -170 73q-206 0 -206 -214v-49h-121v278q177 67 394 67q192 0 291 -65q65 -42 79 -113q10 -47 10 -153v-425q0 -72 5 -89q10 -45 54 -57q18 -6 60 -6h22v-75h-400v108q-49 -41 -102 -70 q-132 -72 -240 -72q-90 0 -163 60q-92 74 -92 205zM317 266q0 -74 25 -120q29 -55 90 -55q88 0 230 127v299q-155 -29 -237 -66q-62 -28 -86 -74q-22 -42 -22 -111z" />
<glyph unicode="b" horiz-adv-x="1182" vert-adv-y="1497" d="M41 1304v75h393v-514q52 47 97 71q86 47 198 47q189 0 280 -130q57 -82 73 -183q14 -86 14 -186q0 -236 -74 -361q-92 -157 -308 -157q-156 0 -293 111l-49 -77h-197v1151q0 72 -5 90q-10 45 -54 57q-18 6 -60 6h-15zM434 185q30 -39 63 -65q76 -58 152 -58q84 0 131 84 q43 76 43 361q0 197 -26 268q-19 49 -67 78q-35 21 -76 21q-101 0 -220 -125v-564z" />
<glyph unicode="c" horiz-adv-x="976" vert-adv-y="1497" d="M85 482q0 257 132 381q127 120 350 120q187 0 337 -73v-281h-128v30q0 242 -191 242q-142 0 -190 -114q-27 -66 -31 -148q-3 -56 -3 -127q0 -244 30 -334q20 -57 71 -94q51 -36 117 -36q89 0 142 69q55 72 55 212v11h128v-287q-177 -87 -381 -87q-224 0 -327 122 q-111 132 -111 394z" />
<glyph unicode="d" horiz-adv-x="1193" vert-adv-y="1497" d="M86 473q0 255 106 386q99 124 288 124q157 0 279 -85v253q0 72 -5 90q-10 45 -54 57q-18 6 -60 6h-15v75h393v-1152q0 -72 5 -89q10 -45 53 -57q18 -6 61 -6h15v-75h-393v59q-120 -93 -275 -93q-398 0 -398 507zM358 485q0 -206 33 -299q19 -55 65 -91q43 -33 95 -33 q84 0 161 65q23 19 47 50v607q-105 103 -210 103q-73 0 -121 -52q-45 -48 -60 -154q-10 -72 -10 -196z" />
<glyph unicode="e" horiz-adv-x="1025" vert-adv-y="1497" d="M85 476q0 231 105 365q111 142 332 142q213 0 318 -122q79 -93 87 -270q1 -35 2 -119h-579q0 -129 13 -206q18 -107 66 -156q62 -62 148 -62q100 0 149 79q41 66 41 176v37h130v-287q-178 -87 -346 -87q-238 0 -349 130q-117 137 -117 380zM352 568h348q0 161 -15 210 q-21 68 -70 99q-38 24 -80 24q-64 0 -111 -49q-52 -54 -66 -183q-4 -39 -6 -101z" />
<glyph unicode="f" horiz-adv-x="637" vert-adv-y="1497" d="M40 874v75h139l-9 84q-2 17 -2 63q0 168 110 249q92 68 235 68q120 0 241 -51v-256h-121v35q0 100 -21 142q-25 48 -84 48q-67 0 -98 -61q-18 -34 -18 -114q0 -72 11 -138l11 -69h136v-75h-136v-647q0 -72 5 -89q10 -45 54 -57q18 -6 60 -6h22v-75h-534v75h15 q75 0 100 31q15 19 18 56q1 20 1 65v647h-135z" />
<glyph unicode="g" horiz-adv-x="1143" vert-adv-y="1497" d="M85 -259q0 155 277 203q-65 40 -65 101q0 78 113 117q-277 61 -277 404q0 233 122 330q110 87 287 87q68 0 162 -11q100 -12 151 -12q105 0 239 20v-132q-114 22 -220 32q106 -102 106 -306q0 -239 -145 -342q-59 -42 -141 -63q-14 -4 -112 -25q-109 -23 -109 -52 q0 -18 21 -26q16 -7 78 -17q192 -21 296 -39q219 -38 219 -197q0 -73 -52 -137q-67 -84 -226 -125q-112 -29 -241 -29q-226 0 -378 75q-63 30 -93 88q-12 24 -12 56zM309 -243q0 -61 56 -99q81 -54 207 -54q100 0 180 32q45 18 73 54q17 22 17 50q0 42 -45 66 q-35 19 -186 43q-55 8 -171 33q-131 -27 -131 -125zM393 564q0 -148 24 -220q35 -107 141 -107q107 0 142 107q24 73 24 218q0 176 -26 245q-35 94 -143 94q-63 0 -104 -42q-39 -40 -50 -129q-8 -63 -8 -166z" />
<glyph unicode="h" horiz-adv-x="1220" vert-adv-y="1497" d="M41 0v75h15q75 0 100 31q15 19 18 56q1 20 1 65v924q0 72 -5 90q-10 45 -54 57q-18 6 -60 6h-15v75h393v-547q157 151 363 151q123 0 186 -60q46 -44 55 -107q7 -48 7 -122v-467q0 -72 5 -89q10 -45 54 -57q18 -6 60 -6h15v-75h-393v669q0 93 -15 125q-11 23 -35 37 q-28 16 -57 16q-83 0 -169 -62q-39 -28 -76 -76v-482q0 -72 5 -89q10 -45 53 -57q18 -6 61 -6h15v-75h-527z" />
<glyph unicode="i" horiz-adv-x="609" vert-adv-y="1497" d="M41 0v75h15q75 0 100 31q15 19 18 56q1 20 1 65v494q0 72 -5 89q-10 45 -54 58q-18 5 -60 5h-15v75l393 1v-722q0 -72 5 -89q10 -45 53 -57q18 -6 61 -6h15v-75h-527zM163 1252q0 53 39 88q43 39 102 39q56 0 98 -39q39 -36 39 -87q0 -52 -39 -89q-41 -39 -100 -39 q-60 0 -100 39q-39 37 -39 88z" />
<glyph unicode="j" horiz-adv-x="577" vert-adv-y="1497" d="M1 -395q24 -2 36 -2q97 0 125 69q20 48 20 208v841q0 72 -5 89q-10 45 -53 58q-18 5 -61 5h-22v75l400 1v-1064q0 -187 -81 -268q-95 -95 -285 -95q-24 0 -74 3v80zM170 1252q0 53 39 88q43 39 102 39q56 0 98 -39q39 -36 39 -87q0 -52 -39 -89q-41 -39 -100 -39 q-60 0 -100 39q-39 37 -39 88z" />
<glyph unicode="k" horiz-adv-x="1202" vert-adv-y="1497" d="M41 0v75h15q75 0 100 31q15 19 18 56q1 20 1 65v924q0 72 -5 90q-10 45 -54 57q-18 6 -60 6h-15v75h393v-836l342 275q24 20 24 35q0 21 -41 21h-22v75h371v-75h-39q-78 0 -150 -54l-217 -172l262 -460q40 -70 81 -92q36 -20 105 -21h12v-75h-358l-288 494l-82 -57v-210 q0 -72 5 -89q10 -45 53 -57q18 -6 61 -6h15v-75h-527z" />
<glyph unicode="l" horiz-adv-x="609" vert-adv-y="1497" d="M41 0v75h15q75 0 100 31q15 19 18 56q1 20 1 65v924q0 72 -5 90q-10 45 -54 57q-18 6 -60 6h-15v75h393v-1152q0 -72 5 -89q10 -45 53 -57q18 -6 61 -6h15v-75h-527z" />
<glyph unicode="m" horiz-adv-x="1762" vert-adv-y="1497" d="M41 0v75h15q75 0 100 31q15 19 18 56q1 20 1 65v494q0 72 -5 89q-10 45 -54 58q-18 5 -60 5h-15v75l393 1v-103q92 66 164 99q84 38 175 38q156 0 226 -132q178 132 341 132q125 0 190 -75q42 -49 51 -111q6 -47 6 -117v-453q0 -72 5 -89q10 -45 53 -57q18 -6 61 -6h15 v-75h-393v669q0 90 -12 125q-19 52 -77 52q-114 0 -222 -117v-502q0 -72 5 -89q10 -45 54 -57q18 -6 60 -6h15v-75h-393v669q0 91 -13 125q-9 22 -30 36q-24 16 -50 16q-99 0 -231 -134v-485q0 -72 5 -89q10 -45 53 -57q18 -6 61 -6h15v-75h-527z" />
<glyph unicode="n" horiz-adv-x="1220" vert-adv-y="1497" d="M41 0v75h15q75 0 100 31q15 19 18 56q1 20 1 65v494q0 72 -5 89q-10 45 -54 58q-18 5 -60 5h-15v75l393 1v-110q171 144 349 144q128 0 200 -75q46 -48 55 -111q7 -47 7 -117v-453q0 -72 5 -89q10 -45 54 -57q18 -6 60 -6h15v-75h-393v697q0 80 -13 109q-22 47 -84 47 q-83 0 -174 -65q-43 -30 -81 -79v-482q0 -72 5 -89q10 -45 53 -57q18 -6 61 -6h15v-75h-527z" />
<glyph unicode="o" horiz-adv-x="1099" vert-adv-y="1497" d="M85 485q0 264 119 382q117 116 347 116q250 0 363 -132q52 -61 74 -138q25 -88 25 -230q0 -269 -109 -389q-116 -128 -363 -128q-291 0 -392 186q-64 118 -64 333zM351 475q0 -266 37 -339q46 -88 162 -88q127 0 170 105q30 73 30 326q0 261 -37 334q-46 88 -165 88 q-124 0 -167 -105q-30 -73 -30 -321z" />
<glyph unicode="p" horiz-adv-x="1175" vert-adv-y="1497" d="M41 -355h15q75 0 100 31q15 19 18 56q1 20 1 65v924q0 72 -5 89q-10 45 -54 58q-18 5 -60 5h-15v75l393 1v-92q114 126 297 126q177 0 270 -131q88 -124 88 -374q0 -225 -66 -348q-45 -83 -130 -125q-79 -39 -176 -39q-154 0 -283 107v-276q0 -72 5 -89q10 -45 53 -57 q18 -6 61 -6h22v-75h-534v75zM434 186q91 -118 211 -118q102 0 141 122q32 102 32 279q0 212 -32 302q-37 102 -136 102q-109 0 -216 -113v-574z" />
<glyph unicode="q" horiz-adv-x="1178" vert-adv-y="1497" d="M85 464q0 225 88 361q103 158 297 158q145 0 274 -97v63h259v-1152q0 -72 5 -89q10 -45 54 -57q18 -6 60 -6h15v-75h-534v75h22q75 0 100 31q19 28 19 114v282q-119 -106 -284 -106q-179 0 -272 118q-103 130 -103 380zM357 479q0 -223 32 -309q18 -50 67 -80 q35 -22 74 -22q83 0 165 62q22 17 49 49v579q-91 115 -216 115q-42 0 -79.5 -29t-55.5 -76q-36 -94 -36 -289z" />
<glyph unicode="r" horiz-adv-x="882" vert-adv-y="1497" d="M41 0v75h15q75 0 100 31q15 19 18 56q1 20 1 65v494q0 72 -5 89q-10 45 -54 58q-18 5 -60 5h-15v75l393 1v-123q48 52 104 91q97 66 180 66q69 0 117 -38v-271h-129v15q0 59 -31 87q-23 22 -57 22q-56 0 -125 -50q-32 -24 -59 -54v-474q0 -86 19 -114q25 -31 100 -31h22 v-75h-534z" />
<glyph unicode="s" horiz-adv-x="919" vert-adv-y="1497" d="M68 675q0 137 88 213q108 95 314 95q139 0 320 -59v-238h-125q0 86 -24 133q-41 82 -164 82q-77 0 -130 -38q-50 -36 -50 -106q0 -79 72 -114q30 -14 145 -49q171 -53 230 -91q106 -70 106 -208q0 -156 -121 -244q-118 -85 -299 -85q-145 0 -332 68v267h129 q0 -111 35 -166q27 -42 77 -66q46 -21 96 -21q71 0 122 37q54 39 54 115q0 62 -39 97q-27 24 -64 37q-29 10 -84 27q-178 54 -250 104q-106 73 -106 210z" />
<glyph unicode="t" horiz-adv-x="698" vert-adv-y="1497" d="M41 874v75q139 18 234 124q59 67 81 163h100v-287h201v-75h-201v-601q0 -109 4 -132q15 -86 96 -86h7q32 1 94 20v-75q-85 -34 -190 -34q-148 0 -217 80q-53 61 -53 184v644h-156z" />
<glyph unicode="u" horiz-adv-x="1220" vert-adv-y="1497" d="M41 873v75l393 1v-670q0 -98 15 -131q21 -46 89 -46q125 0 248 137v482q0 72 -5 89q-10 45 -53 58q-18 5 -61 5h-15v75l393 1v-722q0 -72 5 -89q10 -45 54 -57q18 -6 60 -6h15v-75h-393v109q-93 -69 -171 -106t-166 -37q-135 0 -211 79q-50 52 -59 120q-4 38 -4 103v453 q0 72 -5 89q-10 45 -54 58q-18 5 -60 5h-15z" />
<glyph unicode="v" horiz-adv-x="1177" vert-adv-y="1497" d="M38 874v75h551v-75h-51q-69 0 -69 -51q0 -26 12 -59l205 -543l184 500q23 62 23 98q0 55 -80 55h-22v75h349v-75h-7q-45 0 -74 -15q-33 -18 -50 -44q-24 -36 -51 -106l-265 -709h-184l-262 682q-41 105 -79 148q-38 44 -106 44h-3h-21z" />
<glyph unicode="w" horiz-adv-x="1698" vert-adv-y="1497" d="M38 874v75h539v-75h-46q-41 0 -54 -7q-25 -13 -25 -49q0 -38 18 -100l149 -516l254 747h154l219 -722l142 479q23 76 23 119q0 36 -24 45q-11 4 -41 4h-34v75h349v-75h-8q-58 -1 -83 -21q-30 -25 -45 -61q-20 -44 -42 -115l-205 -677h-222l-190 619l-217 -619h-209 l-217 696q-29 93 -49 119q-28 41 -61 51q-25 8 -61 8h-14z" />
<glyph unicode="x" horiz-adv-x="1177" vert-adv-y="1497" d="M38 0v75h15q63 0 98 14q41 16 78 64l233 315l-192 300q-46 72 -86 93q-26 13 -72 13h-25v75h521v-75h-10q-31 0 -48 -4q-20 -6 -20 -24t24 -55l114 -179l127 191q13 19 13 41q0 20 -18 26q-11 4 -42 4h-40v75h381v-75h-16q-49 0 -81 -14q-58 -26 -113 -107l-154 -230 l227 -355q61 -93 162 -93h2h24v-75h-557v75h17q51 0 64 6q16 7 16 27t-17 46l-142 223l-143 -200q-38 -60 -38 -73q0 -29 72 -29h32v-75h-406z" />
<glyph unicode="y" horiz-adv-x="1168" vert-adv-y="1497" d="M38 874v75h548v-75h-57q-36 0 -52 -6q-18 -7 -18 -38q0 -19 23 -88l180 -535l186 507q30 83 30 108q0 41 -35 48q-19 4 -57 4h-19v75h364v-75h-15q-60 0 -88 -17q-32 -22 -59 -91l-282 -756q-70 -187 -91 -230q-55 -111 -119 -158q-63 -45 -147 -45q-103 0 -218 38v245 h122v-13q0 -164 119 -164q63 0 112 56q28 33 61 109l13 32l-337 900q-22 58 -52 77q-26 16 -100 17h-12z" />
<glyph unicode="z" horiz-adv-x="931" vert-adv-y="1497" d="M41 0v90l515 778h-176q-108 -1 -154 -42q-47 -45 -47 -160v-21h-119v298h798v-93l-528 -775h187q106 0 136 14q55 23 72 83q10 36 10 96v68h142v-336h-836z" />
<glyph unicode="{" horiz-adv-x="668" vert-adv-y="1497" d="M59 510v72q86 31 82 177v511q0 81 34 116q36 34 116 34h236v-82h-20q-66 -1 -87 -9q-34 -13 -44 -48q-6 -26 -6 -80v-517q-1 -92 -106 -136v-4q46 -21 65 -38q41 -38 41 -98v-517q-1 -83 23 -110q18 -19 46 -24q12 -3 68 -3h20v-82h-236q-80 0 -116 34q-34 35 -34 116 v511q4 146 -82 177z" />
<glyph unicode="|" vert-adv-y="1497" d="M414 -341v1706h197v-1706h-197z" />
<glyph unicode="}" horiz-adv-x="668" vert-adv-y="1497" d="M141 -246h20q66 0 87 8q34 13 44 49q6 26 6 80v517q2 92 107 136v4q-47 21 -66 38q-41 37 -41 98v517q1 82 -23 109q-18 19 -46 25q-12 3 -68 3h-20v82h236q80 0 116 -34q34 -35 34 -116v-511q-1 -86 25 -133q17 -29 57 -44v-72q-40 -15 -57 -44q-26 -47 -25 -133v-511 q0 -81 -34 -116q-36 -34 -116 -34h-236v82z" />
<glyph unicode="~" horiz-adv-x="1365" vert-adv-y="1497" d="M278 1263q125 226 271 226q51 0 168 -41q111 -39 161 -39q89 0 164 93l45 -28q-44 -87 -112 -153q-74 -72 -162 -72q-41 0 -104 21q-30 10 -111 39q-61 22 -118 22q-63 0 -106 -40q-3 -3 -52 -55z" />
<glyph horiz-adv-x="1093" vert-adv-y="1497" d="M-32 546l55 90h125q0 3 -1 20v2q0 25 4 82h-164l55 90h117q24 157 77 264q146 296 440 296q167 0 270 -113l50 110h45v-403h-56q-24 115 -54 175q-73 144 -221 144q-237 0 -308 -373q-10 -4 -12 -100h533l-41 -90h-497q-2 -41 -2 -64q0 -17 2 -40h449l-41 -90h-404 q6 -186 78 -317q78 -144 235 -144q146 0 257 100q35 31 81 93v-155q-58 -56 -108 -85q-110 -64 -252 -64q-296 0 -435 241q-76 131 -93 331h-184z" />
<glyph unicode="&#xa0;" horiz-adv-x="458" vert-adv-y="1497" />
<glyph unicode="&#xa1;" horiz-adv-x="574" vert-adv-y="1497" d="M123 -170q0 30 6 93l83 807h109l83 -807q6 -62 6 -92q0 -69 -43 -105q-41 -34 -101 -34q-68 0 -109 42q-34 36 -34 96zM127 1000q0 49 35 84q43 42 105 42q60 0 102 -42q37 -37 37 -84q0 -49 -38 -85q-40 -40 -103 -40t-102 40q-36 37 -36 85z" />
<glyph unicode="&#xa2;" horiz-adv-x="973" vert-adv-y="1497" d="M85 693q0 467 438 500v172h72v-171q184 -6 309 -72v-281h-128v29q3 235 -181 243v-853q55 4 100 41q79 68 81 239v11h128v-287q-137 -70 -309 -84v-180h-72v177q-171 2 -265 66q-173 118 -173 450zM361 725q0 -201 15 -279q27 -140 147 -179v838q-66 -18 -102 -63 q-43 -53 -55 -161q-5 -47 -5 -156z" />
<glyph unicode="&#xa3;" horiz-adv-x="1161" vert-adv-y="1497" d="M34 592v86h208q-5 37 -33 218q-7 47 -7 105q0 211 142 316q121 89 307 89q164 0 390 -86v-356h-147v57q0 151 -53 226q-54 77 -169 77q-88 0 -143 -44q-75 -58 -75 -159q0 -39 12 -107q31 -168 31 -229l-3 -80q0 -7 -1 -27h299v-86h-311q-8 -88 -68 -218 q-61 -129 -148 -207q117 46 233 46q77 0 190 -18q73 -12 135 -12q128 0 167 57q24 34 24 111v38h107v-367q-111 -49 -291 -49q-95 0 -210 20q-164 28 -242 28q-128 0 -284 -41l-49 113q75 53 120 121q89 134 89 316q0 20 -2 62h-218z" />
<glyph unicode="&#xa4;" horiz-adv-x="1161" vert-adv-y="1497" d="M82 272l145 145q-89 131 -89 266t89 265l-145 145l88 88l144 -143q117 88 262 88q149 0 271 -89l144 144l88 -88l-144 -144q89 -126 89 -266q0 -141 -89 -266l144 -145l-88 -88l-144 144q-121 -88 -271 -88q-145 0 -262 88l-144 -144zM263 683q0 -128 93 -225 q90 -93 222 -93q135 0 228 93q93 94 93 224q0 135 -93 226q-96 93 -232 93q-128 0 -218 -93q-93 -97 -93 -225z" />
<glyph unicode="&#xa5;" horiz-adv-x="1288" vert-adv-y="1497" d="M34 1283v82h570v-82h-24q-88 0 -88 -36q0 -24 25 -66l200 -334l241 338q24 33 24 59q0 39 -66 39h-38v82h375v-82h-3q-56 0 -82 -11q-27 -12 -68 -71l-289 -420h269v-86h-319v-133h305v-86h-305v-249q0 -89 19 -115q17 -24 51 -28q17 -2 49 -2h33v-82h-577v82h33 q54 0 72 8q36 15 44 63q3 20 3 74v249h-306v86h306v133h-319v86h268l-211 359q-44 74 -62 92q-47 50 -123 51h-7z" />
<glyph unicode="&#xa6;" vert-adv-y="1497" d="M414 314h197v-655h-197v655zM414 643v722h197v-722h-197z" />
<glyph unicode="&#xa7;" horiz-adv-x="956" vert-adv-y="1497" d="M55 557q0 165 113 293q-83 78 -83 207q0 154 115 251q107 91 303 91q141 0 345 -44v-358h-124v73q0 124 -36 171q-58 76 -193 76q-102 0 -164 -52q-68 -57 -68 -139q0 -80 86 -136q61 -40 210 -109q170 -79 230 -127q113 -92 113 -243q0 -163 -129 -281q98 -80 98 -213 q0 -170 -124 -262q-121 -89 -285 -89q-154 0 -370 59v359h111v-53q0 -147 51 -206q32 -38 90 -59q52 -18 106 -18q93 0 151 49q64 55 64 147q0 60 -32 99q-35 43 -112 86q-27 15 -178 87q-147 70 -212 136q-76 78 -76 205zM207 658q0 -89 69 -142q41 -31 203 -114 q158 -81 205 -115q54 68 54 142q0 100 -144 182q-49 28 -228 112q-66 32 -117 60q-42 -59 -42 -125z" />
<glyph unicode="&#xa8;" vert-adv-y="1497" d="M115 1241q0 44 38 74q39 30 92 30q49 0 88 -27q41 -28 41 -76q0 -41 -34 -72q-36 -32 -93 -32q-59 0 -99 33q-33 29 -33 70zM650 1241q0 44 38 74q39 30 92 30q49 0 88 -27q41 -28 41 -76q0 -41 -34 -72q-36 -32 -93 -32q-59 0 -99 33q-33 29 -33 70z" />
<glyph unicode="&#xa9;" horiz-adv-x="1597" vert-adv-y="1497" d="M82 681q0 188 102 365q103 178 276 272q150 81 342 81q199 0 371 -106q173 -106 264 -286q78 -154 78 -325q0 -201 -106 -373q-105 -173 -284 -265q-154 -78 -333 -78q-298 0 -500 210q-103 106 -159 250q-51 129 -51 255zM193 682q0 -156 87 -307t233 -229 q127 -69 281 -69q256 0 433 177q177 178 177 427q0 172 -89 318q-87 144 -241 223q-129 66 -288 66q-244 0 -416 -177q-85 -90 -134 -212q-43 -110 -43 -217zM430 696q0 143 19 214q32 118 120 164t216 46q132 0 265 -51v-205h-85v38q0 72 -40 114q-39 41 -122 41 q-118 0 -161 -100q-26 -58 -26 -276q0 -201 28 -275q22 -56 81 -82q34 -15 77 -15q88 0 129 52q34 43 34 144v31h93v-234q-125 -56 -268 -56q-226 0 -306 128q-54 88 -54 322z" />
<glyph unicode="&#xaa;" horiz-adv-x="662" vert-adv-y="1497" d="M32 916q0 123 113 173q85 38 245 57v61q0 66 -31 87q-27 18 -75 18q-117 0 -117 -122v-36h-86v178q110 43 242 43q118 0 180 -40q41 -27 50 -72q6 -30 6 -94v-254q0 -55 10 -69q13 -16 55 -16h20v-58h-254v56q-112 -77 -199 -77q-84 0 -133 71q-26 39 -26 94zM47 564v119 h582v-119h-582zM197 937q0 -98 62 -98q50 0 131 73v168q-87 -17 -132 -38q-61 -28 -61 -105z" />
<glyph unicode="&#xab;" horiz-adv-x="881" vert-adv-y="1497" d="M75 471l189 432h160l-158 -432l157 -428h-159zM456 471l189 432h160l-158 -432l157 -428h-159z" />
<glyph unicode="&#xac;" vert-adv-y="1497" d="M62 409v137h901v-546h-321v409h-580z" />
<glyph unicode="&#xad;" horiz-adv-x="471" vert-adv-y="1497" d="M0 416v198h471v-198h-471z" />
<glyph unicode="&#xae;" horiz-adv-x="1597" vert-adv-y="1497" d="M82 681q0 188 102 365q103 178 276 272q150 81 342 81q199 0 371 -106q173 -106 264 -286q78 -154 78 -325q0 -201 -106 -373q-105 -173 -284 -265q-154 -78 -333 -78q-298 0 -500 210q-103 106 -159 250q-51 129 -51 255zM193 682q0 -156 87 -307t233 -229 q127 -69 281 -69q256 0 433 177q177 178 177 427q0 172 -89 318q-87 144 -241 223q-129 66 -288 66q-244 0 -416 -177q-85 -90 -134 -212q-43 -110 -43 -217zM426 266v63h27q42 0 54 15q10 14 10 65v547q0 51 -10 65q-12 15 -54 15h-27v63h466q70 0 103 -15q95 -44 95 -211 q0 -137 -59 -189q-37 -33 -86 -42l150 -267q25 -47 60 -46h16v-63h-218l-193 371h-66v-228q0 -51 10 -65q13 -15 55 -15h27v-63h-360zM694 700h87q65 0 88 24q35 36 35 155q0 113 -36 144q-16 13 -55 13h-119v-336z" />
<glyph unicode="&#xaf;" vert-adv-y="1497" d="M20 1552v148h985v-148h-985z" />
<glyph unicode="&#xb0;" horiz-adv-x="806" vert-adv-y="1497" d="M96 1091q0 125 90 218q87 90 218 90q126 0 216 -90t90 -217t-90 -217q-89 -90 -220 -90q-128 0 -214 90q-90 94 -90 216zM209 1092q0 -78 57 -137q55 -57 135 -57q82 0 139 57t57 137q0 82 -57 137q-58 57 -141 57q-78 0 -133 -57q-57 -59 -57 -137z" />
<glyph unicode="&#xb1;" horiz-adv-x="1161" vert-adv-y="1497" d="M61 0v129h1038v-129h-1038zM61 618v129h455v455h129v-455h454v-129h-454v-413h-129v413h-455z" />
<glyph unicode="&#xb2;" horiz-adv-x="765" vert-adv-y="1497" d="M77 546v76q1 95 20 140q28 67 106 120q34 23 117 70q100 57 125 90q36 47 36 131q0 150 -127 150q-67 0 -104 -37q-40 -38 -40 -136v-32l-104 -4v223q111 48 252 48q144 0 228 -59q85 -61 85 -177q0 -137 -110 -210q-56 -38 -177 -83q-97 -35 -152 -75q-49 -37 -52 -89 h326q60 0 72 8q26 16 26 73v26h84v-253h-611z" />
<glyph unicode="&#xb3;" horiz-adv-x="765" vert-adv-y="1497" d="M94 561v229h103v-29q0 -91 25 -126q33 -47 113 -47q145 0 145 174q0 82 -42 117q-41 35 -156 35h-52v79h63q87 0 131 41q41 38 41 130q0 159 -131 159q-64 0 -97 -38q-36 -40 -36 -147v-23h-101v209q131 61 253 61q132 0 216 -65q77 -58 77 -161q0 -72 -40 -124 q-28 -35 -103 -66q101 -34 135 -84q32 -49 32 -121q0 -117 -82 -176q-86 -62 -244 -62q-159 0 -250 35z" />
<glyph unicode="&#xb4;" vert-adv-y="1497" d="M423 1113l117 266h265l-257 -266h-125z" />
<glyph unicode="&#xb5;" horiz-adv-x="1220" vert-adv-y="1497" d="M41 873v75l393 1v-670q0 -98 15 -131q21 -46 89 -46q125 0 248 137v482q0 72 -5 89q-10 45 -53 58q-18 5 -61 5h-15v75l393 1v-722q0 -72 5 -89q10 -45 53 -58q18 -5 61 -5h15v-75h-393v109q-93 -69 -171 -106t-166 -37q-103 0 -178 51q7 -48 54 -198q21 -66 21 -109 q0 -40 -24 -68q-36 -43 -98 -43q-80 0 -115 56q-14 23 -14 60q0 50 17 134q59 299 63 652v220q0 72 -5 89q-10 45 -54 58q-18 5 -60 5h-15z" />
<glyph unicode="&#xb6;" horiz-adv-x="1100" vert-adv-y="1497" d="M89 995q0 176 53 267q38 66 112 104q61 32 129 32q98 0 169 -65q19 -17 45 -50l25 82h448v-75h-34q-51 -1 -72 -27q-13 -17 -15 -38q-1 -17 -1 -82v-1178q0 -102 5 -115q17 -47 83 -48h33v-75h-259v1558h-75v-1558h-258v75h33q50 1 71 26q13 18 15 39q1 20 1 98v672 q-87 -22 -192 -22q-316 0 -316 380z" />
<glyph unicode="&#xb7;" horiz-adv-x="484" vert-adv-y="1497" d="M102 502q0 49 38 85q41 40 105 40q61 0 100 -40q36 -37 36 -86q0 -47 -35 -84q-42 -42 -103 -42q-63 0 -104 43q-37 37 -37 84z" />
<glyph unicode="&#xb8;" vert-adv-y="1497" d="M393 -398l35 61q33 -14 61 -14q49 0 79 29q27 26 27 61q0 39 -31 66q-29 27 -69 27q-25 0 -67 -13l-22 59q64 27 118 27q80 0 136 -47q52 -44 52 -116q0 -69 -50 -117q-54 -51 -140 -51q-50 0 -129 28z" />
<glyph unicode="&#xb9;" horiz-adv-x="765" vert-adv-y="1497" d="M154 1220l234 153h110v-686q0 -53 10 -67q14 -16 58 -16h33v-58h-393v58h47q44 0 58 16q10 14 10 67v515q0 26 -15 26q-7 0 -29 -13l-83 -53z" />
<glyph unicode="&#xba;" horiz-adv-x="659" vert-adv-y="1497" d="M39 564v119h582v-119h-582zM44 1069q0 161 73 234q72 72 214 72q153 0 223 -82q61 -70 61 -225q0 -164 -68 -238q-71 -79 -222 -79q-179 0 -242 115q-39 73 -39 203zM217 1063q0 -158 22 -200q25 -49 91 -49q71 0 95 59q18 42 18 192q0 155 -22 198q-25 49 -93 49 q-70 0 -94 -59q-17 -42 -17 -190z" />
<glyph unicode="&#xbb;" horiz-adv-x="881" vert-adv-y="1497" d="M75 43l158 432l-157 428h159l189 -429l-189 -431h-160zM456 43l159 432l-157 428h159l188 -429l-188 -431h-161z" />
<glyph unicode="&#xbc;" horiz-adv-x="1670" vert-adv-y="1497" d="M154 1220l234 153h110v-686q0 -53 10 -67q14 -16 58 -16h33v-58h-393v58h47q44 0 58 16q10 14 10 67v515q0 26 -15 26q-7 0 -29 -13l-83 -53zM417 -14l724 1393h113l-725 -1393h-112zM940 234v82l368 503h169v-487h16q36 0 48 6q19 13 21 73h74l-8 -177h-151v-93 q0 -53 10 -67q14 -16 58 -16h34v-58h-392v58h45q44 0 58 16q10 14 10 67v93h-360zM1048 332h252v346z" />
<glyph unicode="&#xbd;" horiz-adv-x="1670" vert-adv-y="1497" d="M154 1220l234 153h110v-686q0 -53 10 -67q14 -16 58 -16h33v-58h-393v58h47q44 0 58 16q10 14 10 67v515q0 26 -15 26q-7 0 -29 -13l-83 -53zM417 -14l724 1393h113l-725 -1393h-112zM982 0v76q1 94 21 140q29 67 106 120q34 24 116 71q99 56 125 89q36 47 36 132 q0 150 -127 150q-66 0 -104 -37q-39 -38 -39 -137v-31l-104 -5v224q112 48 252 48q143 0 227 -59q85 -61 85 -178q0 -136 -110 -210q-55 -37 -176 -82q-97 -36 -152 -76q-49 -37 -52 -89h325q60 0 73 8q25 16 25 73v26h84v-253h-611z" />
<glyph unicode="&#xbe;" horiz-adv-x="1670" vert-adv-y="1497" d="M94 561v229h103v-29q0 -91 25 -126q33 -47 113 -47q145 0 145 174q0 82 -42 117q-41 35 -156 35h-52v79h63q87 0 131 41q41 38 41 130q0 159 -131 159q-64 0 -97 -38q-36 -40 -36 -147v-23h-101v209q131 61 253 61q132 0 216 -65q77 -58 77 -161q0 -72 -40 -124 q-28 -35 -103 -66q101 -34 135 -84q32 -49 32 -121q0 -117 -82 -176q-86 -62 -244 -62q-159 0 -250 35zM416 -14l725 1393h112l-725 -1393h-112zM939 234v82l369 503h169v-487h16q36 0 47 6q20 13 22 73h74l-8 -177h-151v-93q0 -53 10 -67q14 -16 58 -16h34v-58h-392v58h45 q44 0 57 16q11 14 11 67v93h-361zM1047 332h253v346z" />
<glyph unicode="&#xbf;" horiz-adv-x="1022" vert-adv-y="1497" d="M48 107q0 95 33 153q43 77 149 127q22 10 129 50q111 42 145 87q31 39 31 107q0 63 -36 119h124q47 -108 47 -231q0 -154 -80 -224q-42 -37 -170 -101q-83 -42 -106 -76q-26 -38 -26 -102q0 -105 58 -171q63 -70 184 -70q257 0 257 334v56h139v-346q-244 -126 -434 -126 q-185 0 -301 86q-72 53 -105 135q-38 93 -38 193zM433 1000q0 49 35 84q43 42 105 42q60 0 102 -42q37 -37 37 -84q0 -49 -38 -85q-40 -40 -103 -40t-102 40q-36 37 -36 85z" />
<glyph unicode="&#xc0;" horiz-adv-x="1470" vert-adv-y="1497" d="M34 0v82h24q71 1 100 20q33 22 65 113l326 980q12 36 12 54q0 34 -55 34h-88v82h441l399 -1143q31 -87 58 -112q29 -27 107 -28h13v-82h-567v82h46q39 0 51 7q17 10 17 37q0 19 -6 38l-102 303q-9 27 -19 33q-8 5 -42 5h-357q-27 0 -35 -4q-9 -5 -18 -31l-90 -279 q-11 -34 -11 -65q0 -44 78 -44h33v-82h-380zM456 610q0 -16 28 -16h313q31 0 31 23q0 12 -6 30l-179 538l-183 -557q-4 -11 -4 -18zM442 1761h265l117 -266h-125z" />
<glyph unicode="&#xc1;" horiz-adv-x="1470" vert-adv-y="1497" d="M34 0v82h24q71 1 100 20q33 22 65 113l326 980q12 36 12 54q0 34 -55 34h-88v82h441l399 -1143q31 -87 58 -112q29 -27 107 -28h13v-82h-567v82h46q39 0 51 7q17 10 17 37q0 19 -6 38l-102 303q-9 27 -19 33q-8 5 -42 5h-357q-27 0 -35 -4q-9 -5 -18 -31l-90 -279 q-11 -34 -11 -65q0 -44 78 -44h33v-82h-380zM456 610q0 -16 28 -16h313q31 0 31 23q0 12 -6 30l-179 538l-183 -557q-4 -11 -4 -18zM646 1495l117 266h265l-257 -266h-125z" />
<glyph unicode="&#xc2;" horiz-adv-x="1470" vert-adv-y="1497" d="M34 0v82h24q71 1 100 20q33 22 65 113l326 980q12 36 12 54q0 34 -55 34h-88v82h441l399 -1143q31 -87 58 -112q29 -27 107 -28h13v-82h-567v82h46q39 0 51 7q17 10 17 37q0 19 -6 38l-102 303q-9 27 -19 33q-8 5 -42 5h-357q-27 0 -35 -4q-9 -5 -18 -31l-90 -279 q-11 -34 -11 -65q0 -44 78 -44h33v-82h-380zM456 610q0 -16 28 -16h313q31 0 31 23q0 12 -6 30l-179 538l-183 -557q-4 -11 -4 -18zM292 1495l244 266h318l241 -266h-156l-246 178l-245 -178h-156z" />
<glyph unicode="&#xc3;" horiz-adv-x="1470" vert-adv-y="1497" d="M34 0v82h24q71 1 100 20q33 22 65 113l326 980q12 36 12 54q0 34 -55 34h-88v82h441l399 -1143q31 -87 58 -112q29 -27 107 -28h13v-82h-567v82h46q39 0 51 7q17 10 17 37q0 19 -6 38l-102 303q-9 27 -19 33q-8 5 -42 5h-357q-27 0 -35 -4q-9 -5 -18 -31l-90 -279 q-11 -34 -11 -65q0 -44 78 -44h33v-82h-380zM456 610q0 -16 28 -16h313q31 0 31 23q0 12 -6 30l-179 538l-183 -557q-4 -11 -4 -18zM363 1500q1 97 27 145q23 43 69 68t98 25q43 0 97 -22q21 -9 75 -35q86 -41 122 -41q54 0 76 42q11 19 18 63h80q-1 -71 -13 -112 q-35 -123 -183 -123q-36 0 -76 15q-25 10 -90 40q-91 44 -123 44q-88 0 -91 -109h-86z" />
<glyph unicode="&#xc4;" horiz-adv-x="1470" vert-adv-y="1497" d="M34 0v82h24q71 1 100 20q33 22 65 113l326 980q12 36 12 54q0 34 -55 34h-88v82h441l399 -1143q31 -87 58 -112q29 -27 107 -28h13v-82h-567v82h46q39 0 51 7q17 10 17 37q0 19 -6 38l-102 303q-9 27 -19 33q-8 5 -42 5h-357q-27 0 -35 -4q-9 -5 -18 -31l-90 -279 q-11 -34 -11 -65q0 -44 78 -44h33v-82h-380zM330 1634q0 53 39 88q43 39 102 39q56 0 98 -39q39 -36 39 -87q0 -52 -39 -89q-41 -39 -100 -39q-60 0 -100 39q-39 37 -39 88zM456 610q0 -16 28 -16h313q31 0 31 23q0 12 -6 30l-179 538l-183 -557q-4 -11 -4 -18zM779 1634 q0 53 39 88q43 39 102 39q57 0 99 -39q39 -36 39 -87q0 -52 -39 -89q-41 -39 -101 -39q-59 0 -100 39q-39 37 -39 88z" />
<glyph unicode="&#xc5;" horiz-adv-x="1470" vert-adv-y="1497" d="M34 0v82h24q71 1 100 20q33 22 65 113l326 980q12 36 12 54q0 34 -55 34h-88v82h441l399 -1143q31 -87 58 -112q29 -27 107 -28h13v-82h-567v82h46q39 0 51 7q17 10 17 37q0 19 -6 38l-102 303q-9 27 -19 33q-8 5 -42 5h-357q-27 0 -35 -4q-9 -5 -18 -31l-90 -279 q-11 -34 -11 -65q0 -44 78 -44h33v-82h-380zM456 610q0 -16 28 -16h313q31 0 31 23q0 12 -6 30l-179 538l-183 -557q-4 -11 -4 -18zM496 1640q0 86 56 134q56 47 145 47q84 0 139 -47q56 -48 56 -134q0 -84 -56 -133q-55 -47 -142 -47t-142 47q-56 49 -56 133zM578 1639 q0 -43 29 -70q34 -30 87 -30q52 0 86 30q29 27 29 70t-29 70q-34 30 -88 30q-51 0 -85 -30q-29 -27 -29 -70z" />
<glyph unicode="&#xc6;" horiz-adv-x="1940" vert-adv-y="1497" d="M34 0v82h63q63 1 85 21q16 15 48 92l414 1012q9 22 9 40q0 22 -19 31q-10 5 -46 5h-81v82h1333v-341h-133v104q-1 96 -43 129q-28 22 -70 25q-19 1 -63 1h-201q-53 0 -75 -18q-26 -23 -27 -87v-381q0 -39 7 -49q9 -13 47 -13h139q77 0 101 22q22 21 23 84v61h102v-416 h-102v38q0 72 -23 101q-22 28 -89 28h-155q-30 0 -40 -6q-10 -9 -10 -44v-396q0 -68 6 -82q10 -30 46 -38q21 -5 63 -5h240q68 0 97 15q50 24 62 86q6 28 6 91v129h130v-403h-1075v82h33q54 0 72 8q36 15 44 63q3 20 3 74v376q-1 27 -5 36q-6 9 -17 12q-7 2 -46 2h-325 q-27 0 -36 -6q-11 -8 -26 -47l-167 -433q-14 -37 -14 -55t14 -25q10 -5 47 -5h52v-82h-398zM568 761q0 -26 39 -26h282q44 0 55 12t11 61v398q0 51 -13 64q-16 13 -63 13h-52q-41 0 -57 -19q-13 -15 -33 -67l-162 -407q-7 -17 -7 -29z" />
<glyph unicode="&#xc7;" horiz-adv-x="1171" vert-adv-y="1497" d="M82 704q0 236 31 353q33 123 95 191q80 88 231 125q109 26 224 26q215 0 430 -81v-322h-119v52q0 66 -29 133q-58 136 -252 136q-205 0 -280 -173q-44 -100 -44 -464q0 -217 13 -317q16 -122 53 -183q50 -83 148 -116q49 -16 109 -16q151 0 222 91q60 76 60 248v40h132 v-372q-192 -89 -436 -89q-370 0 -500 209q-60 97 -78 270q-10 92 -10 259zM464 -405l35 63q34 -15 63 -15q50 0 81 30q27 27 27 63q0 39 -31 68q-31 27 -71 27q-26 0 -69 -14l-22 60q65 28 121 28q82 0 139 -48q53 -45 53 -119q0 -70 -52 -119q-55 -52 -142 -52 q-51 0 -132 28z" />
<glyph unicode="&#xc8;" horiz-adv-x="1178" vert-adv-y="1497" d="M41 0v82h33q54 0 72 8q36 15 44 63q3 20 3 74v911q0 89 -19 116q-17 23 -51 27q-17 2 -49 2h-33v82h1037v-341h-133v104q-1 96 -43 129q-28 22 -70 25q-19 1 -63 1h-201q-53 0 -75 -18q-26 -23 -27 -87v-355q0 -39 7 -49q9 -13 47 -13h139q76 0 101 22q22 21 23 84v61 h102v-416h-102v38q0 72 -23 101q-22 28 -89 28h-155q-30 0 -40 -6q-10 -9 -10 -44v-422q0 -68 6 -82q11 -30 46 -38q21 -5 63 -5h240q68 0 97 15q50 24 62 86q6 27 6 91v129h130v-403h-1075zM295 1761h265l117 -266h-125z" />
<glyph unicode="&#xc9;" horiz-adv-x="1178" vert-adv-y="1497" d="M41 0v82h33q54 0 72 8q36 15 44 63q3 20 3 74v911q0 89 -19 116q-17 23 -51 27q-17 2 -49 2h-33v82h1037v-341h-133v104q-1 96 -43 129q-28 22 -70 25q-19 1 -63 1h-201q-53 0 -75 -18q-26 -23 -27 -87v-355q0 -39 7 -49q9 -13 47 -13h139q76 0 101 22q22 21 23 84v61 h102v-416h-102v38q0 72 -23 101q-22 28 -89 28h-155q-30 0 -40 -6q-10 -9 -10 -44v-422q0 -68 6 -82q11 -30 46 -38q21 -5 63 -5h240q68 0 97 15q50 24 62 86q6 27 6 91v129h130v-403h-1075zM500 1495l117 266h265l-257 -266h-125z" />
<glyph unicode="&#xca;" horiz-adv-x="1178" vert-adv-y="1497" d="M41 0v82h33q54 0 72 8q36 15 44 63q3 20 3 74v911q0 89 -19 116q-17 23 -51 27q-17 2 -49 2h-33v82h1037v-341h-133v104q-1 96 -43 129q-28 22 -70 25q-19 1 -63 1h-201q-53 0 -75 -18q-26 -23 -27 -87v-355q0 -39 7 -49q9 -13 47 -13h139q76 0 101 22q22 21 23 84v61 h102v-416h-102v38q0 72 -23 101q-22 28 -89 28h-155q-30 0 -40 -6q-10 -9 -10 -44v-422q0 -68 6 -82q11 -30 46 -38q21 -5 63 -5h240q68 0 97 15q50 24 62 86q6 27 6 91v129h130v-403h-1075zM187 1495l244 266h318l241 -266h-156l-246 178l-245 -178h-156z" />
<glyph unicode="&#xcb;" horiz-adv-x="1178" vert-adv-y="1497" d="M41 0v82h33q54 0 72 8q36 15 44 63q3 20 3 74v911q0 89 -19 116q-17 23 -51 27q-17 2 -49 2h-33v82h1037v-341h-133v104q-1 96 -43 129q-28 22 -70 25q-19 1 -63 1h-201q-53 0 -75 -18q-26 -23 -27 -87v-355q0 -39 7 -49q9 -13 47 -13h139q76 0 101 22q22 21 23 84v61 h102v-416h-102v38q0 72 -23 101q-22 28 -89 28h-155q-30 0 -40 -6q-10 -9 -10 -44v-422q0 -68 6 -82q11 -30 46 -38q21 -5 63 -5h240q68 0 97 15q50 24 62 86q6 27 6 91v129h130v-403h-1075zM184 1634q0 53 39 88q43 39 102 39q56 0 98 -39q39 -36 39 -87q0 -52 -39 -89 q-41 -39 -100 -39q-60 0 -100 39q-39 37 -39 88zM716 1634q0 53 39 88q43 39 102 39q56 0 98 -39q39 -36 39 -87q0 -52 -39 -89q-41 -39 -100 -39q-60 0 -100 39q-39 37 -39 88z" />
<glyph unicode="&#xcc;" horiz-adv-x="659" vert-adv-y="1497" d="M41 0v82h33q54 0 72 8q36 15 44 63q3 20 3 74v911q0 89 -19 116q-17 23 -51 27q-17 2 -49 2h-33v82h577v-82h-33q-54 0 -72 -8q-36 -15 -44 -63q-3 -20 -3 -74v-911q0 -89 19 -115q17 -24 51 -28q17 -2 49 -2h33v-82h-577zM63 1761h265l117 -266h-125z" />
<glyph unicode="&#xcd;" horiz-adv-x="659" vert-adv-y="1497" d="M41 0v82h33q54 0 72 8q36 15 44 63q3 20 3 74v911q0 89 -19 116q-17 23 -51 27q-17 2 -49 2h-33v82h577v-82h-33q-54 0 -72 -8q-36 -15 -44 -63q-3 -20 -3 -74v-911q0 -89 19 -115q17 -24 51 -28q17 -2 49 -2h33v-82h-577zM213 1495l117 266h265l-257 -266h-125z" />
<glyph unicode="&#xce;" horiz-adv-x="659" vert-adv-y="1497" d="M-18 1495l190 266h318l186 -266h-156l-192 178l-190 -178h-156zM40 0v82h33q54 0 72 8q36 15 44 63q3 20 3 74v911q0 89 -19 116q-17 23 -51 27q-16 2 -49 2h-33v82h577v-82h-33q-54 0 -72 -8q-36 -15 -44 -63q-3 -20 -3 -74v-911q0 -89 19 -115q17 -24 51 -28 q17 -2 49 -2h33v-82h-577z" />
<glyph unicode="&#xcf;" horiz-adv-x="659" vert-adv-y="1497" d="M41 0v82h33q54 0 72 8q36 15 44 63q3 20 3 74v911q0 89 -19 116q-17 23 -51 27q-17 2 -49 2h-33v82h577v-82h-33q-54 0 -72 -8q-36 -15 -44 -63q-3 -20 -3 -74v-911q0 -89 19 -115q17 -24 51 -28q17 -2 49 -2h33v-82h-577zM-7 1634q0 53 39 88q43 39 102 39q56 0 98 -39 q39 -36 39 -87q0 -52 -39 -89q-41 -39 -100 -39q-60 0 -100 39q-39 37 -39 88zM388 1634q0 53 39 88q43 39 102 39q57 0 99 -39q39 -36 39 -87q0 -52 -39 -89q-41 -39 -101 -39q-59 0 -100 39q-39 37 -39 88z" />
<glyph unicode="&#xd0;" horiz-adv-x="1300" vert-adv-y="1497" d="M41 0v82h33q54 0 72 8q36 15 44 63q3 20 3 74v452h-152v82h152v377q0 89 -19 116q-17 23 -51 27q-17 2 -49 2h-33v82h691q125 0 177 -6.5t97 -27.5q141 -67 181 -279q24 -129 24 -360q0 -230 -22 -360q-24 -150 -91 -223q-78 -87 -223 -101q-79 -8 -185 -8h-649zM466 82 h134q100 0 166 22q91 31 126 139q32 99 32 444q0 220 -14 332q-23 176 -114 233q-50 31 -150 31h-180v-522h230v-82h-230v-597z" />
<glyph unicode="&#xd1;" horiz-adv-x="1391" vert-adv-y="1497" d="M41 0v82h19q60 0 81 11q40 19 48 81q4 24 4 94v870q0 89 -19 116q-17 23 -51 27q-17 2 -49 2h-33v82h371l691 -1075v807q-1 114 -21 148q-18 30 -57 35q-18 3 -55 3h-19v82h400v-82h-19q-51 0 -74.5 -8t-37.5 -30q-21 -34 -21 -148v-1097h-236l-674 1029v-761 q0 -114 21 -148q18 -30 57 -35q18 -3 55 -3h19v-82h-400zM365 1500q1 97 27 145q23 43 69 68t98 25q43 0 97 -22q21 -9 75 -35q86 -41 122 -41q54 0 76 42q11 19 18 63h80q-1 -71 -13 -112q-35 -123 -183 -123q-36 0 -76 15q-25 10 -90 40q-91 44 -123 44q-88 0 -91 -109 h-86z" />
<glyph unicode="&#xd2;" horiz-adv-x="1283" vert-adv-y="1497" d="M89 682q0 253 31 376q33 133 107 206q94 94 232 119q89 16 193 16q333 0 458 -195q53 -82 72 -225q13 -106 13 -292q0 -257 -32 -380q-87 -341 -523 -341q-330 0 -462 195q-56 83 -75 225q-14 107 -14 296zM376 683q0 -211 7 -297q16 -192 81 -268q61 -70 178 -70t178 70 q65 76 81 268q7 87 7 309q0 339 -34 447q-31 99 -95 140q-53 35 -142 35q-185 0 -235 -206q-26 -104 -26 -428zM349 1761h265l117 -266h-125z" />
<glyph unicode="&#xd3;" horiz-adv-x="1283" vert-adv-y="1497" d="M89 682q0 253 31 376q33 133 107 206q94 94 232 119q89 16 193 16q333 0 458 -195q53 -82 72 -225q13 -106 13 -292q0 -257 -32 -380q-87 -341 -523 -341q-330 0 -462 195q-56 83 -75 225q-14 107 -14 296zM376 683q0 -211 7 -297q16 -192 81 -268q61 -70 178 -70t178 70 q65 76 81 268q7 87 7 309q0 339 -34 447q-31 99 -95 140q-53 35 -142 35q-185 0 -235 -206q-26 -104 -26 -428zM553 1495l117 266h265l-257 -266h-125z" />
<glyph unicode="&#xd4;" horiz-adv-x="1283" vert-adv-y="1497" d="M89 682q0 253 31 376q33 133 107 206q94 94 232 119q89 16 193 16q333 0 458 -195q53 -82 72 -225q13 -106 13 -292q0 -257 -32 -380q-87 -341 -523 -341q-330 0 -462 195q-56 83 -75 225q-14 107 -14 296zM376 683q0 -211 7 -297q16 -192 81 -268q61 -70 178 -70t178 70 q65 76 81 268q7 87 7 309q0 339 -34 447q-31 99 -95 140q-53 35 -142 35q-185 0 -235 -206q-26 -104 -26 -428zM240 1495l244 266h318l241 -266h-156l-246 178l-245 -178h-156z" />
<glyph unicode="&#xd5;" horiz-adv-x="1283" vert-adv-y="1497" d="M89 682q0 253 31 376q33 133 107 206q94 94 232 119q89 16 193 16q333 0 458 -195q53 -82 72 -225q13 -106 13 -292q0 -257 -32 -380q-87 -341 -523 -341q-330 0 -462 195q-56 83 -75 225q-14 107 -14 296zM376 683q0 -211 7 -297q16 -192 81 -268q61 -70 178 -70t178 70 q65 76 81 268q7 87 7 309q0 339 -34 447q-31 99 -95 140q-53 35 -142 35q-185 0 -235 -206q-26 -104 -26 -428zM311 1500q1 97 27 145q23 43 69 68t98 25q43 0 97 -22q21 -9 75 -35q86 -41 122 -41q54 0 76 42q11 19 18 63h80q-1 -71 -13 -112q-35 -123 -183 -123 q-36 0 -76 15q-25 10 -90 40q-91 44 -123 44q-88 0 -91 -109h-86z" />
<glyph unicode="&#xd6;" horiz-adv-x="1283" vert-adv-y="1497" d="M89 682q0 253 31 376q33 133 107 206q94 94 232 119q89 16 193 16q333 0 458 -195q53 -82 72 -225q13 -106 13 -292q0 -257 -32 -380q-87 -341 -523 -341q-330 0 -462 195q-56 83 -75 225q-14 107 -14 296zM376 683q0 -211 7 -297q16 -192 81 -268q61 -70 178 -70t178 70 q65 76 81 268q7 87 7 309q0 339 -34 447q-31 99 -95 140q-53 35 -142 35q-185 0 -235 -206q-26 -104 -26 -428zM237 1634q0 53 39 88q43 39 102 39q56 0 98 -39q39 -36 39 -87q0 -52 -39 -89q-41 -39 -100 -39q-60 0 -100 39q-39 37 -39 88zM769 1634q0 53 39 88 q43 39 102 39q56 0 98 -39q39 -36 39 -87q0 -52 -39 -89q-41 -39 -100 -39q-60 0 -100 39q-39 37 -39 88z" />
<glyph unicode="&#xd7;" horiz-adv-x="1161" vert-adv-y="1497" d="M139 332l350 351l-350 350l91 91l351 -350l350 350l91 -91l-350 -350l350 -351l-91 -91l-350 350l-351 -350z" />
<glyph unicode="&#xd8;" horiz-adv-x="1283" vert-adv-y="1497" d="M89 674q0 262 30 384q50 198 212 282q116 59 312 59q180 0 288 -47q38 -16 80 -45l79 113l93 -69l-88 -125q35 -49 50 -91q32 -94 41 -196q9 -113 9 -246q0 -264 -31 -386q-88 -341 -523 -341q-229 0 -365 95l-83 -116l-92 69l90 129q-35 46 -50 87q-33 93 -42 196 q-10 114 -10 248zM376 686q0 -195 5 -274l499 709q-16 53 -30 81q-58 115 -207 115q-118 0 -179 -70q-65 -76 -81 -268q-7 -86 -7 -293zM404 244q16 -52 30 -81q59 -115 208 -115q117 0 178 70q65 76 81 268q7 87 7 302q0 186 -5 265z" />
<glyph unicode="&#xd9;" horiz-adv-x="1335" vert-adv-y="1497" d="M41 1283v82h577v-82h-33q-54 0 -72 -8q-36 -15 -44 -63q-3 -20 -3 -74v-784q0 -134 44 -196q65 -90 235 -90q214 0 279 143q23 52 23 204v682q-1 114 -21 148q-18 30 -57 35q-18 3 -55 3h-19v82h400v-82h-19q-51 0 -74.5 -8t-37.5 -30q-21 -34 -21 -148v-707 q0 -151 -28 -220q-54 -130 -205 -174q-94 -28 -235 -28q-363 0 -454 199q-25 53 -28 164v151v656q0 89 -19 116q-17 23 -51 27q-17 2 -49 2h-33zM429 1761h265l117 -266h-125z" />
<glyph unicode="&#xda;" horiz-adv-x="1335" vert-adv-y="1497" d="M41 1283v82h577v-82h-33q-54 0 -72 -8q-36 -15 -44 -63q-3 -20 -3 -74v-784q0 -134 44 -196q65 -90 235 -90q214 0 279 143q23 52 23 204v682q-1 114 -21 148q-18 30 -57 35q-18 3 -55 3h-19v82h400v-82h-19q-51 0 -74.5 -8t-37.5 -30q-21 -34 -21 -148v-707 q0 -151 -28 -220q-54 -130 -205 -174q-94 -28 -235 -28q-363 0 -454 199q-25 53 -28 164v151v656q0 89 -19 116q-17 23 -51 27q-17 2 -49 2h-33zM579 1495l117 266h265l-257 -266h-125z" />
<glyph unicode="&#xdb;" horiz-adv-x="1335" vert-adv-y="1497" d="M41 1283v82h577v-82h-33q-54 0 -72 -8q-36 -15 -44 -63q-3 -20 -3 -74v-784q0 -134 44 -196q65 -90 235 -90q214 0 279 143q23 52 23 204v682q-1 114 -21 148q-18 30 -57 35q-18 3 -55 3h-19v82h400v-82h-19q-51 0 -74.5 -8t-37.5 -30q-21 -34 -21 -148v-707 q0 -151 -28 -220q-54 -130 -205 -174q-94 -28 -235 -28q-363 0 -454 199q-25 53 -28 164v151v656q0 89 -19 116q-17 23 -51 27q-17 2 -49 2h-33zM266 1495l244 266h318l241 -266h-156l-246 178l-245 -178h-156z" />
<glyph unicode="&#xdc;" horiz-adv-x="1335" vert-adv-y="1497" d="M41 1283v82h577v-82h-33q-54 0 -72 -8q-36 -15 -44 -63q-3 -20 -3 -74v-784q0 -134 44 -196q65 -90 235 -90q214 0 279 143q23 52 23 204v682q-1 114 -21 148q-18 30 -57 35q-18 3 -55 3h-19v82h400v-82h-19q-51 0 -74.5 -8t-37.5 -30q-21 -34 -21 -148v-707 q0 -151 -28 -220q-54 -130 -205 -174q-94 -28 -235 -28q-363 0 -454 199q-25 53 -28 164v151v656q0 89 -19 116q-17 23 -51 27q-17 2 -49 2h-33zM262 1634q0 53 39 88q43 39 102 39q56 0 98 -39q39 -36 39 -87q0 -52 -39 -89q-41 -39 -100 -39q-60 0 -100 39q-39 37 -39 88z M794 1634q0 53 39 88q43 39 102 39q56 0 98 -39q39 -36 39 -87q0 -52 -39 -89q-41 -39 -100 -39q-60 0 -100 39q-39 37 -39 88z" />
<glyph unicode="&#xdd;" horiz-adv-x="1356" vert-adv-y="1497" d="M34 1283v82h570v-82h-24q-88 0 -88 -36q0 -13 25 -66l227 -471l271 475q20 36 20 61q0 37 -64 37h-38v82h389v-82h-16q-56 0 -83 -11q-34 -14 -68 -72l-367 -628v-345q0 -89 19 -115q17 -24 51 -28q16 -2 49 -2h33v-82h-577v82h33q46 0 66.5 6t33.5 24q19 26 19 115v331 l-288 582q-45 89 -99 121q-36 22 -87 22h-7zM589 1495l117 266h265l-257 -266h-125z" />
<glyph unicode="&#xde;" horiz-adv-x="1209" vert-adv-y="1497" d="M41 0v82h33q54 0 72 8q36 15 44 63q3 20 3 74v911q0 89 -19 116q-17 23 -51 27q-17 2 -49 2h-33v82h577v-82h-33q-54 0 -72 -8q-36 -15 -44 -63q-3 -18 -3 -65h323q125 0 176 -16q102 -30 145 -122q38 -81 38 -218q0 -203 -79 -295q-67 -78 -184 -93q-54 -7 -123 -7h-296 v-169q0 -89 19 -115q17 -24 51 -28q17 -2 49 -2h33v-82h-577zM466 478h151q124 0 178 57q47 48 57 121q9 63 9 140q0 123 -24 177q-32 69 -103 85q-28 7 -88 7h-180v-587z" />
<glyph unicode="&#xdf;" horiz-adv-x="1346" vert-adv-y="1497" d="M41 0v75h22q75 0 100 31q15 19 18 56q1 20 1 65v647h-131v75h131v84q0 87 6 128.5t23 74.5q92 170 398 170q211 0 320 -82q102 -77 102 -195q0 -73 -50 -142q-10 -14 -67 -81q-66 -78 -66 -115q0 -28 27 -51q15 -13 59 -36q163 -83 240 -147q121 -101 121 -275 q0 -143 -100 -227q-107 -89 -293 -89q-132 0 -262 45v272h133v-38q0 -94 25 -138q33 -59 118 -59q73 0 108 46q32 42 32 98q0 84 -78 137l-84 54l-56 37q-106 67 -140 102q-54 54 -54 135q0 62 37 141q6 15 40 81q70 136 70 231q0 91 -58 154q-48 53 -125 53q-78 0 -126 -54 q-30 -34 -36 -73q-5 -37 -5 -107v-1083h-400z" />
<glyph unicode="&#xe0;" horiz-adv-x="1103" vert-adv-y="1497" d="M65 231q0 119 73 198q60 66 170 103q134 46 354 71v113q0 79 -18 112q-42 73 -170 73q-206 0 -206 -214v-49h-121v278q177 67 394 67q192 0 291 -65q65 -42 79 -113q10 -47 10 -153v-425q0 -72 5 -89q10 -45 54 -57q18 -6 60 -6h22v-75h-400v108q-49 -41 -102 -70 q-132 -72 -240 -72q-90 0 -163 60q-92 74 -92 205zM317 266q0 -74 25 -120q29 -55 90 -55q88 0 230 127v299q-155 -29 -237 -66q-62 -28 -86 -74q-22 -42 -22 -111zM258 1379h265l117 -266h-125z" />
<glyph unicode="&#xe1;" horiz-adv-x="1103" vert-adv-y="1497" d="M65 231q0 119 73 198q60 66 170 103q134 46 354 71v113q0 79 -18 112q-42 73 -170 73q-206 0 -206 -214v-49h-121v278q177 67 394 67q192 0 291 -65q65 -42 79 -113q10 -47 10 -153v-425q0 -72 5 -89q10 -45 54 -57q18 -6 60 -6h22v-75h-400v108q-49 -41 -102 -70 q-132 -72 -240 -72q-90 0 -163 60q-92 74 -92 205zM317 266q0 -74 25 -120q29 -55 90 -55q88 0 230 127v299q-155 -29 -237 -66q-62 -28 -86 -74q-22 -42 -22 -111zM463 1113l117 266h265l-257 -266h-125z" />
<glyph unicode="&#xe2;" horiz-adv-x="1103" vert-adv-y="1497" d="M65 231q0 119 73 198q60 66 170 103q134 46 354 71v113q0 79 -18 112q-42 73 -170 73q-206 0 -206 -214v-49h-121v278q177 67 394 67q192 0 291 -65q65 -42 79 -113q10 -47 10 -153v-425q0 -72 5 -89q10 -45 54 -57q18 -6 60 -6h22v-75h-400v108q-49 -41 -102 -70 q-132 -72 -240 -72q-90 0 -163 60q-92 74 -92 205zM317 266q0 -74 25 -120q29 -55 90 -55q88 0 230 127v299q-155 -29 -237 -66q-62 -28 -86 -74q-22 -42 -22 -111zM218 1113l176 266h318l173 -266h-157l-178 185l-176 -185h-156z" />
<glyph unicode="&#xe3;" horiz-adv-x="1103" vert-adv-y="1497" d="M65 231q0 119 73 198q60 66 170 103q134 46 354 71v113q0 79 -18 112q-42 73 -170 73q-206 0 -206 -214v-49h-121v278q177 67 394 67q192 0 291 -65q65 -42 79 -113q10 -47 10 -153v-425q0 -72 5 -89q10 -45 54 -57q18 -6 60 -6h22v-75h-400v108q-49 -41 -102 -70 q-132 -72 -240 -72q-90 0 -163 60q-92 74 -92 205zM317 266q0 -74 25 -120q29 -55 90 -55q88 0 230 127v299q-155 -29 -237 -66q-62 -28 -86 -74q-22 -42 -22 -111zM262 1118q1 95 23 145q20 42 59 68q40 25 85 25q39 0 88 -23q19 -9 68 -36q79 -43 107 -43q50 0 69 44 q9 20 15 65h66q0 -70 -10 -112q-30 -123 -156 -123q-32 0 -70 16q-22 10 -82 42q-83 45 -112 45q-75 0 -78 -113h-72z" />
<glyph unicode="&#xe4;" horiz-adv-x="1103" vert-adv-y="1497" d="M65 231q0 119 73 198q60 66 170 103q134 46 354 71v113q0 79 -18 112q-42 73 -170 73q-206 0 -206 -214v-49h-121v278q177 67 394 67q192 0 291 -65q65 -42 79 -113q10 -47 10 -153v-425q0 -72 5 -89q10 -45 54 -57q18 -6 60 -6h22v-75h-400v108q-49 -41 -102 -70 q-132 -72 -240 -72q-90 0 -163 60q-92 74 -92 205zM155 1241q0 44 38 74q39 30 92 30q49 0 88 -27q41 -28 41 -76q0 -41 -34 -72q-36 -32 -93 -32q-59 0 -99 33q-33 29 -33 70zM317 266q0 -74 25 -120q29 -55 90 -55q88 0 230 127v299q-155 -29 -237 -66q-62 -28 -86 -74 q-22 -42 -22 -111zM635 1241q0 44 38 74q39 30 92 30q49 0 88 -27q41 -28 41 -76q0 -41 -34 -72q-36 -32 -93 -32q-59 0 -99 33q-33 29 -33 70z" />
<glyph unicode="&#xe5;" horiz-adv-x="1103" vert-adv-y="1497" d="M65 231q0 119 73 198q60 66 170 103q134 46 354 71v113q0 79 -18 112q-42 73 -170 73q-206 0 -206 -214v-49h-121v278q177 67 394 67q192 0 291 -65q65 -42 79 -113q10 -47 10 -153v-425q0 -72 5 -89q10 -45 54 -57q18 -6 60 -6h22v-75h-400v108q-49 -41 -102 -70 q-132 -72 -240 -72q-90 0 -163 60q-92 74 -92 205zM317 266q0 -74 25 -120q29 -55 90 -55q88 0 230 127v299q-155 -29 -237 -66q-62 -28 -86 -74q-22 -42 -22 -111zM367 1243q0 80 52 124t135 44q78 0 130 -44t52 -123t-52 -123t-133 -44t-132 44q-52 44 -52 122zM435 1242 q0 -43 29 -69q34 -31 87 -31t86 31q30 26 30 69q0 44 -30 70q-33 31 -88 31q-51 0 -85 -31q-29 -26 -29 -70z" />
<glyph unicode="&#xe6;" horiz-adv-x="1573" vert-adv-y="1497" d="M65 230q0 338 416 338h149q1 14 1 49q0 27 1 49q3 53 3 76q0 89 -66 129q-51 30 -117 30q-96 0 -145 -63q-40 -51 -40 -164v-38h-133v273q177 74 374 74q183 0 302 -75q122 75 269 75q198 0 307 -122q81 -92 89 -269q1 -36 2 -120h-579q0 -129 13 -206q18 -107 66 -156 q61 -62 148 -62q100 0 149 79q41 66 41 176v37h130v-287q-182 -87 -352 -87q-261 0 -373 159q-206 -163 -405 -163q-139 0 -207 103q-43 65 -43 165zM306 248q0 -74 25 -115q32 -53 85 -53q93 0 256 134q-46 110 -46 258h-40q-127 0 -172 -18q-108 -45 -108 -206zM899 568 h349q0 161 -15 210q-21 68 -70 99q-38 24 -80 24q-64 0 -111 -49q-52 -54 -66 -184q-4 -38 -7 -100z" />
<glyph unicode="&#xe7;" horiz-adv-x="976" vert-adv-y="1497" d="M85 482q0 257 132 381q127 120 350 120q187 0 337 -73v-281h-128v30q0 242 -191 242q-142 0 -190 -114q-27 -66 -31 -148q-3 -56 -3 -127q0 -244 30 -334q20 -57 71 -94q51 -36 117 -36q89 0 142 69q55 72 55 212v11h128v-287q-177 -87 -381 -87q-224 0 -327 122 q-111 132 -111 394zM368 -398l35 61q33 -14 61 -14q49 0 79 29q27 26 27 61q0 39 -31 66q-29 27 -69 27q-25 0 -67 -13l-22 59q64 27 118 27q80 0 136 -47q52 -44 52 -116q0 -69 -50 -117q-54 -51 -140 -51q-50 0 -129 28z" />
<glyph unicode="&#xe8;" horiz-adv-x="1025" vert-adv-y="1497" d="M85 476q0 231 105 365q111 142 332 142q213 0 318 -122q79 -93 87 -270q1 -35 2 -119h-579q0 -129 13 -206q18 -107 66 -156q62 -62 148 -62q100 0 149 79q41 66 41 176v37h130v-287q-178 -87 -346 -87q-238 0 -349 130q-117 137 -117 380zM352 568h348q0 161 -15 210 q-21 68 -70 99q-38 24 -80 24q-64 0 -111 -49q-52 -54 -66 -183q-4 -39 -6 -101zM219 1379h265l117 -266h-125z" />
<glyph unicode="&#xe9;" horiz-adv-x="1025" vert-adv-y="1497" d="M85 476q0 231 105 365q111 142 332 142q213 0 318 -122q79 -93 87 -270q1 -35 2 -119h-579q0 -129 13 -206q18 -107 66 -156q62 -62 148 -62q100 0 149 79q41 66 41 176v37h130v-287q-178 -87 -346 -87q-238 0 -349 130q-117 137 -117 380zM352 568h348q0 161 -15 210 q-21 68 -70 99q-38 24 -80 24q-64 0 -111 -49q-52 -54 -66 -183q-4 -39 -6 -101zM424 1113l117 266h265l-257 -266h-125z" />
<glyph unicode="&#xea;" horiz-adv-x="1025" vert-adv-y="1497" d="M85 476q0 231 105 365q111 142 332 142q213 0 318 -122q79 -93 87 -270q1 -35 2 -119h-579q0 -129 13 -206q18 -107 66 -156q62 -62 148 -62q100 0 149 79q41 66 41 176v37h130v-287q-178 -87 -346 -87q-238 0 -349 130q-117 137 -117 380zM352 568h348q0 161 -15 210 q-21 68 -70 99q-38 24 -80 24q-64 0 -111 -49q-52 -54 -66 -183q-4 -39 -6 -101zM179 1113l176 266h318l173 -266h-157l-178 185l-176 -185h-156z" />
<glyph unicode="&#xeb;" horiz-adv-x="1025" vert-adv-y="1497" d="M85 476q0 231 105 365q111 142 332 142q213 0 318 -122q79 -93 87 -270q1 -35 2 -119h-579q0 -129 13 -206q18 -107 66 -156q62 -62 148 -62q100 0 149 79q41 66 41 176v37h130v-287q-178 -87 -346 -87q-238 0 -349 130q-117 137 -117 380zM156 1241q0 44 38 74 q39 30 92 30q49 0 88 -27q41 -28 41 -76q0 -41 -34 -72q-36 -32 -93 -32q-59 0 -99 33q-33 29 -33 70zM352 568h348q0 161 -15 210q-21 68 -70 99q-38 24 -80 24q-64 0 -111 -49q-52 -54 -66 -183q-4 -39 -6 -101zM609 1241q0 44 38 74q39 30 92 30q49 0 88 -27 q41 -28 41 -76q0 -41 -34 -72q-36 -32 -93 -32q-59 0 -99 33q-33 29 -33 70z" />
<glyph unicode="&#xec;" horiz-adv-x="610" vert-adv-y="1497" d="M41 0v75h15q75 0 100 31q15 19 18 56q1 20 1 65v494q0 72 -5 89q-10 45 -54 58q-18 5 -60 5h-15v75l393 1v-722q0 -72 5 -89q10 -45 53 -57q18 -6 61 -6h15v-75h-527zM11 1379h265l117 -266h-125z" />
<glyph unicode="&#xed;" horiz-adv-x="610" vert-adv-y="1497" d="M41 0v75h15q75 0 100 31q15 19 18 56q1 20 1 65v494q0 72 -5 89q-10 45 -54 58q-18 5 -60 5h-15v75l393 1v-722q0 -72 5 -89q10 -45 53 -57q18 -6 61 -6h15v-75h-527zM162 1113l117 266h265l-257 -266h-125z" />
<glyph unicode="&#xee;" horiz-adv-x="609" vert-adv-y="1497" d="M26 1113l135 266h291l131 -266h-156l-123 185l-122 -185h-156zM41 0v75h15q75 0 100 31q15 19 18 56q1 20 1 65v494q0 72 -5 89q-10 45 -54 58q-18 5 -60 5h-15v75l393 1v-722q0 -72 5 -89q10 -45 53 -57q18 -6 61 -6h15v-75h-527z" />
<glyph unicode="&#xef;" horiz-adv-x="609" vert-adv-y="1497" d="M41 0v75h15q75 0 100 31q15 19 18 56q1 20 1 65v494q0 72 -5 89q-10 45 -54 58q-18 5 -60 5h-15v75l393 1v-722q0 -72 5 -89q10 -45 53 -57q18 -6 61 -6h15v-75h-527zM24 1244q0 45 31 76q32 31 76 31q41 0 72 -28q34 -30 34 -78q0 -42 -28 -74q-30 -33 -77 -33 q-49 0 -81 34q-27 30 -27 72zM368 1244q0 45 31 76q32 31 76 31q41 0 72 -28q34 -30 34 -78q0 -42 -28 -74q-30 -33 -77 -33q-49 0 -80 34q-28 30 -28 72z" />
<glyph unicode="&#xf0;" horiz-adv-x="1099" vert-adv-y="1497" d="M85 484q0 264 119 383q117 116 330 116q12 0 36 -1q-68 83 -158 182l-214 -124l-38 65l201 116q-92 100 -141 158h154l96 -95l232 134l37 -65l-214 -124l77 -74q243 -236 333 -362q58 -80 72 -183q6 -42 6 -113q0 -171 -30 -262q-89 -269 -442 -269q-291 0 -392 186 q-64 118 -64 332zM351 475q0 -266 37 -339q46 -88 162 -88q127 0 170 105q30 73 30 326q0 261 -37 334q-46 88 -165 88q-124 0 -167 -105q-30 -73 -30 -321z" />
<glyph unicode="&#xf1;" horiz-adv-x="1220" vert-adv-y="1497" d="M41 0v75h15q75 0 100 31q15 19 18 56q1 20 1 65v494q0 72 -5 89q-10 45 -54 58q-18 5 -60 5h-15v75l393 1v-110q171 144 349 144q128 0 200 -75q46 -48 55 -111q7 -47 7 -117v-453q0 -72 5 -89q10 -45 54 -57q18 -6 60 -6h15v-75h-393v697q0 80 -13 109q-22 47 -84 47 q-83 0 -174 -65q-43 -30 -81 -79v-482q0 -72 5 -89q10 -45 53 -57q18 -6 61 -6h15v-75h-527zM279 1118q1 95 23 145q20 42 59 68q40 25 85 25q39 0 88 -23q19 -9 68 -36q79 -43 107 -43q50 0 69 44q9 20 15 65h66q0 -70 -10 -112q-30 -123 -156 -123q-32 0 -70 16 q-22 10 -82 42q-83 45 -112 45q-75 0 -78 -113h-72z" />
<glyph unicode="&#xf2;" horiz-adv-x="1099" vert-adv-y="1497" d="M85 485q0 264 119 382q117 116 347 116q250 0 363 -132q52 -61 74 -138q25 -88 25 -230q0 -269 -109 -389q-116 -128 -363 -128q-291 0 -392 186q-64 118 -64 333zM351 475q0 -266 37 -339q46 -88 162 -88q127 0 170 105q30 73 30 326q0 261 -37 334q-46 88 -165 88 q-124 0 -167 -105q-30 -73 -30 -321zM256 1379h265l117 -266h-125z" />
<glyph unicode="&#xf3;" horiz-adv-x="1099" vert-adv-y="1497" d="M85 485q0 264 119 382q117 116 347 116q250 0 363 -132q52 -61 74 -138q25 -88 25 -230q0 -269 -109 -389q-116 -128 -363 -128q-291 0 -392 186q-64 118 -64 333zM351 475q0 -266 37 -339q46 -88 162 -88q127 0 170 105q30 73 30 326q0 261 -37 334q-46 88 -165 88 q-124 0 -167 -105q-30 -73 -30 -321zM461 1113l117 266h265l-257 -266h-125z" />
<glyph unicode="&#xf4;" horiz-adv-x="1099" vert-adv-y="1497" d="M85 485q0 264 119 382q117 116 347 116q250 0 363 -132q52 -61 74 -138q25 -88 25 -230q0 -269 -109 -389q-116 -128 -363 -128q-291 0 -392 186q-64 118 -64 333zM351 475q0 -266 37 -339q46 -88 162 -88q127 0 170 105q30 73 30 326q0 261 -37 334q-46 88 -165 88 q-124 0 -167 -105q-30 -73 -30 -321zM216 1113l176 266h318l173 -266h-157l-178 185l-176 -185h-156z" />
<glyph unicode="&#xf5;" horiz-adv-x="1099" vert-adv-y="1497" d="M85 485q0 264 119 382q117 116 347 116q250 0 363 -132q52 -61 74 -138q25 -88 25 -230q0 -269 -109 -389q-116 -128 -363 -128q-291 0 -392 186q-64 118 -64 333zM351 475q0 -266 37 -339q46 -88 162 -88q127 0 170 105q30 73 30 326q0 261 -37 334q-46 88 -165 88 q-124 0 -167 -105q-30 -73 -30 -321zM259 1118q1 95 23 145q20 42 59 68q40 25 85 25q39 0 88 -23q19 -9 68 -36q79 -43 107 -43q50 0 69 44q9 20 15 65h66q0 -70 -10 -112q-30 -123 -156 -123q-32 0 -70 16q-22 10 -82 42q-83 45 -112 45q-75 0 -78 -113h-72z" />
<glyph unicode="&#xf6;" horiz-adv-x="1099" vert-adv-y="1497" d="M85 485q0 264 119 382q117 116 347 116q250 0 363 -132q52 -61 74 -138q25 -88 25 -230q0 -269 -109 -389q-116 -128 -363 -128q-291 0 -392 186q-64 118 -64 333zM351 475q0 -266 37 -339q46 -88 162 -88q127 0 170 105q30 73 30 326q0 261 -37 334q-46 88 -165 88 q-124 0 -167 -105q-30 -73 -30 -321zM152 1241q0 44 38 74q39 30 92 30q49 0 88 -27q41 -28 41 -76q0 -41 -34 -72q-36 -32 -93 -32q-59 0 -99 33q-33 29 -33 70zM687 1241q0 44 38 74q39 30 92 30q49 0 88 -27q41 -28 41 -76q0 -41 -34 -72q-36 -32 -93 -32q-59 0 -99 33 q-33 29 -33 70z" />
<glyph unicode="&#xf7;" horiz-adv-x="1161" vert-adv-y="1497" d="M61 618v129h1038v-129h-1038zM441 288q0 50 38 86q41 39 105 39q61 0 100 -40q36 -37 36 -86q0 -46 -35 -83q-42 -42 -103 -42q-63 0 -104 42q-37 38 -37 84zM441 1078q0 50 38 86q41 39 105 39q61 0 100 -40q36 -37 36 -86q0 -46 -35 -83q-42 -42 -103 -42 q-63 0 -104 42q-37 38 -37 84z" />
<glyph unicode="&#xf8;" horiz-adv-x="1099" vert-adv-y="1497" d="M85 483q0 265 119 383q117 117 341 117q184 0 302 -73l70 83l85 -67l-76 -90q38 -52 54 -99q33 -90 33 -255q0 -268 -109 -388q-116 -128 -360 -128q-177 0 -293 72l-70 -82l-84 66l76 91q-88 128 -88 370zM351 474q0 -72 2 -148l376 444q-16 49 -36 72q-49 59 -143 59 q-126 0 -169 -105q-30 -73 -30 -322zM371 180q16 -49 36 -74q49 -58 143 -58q127 0 170 105q30 73 30 324q0 80 -3 148z" />
<glyph unicode="&#xf9;" horiz-adv-x="1220" vert-adv-y="1497" d="M41 873v75l393 1v-670q0 -98 15 -131q21 -46 89 -46q125 0 248 137v482q0 72 -5 89q-10 45 -53 58q-18 5 -61 5h-15v75l393 1v-722q0 -72 5 -89q10 -45 54 -57q18 -6 60 -6h15v-75h-393v109q-93 -69 -171 -106t-166 -37q-135 0 -211 79q-50 52 -59 120q-4 38 -4 103v453 q0 72 -5 89q-10 45 -54 58q-18 5 -60 5h-15zM317 1379h265l117 -266h-125z" />
<glyph unicode="&#xfa;" horiz-adv-x="1220" vert-adv-y="1497" d="M41 873v75l393 1v-670q0 -98 15 -131q21 -46 89 -46q125 0 248 137v482q0 72 -5 89q-10 45 -53 58q-18 5 -61 5h-15v75l393 1v-722q0 -72 5 -89q10 -45 54 -57q18 -6 60 -6h15v-75h-393v109q-93 -69 -171 -106t-166 -37q-135 0 -211 79q-50 52 -59 120q-4 38 -4 103v453 q0 72 -5 89q-10 45 -54 58q-18 5 -60 5h-15zM481 1113l117 266h265l-257 -266h-125z" />
<glyph unicode="&#xfb;" horiz-adv-x="1220" vert-adv-y="1497" d="M41 873v75l393 1v-670q0 -98 15 -131q21 -46 89 -46q125 0 248 137v482q0 72 -5 89q-10 45 -53 58q-18 5 -61 5h-15v75l393 1v-722q0 -72 5 -89q10 -45 54 -57q18 -6 60 -6h15v-75h-393v109q-93 -69 -171 -106t-166 -37q-135 0 -211 79q-50 52 -59 120q-4 38 -4 103v453 q0 72 -5 89q-10 45 -54 58q-18 5 -60 5h-15zM277 1113l176 266h318l173 -266h-157l-178 185l-176 -185h-156z" />
<glyph unicode="&#xfc;" horiz-adv-x="1220" vert-adv-y="1497" d="M41 873v75l393 1v-670q0 -98 15 -131q21 -46 89 -46q125 0 248 137v482q0 72 -5 89q-10 45 -53 58q-18 5 -61 5h-15v75l393 1v-722q0 -72 5 -89q10 -45 54 -57q18 -6 60 -6h15v-75h-393v109q-93 -69 -171 -106t-166 -37q-135 0 -211 79q-50 52 -59 120q-4 38 -4 103v453 q0 72 -5 89q-10 45 -54 58q-18 5 -60 5h-15zM213 1241q0 44 38 74q39 30 92 30q49 0 88 -27q41 -28 41 -76q0 -41 -34 -72q-36 -32 -93 -32q-59 0 -99 33q-33 29 -33 70zM748 1241q0 44 38 74q39 30 92 30q49 0 88 -27q41 -28 41 -76q0 -41 -34 -72q-36 -32 -93 -32 q-59 0 -99 33q-33 29 -33 70z" />
<glyph unicode="&#xfd;" horiz-adv-x="1168" vert-adv-y="1497" d="M38 874v75h548v-75h-57q-36 0 -52 -6q-18 -7 -18 -38q0 -19 23 -88l180 -535l186 507q30 83 30 108q0 41 -35 48q-19 4 -57 4h-19v75h364v-75h-15q-60 0 -88 -17q-32 -22 -59 -91l-282 -756q-70 -187 -91 -230q-55 -111 -119 -158q-63 -45 -147 -45q-103 0 -218 38v245 h122v-13q0 -164 119 -164q63 0 112 56q28 33 61 109l13 32l-337 900q-22 58 -52 77q-26 16 -100 17h-12zM537 1113l117 266h265l-257 -266h-125z" />
<glyph unicode="&#xfe;" horiz-adv-x="1175" vert-adv-y="1497" d="M41 -355h15q75 0 100 31q15 19 18 56q1 20 1 65v1354q0 72 -5 90q-10 45 -54 57q-18 6 -60 6h-15v75h393v-522q114 126 297 126q177 0 270 -131q88 -123 88 -374q0 -225 -66 -348q-45 -83 -130 -125q-79 -39 -176 -39q-154 0 -283 107v-276q0 -72 5 -89q10 -45 53 -57 q18 -6 61 -6h22v-75h-534v75zM434 186q91 -118 211 -118q102 0 141 122q32 102 32 280q0 212 -32 302q-37 102 -136 102q-109 0 -216 -114v-574z" />
<glyph unicode="&#xff;" horiz-adv-x="1168" vert-adv-y="1497" d="M38 874v75h548v-75h-57q-36 0 -52 -6q-18 -7 -18 -38q0 -19 23 -88l180 -535l186 507q30 83 30 108q0 41 -35 48q-19 4 -57 4h-19v75h364v-75h-15q-60 0 -88 -17q-32 -22 -59 -91l-282 -756q-70 -187 -91 -230q-55 -111 -119 -158q-63 -45 -147 -45q-103 0 -218 38v245 h122v-13q0 -164 119 -164q63 0 112 56q28 33 61 109l13 32l-337 900q-22 58 -52 77q-26 16 -100 17h-12zM228 1241q0 44 38 74q39 30 92 30q49 0 88 -27q41 -28 41 -76q0 -41 -34 -72q-36 -32 -93 -32q-59 0 -99 33q-33 29 -33 70zM763 1241q0 44 38 74q39 30 92 30 q49 0 88 -27q41 -28 41 -76q0 -41 -34 -72q-36 -32 -93 -32q-59 0 -99 33q-33 29 -33 70z" />
<glyph unicode="&#x131;" horiz-adv-x="609" vert-adv-y="1497" d="M41 0v75h15q75 0 100 31q15 19 18 56q1 20 1 65v494q0 72 -5 89q-10 45 -54 58q-18 5 -60 5h-15v75l393 1v-722q0 -72 5 -89q10 -45 53 -57q18 -6 61 -6h15v-75h-527z" />
<glyph unicode="&#x152;" horiz-adv-x="1909" vert-adv-y="1497" d="M89 679q0 256 31 379q86 341 503 341q72 0 179 -12q191 -21 261 -22h747v-341h-133v104q-1 96 -43 129q-28 22 -69 25q-20 1 -64 1h-201q-53 0 -75 -18q-26 -23 -27 -87v-355q0 -39 7 -49q9 -13 47 -13h139q77 0 101 22q22 21 23 84v61h102v-416h-102v38q0 72 -23 101 q-22 28 -89 28h-155q-30 0 -40 -6q-10 -9 -10 -44v-422q0 -68 6 -82q11 -30 46 -38q21 -5 63 -5h240q68 0 97 15q50 24 63 86q5 27 5 91v129h130v-403h-790q-107 -2 -274 -23q-89 -11 -159 -11q-168 0 -293 64q-167 86 -214 277q-29 119 -29 372zM376 681q0 -209 7 -295 q17 -193 85 -269q63 -69 185 -69q121 0 184 69q68 76 85 269q7 82 7 308q0 340 -36 448q-32 100 -98 141q-56 34 -148 34q-115 0 -179 -69q-68 -75 -85 -269q-7 -86 -7 -298z" />
<glyph unicode="&#x153;" horiz-adv-x="1684" vert-adv-y="1497" d="M84 484q0 265 119 383q118 116 341 116q145 0 255 -52q37 -17 84 -49q47 36 84 54q94 47 219 47q206 0 312 -122q79 -93 87 -270q1 -35 2 -119h-579q0 -129 13 -206q18 -107 66 -156q62 -62 148 -62q100 0 149 79q41 66 41 176v37h130v-287q-179 -87 -343 -87 q-114 0 -210 34q-43 15 -98 55q-13 9 -23 16q-148 -105 -345 -105q-287 0 -388 186q-64 118 -64 332zM350 475q0 -266 38 -339q45 -88 161 -88q127 0 170 105q30 73 30 326q0 261 -37 334q-46 88 -165 88q-124 0 -167 -105q-30 -73 -30 -321zM1010 568h348q0 161 -15 210 q-21 68 -70 99q-38 24 -80 24q-64 0 -111 -49q-52 -54 -66 -183q-4 -39 -6 -101z" />
<glyph unicode="&#x178;" horiz-adv-x="1356" vert-adv-y="1497" d="M34 1283v82h570v-82h-24q-88 0 -88 -36q0 -13 25 -66l227 -471l271 475q20 36 20 61q0 37 -64 37h-38v82h389v-82h-16q-56 0 -83 -11q-34 -14 -68 -72l-367 -628v-345q0 -89 19 -115q17 -24 51 -28q16 -2 49 -2h33v-82h-577v82h33q46 0 66.5 6t33.5 24q19 26 19 115v331 l-288 582q-45 89 -99 121q-36 22 -87 22h-7zM354 1634q0 53 39 88q43 39 102 39q56 0 98 -39q39 -36 39 -87q0 -52 -39 -89q-41 -39 -100 -39q-60 0 -100 39q-39 37 -39 88zM886 1634q0 53 39 88q43 39 102 39q56 0 98 -39q39 -36 39 -87q0 -52 -39 -89q-41 -39 -100 -39 q-60 0 -100 39q-39 37 -39 88z" />
<glyph unicode="&#x2c6;" vert-adv-y="1497" d="M179 1113l176 266h318l173 -266h-157l-178 185l-176 -185h-156z" />
<glyph unicode="&#x2da;" vert-adv-y="1497" d="M328 1243q0 80 52 124t135 44q78 0 130 -44t52 -123t-52 -123t-133 -44t-132 44q-52 44 -52 122zM396 1242q0 -43 29 -69q34 -31 87 -31t86 31q30 26 30 69q0 44 -30 70q-33 31 -88 31q-51 0 -85 -31q-29 -26 -29 -70z" />
<glyph unicode="&#x2dc;" vert-adv-y="1497" d="M222 1118q1 95 23 145q20 42 59 68q40 25 85 25q39 0 88 -23q19 -9 68 -36q79 -43 107 -43q50 0 69 44q9 20 15 65h66q0 -70 -10 -112q-30 -123 -156 -123q-32 0 -70 16q-22 10 -82 42q-83 45 -112 45q-75 0 -78 -113h-72z" />
<glyph unicode="&#x2000;" horiz-adv-x="910" vert-adv-y="0" />
<glyph unicode="&#x2001;" horiz-adv-x="1821" vert-adv-y="0" />
<glyph unicode="&#x2002;" horiz-adv-x="910" vert-adv-y="0" />
<glyph unicode="&#x2003;" horiz-adv-x="1821" vert-adv-y="0" />
<glyph unicode="&#x2004;" horiz-adv-x="607" vert-adv-y="0" />
<glyph unicode="&#x2005;" horiz-adv-x="455" vert-adv-y="0" />
<glyph unicode="&#x2006;" horiz-adv-x="303" vert-adv-y="0" />
<glyph unicode="&#x2007;" horiz-adv-x="303" vert-adv-y="0" />
<glyph unicode="&#x2008;" horiz-adv-x="227" vert-adv-y="0" />
<glyph unicode="&#x2009;" horiz-adv-x="364" vert-adv-y="0" />
<glyph unicode="&#x200a;" horiz-adv-x="101" vert-adv-y="0" />
<glyph unicode="&#x2010;" horiz-adv-x="471" vert-adv-y="1497" d="M0 416v198h471v-198h-471z" />
<glyph unicode="&#x2011;" horiz-adv-x="471" vert-adv-y="1497" d="M0 416v198h471v-198h-471z" />
<glyph unicode="&#x2012;" horiz-adv-x="471" vert-adv-y="1497" d="M0 416v198h471v-198h-471z" />
<glyph unicode="&#x2013;" horiz-adv-x="1161" vert-adv-y="1497" d="M96 416v198h969v-198h-969z" />
<glyph unicode="&#x2014;" horiz-adv-x="1604" vert-adv-y="1497" d="M96 416v198h1413v-198h-1413z" />
<glyph unicode="&#x2018;" horiz-adv-x="561" vert-adv-y="1497" d="M75 869l254 496h157l-150 -496h-261z" />
<glyph unicode="&#x2019;" horiz-adv-x="561" vert-adv-y="1497" d="M75 869l150 496h261l-254 -496h-157z" />
<glyph unicode="&#x201a;" horiz-adv-x="561" vert-adv-y="1497" d="M75 -217l150 496h261l-254 -496h-157z" />
<glyph unicode="&#x201c;" horiz-adv-x="973" vert-adv-y="1497" d="M75 869l254 496h157l-150 -496h-261zM487 869l254 496h157l-150 -496h-261z" />
<glyph unicode="&#x201d;" horiz-adv-x="973" vert-adv-y="1497" d="M75 869l150 496h261l-254 -496h-157zM487 869l151 496h260l-253 -496h-158z" />
<glyph unicode="&#x201e;" horiz-adv-x="973" vert-adv-y="1497" d="M75 -226l150 496h261l-254 -496h-157zM487 -226l151 496h260l-253 -496h-158z" />
<glyph unicode="&#x2022;" horiz-adv-x="1365" vert-adv-y="1497" d="M401 694q0 121 84 202q86 82 204 82q113 0 196 -83q84 -83 84 -201t-83 -201t-201 -83q-116 0 -199 82q-85 84 -85 202z" />
<glyph unicode="&#x2026;" horiz-adv-x="1451" vert-adv-y="1497" d="M102 93q0 49 38 85q41 40 105 40q61 0 100 -40q36 -37 36 -86q0 -47 -35 -84q-42 -42 -103 -42q-63 0 -104 42q-37 38 -37 85zM586 93q0 49 37 85q42 40 106 40q60 0 99 -40q36 -37 36 -86q0 -47 -35 -84q-41 -42 -103 -42t-104 42q-36 38 -36 85zM1069 93q0 49 38 85 q41 40 105 40q61 0 100 -40q36 -37 36 -86q0 -47 -35 -84q-41 -42 -103 -42q-63 0 -104 42q-37 38 -37 85z" />
<glyph unicode="&#x202f;" horiz-adv-x="364" vert-adv-y="0" />
<glyph unicode="&#x2039;" horiz-adv-x="499" vert-adv-y="1497" d="M75 471l189 432h160l-158 -432l157 -428h-159z" />
<glyph unicode="&#x203a;" horiz-adv-x="499" vert-adv-y="1497" d="M75 43l158 432l-157 428h159l189 -429l-189 -431h-160z" />
<glyph unicode="&#x205f;" horiz-adv-x="455" vert-adv-y="0" />
<glyph unicode="&#x20ac;" horiz-adv-x="1093" vert-adv-y="1497" d="M-32 546l55 90h125q0 3 -1 20v2q0 25 4 82h-164l55 90h117q24 157 77 264q146 296 440 296q167 0 270 -113l50 110h45v-403h-56q-24 115 -54 175q-73 144 -221 144q-237 0 -308 -373q-10 -4 -12 -100h533l-41 -90h-497q-2 -41 -2 -64q0 -17 2 -40h449l-41 -90h-404 q6 -186 78 -317q78 -144 235 -144q146 0 257 100q35 31 81 93v-155q-58 -56 -108 -85q-110 -64 -252 -64q-296 0 -435 241q-76 131 -93 331h-184z" />
<glyph unicode="&#x2122;" horiz-adv-x="1744" vert-adv-y="1497" d="M24 1126v253h680v-253h-87v59q-1 65 -19 94q-24 37 -82 37h-16q-31 0 -39 -12q-9 -11 -9 -52v-563q0 -51 10 -65q13 -15 55 -15h27v-63h-360v63h27q42 0 54 15q10 14 10 65v563q0 41 -9 52q-8 12 -38 12h-16q-102 -1 -101 -131v-59h-87zM746 546v63h18q47 0 61 19 q12 19 12 86v525q0 48 -10 62q-13 15 -54 15h-27v63h255l230 -613l240 613h255v-63h-26q-42 0 -55 -15q-10 -14 -10 -66v-546q0 -51 10 -65q13 -15 55 -15h26v-63h-347v63h14q43 0 55 15q10 14 10 65v451l-227 -594h-104l-219 578v-410q0 -67 12 -86q14 -19 61 -19h18v-63 h-253z" />
<glyph unicode="&#xe000;" horiz-adv-x="950" vert-adv-y="1899" d="M0 950h950v-950h-950v950z" />
<glyph unicode="&#xea68;" vert-adv-y="1497" d="M175 1634q0 53 39 88q43 39 102 39q56 0 98 -39q39 -36 39 -87q0 -52 -39 -89q-41 -39 -100 -39q-60 0 -100 39q-39 37 -39 88zM570 1634q0 53 39 88q43 39 102 39q57 0 99 -39q39 -36 39 -87q0 -52 -39 -89q-41 -39 -101 -39q-59 0 -100 39q-39 37 -39 88z" />
<glyph unicode="&#xea6a;" vert-adv-y="1497" d="M231 1244q0 45 31 76q32 31 76 31q41 0 72 -28q34 -30 34 -78q0 -42 -28 -74q-30 -33 -77 -33q-49 0 -81 34q-27 30 -27 72zM575 1244q0 45 31 76q32 31 76 31q41 0 72 -28q34 -30 34 -78q0 -42 -28 -74q-30 -33 -77 -33q-49 0 -80 34q-28 30 -28 72z" />
<glyph unicode="&#xeff2;" vert-adv-y="1497" d="M390 -405l35 63q34 -15 63 -15q50 0 81 30q27 27 27 63q0 39 -31 68q-31 27 -71 27q-26 0 -69 -14l-22 60q65 28 121 28q82 0 139 -48q53 -45 53 -119q0 -70 -52 -119q-55 -52 -142 -52q-51 0 -132 28z" />
<glyph unicode="&#xeff3;" vert-adv-y="1497" d="M314 1640q0 86 56 134q56 47 145 47q84 0 139 -47q56 -48 56 -134q0 -84 -56 -133q-55 -47 -142 -47t-142 47q-56 49 -56 133zM396 1639q0 -43 29 -70q34 -30 87 -30q52 0 86 30q29 27 29 70t-29 70q-34 30 -88 30q-51 0 -85 -30q-29 -27 -29 -70z" />
<glyph unicode="&#xeff5;" vert-adv-y="1497" d="M181 1500q1 97 27 145q23 43 69 68t98 25q43 0 97 -22q21 -9 75 -35q86 -41 122 -41q54 0 76 42q11 19 18 63h80q-1 -71 -13 -112q-35 -123 -183 -123q-36 0 -76 15q-25 10 -90 40q-91 44 -123 44q-88 0 -91 -109h-86z" />
<glyph unicode="&#xeff6;" vert-adv-y="1497" d="M107 1634q0 53 39 88q43 39 102 39q56 0 98 -39q39 -36 39 -87q0 -52 -39 -89q-41 -39 -100 -39q-60 0 -100 39q-39 37 -39 88zM639 1634q0 53 39 88q43 39 102 39q56 0 98 -39q39 -36 39 -87q0 -52 -39 -89q-41 -39 -100 -39q-60 0 -100 39q-39 37 -39 88z" />
<glyph unicode="&#xeff7;" vert-adv-y="1497" d="M110 1495l244 266h318l241 -266h-156l-246 178l-245 -178h-156z" />
<glyph unicode="&#xeff8;" vert-adv-y="1497" d="M219 1761h265l117 -266h-125z" />
<glyph unicode="&#xeff9;" vert-adv-y="1497" d="M423 1495l117 266h265l-257 -266h-125z" />
<glyph unicode="&#xfb01;" horiz-adv-x="1246" vert-adv-y="1497" d="M678 0v75h15q75 0 100 31q15 19 18 56q1 20 1 65v494q0 72 -5 89q-10 45 -54 58q-18 5 -60 5h-15v75l393 1v-722q0 -72 5 -89q10 -45 53 -57q18 -6 61 -6h15v-75h-527zM800 1252q0 53 39 88q43 39 102 39q56 0 98 -39q39 -36 39 -87q0 -52 -39 -89q-41 -39 -100 -39 q-60 0 -100 39q-39 37 -39 88zM40 874v75h139l-9 84q-2 17 -2 63q0 168 110 249q92 68 235 68q120 0 241 -51v-256h-121v35q0 100 -21 142q-25 48 -84 48q-67 0 -98 -61q-18 -34 -18 -114q0 -72 11 -138l11 -69h136v-75h-136v-647q0 -72 5 -89q10 -45 54 -57q18 -6 60 -6h22 v-75h-534v75h15q75 0 100 31q15 19 18 56q1 20 1 65v647h-135z" />
<glyph unicode="&#xfb02;" horiz-adv-x="1246" vert-adv-y="1497" d="M678 0v75h15q75 0 100 31q15 19 18 56q1 20 1 65v924q0 72 -5 90q-10 45 -54 57q-18 6 -60 6h-15v75h393v-1152q0 -72 5 -89q10 -45 53 -57q18 -6 61 -6h15v-75h-527zM40 874v75h139l-9 84q-2 17 -2 63q0 168 110 249q92 68 235 68q120 0 241 -51v-256h-121v35 q0 100 -21 142q-25 48 -84 48q-67 0 -98 -61q-18 -34 -18 -114q0 -72 11 -138l11 -69h136v-75h-136v-647q0 -72 5 -89q10 -45 54 -57q18 -6 60 -6h22v-75h-534v75h15q75 0 100 31q15 19 18 56q1 20 1 65v647h-135z" />
<glyph unicode="&#xfb03;" horiz-adv-x="1883" vert-adv-y="1497" d="M1315 0v75h15q75 0 100 31q15 19 18 56q1 20 1 65v494q0 72 -5 89q-10 45 -54 58q-18 5 -60 5h-15v75l393 1v-722q0 -72 5 -89q10 -45 53 -57q18 -6 61 -6h15v-75h-527zM1437 1252q0 53 39 88q43 39 102 39q56 0 98 -39q39 -36 39 -87q0 -52 -39 -89q-41 -39 -100 -39 q-60 0 -100 39q-39 37 -39 88zM677 874v75h139l-9 84q-2 17 -2 63q0 168 110 249q92 68 235 68q120 0 241 -51v-256h-121v35q0 100 -21 142q-25 48 -84 48q-67 0 -98 -61q-18 -34 -18 -114q0 -72 11 -138l11 -69h136v-75h-136v-647q0 -72 5 -89q10 -45 54 -57q18 -6 60 -6 h22v-75h-534v75h15q75 0 100 31q15 19 18 56q1 20 1 65v647h-135zM40 874v75h139l-9 84q-2 17 -2 63q0 168 110 249q92 68 235 68q120 0 241 -51v-256h-121v35q0 100 -21 142q-25 48 -84 48q-67 0 -98 -61q-18 -34 -18 -114q0 -72 11 -138l11 -69h136v-75h-136v-647 q0 -72 5 -89q10 -45 54 -57q18 -6 60 -6h22v-75h-534v75h15q75 0 100 31q15 19 18 56q1 20 1 65v647h-135z" />
<glyph unicode="&#xfb04;" horiz-adv-x="1883" vert-adv-y="1497" d="M1315 0v75h15q75 0 100 31q15 19 18 56q1 20 1 65v924q0 72 -5 90q-10 45 -54 57q-18 6 -60 6h-15v75h393v-1152q0 -72 5 -89q10 -45 53 -57q18 -6 61 -6h15v-75h-527zM677 874v75h139l-9 84q-2 17 -2 63q0 168 110 249q92 68 235 68q120 0 241 -51v-256h-121v35 q0 100 -21 142q-25 48 -84 48q-67 0 -98 -61q-18 -34 -18 -114q0 -72 11 -138l11 -69h136v-75h-136v-647q0 -72 5 -89q10 -45 54 -57q18 -6 60 -6h22v-75h-534v75h15q75 0 100 31q15 19 18 56q1 20 1 65v647h-135zM40 874v75h139l-9 84q-2 17 -2 63q0 168 110 249 q92 68 235 68q120 0 241 -51v-256h-121v35q0 100 -21 142q-25 48 -84 48q-67 0 -98 -61q-18 -34 -18 -114q0 -72 11 -138l11 -69h136v-75h-136v-647q0 -72 5 -89q10 -45 54 -57q18 -6 60 -6h22v-75h-534v75h15q75 0 100 31q15 19 18 56q1 20 1 65v647h-135z" />
</font>
</defs>
</svg>
